<?xml version="1.0" encoding="utf-8" standalone="no"?>
<!DOCTYPE svg PUBLIC "-//W3C//DTD SVG 1.1//EN"
  "http://www.w3.org/Graphics/SVG/1.1/DTD/svg11.dtd">
<svg height="120.24pt" version="1.1" viewBox="0 0 319.68 120.24" width="319.68pt" xmlns="http://www.w3.org/2000/svg" xmlns:xlink="http://www.w3.org/1999/xlink">
 <metadata>
  <rdf:RDF xmlns:cc="http://creativecommons.org/ns#" xmlns:dc="http://purl.org/dc/elements/1.1/" xmlns:rdf="http://www.w3.org/1999/02/22-rdf-syntax-ns#">
   <cc:Work>
    <dc:type rdf:resource="http://purl.org/dc/dcmitype/StillImage"/>
    <dc:date>2022-08-11T19:16:44.344611</dc:date>
    <dc:format>image/svg+xml</dc:format>
    <dc:creator>
     <cc:Agent>
      <dc:title>Matplotlib v3.4.1, https://matplotlib.org/</dc:title>
     </cc:Agent>
    </dc:creator>
   </cc:Work>
  </rdf:RDF>
 </metadata>
 <defs>
  <style type="text/css">*{stroke-linecap:butt;stroke-linejoin:round;}</style>
 </defs>
 <g id="figure_1">
  <g id="patch_1">
   <path d="M 0 120.24 
L 319.68 120.24 
L 319.68 0 
L 0 0 
z
" style="fill:#ffffff;"/>
  </g>
  <g id="axes_1">
   <g id="patch_2">
    <path d="M 45.605 81.16 
L 308.88 81.16 
L 308.88 10.8 
L 45.605 10.8 
z
" style="fill:#ffffff;"/>
   </g>
   <g id="matplotlib.axis_1">
    <g id="xtick_1">
     <g id="line2d_1">
      <defs>
       <path d="M 0 0 
L 0 3.5 
" id="m04af784bbf" style="stroke:#000000;stroke-width:0.8;"/>
      </defs>
      <g>
       <use style="stroke:#000000;stroke-width:0.8;" x="57.572045" xlink:href="#m04af784bbf" y="81.16"/>
      </g>
     </g>
     <g id="text_1">
      <!-- 0 -->
      <g transform="translate(55.03767 94.961562)scale(0.1 -0.1)">
       <defs>
        <path d="M 3022 2031 
Q 3022 1566 2948 1181 
Q 2875 797 2704 520 
Q 2534 244 2259 92 
Q 1984 -59 1581 -59 
Q 1200 -59 939 77 
Q 678 213 518 477 
Q 359 741 292 1127 
Q 225 1513 225 2013 
Q 225 2475 300 2861 
Q 375 3247 544 3523 
Q 713 3800 988 3951 
Q 1263 4103 1663 4103 
Q 2047 4103 2308 3967 
Q 2569 3831 2728 3567 
Q 2888 3303 2955 2917 
Q 3022 2531 3022 2031 
z
M 2472 1994 
Q 2472 2297 2450 2537 
Q 2428 2778 2386 2962 
Q 2344 3147 2276 3280 
Q 2209 3413 2115 3498 
Q 2022 3584 1901 3623 
Q 1781 3663 1631 3663 
Q 1366 3663 1200 3538 
Q 1034 3413 939 3194 
Q 844 2975 809 2681 
Q 775 2388 775 2050 
Q 775 1597 822 1280 
Q 869 963 970 763 
Q 1072 563 1230 472 
Q 1388 381 1613 381 
Q 1788 381 1920 437 
Q 2053 494 2148 598 
Q 2244 703 2306 850 
Q 2369 997 2406 1175 
Q 2444 1353 2458 1561 
Q 2472 1769 2472 1994 
z
" id="Calibri-30" transform="scale(0.015625)"/>
       </defs>
       <use xlink:href="#Calibri-30"/>
      </g>
     </g>
    </g>
    <g id="xtick_2">
     <g id="line2d_2">
      <g>
       <use style="stroke:#000000;stroke-width:0.8;" x="81.506136" xlink:href="#m04af784bbf" y="81.16"/>
      </g>
     </g>
    </g>
    <g id="xtick_3">
     <g id="line2d_3">
      <g>
       <use style="stroke:#000000;stroke-width:0.8;" x="105.440227" xlink:href="#m04af784bbf" y="81.16"/>
      </g>
     </g>
     <g id="text_2">
      <!-- 200 -->
      <g transform="translate(97.837102 94.961562)scale(0.1 -0.1)">
       <defs>
        <path d="M 2888 231 
Q 2888 175 2880 131 
Q 2872 88 2858 58 
Q 2844 28 2820 14 
Q 2797 0 2769 0 
L 534 0 
Q 491 0 458 11 
Q 425 22 401 47 
Q 378 72 367 119 
Q 356 166 356 234 
Q 356 297 361 344 
Q 366 391 381 427 
Q 397 463 420 498 
Q 444 534 481 575 
L 1266 1406 
Q 1538 1694 1702 1922 
Q 1866 2150 1955 2337 
Q 2044 2525 2072 2678 
Q 2100 2831 2100 2966 
Q 2100 3100 2056 3220 
Q 2013 3341 1930 3431 
Q 1847 3522 1722 3575 
Q 1597 3628 1434 3628 
Q 1244 3628 1092 3575 
Q 941 3522 827 3459 
Q 713 3397 636 3344 
Q 559 3291 522 3291 
Q 500 3291 483 3303 
Q 466 3316 455 3344 
Q 444 3372 437 3419 
Q 431 3466 431 3531 
Q 431 3578 434 3612 
Q 438 3647 445 3672 
Q 453 3697 465 3719 
Q 478 3741 515 3773 
Q 553 3806 645 3862 
Q 738 3919 877 3973 
Q 1016 4028 1183 4065 
Q 1350 4103 1534 4103 
Q 1828 4103 2048 4020 
Q 2269 3938 2414 3794 
Q 2559 3650 2631 3459 
Q 2703 3269 2703 3053 
Q 2703 2859 2668 2667 
Q 2634 2475 2523 2251 
Q 2413 2028 2203 1754 
Q 1994 1481 1647 1125 
L 1006 456 
L 2766 456 
Q 2791 456 2814 442 
Q 2838 428 2855 400 
Q 2872 372 2880 330 
Q 2888 288 2888 231 
z
" id="Calibri-32" transform="scale(0.015625)"/>
       </defs>
       <use xlink:href="#Calibri-32"/>
       <use x="50.683594" xlink:href="#Calibri-30"/>
       <use x="101.367188" xlink:href="#Calibri-30"/>
      </g>
     </g>
    </g>
    <g id="xtick_4">
     <g id="line2d_4">
      <g>
       <use style="stroke:#000000;stroke-width:0.8;" x="129.374318" xlink:href="#m04af784bbf" y="81.16"/>
      </g>
     </g>
    </g>
    <g id="xtick_5">
     <g id="line2d_5">
      <g>
       <use style="stroke:#000000;stroke-width:0.8;" x="153.308409" xlink:href="#m04af784bbf" y="81.16"/>
      </g>
     </g>
     <g id="text_3">
      <!-- 400 -->
      <g transform="translate(145.705284 94.961562)scale(0.1 -0.1)">
       <defs>
        <path d="M 3059 1150 
Q 3059 1047 3028 987 
Q 2997 928 2941 928 
L 2484 928 
L 2484 78 
Q 2484 53 2471 36 
Q 2459 19 2428 6 
Q 2397 -6 2347 -12 
Q 2297 -19 2219 -19 
Q 2144 -19 2094 -12 
Q 2044 -6 2014 6 
Q 1984 19 1973 36 
Q 1963 53 1963 78 
L 1963 928 
L 294 928 
Q 256 928 231 937 
Q 206 947 186 972 
Q 166 997 158 1044 
Q 150 1091 150 1166 
Q 150 1225 153 1272 
Q 156 1319 165 1358 
Q 175 1397 190 1433 
Q 206 1469 228 1509 
L 1684 3966 
Q 1700 3991 1729 4009 
Q 1759 4028 1806 4040 
Q 1853 4053 1922 4058 
Q 1991 4063 2084 4063 
Q 2188 4063 2264 4055 
Q 2341 4047 2387 4034 
Q 2434 4022 2459 4001 
Q 2484 3981 2484 3953 
L 2484 1372 
L 2941 1372 
Q 2994 1372 3026 1317 
Q 3059 1263 3059 1150 
z
M 1963 3591 
L 1956 3591 
L 641 1372 
L 1963 1372 
L 1963 3591 
z
" id="Calibri-34" transform="scale(0.015625)"/>
       </defs>
       <use xlink:href="#Calibri-34"/>
       <use x="50.683594" xlink:href="#Calibri-30"/>
       <use x="101.367188" xlink:href="#Calibri-30"/>
      </g>
     </g>
    </g>
    <g id="xtick_6">
     <g id="line2d_6">
      <g>
       <use style="stroke:#000000;stroke-width:0.8;" x="177.2425" xlink:href="#m04af784bbf" y="81.16"/>
      </g>
     </g>
    </g>
    <g id="xtick_7">
     <g id="line2d_7">
      <g>
       <use style="stroke:#000000;stroke-width:0.8;" x="201.176591" xlink:href="#m04af784bbf" y="81.16"/>
      </g>
     </g>
     <g id="text_4">
      <!-- 600 -->
      <g transform="translate(193.573466 94.961562)scale(0.1 -0.1)">
       <defs>
        <path d="M 2991 1309 
Q 2991 1044 2909 795 
Q 2828 547 2659 358 
Q 2491 169 2231 55 
Q 1972 -59 1619 -59 
Q 1366 -59 1172 3 
Q 978 66 834 181 
Q 691 297 595 465 
Q 500 634 442 850 
Q 384 1066 359 1322 
Q 334 1578 334 1872 
Q 334 2131 362 2397 
Q 391 2663 462 2909 
Q 534 3156 657 3373 
Q 781 3591 967 3752 
Q 1153 3913 1412 4006 
Q 1672 4100 2016 4100 
Q 2131 4100 2250 4086 
Q 2369 4072 2469 4048 
Q 2569 4025 2637 3997 
Q 2706 3969 2728 3951 
Q 2750 3934 2761 3914 
Q 2772 3894 2778 3870 
Q 2784 3847 2787 3817 
Q 2791 3788 2791 3744 
Q 2791 3688 2789 3647 
Q 2788 3606 2777 3581 
Q 2766 3556 2748 3543 
Q 2731 3531 2703 3531 
Q 2669 3531 2609 3553 
Q 2550 3575 2465 3601 
Q 2381 3628 2261 3650 
Q 2141 3672 1981 3672 
Q 1691 3672 1481 3553 
Q 1272 3434 1139 3234 
Q 1006 3034 942 2770 
Q 878 2506 869 2219 
Q 950 2266 1051 2312 
Q 1153 2359 1273 2396 
Q 1394 2434 1528 2457 
Q 1663 2481 1816 2481 
Q 2144 2481 2369 2392 
Q 2594 2303 2733 2145 
Q 2872 1988 2931 1773 
Q 2991 1559 2991 1309 
z
M 2447 1259 
Q 2447 1441 2411 1589 
Q 2375 1738 2290 1841 
Q 2206 1944 2065 2000 
Q 1925 2056 1719 2056 
Q 1603 2056 1487 2036 
Q 1372 2016 1264 1980 
Q 1156 1944 1057 1895 
Q 959 1847 878 1791 
Q 878 1388 929 1116 
Q 981 844 1079 680 
Q 1178 516 1325 445 
Q 1472 375 1669 375 
Q 1869 375 2016 450 
Q 2163 525 2259 651 
Q 2356 778 2401 936 
Q 2447 1094 2447 1259 
z
" id="Calibri-36" transform="scale(0.015625)"/>
       </defs>
       <use xlink:href="#Calibri-36"/>
       <use x="50.683594" xlink:href="#Calibri-30"/>
       <use x="101.367188" xlink:href="#Calibri-30"/>
      </g>
     </g>
    </g>
    <g id="xtick_8">
     <g id="line2d_8">
      <g>
       <use style="stroke:#000000;stroke-width:0.8;" x="225.110682" xlink:href="#m04af784bbf" y="81.16"/>
      </g>
     </g>
    </g>
    <g id="xtick_9">
     <g id="line2d_9">
      <g>
       <use style="stroke:#000000;stroke-width:0.8;" x="249.044773" xlink:href="#m04af784bbf" y="81.16"/>
      </g>
     </g>
     <g id="text_5">
      <!-- 800 -->
      <g transform="translate(241.441648 94.961562)scale(0.1 -0.1)">
       <defs>
        <path d="M 2981 1038 
Q 2981 775 2887 570 
Q 2794 366 2617 225 
Q 2441 84 2181 12 
Q 1922 -59 1588 -59 
Q 1275 -59 1028 6 
Q 781 72 609 200 
Q 438 328 347 515 
Q 256 703 256 944 
Q 256 1134 318 1293 
Q 381 1453 498 1587 
Q 616 1722 787 1839 
Q 959 1956 1175 2063 
Q 988 2159 844 2267 
Q 700 2375 600 2501 
Q 500 2628 448 2772 
Q 397 2916 397 3084 
Q 397 3297 473 3483 
Q 550 3669 704 3806 
Q 859 3944 1098 4023 
Q 1338 4103 1656 4103 
Q 1963 4103 2186 4029 
Q 2409 3956 2554 3829 
Q 2700 3703 2769 3531 
Q 2838 3359 2838 3163 
Q 2838 3003 2786 2856 
Q 2734 2709 2634 2578 
Q 2534 2447 2389 2333 
Q 2244 2219 2056 2119 
Q 2278 2009 2451 1893 
Q 2625 1778 2742 1645 
Q 2859 1513 2920 1364 
Q 2981 1216 2981 1038 
z
M 2306 3113 
Q 2306 3244 2261 3350 
Q 2216 3456 2128 3531 
Q 2041 3606 1911 3645 
Q 1781 3684 1616 3684 
Q 1278 3684 1104 3531 
Q 931 3378 931 3113 
Q 931 2991 973 2886 
Q 1016 2781 1105 2687 
Q 1194 2594 1330 2505 
Q 1466 2416 1653 2319 
Q 1969 2481 2137 2678 
Q 2306 2875 2306 3113 
z
M 2438 981 
Q 2438 1125 2384 1242 
Q 2331 1359 2223 1461 
Q 2116 1563 1955 1658 
Q 1794 1753 1581 1856 
Q 1384 1759 1236 1662 
Q 1088 1566 992 1462 
Q 897 1359 848 1245 
Q 800 1131 800 994 
Q 800 691 1008 525 
Q 1216 359 1628 359 
Q 2028 359 2233 526 
Q 2438 694 2438 981 
z
" id="Calibri-38" transform="scale(0.015625)"/>
       </defs>
       <use xlink:href="#Calibri-38"/>
       <use x="50.683594" xlink:href="#Calibri-30"/>
       <use x="101.367188" xlink:href="#Calibri-30"/>
      </g>
     </g>
    </g>
    <g id="xtick_10">
     <g id="line2d_10">
      <g>
       <use style="stroke:#000000;stroke-width:0.8;" x="272.978864" xlink:href="#m04af784bbf" y="81.16"/>
      </g>
     </g>
    </g>
    <g id="xtick_11">
     <g id="line2d_11">
      <g>
       <use style="stroke:#000000;stroke-width:0.8;" x="296.912955" xlink:href="#m04af784bbf" y="81.16"/>
      </g>
     </g>
     <g id="text_6">
      <!-- 1000 -->
      <g transform="translate(286.775455 94.961562)scale(0.1 -0.1)">
       <defs>
        <path d="M 2897 213 
Q 2897 153 2887 112 
Q 2878 72 2862 47 
Q 2847 22 2826 11 
Q 2806 0 2784 0 
L 672 0 
Q 650 0 631 11 
Q 613 22 595 47 
Q 578 72 568 112 
Q 559 153 559 213 
Q 559 269 568 309 
Q 578 350 592 376 
Q 606 403 626 417 
Q 647 431 672 431 
L 1516 431 
L 1516 3506 
L 734 3041 
Q 675 3009 639 3003 
Q 603 2997 581 3017 
Q 559 3038 551 3084 
Q 544 3131 544 3203 
Q 544 3256 548 3293 
Q 553 3331 562 3356 
Q 572 3381 589 3400 
Q 606 3419 634 3438 
L 1566 4034 
Q 1578 4044 1597 4050 
Q 1616 4056 1644 4062 
Q 1672 4069 1709 4070 
Q 1747 4072 1803 4072 
Q 1878 4072 1928 4065 
Q 1978 4059 2006 4048 
Q 2034 4038 2043 4020 
Q 2053 4003 2053 3984 
L 2053 431 
L 2784 431 
Q 2809 431 2831 417 
Q 2853 403 2867 376 
Q 2881 350 2889 309 
Q 2897 269 2897 213 
z
" id="Calibri-31" transform="scale(0.015625)"/>
       </defs>
       <use xlink:href="#Calibri-31"/>
       <use x="50.683594" xlink:href="#Calibri-30"/>
       <use x="101.367188" xlink:href="#Calibri-30"/>
       <use x="152.050781" xlink:href="#Calibri-30"/>
      </g>
     </g>
    </g>
    <g id="text_7">
     <!-- Frecuencia [Hz] -->
     <g transform="translate(145.912813 107.54125)scale(0.1 -0.1)">
      <defs>
       <path d="M 2663 3813 
Q 2663 3753 2656 3709 
Q 2650 3666 2634 3639 
Q 2619 3613 2598 3600 
Q 2578 3588 2556 3588 
L 1075 3588 
L 1075 2213 
L 2475 2213 
Q 2497 2213 2517 2202 
Q 2538 2191 2553 2166 
Q 2569 2141 2575 2098 
Q 2581 2056 2581 1991 
Q 2581 1931 2575 1889 
Q 2569 1847 2553 1820 
Q 2538 1794 2517 1780 
Q 2497 1766 2475 1766 
L 1075 1766 
L 1075 81 
Q 1075 59 1062 39 
Q 1050 19 1019 8 
Q 988 -3 938 -11 
Q 888 -19 806 -19 
Q 731 -19 678 -11 
Q 625 -3 594 8 
Q 563 19 550 39 
Q 538 59 538 81 
L 538 3825 
Q 538 3947 602 3995 
Q 666 4044 738 4044 
L 2556 4044 
Q 2578 4044 2598 4031 
Q 2619 4019 2634 3991 
Q 2650 3963 2656 3917 
Q 2663 3872 2663 3813 
z
" id="Calibri-46" transform="scale(0.015625)"/>
       <path d="M 2122 2706 
Q 2122 2638 2119 2591 
Q 2116 2544 2106 2517 
Q 2097 2491 2083 2477 
Q 2069 2463 2044 2463 
Q 2019 2463 1983 2477 
Q 1947 2491 1901 2505 
Q 1856 2519 1800 2531 
Q 1744 2544 1678 2544 
Q 1600 2544 1525 2512 
Q 1450 2481 1367 2409 
Q 1284 2338 1193 2219 
Q 1103 2100 994 1928 
L 994 78 
Q 994 53 981 36 
Q 969 19 941 6 
Q 913 -6 863 -12 
Q 813 -19 734 -19 
Q 659 -19 609 -12 
Q 559 -6 529 6 
Q 500 19 489 36 
Q 478 53 478 78 
L 478 2891 
Q 478 2916 487 2933 
Q 497 2950 525 2964 
Q 553 2978 597 2983 
Q 641 2988 713 2988 
Q 781 2988 826 2983 
Q 872 2978 897 2964 
Q 922 2950 933 2933 
Q 944 2916 944 2891 
L 944 2481 
Q 1059 2650 1161 2756 
Q 1263 2863 1353 2923 
Q 1444 2984 1533 3007 
Q 1622 3031 1713 3031 
Q 1753 3031 1804 3026 
Q 1856 3022 1912 3009 
Q 1969 2997 2014 2981 
Q 2059 2966 2078 2950 
Q 2097 2934 2103 2920 
Q 2109 2906 2114 2884 
Q 2119 2863 2120 2820 
Q 2122 2778 2122 2706 
z
" id="Calibri-72" transform="scale(0.015625)"/>
       <path d="M 2878 1606 
Q 2878 1484 2817 1432 
Q 2756 1381 2678 1381 
L 834 1381 
Q 834 1147 881 959 
Q 928 772 1037 637 
Q 1147 503 1322 431 
Q 1497 359 1750 359 
Q 1950 359 2106 392 
Q 2263 425 2377 465 
Q 2491 506 2564 539 
Q 2638 572 2675 572 
Q 2697 572 2714 561 
Q 2731 550 2740 528 
Q 2750 506 2754 467 
Q 2759 428 2759 372 
Q 2759 331 2756 301 
Q 2753 272 2748 248 
Q 2744 225 2733 206 
Q 2722 188 2705 170 
Q 2688 153 2603 114 
Q 2519 75 2384 37 
Q 2250 0 2073 -29 
Q 1897 -59 1697 -59 
Q 1350 -59 1089 37 
Q 828 134 650 325 
Q 472 516 381 803 
Q 291 1091 291 1472 
Q 291 1834 384 2123 
Q 478 2413 654 2614 
Q 831 2816 1081 2923 
Q 1331 3031 1641 3031 
Q 1972 3031 2205 2925 
Q 2438 2819 2588 2639 
Q 2738 2459 2808 2217 
Q 2878 1975 2878 1700 
L 2878 1606 
z
M 2359 1759 
Q 2369 2166 2180 2397 
Q 1991 2628 1619 2628 
Q 1428 2628 1284 2556 
Q 1141 2484 1044 2365 
Q 947 2247 894 2089 
Q 841 1931 834 1759 
L 2359 1759 
z
" id="Calibri-65" transform="scale(0.015625)"/>
       <path d="M 2500 506 
Q 2500 453 2497 414 
Q 2494 375 2486 348 
Q 2478 322 2467 301 
Q 2456 281 2417 242 
Q 2378 203 2284 145 
Q 2191 88 2073 42 
Q 1956 -3 1818 -31 
Q 1681 -59 1534 -59 
Q 1231 -59 997 41 
Q 763 141 605 333 
Q 447 525 364 804 
Q 281 1084 281 1450 
Q 281 1866 382 2164 
Q 484 2463 661 2653 
Q 838 2844 1077 2936 
Q 1316 3028 1594 3028 
Q 1728 3028 1854 3003 
Q 1981 2978 2087 2937 
Q 2194 2897 2276 2844 
Q 2359 2791 2396 2753 
Q 2434 2716 2448 2694 
Q 2463 2672 2472 2642 
Q 2481 2613 2484 2575 
Q 2488 2538 2488 2481 
Q 2488 2359 2459 2311 
Q 2431 2263 2391 2263 
Q 2344 2263 2283 2314 
Q 2222 2366 2128 2428 
Q 2034 2491 1901 2542 
Q 1769 2594 1588 2594 
Q 1216 2594 1017 2308 
Q 819 2022 819 1478 
Q 819 1206 870 1001 
Q 922 797 1022 659 
Q 1122 522 1267 455 
Q 1413 388 1600 388 
Q 1778 388 1912 444 
Q 2047 500 2145 567 
Q 2244 634 2311 689 
Q 2378 744 2416 744 
Q 2438 744 2453 731 
Q 2469 719 2480 689 
Q 2491 659 2495 614 
Q 2500 569 2500 506 
z
" id="Calibri-63" transform="scale(0.015625)"/>
       <path d="M 2888 78 
Q 2888 53 2877 36 
Q 2866 19 2837 6 
Q 2809 -6 2764 -12 
Q 2719 -19 2653 -19 
Q 2581 -19 2536 -12 
Q 2491 -6 2464 6 
Q 2438 19 2428 36 
Q 2419 53 2419 78 
L 2419 450 
Q 2178 184 1943 62 
Q 1709 -59 1469 -59 
Q 1188 -59 995 34 
Q 803 128 684 289 
Q 566 450 514 664 
Q 463 878 463 1184 
L 463 2891 
Q 463 2916 473 2933 
Q 484 2950 515 2964 
Q 547 2978 597 2983 
Q 647 2988 722 2988 
Q 797 2988 847 2983 
Q 897 2978 926 2964 
Q 956 2950 968 2933 
Q 981 2916 981 2891 
L 981 1253 
Q 981 1006 1017 857 
Q 1053 709 1126 604 
Q 1200 500 1312 442 
Q 1425 384 1575 384 
Q 1769 384 1961 521 
Q 2153 659 2369 925 
L 2369 2891 
Q 2369 2916 2380 2933 
Q 2391 2950 2422 2964 
Q 2453 2978 2501 2983 
Q 2550 2988 2628 2988 
Q 2703 2988 2753 2983 
Q 2803 2978 2831 2964 
Q 2859 2950 2873 2933 
Q 2888 2916 2888 2891 
L 2888 78 
z
" id="Calibri-75" transform="scale(0.015625)"/>
       <path d="M 2900 78 
Q 2900 53 2887 36 
Q 2875 19 2847 6 
Q 2819 -6 2769 -12 
Q 2719 -19 2644 -19 
Q 2566 -19 2516 -12 
Q 2466 -6 2437 6 
Q 2409 19 2396 36 
Q 2384 53 2384 78 
L 2384 1725 
Q 2384 1966 2346 2112 
Q 2309 2259 2237 2365 
Q 2166 2472 2052 2528 
Q 1938 2584 1788 2584 
Q 1594 2584 1400 2446 
Q 1206 2309 994 2044 
L 994 78 
Q 994 53 981 36 
Q 969 19 941 6 
Q 913 -6 863 -12 
Q 813 -19 734 -19 
Q 659 -19 609 -12 
Q 559 -6 529 6 
Q 500 19 489 36 
Q 478 53 478 78 
L 478 2891 
Q 478 2916 487 2933 
Q 497 2950 525 2964 
Q 553 2978 597 2983 
Q 641 2988 713 2988 
Q 781 2988 826 2983 
Q 872 2978 897 2964 
Q 922 2950 933 2933 
Q 944 2916 944 2891 
L 944 2519 
Q 1181 2784 1417 2907 
Q 1653 3031 1894 3031 
Q 2175 3031 2367 2936 
Q 2559 2841 2678 2681 
Q 2797 2522 2848 2308 
Q 2900 2094 2900 1794 
L 2900 78 
z
" id="Calibri-6e" transform="scale(0.015625)"/>
       <path d="M 994 78 
Q 994 53 981 36 
Q 969 19 941 6 
Q 913 -6 863 -12 
Q 813 -19 734 -19 
Q 659 -19 609 -12 
Q 559 -6 529 6 
Q 500 19 489 36 
Q 478 53 478 78 
L 478 2891 
Q 478 2913 489 2931 
Q 500 2950 529 2962 
Q 559 2975 609 2981 
Q 659 2988 734 2988 
Q 813 2988 863 2981 
Q 913 2975 941 2962 
Q 969 2950 981 2931 
Q 994 2913 994 2891 
L 994 78 
z
M 1053 3841 
Q 1053 3659 984 3593 
Q 916 3528 731 3528 
Q 550 3528 483 3592 
Q 416 3656 416 3834 
Q 416 4016 484 4081 
Q 553 4147 738 4147 
Q 919 4147 986 4083 
Q 1053 4019 1053 3841 
z
" id="Calibri-69" transform="scale(0.015625)"/>
       <path d="M 2597 75 
Q 2597 38 2572 19 
Q 2547 0 2503 -9 
Q 2459 -19 2375 -19 
Q 2294 -19 2245 -9 
Q 2197 0 2175 19 
Q 2153 38 2153 75 
L 2153 356 
Q 1969 159 1742 50 
Q 1516 -59 1263 -59 
Q 1041 -59 861 -1 
Q 681 56 554 165 
Q 428 275 358 434 
Q 288 594 288 797 
Q 288 1034 384 1209 
Q 481 1384 662 1500 
Q 844 1616 1106 1673 
Q 1369 1731 1697 1731 
L 2084 1731 
L 2084 1950 
Q 2084 2113 2050 2238 
Q 2016 2363 1939 2445 
Q 1863 2528 1741 2570 
Q 1619 2613 1441 2613 
Q 1250 2613 1098 2567 
Q 947 2522 833 2467 
Q 719 2413 642 2367 
Q 566 2322 528 2322 
Q 503 2322 484 2334 
Q 466 2347 452 2372 
Q 438 2397 431 2436 
Q 425 2475 425 2522 
Q 425 2600 436 2645 
Q 447 2691 489 2731 
Q 531 2772 634 2826 
Q 738 2881 872 2926 
Q 1006 2972 1165 3001 
Q 1325 3031 1488 3031 
Q 1791 3031 2003 2962 
Q 2216 2894 2347 2761 
Q 2478 2628 2537 2431 
Q 2597 2234 2597 1972 
L 2597 75 
z
M 2084 1359 
L 1644 1359 
Q 1431 1359 1275 1323 
Q 1119 1288 1016 1217 
Q 913 1147 864 1048 
Q 816 950 816 822 
Q 816 603 955 473 
Q 1094 344 1344 344 
Q 1547 344 1720 447 
Q 1894 550 2084 763 
L 2084 1359 
z
" id="Calibri-61" transform="scale(0.015625)"/>
       <path id="Calibri-20" transform="scale(0.015625)"/>
       <path d="M 1684 -813 
Q 1684 -916 1661 -958 
Q 1638 -1000 1594 -1000 
L 794 -1000 
Q 756 -1000 722 -989 
Q 688 -978 659 -953 
Q 631 -928 614 -886 
Q 597 -844 597 -781 
L 597 4153 
Q 597 4213 614 4255 
Q 631 4297 659 4323 
Q 688 4350 722 4361 
Q 756 4372 794 4372 
L 1594 4372 
Q 1613 4372 1630 4362 
Q 1647 4353 1659 4328 
Q 1672 4303 1678 4267 
Q 1684 4231 1684 4178 
Q 1684 4078 1661 4034 
Q 1638 3991 1594 3991 
L 1084 3991 
L 1084 -622 
L 1594 -622 
Q 1613 -622 1630 -631 
Q 1647 -641 1659 -664 
Q 1672 -688 1678 -723 
Q 1684 -759 1684 -813 
z
" id="Calibri-5b" transform="scale(0.015625)"/>
       <path d="M 3450 81 
Q 3450 56 3437 37 
Q 3425 19 3394 8 
Q 3363 -3 3311 -11 
Q 3259 -19 3184 -19 
Q 3103 -19 3053 -11 
Q 3003 -3 2972 8 
Q 2941 19 2928 37 
Q 2916 56 2916 81 
L 2916 1875 
L 1075 1875 
L 1075 81 
Q 1075 56 1062 37 
Q 1050 19 1019 8 
Q 988 -3 936 -11 
Q 884 -19 806 -19 
Q 731 -19 678 -11 
Q 625 -3 594 8 
Q 563 19 550 37 
Q 538 56 538 81 
L 538 3963 
Q 538 3988 550 4006 
Q 563 4025 594 4036 
Q 625 4047 678 4055 
Q 731 4063 806 4063 
Q 884 4063 936 4055 
Q 988 4047 1019 4036 
Q 1050 4025 1062 4006 
Q 1075 3988 1075 3963 
L 1075 2344 
L 2916 2344 
L 2916 3963 
Q 2916 3988 2928 4006 
Q 2941 4025 2972 4036 
Q 3003 4047 3053 4055 
Q 3103 4063 3184 4063 
Q 3259 4063 3311 4055 
Q 3363 4047 3394 4036 
Q 3425 4025 3437 4006 
Q 3450 3988 3450 3963 
L 3450 81 
z
" id="Calibri-48" transform="scale(0.015625)"/>
       <path d="M 2272 219 
Q 2272 159 2262 117 
Q 2253 75 2240 48 
Q 2228 22 2206 11 
Q 2184 0 2159 0 
L 428 0 
Q 363 0 320 44 
Q 278 88 278 191 
L 278 297 
Q 278 341 284 375 
Q 291 409 303 443 
Q 316 478 337 517 
Q 359 556 391 606 
L 1631 2538 
L 428 2538 
Q 378 2538 348 2589 
Q 319 2641 319 2756 
Q 319 2813 325 2855 
Q 331 2897 345 2923 
Q 359 2950 379 2961 
Q 400 2972 428 2972 
L 2041 2972 
Q 2075 2972 2101 2962 
Q 2128 2953 2147 2931 
Q 2166 2909 2177 2875 
Q 2188 2841 2188 2788 
L 2188 2688 
Q 2188 2644 2181 2606 
Q 2175 2569 2162 2533 
Q 2150 2497 2128 2456 
Q 2106 2416 2075 2366 
L 841 434 
L 2159 434 
Q 2184 434 2204 423 
Q 2225 413 2239 388 
Q 2253 363 2262 320 
Q 2272 278 2272 219 
z
" id="Calibri-7a" transform="scale(0.015625)"/>
       <path d="M 1369 -781 
Q 1369 -844 1351 -886 
Q 1334 -928 1306 -953 
Q 1278 -978 1242 -989 
Q 1206 -1000 1169 -1000 
L 372 -1000 
Q 328 -1000 304 -958 
Q 281 -916 281 -813 
Q 281 -759 286 -723 
Q 291 -688 303 -664 
Q 316 -641 333 -631 
Q 350 -622 372 -622 
L 881 -622 
L 881 3991 
L 372 3991 
Q 328 3991 304 4034 
Q 281 4078 281 4178 
Q 281 4231 286 4267 
Q 291 4303 303 4328 
Q 316 4353 333 4362 
Q 350 4372 372 4372 
L 1169 4372 
Q 1206 4372 1242 4361 
Q 1278 4350 1306 4323 
Q 1334 4297 1351 4255 
Q 1369 4213 1369 4153 
L 1369 -781 
z
" id="Calibri-5d" transform="scale(0.015625)"/>
      </defs>
      <use xlink:href="#Calibri-46"/>
      <use x="45.947266" xlink:href="#Calibri-72"/>
      <use x="80.810547" xlink:href="#Calibri-65"/>
      <use x="130.566406" xlink:href="#Calibri-63"/>
      <use x="172.851562" xlink:href="#Calibri-75"/>
      <use x="225.390625" xlink:href="#Calibri-65"/>
      <use x="275.146484" xlink:href="#Calibri-6e"/>
      <use x="327.685547" xlink:href="#Calibri-63"/>
      <use x="369.970703" xlink:href="#Calibri-69"/>
      <use x="392.919922" xlink:href="#Calibri-61"/>
      <use x="440.820312" xlink:href="#Calibri-20"/>
      <use x="463.427734" xlink:href="#Calibri-5b"/>
      <use x="494.091797" xlink:href="#Calibri-48"/>
      <use x="556.396484" xlink:href="#Calibri-7a"/>
      <use x="595.898438" xlink:href="#Calibri-5d"/>
     </g>
    </g>
   </g>
   <g id="matplotlib.axis_2">
    <g id="ytick_1">
     <g id="line2d_12">
      <defs>
       <path d="M 0 0 
L -3.5 0 
" id="m9b7656fc3f" style="stroke:#000000;stroke-width:0.8;"/>
      </defs>
      <g>
       <use style="stroke:#000000;stroke-width:0.8;" x="45.605" xlink:href="#m9b7656fc3f" y="69.433333"/>
      </g>
     </g>
     <g id="text_8">
      <!-- −40 -->
      <g transform="translate(23.48625 72.834115)scale(0.1 -0.1)">
       <defs>
        <path d="M 2934 1797 
Q 2934 1681 2904 1628 
Q 2875 1575 2819 1575 
L 356 1575 
Q 297 1575 267 1628 
Q 238 1681 238 1797 
Q 238 1909 267 1964 
Q 297 2019 356 2019 
L 2819 2019 
Q 2875 2019 2904 1966 
Q 2934 1913 2934 1797 
z
" id="Calibri-2212" transform="scale(0.015625)"/>
       </defs>
       <use xlink:href="#Calibri-2212"/>
       <use x="49.804688" xlink:href="#Calibri-34"/>
       <use x="100.488281" xlink:href="#Calibri-30"/>
      </g>
     </g>
    </g>
    <g id="ytick_2">
     <g id="line2d_13">
      <g>
       <use style="stroke:#000000;stroke-width:0.8;" x="45.605" xlink:href="#m9b7656fc3f" y="45.98"/>
      </g>
     </g>
     <g id="text_9">
      <!-- −20 -->
      <g transform="translate(23.48625 49.380781)scale(0.1 -0.1)">
       <use xlink:href="#Calibri-2212"/>
       <use x="49.804688" xlink:href="#Calibri-32"/>
       <use x="100.488281" xlink:href="#Calibri-30"/>
      </g>
     </g>
    </g>
    <g id="ytick_3">
     <g id="line2d_14">
      <g>
       <use style="stroke:#000000;stroke-width:0.8;" x="45.605" xlink:href="#m9b7656fc3f" y="22.526667"/>
      </g>
     </g>
     <g id="text_10">
      <!-- 0 -->
      <g transform="translate(33.53625 25.927448)scale(0.1 -0.1)">
       <use xlink:href="#Calibri-30"/>
      </g>
     </g>
    </g>
    <g id="text_11">
     <!-- Magnitud [dB] -->
     <g transform="translate(17.703438 75.253438)rotate(-90)scale(0.1 -0.1)">
      <defs>
       <path d="M 4934 81 
Q 4934 56 4921 37 
Q 4909 19 4878 8 
Q 4847 -3 4798 -11 
Q 4750 -19 4672 -19 
Q 4600 -19 4548 -11 
Q 4497 -3 4467 8 
Q 4438 19 4425 37 
Q 4413 56 4413 81 
L 4413 3603 
L 4406 3603 
L 2966 66 
Q 2956 44 2939 28 
Q 2922 13 2889 2 
Q 2856 -9 2811 -14 
Q 2766 -19 2703 -19 
Q 2638 -19 2591 -12 
Q 2544 -6 2512 5 
Q 2481 16 2464 31 
Q 2447 47 2441 66 
L 1063 3603 
L 1059 3603 
L 1059 81 
Q 1059 56 1046 37 
Q 1034 19 1003 8 
Q 972 -3 922 -11 
Q 872 -19 794 -19 
Q 719 -19 669 -11 
Q 619 -3 589 8 
Q 559 19 548 37 
Q 538 56 538 81 
L 538 3800 
Q 538 3931 606 3987 
Q 675 4044 759 4044 
L 1084 4044 
Q 1184 4044 1259 4025 
Q 1334 4006 1390 3965 
Q 1447 3925 1484 3862 
Q 1522 3800 1550 3716 
L 2722 788 
L 2738 788 
L 3956 3706 
Q 3991 3800 4031 3865 
Q 4072 3931 4120 3970 
Q 4169 4009 4228 4026 
Q 4288 4044 4366 4044 
L 4706 4044 
Q 4753 4044 4795 4030 
Q 4838 4016 4867 3986 
Q 4897 3956 4915 3911 
Q 4934 3866 4934 3800 
L 4934 81 
z
" id="Calibri-4d" transform="scale(0.015625)"/>
       <path d="M 2828 2763 
Q 2828 2653 2798 2604 
Q 2769 2556 2722 2556 
L 2319 2556 
Q 2428 2444 2472 2308 
Q 2516 2172 2516 2025 
Q 2516 1781 2437 1593 
Q 2359 1406 2214 1276 
Q 2069 1147 1869 1078 
Q 1669 1009 1425 1009 
Q 1253 1009 1098 1054 
Q 944 1100 859 1169 
Q 803 1113 767 1041 
Q 731 969 731 875 
Q 731 766 832 694 
Q 934 622 1103 616 
L 1838 584 
Q 2047 578 2222 526 
Q 2397 475 2525 379 
Q 2653 284 2725 145 
Q 2797 6 2797 -178 
Q 2797 -372 2715 -547 
Q 2634 -722 2467 -855 
Q 2300 -988 2040 -1064 
Q 1781 -1141 1428 -1141 
Q 1088 -1141 848 -1083 
Q 609 -1025 456 -925 
Q 303 -825 234 -686 
Q 166 -547 166 -384 
Q 166 -281 191 -184 
Q 216 -88 267 0 
Q 319 88 395 167 
Q 472 247 572 325 
Q 419 403 345 522 
Q 272 641 272 778 
Q 272 969 350 1119 
Q 428 1269 544 1388 
Q 447 1503 390 1648 
Q 334 1794 334 2000 
Q 334 2241 415 2431 
Q 497 2622 640 2753 
Q 784 2884 986 2954 
Q 1188 3025 1425 3025 
Q 1553 3025 1664 3011 
Q 1775 2997 1872 2972 
L 2722 2972 
Q 2775 2972 2801 2920 
Q 2828 2869 2828 2763 
z
M 2022 2022 
Q 2022 2309 1864 2470 
Q 1706 2631 1416 2631 
Q 1266 2631 1155 2581 
Q 1044 2531 970 2443 
Q 897 2356 861 2242 
Q 825 2128 825 2003 
Q 825 1725 983 1565 
Q 1141 1406 1425 1406 
Q 1578 1406 1690 1454 
Q 1803 1503 1876 1589 
Q 1950 1675 1986 1787 
Q 2022 1900 2022 2022 
z
M 2281 -206 
Q 2281 -25 2132 73 
Q 1984 172 1731 178 
L 1003 203 
Q 903 125 839 54 
Q 775 -16 737 -80 
Q 700 -144 686 -206 
Q 672 -269 672 -334 
Q 672 -538 878 -642 
Q 1084 -747 1453 -747 
Q 1688 -747 1845 -701 
Q 2003 -656 2100 -581 
Q 2197 -506 2239 -409 
Q 2281 -313 2281 -206 
z
" id="Calibri-67" transform="scale(0.015625)"/>
       <path d="M 1941 284 
Q 1941 194 1928 141 
Q 1916 88 1891 63 
Q 1866 38 1816 16 
Q 1766 -6 1702 -20 
Q 1638 -34 1566 -43 
Q 1494 -53 1422 -53 
Q 1203 -53 1047 5 
Q 891 63 791 180 
Q 691 297 645 476 
Q 600 656 600 900 
L 600 2544 
L 206 2544 
Q 159 2544 131 2594 
Q 103 2644 103 2756 
Q 103 2816 111 2856 
Q 119 2897 131 2923 
Q 144 2950 164 2961 
Q 184 2972 209 2972 
L 600 2972 
L 600 3641 
Q 600 3663 611 3681 
Q 622 3700 651 3714 
Q 681 3728 731 3734 
Q 781 3741 856 3741 
Q 934 3741 984 3734 
Q 1034 3728 1062 3714 
Q 1091 3700 1103 3681 
Q 1116 3663 1116 3641 
L 1116 2972 
L 1838 2972 
Q 1863 2972 1881 2961 
Q 1900 2950 1914 2923 
Q 1928 2897 1934 2856 
Q 1941 2816 1941 2756 
Q 1941 2644 1912 2594 
Q 1884 2544 1838 2544 
L 1116 2544 
L 1116 975 
Q 1116 684 1202 536 
Q 1288 388 1509 388 
Q 1581 388 1637 402 
Q 1694 416 1737 431 
Q 1781 447 1812 461 
Q 1844 475 1869 475 
Q 1884 475 1898 467 
Q 1913 459 1920 437 
Q 1928 416 1934 378 
Q 1941 341 1941 284 
z
" id="Calibri-74" transform="scale(0.015625)"/>
       <path d="M 2888 78 
Q 2888 53 2877 34 
Q 2866 16 2839 5 
Q 2813 -6 2769 -12 
Q 2725 -19 2663 -19 
Q 2597 -19 2553 -12 
Q 2509 -6 2481 5 
Q 2453 16 2440 34 
Q 2428 53 2428 78 
L 2428 450 
Q 2206 209 1967 75 
Q 1728 -59 1444 -59 
Q 1134 -59 915 61 
Q 697 181 561 386 
Q 425 591 362 867 
Q 300 1144 300 1450 
Q 300 1813 378 2105 
Q 456 2397 609 2603 
Q 763 2809 989 2920 
Q 1216 3031 1513 3031 
Q 1759 3031 1964 2923 
Q 2169 2816 2369 2606 
L 2369 4241 
Q 2369 4263 2380 4283 
Q 2391 4303 2422 4314 
Q 2453 4325 2501 4333 
Q 2550 4341 2625 4341 
Q 2703 4341 2753 4333 
Q 2803 4325 2831 4314 
Q 2859 4303 2873 4283 
Q 2888 4263 2888 4241 
L 2888 78 
z
M 2369 2056 
Q 2159 2316 1964 2452 
Q 1769 2588 1556 2588 
Q 1359 2588 1221 2494 
Q 1084 2400 998 2247 
Q 913 2094 873 1900 
Q 834 1706 834 1506 
Q 834 1294 867 1091 
Q 900 888 981 730 
Q 1063 572 1197 476 
Q 1331 381 1534 381 
Q 1638 381 1733 409 
Q 1828 438 1928 503 
Q 2028 569 2137 673 
Q 2247 778 2369 931 
L 2369 2056 
z
" id="Calibri-64" transform="scale(0.015625)"/>
       <path d="M 3203 1159 
Q 3203 969 3154 808 
Q 3106 647 3018 519 
Q 2931 391 2807 294 
Q 2684 197 2529 131 
Q 2375 66 2198 33 
Q 2022 0 1794 0 
L 738 0 
Q 666 0 602 48 
Q 538 97 538 219 
L 538 3825 
Q 538 3947 602 3995 
Q 666 4044 738 4044 
L 1656 4044 
Q 2019 4044 2250 3975 
Q 2481 3906 2636 3775 
Q 2791 3644 2869 3453 
Q 2947 3263 2947 3022 
Q 2947 2878 2912 2747 
Q 2878 2616 2811 2505 
Q 2744 2394 2642 2306 
Q 2541 2219 2409 2163 
Q 2575 2131 2719 2048 
Q 2863 1966 2970 1837 
Q 3078 1709 3140 1537 
Q 3203 1366 3203 1159 
z
M 2394 2969 
Q 2394 3116 2353 3234 
Q 2313 3353 2225 3436 
Q 2138 3519 1997 3562 
Q 1856 3606 1625 3606 
L 1069 3606 
L 1069 2297 
L 1681 2297 
Q 1891 2297 2019 2351 
Q 2147 2406 2231 2498 
Q 2316 2591 2355 2714 
Q 2394 2838 2394 2969 
z
M 2638 1128 
Q 2638 1309 2580 1446 
Q 2522 1584 2411 1678 
Q 2300 1772 2133 1820 
Q 1966 1869 1713 1869 
L 1069 1869 
L 1069 444 
L 1850 444 
Q 2034 444 2171 487 
Q 2309 531 2414 617 
Q 2519 703 2578 831 
Q 2638 959 2638 1128 
z
" id="Calibri-42" transform="scale(0.015625)"/>
      </defs>
      <use xlink:href="#Calibri-4d"/>
      <use x="85.498047" xlink:href="#Calibri-61"/>
      <use x="133.398438" xlink:href="#Calibri-67"/>
      <use x="180.46875" xlink:href="#Calibri-6e"/>
      <use x="233.007812" xlink:href="#Calibri-69"/>
      <use x="255.957031" xlink:href="#Calibri-74"/>
      <use x="289.453125" xlink:href="#Calibri-75"/>
      <use x="341.992188" xlink:href="#Calibri-64"/>
      <use x="394.53125" xlink:href="#Calibri-20"/>
      <use x="417.138672" xlink:href="#Calibri-5b"/>
      <use x="447.802734" xlink:href="#Calibri-64"/>
      <use x="500.341797" xlink:href="#Calibri-42"/>
      <use x="554.736328" xlink:href="#Calibri-5d"/>
     </g>
    </g>
   </g>
   <g id="line2d_15">
    <path clip-path="url(#p09f17fb2cb)" d="M 71.883172 121.24 
L 71.886975 121.012316 
L 71.890221 121.24 
M 71.93108 121.24 
L 71.937953 120.368823 
L 71.94481 121.24 
M 71.98054 121.24 
L 71.988931 119.809979 
L 71.99796 121.24 
M 72.030274 121.24 
L 72.040889 119.235681 
L 72.050766 121.24 
M 72.080292 121.24 
L 72.091867 118.673634 
L 72.103303 121.24 
M 72.1305 121.24 
L 72.142844 118.129508 
L 72.155679 121.24 
M 72.180832 121.24 
L 72.194802 117.598448 
L 72.20791 121.24 
M 72.231263 121.24 
L 72.24578 117.075553 
L 72.260046 121.24 
M 72.281772 121.24 
L 72.296758 116.566204 
L 72.312103 121.24 
M 72.332336 121.24 
L 72.348716 116.066902 
L 72.364093 121.24 
M 72.382941 121.24 
L 72.399693 115.56908 
L 72.416029 121.24 
M 72.433597 121.24 
L 72.450671 115.080419 
L 72.46792 121.24 
M 72.484278 121.24 
L 72.501649 114.600026 
L 72.519774 121.24 
M 72.534981 121.24 
L 72.553607 114.118695 
L 72.571599 121.24 
M 72.585726 121.24 
L 72.604585 113.642943 
L 72.623401 121.24 
M 72.636489 121.24 
L 72.655562 113.173959 
L 72.675186 121.24 
M 72.687268 121.24 
L 72.70752 112.706464 
L 72.726948 121.24 
M 72.738063 121.24 
L 72.758498 112.2403 
L 72.778707 121.24 
M 72.788872 121.24 
L 72.809476 111.781028 
L 72.830466 121.24 
M 72.839694 121.24 
L 72.861434 111.32683 
L 72.882227 121.24 
M 72.890522 121.24 
L 72.912411 110.873138 
L 72.933991 121.24 
M 72.941349 121.24 
L 72.963389 110.428935 
L 72.985777 121.24 
M 72.99217 121.24 
L 73.015347 109.993729 
L 73.037596 121.24 
M 73.042973 121.24 
L 73.066325 109.559732 
L 73.089473 121.24 
M 73.09373 121.24 
L 73.117303 109.136508 
L 73.141479 121.24 
M 73.144299 121.24 
L 73.271216 107.902537 
L 73.278078 108.703358 
L 73.296705 120.303199 
L 73.374152 107.103859 
L 73.406503 113.937684 
L 73.450618 118.920035 
L 73.526105 105.981975 
L 73.528065 105.931594 
L 73.54179 109.6811 
L 73.553554 117.988253 
L 73.630021 105.157202 
L 73.659431 115.04977 
L 73.707467 116.615106 
L 73.781973 103.993069 
L 73.783934 103.919625 
L 73.799619 108.715523 
L 73.862361 116.6995 
L 73.835892 102.961659 
L 73.91628 113.267475 
L 73.963336 114.875963 
L 74.038823 102.293152 
L 74.040783 102.223296 
L 74.056469 107.007281 
L 74.066272 114.118403 
L 74.143719 101.485876 
L 74.172149 111.71122 
L 74.220186 113.083153 
L 74.295672 100.476288 
L 74.297632 100.429856 
L 74.311357 104.188419 
L 74.323121 112.407224 
L 74.399588 99.755004 
L 74.429978 108.905372 
L 74.477035 111.45047 
L 74.551541 98.871737 
L 74.553501 98.776839 
L 74.571147 104.742292 
L 74.57899 110.811325 
L 74.656437 98.139879 
L 74.685847 107.99082 
L 74.732904 109.89275 
L 74.807409 97.368297 
L 74.81035 97.206182 
L 74.829957 105.120546 
L 74.835839 109.331789 
L 74.913286 96.593406 
L 74.941716 107.108567 
L 74.989753 108.479412 
L 75.064259 95.818815 
L 75.0672 95.688819 
L 75.084846 102.195119 
L 75.092688 107.930258 
L 75.169155 95.100705 
L 75.198565 105.445591 
L 75.246602 107.156727 
L 75.321108 94.332358 
L 75.323068 94.232893 
L 75.340715 100.227273 
L 75.348557 106.626051 
L 75.426004 93.662152 
L 75.455414 103.858089 
L 75.502471 105.907624 
L 75.576977 92.994452 
L 75.579918 92.825394 
L 75.599524 100.87524 
L 75.605406 105.49097 
L 75.682853 92.274698 
L 75.711283 103.287701 
L 75.75932 104.830781 
L 75.833826 91.602989 
L 75.836767 91.464925 
L 75.854413 98.073084 
L 75.862256 104.39297 
L 75.939703 90.93294 
L 75.968132 101.833408 
L 76.016169 103.774458 
L 76.089695 90.355578 
L 76.093616 90.14394 
L 76.113223 98.992566 
L 76.119105 103.340493 
L 76.195571 89.624212 
L 76.224982 100.41923 
L 76.298507 89.112715 
L 76.273018 102.787081 
L 76.345563 89.168343 
L 76.349485 88.86011 
L 76.371052 99.25962 
L 76.374974 102.464233 
L 76.452421 88.355881 
L 76.481831 99.031987 
L 76.555356 87.858921 
L 76.528887 101.960564 
L 76.602413 87.873462 
L 76.606334 87.607306 
L 76.626921 97.432458 
L 76.631823 101.656434 
L 76.70927 87.114638 
L 76.7377 98.821335 
L 76.811225 86.620434 
L 76.785736 101.186205 
L 76.858281 86.744742 
L 76.863183 86.376465 
L 76.884751 97.946115 
L 76.888672 100.843572 
L 76.965139 85.886339 
L 76.994549 97.484056 
L 77.068074 85.398466 
L 77.042585 100.411505 
L 77.115131 85.479364 
L 77.119052 85.157495 
L 77.140619 96.123005 
L 77.144541 100.145845 
L 77.221988 84.672645 
L 77.251398 96.136744 
L 77.324923 84.193033 
L 77.298454 99.767387 
L 77.370999 84.38914 
L 77.375901 83.950187 
L 77.398449 96.940887 
L 77.40139 99.579378 
L 77.478837 83.471051 
L 77.507267 96.184912 
L 77.580792 82.988076 
L 77.555303 99.257955 
L 77.626868 83.321336 
L 77.63275 82.741651 
L 77.656278 97.85543 
L 77.658239 99.087365 
L 77.734706 82.277894 
L 77.764116 94.807006 
L 77.837641 81.788168 
L 77.812153 98.684136 
L 77.883717 82.057954 
L 77.888619 81.54733 
L 77.912147 96.264149 
L 77.914108 98.464011 
L 77.991555 81.058322 
L 78.020965 93.426622 
L 78.094491 80.570792 
L 78.068021 98.179771 
L 78.139586 80.983555 
L 78.145468 80.323565 
L 78.169977 97.459906 
L 78.170957 98.097532 
L 78.248404 79.831332 
L 78.255266 80.809161 
L 78.273893 97.906196 
L 78.350359 79.334568 
L 78.383691 87.021228 
L 78.427806 97.700271 
L 78.502312 78.677666 
L 78.504273 78.577472 
L 78.520939 84.556195 
L 78.58172 97.51272 
L 78.607209 78.060991 
L 78.636619 91.168564 
L 78.710144 77.539716 
L 78.735633 97.334007 
L 78.75524 77.952535 
L 78.761122 77.273941 
L 78.78465 94.271065 
L 78.786611 97.312151 
L 78.864058 76.737802 
L 78.892488 91.485376 
L 78.966013 76.192276 
L 78.940524 97.142963 
L 79.010129 77.038679 
L 79.068949 75.629538 
L 79.04346 97.008549 
L 79.088556 85.454982 
L 79.094438 96.992763 
L 79.171885 75.057717 
L 79.201295 88.117153 
L 79.27384 74.473935 
L 79.248351 96.870598 
L 79.318936 75.031931 
L 79.325798 74.171067 
L 79.349326 93.230516 
L 79.351287 96.785843 
L 79.427754 73.561637 
L 79.457164 88.30548 
L 79.530689 72.924021 
L 79.5052 96.710927 
L 79.574805 73.656498 
L 79.582647 72.603719 
L 79.606175 93.337725 
L 79.659114 96.638697 
L 79.684603 71.926575 
L 79.714013 86.159863 
L 79.787538 71.225968 
L 79.813027 96.567144 
L 79.831654 71.839658 
L 79.838516 70.864302 
L 79.862044 89.847241 
L 79.966941 96.499995 
L 79.941452 70.112525 
L 79.970862 83.787622 
L 80.044388 69.324585 
L 80.017918 96.388086 
L 80.088503 69.809937 
L 80.095365 68.909368 
L 80.118893 89.49 
L 80.120854 96.455997 
L 80.198301 68.049351 
L 80.227711 81.136713 
L 80.300256 67.127464 
L 80.274768 96.448543 
L 80.345352 67.471336 
L 80.352214 66.641647 
L 80.374762 84.93185 
L 80.428681 96.472692 
L 80.45417 65.610285 
L 80.48358 80.377834 
L 80.557106 64.481935 
L 80.582594 96.505189 
L 80.601221 64.915868 
L 80.608083 63.880037 
L 80.631611 83.514391 
L 80.736508 96.519754 
L 80.711019 62.5648 
L 80.740429 76.573351 
L 80.813955 61.084261 
L 80.787486 95.216439 
L 80.85807 61.250673 
L 80.864932 60.265634 
L 80.888461 81.367641 
L 80.890421 96.508192 
L 80.967868 58.419898 
L 80.997278 71.587258 
L 81.044335 96.488171 
L 81.1159 55.615171 
L 81.121782 54.895616 
L 81.144329 72.892076 
L 81.198248 96.463207 
L 81.224717 51.670921 
L 81.253147 66.109017 
L 81.352162 95.976306 
L 81.372749 44.484917 
L 81.379611 43.496519 
L 81.401179 61.376695 
L 81.403139 79.668362 
L 81.505095 22.533983 
L 81.506075 22.526667 
L 81.516859 23.264293 
L 81.552151 44.703268 
L 81.659989 94.175343 
L 81.579601 38.046173 
L 81.666851 55.001904 
L 81.684497 46.830906 
L 81.710966 84.940122 
L 81.760964 73.202122 
L 81.813902 95.670955 
L 81.787433 51.419853 
L 81.870762 65.406844 
L 81.890369 54.551621 
L 81.916838 94.924657 
L 81.966835 83.328474 
L 82.070751 96.216342 
L 81.993304 56.932353 
L 82.076633 68.848641 
L 82.09624 58.855752 
L 82.121729 96.382849 
L 82.171726 84.107875 
L 82.224665 96.801418 
L 82.198195 60.464981 
L 82.281524 72.520158 
L 82.301131 61.852572 
L 82.3276 94.471096 
L 82.377598 90.928088 
L 82.378578 97.093476 
L 82.404067 63.075486 
L 82.485435 77.478308 
L 82.506022 64.170004 
L 82.532491 97.279532 
L 82.602096 66.134544 
L 82.608958 65.153432 
L 82.632486 83.932325 
L 82.686405 97.435379 
L 82.660916 65.617076 
L 82.742284 79.193911 
L 82.762871 66.479302 
L 82.840318 97.574558 
L 82.858945 68.193872 
L 82.865807 67.278729 
L 82.889335 86.881421 
L 82.994232 97.685914 
L 82.916785 67.659898 
L 82.998153 82.652769 
L 83.019721 68.381019 
L 83.097168 97.320161 
L 83.114814 70.192139 
L 83.122656 69.063216 
L 83.146185 89.473115 
L 83.148145 97.763142 
L 83.173634 69.388084 
L 83.255002 83.598746 
L 83.27657 70.01697 
L 83.302059 97.816819 
L 83.371663 71.666607 
L 83.378525 70.61764 
L 83.403034 91.760591 
L 83.455972 97.867105 
L 83.430483 70.90372 
L 83.511851 84.400286 
L 83.532439 71.466773 
L 83.609886 97.92927 
L 83.628512 72.976413 
L 83.635374 72.000057 
L 83.659883 93.763842 
L 83.712821 98.014458 
L 83.687332 72.264179 
L 83.76772 87.201588 
L 83.789288 72.77006 
L 83.866735 98.145971 
L 83.884381 74.456379 
L 83.892224 73.261688 
L 83.916732 95.461354 
L 84.020648 98.255184 
L 83.943201 73.504069 
L 84.024569 87.690948 
L 84.046137 73.975182 
L 84.071626 98.136955 
L 84.14123 75.548231 
L 84.149073 74.438445 
L 84.173581 96.789773 
L 84.174562 98.338497 
L 84.20005 74.663365 
L 84.280438 90.328231 
L 84.302986 75.111496 
L 84.328475 98.403939 
L 84.397099 76.890504 
L 84.404942 75.550994 
L 84.431411 98.302509 
L 84.476506 86.000308 
L 84.482388 98.46536 
L 84.507877 75.97798 
L 84.589246 89.434808 
L 84.610813 76.401009 
L 84.636302 98.531937 
L 84.705906 77.868352 
L 84.712768 76.820679 
L 84.739238 98.529337 
L 84.783353 85.721794 
L 84.893151 98.63196 
L 84.815704 77.227507 
L 84.897072 90.628812 
L 84.91864 77.633384 
L 84.944129 98.668563 
L 85.014713 78.835832 
L 85.021576 78.039292 
L 85.045104 96.065472 
L 85.098042 98.723493 
L 85.072553 78.236511 
L 85.152941 92.838597 
L 85.175489 78.638204 
L 85.200978 98.788147 
L 85.270582 80.022164 
L 85.277444 79.033865 
L 85.303914 98.681292 
L 85.348029 87.997071 
L 85.354891 98.858667 
L 85.38038 79.428514 
L 85.461748 92.046206 
L 85.483316 79.823054 
L 85.508805 98.914452 
L 85.579389 80.958203 
L 85.585271 80.215307 
L 85.61076 98.670351 
L 85.611741 98.877524 
L 85.635269 80.461121 
L 85.637229 80.409395 
L 85.650954 84.529592 
L 85.662718 98.983699 
L 85.688207 80.603124 
L 85.770556 91.550478 
L 85.791143 80.993818 
L 85.816632 99.057439 
L 85.888197 81.919542 
L 85.893098 81.38622 
L 85.916626 96.060724 
L 85.970545 99.129749 
L 85.945056 81.578693 
L 86.025444 94.892814 
L 86.047012 81.973364 
L 86.124459 99.197972 
L 86.144065 83.04958 
L 86.149947 82.362594 
L 86.175436 99.132587 
L 86.219552 90.034198 
L 86.278372 99.265418 
L 86.252883 82.75677 
L 86.334251 94.299778 
L 86.355819 83.155755 
L 86.432285 99.339297 
L 86.452873 84.034925 
L 86.457774 83.549749 
L 86.481302 97.412461 
L 86.586199 99.425412 
L 86.509732 83.750973 
L 86.59012 95.905272 
L 86.611688 84.147405 
L 86.689135 99.498699 
L 86.708741 85.1703 
L 86.714623 84.546636 
L 86.740112 99.523768 
L 86.784228 92.161588 
L 86.894026 99.629765 
L 86.817559 84.951619 
L 86.897947 96.669693 
L 86.919515 85.355835 
L 86.996961 99.718079 
L 87.017549 86.193069 
L 87.02245 85.762922 
L 87.045978 98.575248 
L 87.150875 99.83356 
L 87.073428 85.970092 
L 87.154796 96.912393 
L 87.176364 86.381957 
L 87.253811 99.881116 
L 87.274398 87.171009 
L 87.279299 86.80048 
L 87.302828 99.187898 
L 87.407724 100.018525 
L 87.330277 87.00791 
L 87.410665 98.149363 
L 87.433213 87.430677 
L 87.509679 100.127797 
L 87.531247 88.169736 
L 87.535168 87.854439 
L 87.558696 99.065112 
L 87.663593 100.28559 
L 87.587126 88.067385 
L 87.667514 98.390228 
L 87.689082 88.495674 
L 87.766529 100.41191 
L 87.789076 89.073441 
L 87.792018 88.925449 
L 87.810644 95.750729 
L 87.920442 100.590098 
L 87.842995 89.144292 
L 87.924363 98.679391 
L 87.945931 89.579781 
L 88.023378 100.695115 
L 88.045926 90.133232 
L 88.048867 90.0233 
L 88.066513 96.111324 
L 88.177291 100.894981 
L 88.099844 90.243442 
L 88.181213 99.01605 
L 88.20278 90.693676 
L 88.279247 101.052358 
L 88.302775 91.222774 
L 88.304736 91.143915 
L 88.321401 95.944989 
L 88.43316 101.283769 
L 88.356694 91.373115 
L 88.437081 100.013358 
L 88.458649 91.827759 
L 88.536096 101.446946 
L 88.559624 92.338788 
L 88.561585 92.28765 
L 88.57629 96.027725 
L 88.690009 101.699682 
L 88.612562 92.518717 
L 88.693931 100.390261 
L 88.715498 92.983785 
L 88.791965 101.869929 
L 88.816473 93.477948 
L 88.817454 93.451927 
L 88.830198 95.904841 
L 88.945878 102.15859 
L 88.869412 93.685494 
L 88.95078 100.809826 
L 88.971367 94.153459 
L 89.048814 102.372546 
L 89.073322 94.628036 
L 89.074303 94.616843 
L 89.082145 95.575029 
L 89.15175 102.703056 
L 89.12528 94.83305 
L 89.20959 100.302796 
L 89.228216 95.377363 
L 89.304683 102.894765 
L 89.329191 95.868931 
L 89.330172 95.846958 
L 89.341936 97.765942 
L 89.458596 103.267224 
L 89.38213 96.091 
L 89.464478 101.840693 
L 89.484085 96.581716 
L 89.561532 103.519688 
L 89.58604 97.08713 
L 89.587021 97.08157 
L 89.592903 97.606494 
L 89.715445 103.908907 
L 89.637998 97.331535 
L 89.723288 101.673704 
L 89.739954 97.838771 
L 89.817401 104.190643 
L 89.841909 98.353796 
L 89.84289 98.341135 
L 89.852693 99.60374 
L 89.971314 104.620831 
L 89.893867 98.595061 
L 89.977196 103.426897 
L 89.996803 99.102263 
L 90.07327 104.91988 
L 90.098758 99.609238 
L 90.107581 100.541109 
L 90.227183 105.39872 
L 90.149736 99.864879 
L 90.234045 104.097024 
L 90.252672 100.372835 
L 90.329138 105.725842 
L 90.354627 100.885878 
L 90.36247 101.566107 
L 90.483052 106.249846 
L 90.405605 101.14556 
L 90.490895 104.835398 
L 90.508541 101.663171 
L 90.585007 106.605609 
L 90.610496 102.186616 
L 90.618339 102.838391 
L 90.738921 107.180374 
L 90.661474 102.449515 
L 90.745783 106.134706 
L 90.764409 102.971218 
L 90.840876 107.581691 
L 90.866365 103.488476 
L 90.877149 104.716202 
L 90.994789 108.206826 
L 90.917343 103.746425 
L 90.999691 107.617729 
L 91.019298 104.261837 
L 91.096745 108.641984 
L 91.123214 104.794047 
L 91.249678 109.301584 
L 91.267324 106.146379 
L 91.275167 105.539136 
L 91.351633 109.768303 
L 91.353594 109.719774 
L 91.377122 106.041879 
L 91.454569 110.268974 
L 91.488881 107.442278 
L 91.607502 111.07821 
L 91.530055 106.789417 
L 91.613384 110.387984 
L 91.632991 107.288343 
L 91.709458 111.641153 
L 91.735927 107.804516 
L 91.863371 112.510584 
L 91.881998 108.977701 
L 91.88788 108.565135 
L 91.914349 112.807011 
L 91.961405 112.74863 
L 92.067282 113.701886 
L 91.990815 109.079172 
L 92.073164 113.01558 
L 92.092771 109.59136 
L 92.170218 114.310296 
L 92.196687 110.129482 
L 92.323151 115.253225 
L 92.339816 111.72034 
L 92.34864 110.864762 
L 92.426086 115.906759 
L 92.452556 111.403269 
L 92.579019 116.948505 
L 92.595685 113.081578 
L 92.604508 112.14925 
L 92.681955 117.663548 
L 92.708424 112.716295 
L 92.835869 118.726629 
L 92.853515 114.258245 
L 92.860377 113.606916 
L 92.934883 119.143938 
L 92.986841 120.070346 
L 93.01233 113.650523 
L 93.014291 113.6174 
L 93.028015 116.118704 
L 93.142715 120.851668 
L 93.066249 114.465319 
L 93.148597 119.785437 
L 93.168204 115.191275 
L 93.242287 121.24 
M 93.248574 121.24 
L 93.27114 115.808013 
L 93.292094 121.24 
M 93.301126 121.24 
L 93.322117 116.099165 
L 93.342196 121.24 
M 93.353454 121.24 
L 93.373095 116.386578 
L 93.392456 121.24 
M 93.405651 121.24 
L 93.424073 116.672989 
L 93.442824 121.24 
M 93.457788 121.24 
L 93.476031 116.958943 
L 93.493266 121.24 
M 93.509891 121.24 
L 93.527009 117.242378 
L 93.543761 121.24 
M 93.561979 121.24 
L 93.577986 117.530945 
L 93.594285 121.24 
M 93.614065 121.24 
L 93.629944 117.82576 
L 93.644828 121.24 
M 93.666161 121.24 
L 93.680922 118.120326 
L 93.695367 121.24 
M 93.718286 121.24 
L 93.7319 118.42439 
L 93.745889 121.24 
M 93.77045 121.24 
L 93.783858 118.737645 
L 93.796376 121.24 
M 93.822663 121.24 
L 93.834836 119.054032 
L 93.846805 121.24 
M 93.874935 121.24 
L 93.885813 119.381941 
L 93.897149 121.24 
M 93.927309 121.24 
L 93.937771 119.718851 
L 93.947388 121.24 
M 93.979794 121.24 
L 93.988749 120.057336 
L 93.997473 121.24 
M 94.032474 121.24 
L 94.039727 120.402319 
L 94.047328 121.24 
M 94.085458 121.24 
L 94.090704 120.749607 
L 94.096836 121.24 
M 94.139239 121.24 
L 94.142662 121.088671 
L 94.145537 121.24 
" style="fill:none;stroke:#000000;stroke-linecap:square;stroke-width:1.5;"/>
   </g>
   <g id="patch_3">
    <path d="M 45.605 81.16 
L 45.605 10.8 
" style="fill:none;stroke:#000000;stroke-linecap:square;stroke-linejoin:miter;stroke-width:0.8;"/>
   </g>
   <g id="patch_4">
    <path d="M 308.88 81.16 
L 308.88 10.8 
" style="fill:none;stroke:#000000;stroke-linecap:square;stroke-linejoin:miter;stroke-width:0.8;"/>
   </g>
   <g id="patch_5">
    <path d="M 45.605 81.16 
L 308.88 81.16 
" style="fill:none;stroke:#000000;stroke-linecap:square;stroke-linejoin:miter;stroke-width:0.8;"/>
   </g>
   <g id="patch_6">
    <path d="M 45.605 10.8 
L 308.88 10.8 
" style="fill:none;stroke:#000000;stroke-linecap:square;stroke-linejoin:miter;stroke-width:0.8;"/>
   </g>
  </g>
 </g>
 <defs>
  <clipPath id="p09f17fb2cb">
   <rect height="70.36" width="263.275" x="45.605" y="10.8"/>
  </clipPath>
 </defs>
</svg>
