<?xml version="1.0" encoding="utf-8" standalone="no"?>
<!DOCTYPE svg PUBLIC "-//W3C//DTD SVG 1.1//EN"
  "http://www.w3.org/Graphics/SVG/1.1/DTD/svg11.dtd">
<svg height="514.08pt" version="1.1" viewBox="0 0 496.8 514.08" width="496.8pt" xmlns="http://www.w3.org/2000/svg" xmlns:xlink="http://www.w3.org/1999/xlink">
 <metadata>
  <rdf:RDF xmlns:cc="http://creativecommons.org/ns#" xmlns:dc="http://purl.org/dc/elements/1.1/" xmlns:rdf="http://www.w3.org/1999/02/22-rdf-syntax-ns#">
   <cc:Work>
    <dc:type rdf:resource="http://purl.org/dc/dcmitype/StillImage"/>
    <dc:date>2022-05-18T19:57:29.592849</dc:date>
    <dc:format>image/svg+xml</dc:format>
    <dc:creator>
     <cc:Agent>
      <dc:title>Matplotlib v3.4.1, https://matplotlib.org/</dc:title>
     </cc:Agent>
    </dc:creator>
   </cc:Work>
  </rdf:RDF>
 </metadata>
 <defs>
  <style type="text/css">*{stroke-linecap:butt;stroke-linejoin:round;}</style>
 </defs>
 <g id="figure_1">
  <g id="patch_1">
   <path d="M 0 514.08 
L 496.8 514.08 
L 496.8 0 
L 0 0 
z
" style="fill:#ffffff;"/>
  </g>
  <g id="axes_1">
   <g id="patch_2">
    <path d="M 62.1 241.6176 
L 447.12 241.6176 
L 447.12 61.6896 
L 62.1 61.6896 
z
" style="fill:#ffffff;"/>
   </g>
   <g id="matplotlib.axis_1">
    <g id="xtick_1">
     <g id="line2d_1">
      <defs>
       <path d="M 0 0 
L 0 3.5 
" id="maefede01b8" style="stroke:#000000;stroke-width:0.8;"/>
      </defs>
      <g>
       <use style="stroke:#000000;stroke-width:0.8;" x="62.1" xlink:href="#maefede01b8" y="241.6176"/>
      </g>
     </g>
     <g id="text_1">
      <!-- 0.00 -->
      <g transform="translate(53.234375 255.419162)scale(0.1 -0.1)">
       <defs>
        <path d="M 3022 2031 
Q 3022 1566 2948 1181 
Q 2875 797 2704 520 
Q 2534 244 2259 92 
Q 1984 -59 1581 -59 
Q 1200 -59 939 77 
Q 678 213 518 477 
Q 359 741 292 1127 
Q 225 1513 225 2013 
Q 225 2475 300 2861 
Q 375 3247 544 3523 
Q 713 3800 988 3951 
Q 1263 4103 1663 4103 
Q 2047 4103 2308 3967 
Q 2569 3831 2728 3567 
Q 2888 3303 2955 2917 
Q 3022 2531 3022 2031 
z
M 2472 1994 
Q 2472 2297 2450 2537 
Q 2428 2778 2386 2962 
Q 2344 3147 2276 3280 
Q 2209 3413 2115 3498 
Q 2022 3584 1901 3623 
Q 1781 3663 1631 3663 
Q 1366 3663 1200 3538 
Q 1034 3413 939 3194 
Q 844 2975 809 2681 
Q 775 2388 775 2050 
Q 775 1597 822 1280 
Q 869 963 970 763 
Q 1072 563 1230 472 
Q 1388 381 1613 381 
Q 1788 381 1920 437 
Q 2053 494 2148 598 
Q 2244 703 2306 850 
Q 2369 997 2406 1175 
Q 2444 1353 2458 1561 
Q 2472 1769 2472 1994 
z
" id="Calibri-30" transform="scale(0.015625)"/>
        <path d="M 1144 341 
Q 1144 119 1070 45 
Q 997 -28 803 -28 
Q 616 -28 544 44 
Q 472 116 472 331 
Q 472 553 545 626 
Q 619 700 813 700 
Q 1000 700 1072 628 
Q 1144 556 1144 341 
z
" id="Calibri-2e" transform="scale(0.015625)"/>
       </defs>
       <use xlink:href="#Calibri-30"/>
       <use x="50.683594" xlink:href="#Calibri-2e"/>
       <use x="75.927734" xlink:href="#Calibri-30"/>
       <use x="126.611328" xlink:href="#Calibri-30"/>
      </g>
     </g>
    </g>
    <g id="xtick_2">
     <g id="line2d_2">
      <g>
       <use style="stroke:#000000;stroke-width:0.8;" x="139.104" xlink:href="#maefede01b8" y="241.6176"/>
      </g>
     </g>
     <g id="text_2">
      <!-- 0.05 -->
      <g transform="translate(130.238375 255.419162)scale(0.1 -0.1)">
       <defs>
        <path d="M 2869 1300 
Q 2869 975 2759 722 
Q 2650 469 2450 295 
Q 2250 122 1973 31 
Q 1697 -59 1359 -59 
Q 1172 -59 1003 -32 
Q 834 -6 703 33 
Q 572 72 487 109 
Q 403 147 379 169 
Q 356 191 347 209 
Q 338 228 330 254 
Q 322 281 319 322 
Q 316 363 316 419 
Q 316 472 320 514 
Q 325 556 337 582 
Q 350 609 367 621 
Q 384 634 406 634 
Q 438 634 503 595 
Q 569 556 680 511 
Q 791 466 955 425 
Q 1119 384 1344 384 
Q 1553 384 1728 434 
Q 1903 484 2029 590 
Q 2156 697 2228 858 
Q 2300 1019 2300 1250 
Q 2300 1444 2239 1592 
Q 2178 1741 2051 1839 
Q 1925 1938 1731 1986 
Q 1538 2034 1269 2034 
Q 1078 2034 940 2015 
Q 803 1997 684 1997 
Q 597 1997 559 2037 
Q 522 2078 522 2194 
L 522 3841 
Q 522 3944 570 3994 
Q 619 4044 709 4044 
L 2500 4044 
Q 2525 4044 2548 4030 
Q 2572 4016 2587 3987 
Q 2603 3959 2611 3915 
Q 2619 3872 2619 3813 
Q 2619 3700 2587 3637 
Q 2556 3575 2500 3575 
L 991 3575 
L 991 2441 
Q 1100 2456 1214 2459 
Q 1328 2463 1478 2463 
Q 1825 2463 2084 2380 
Q 2344 2297 2517 2145 
Q 2691 1994 2780 1778 
Q 2869 1563 2869 1300 
z
" id="Calibri-35" transform="scale(0.015625)"/>
       </defs>
       <use xlink:href="#Calibri-30"/>
       <use x="50.683594" xlink:href="#Calibri-2e"/>
       <use x="75.927734" xlink:href="#Calibri-30"/>
       <use x="126.611328" xlink:href="#Calibri-35"/>
      </g>
     </g>
    </g>
    <g id="xtick_3">
     <g id="line2d_3">
      <g>
       <use style="stroke:#000000;stroke-width:0.8;" x="216.108" xlink:href="#maefede01b8" y="241.6176"/>
      </g>
     </g>
     <g id="text_3">
      <!-- 0.10 -->
      <g transform="translate(207.242375 255.419162)scale(0.1 -0.1)">
       <defs>
        <path d="M 2897 213 
Q 2897 153 2887 112 
Q 2878 72 2862 47 
Q 2847 22 2826 11 
Q 2806 0 2784 0 
L 672 0 
Q 650 0 631 11 
Q 613 22 595 47 
Q 578 72 568 112 
Q 559 153 559 213 
Q 559 269 568 309 
Q 578 350 592 376 
Q 606 403 626 417 
Q 647 431 672 431 
L 1516 431 
L 1516 3506 
L 734 3041 
Q 675 3009 639 3003 
Q 603 2997 581 3017 
Q 559 3038 551 3084 
Q 544 3131 544 3203 
Q 544 3256 548 3293 
Q 553 3331 562 3356 
Q 572 3381 589 3400 
Q 606 3419 634 3438 
L 1566 4034 
Q 1578 4044 1597 4050 
Q 1616 4056 1644 4062 
Q 1672 4069 1709 4070 
Q 1747 4072 1803 4072 
Q 1878 4072 1928 4065 
Q 1978 4059 2006 4048 
Q 2034 4038 2043 4020 
Q 2053 4003 2053 3984 
L 2053 431 
L 2784 431 
Q 2809 431 2831 417 
Q 2853 403 2867 376 
Q 2881 350 2889 309 
Q 2897 269 2897 213 
z
" id="Calibri-31" transform="scale(0.015625)"/>
       </defs>
       <use xlink:href="#Calibri-30"/>
       <use x="50.683594" xlink:href="#Calibri-2e"/>
       <use x="75.927734" xlink:href="#Calibri-31"/>
       <use x="126.611328" xlink:href="#Calibri-30"/>
      </g>
     </g>
    </g>
    <g id="xtick_4">
     <g id="line2d_4">
      <g>
       <use style="stroke:#000000;stroke-width:0.8;" x="293.112" xlink:href="#maefede01b8" y="241.6176"/>
      </g>
     </g>
     <g id="text_4">
      <!-- 0.15 -->
      <g transform="translate(284.246375 255.419162)scale(0.1 -0.1)">
       <use xlink:href="#Calibri-30"/>
       <use x="50.683594" xlink:href="#Calibri-2e"/>
       <use x="75.927734" xlink:href="#Calibri-31"/>
       <use x="126.611328" xlink:href="#Calibri-35"/>
      </g>
     </g>
    </g>
    <g id="xtick_5">
     <g id="line2d_5">
      <g>
       <use style="stroke:#000000;stroke-width:0.8;" x="370.116" xlink:href="#maefede01b8" y="241.6176"/>
      </g>
     </g>
     <g id="text_5">
      <!-- 0.20 -->
      <g transform="translate(361.250375 255.419162)scale(0.1 -0.1)">
       <defs>
        <path d="M 2888 231 
Q 2888 175 2880 131 
Q 2872 88 2858 58 
Q 2844 28 2820 14 
Q 2797 0 2769 0 
L 534 0 
Q 491 0 458 11 
Q 425 22 401 47 
Q 378 72 367 119 
Q 356 166 356 234 
Q 356 297 361 344 
Q 366 391 381 427 
Q 397 463 420 498 
Q 444 534 481 575 
L 1266 1406 
Q 1538 1694 1702 1922 
Q 1866 2150 1955 2337 
Q 2044 2525 2072 2678 
Q 2100 2831 2100 2966 
Q 2100 3100 2056 3220 
Q 2013 3341 1930 3431 
Q 1847 3522 1722 3575 
Q 1597 3628 1434 3628 
Q 1244 3628 1092 3575 
Q 941 3522 827 3459 
Q 713 3397 636 3344 
Q 559 3291 522 3291 
Q 500 3291 483 3303 
Q 466 3316 455 3344 
Q 444 3372 437 3419 
Q 431 3466 431 3531 
Q 431 3578 434 3612 
Q 438 3647 445 3672 
Q 453 3697 465 3719 
Q 478 3741 515 3773 
Q 553 3806 645 3862 
Q 738 3919 877 3973 
Q 1016 4028 1183 4065 
Q 1350 4103 1534 4103 
Q 1828 4103 2048 4020 
Q 2269 3938 2414 3794 
Q 2559 3650 2631 3459 
Q 2703 3269 2703 3053 
Q 2703 2859 2668 2667 
Q 2634 2475 2523 2251 
Q 2413 2028 2203 1754 
Q 1994 1481 1647 1125 
L 1006 456 
L 2766 456 
Q 2791 456 2814 442 
Q 2838 428 2855 400 
Q 2872 372 2880 330 
Q 2888 288 2888 231 
z
" id="Calibri-32" transform="scale(0.015625)"/>
       </defs>
       <use xlink:href="#Calibri-30"/>
       <use x="50.683594" xlink:href="#Calibri-2e"/>
       <use x="75.927734" xlink:href="#Calibri-32"/>
       <use x="126.611328" xlink:href="#Calibri-30"/>
      </g>
     </g>
    </g>
    <g id="xtick_6">
     <g id="line2d_6">
      <g>
       <use style="stroke:#000000;stroke-width:0.8;" x="447.12" xlink:href="#maefede01b8" y="241.6176"/>
      </g>
     </g>
     <g id="text_6">
      <!-- 0.25 -->
      <g transform="translate(438.254375 255.419162)scale(0.1 -0.1)">
       <use xlink:href="#Calibri-30"/>
       <use x="50.683594" xlink:href="#Calibri-2e"/>
       <use x="75.927734" xlink:href="#Calibri-32"/>
       <use x="126.611328" xlink:href="#Calibri-35"/>
      </g>
     </g>
    </g>
   </g>
   <g id="matplotlib.axis_2">
    <g id="ytick_1">
     <g id="line2d_7">
      <defs>
       <path d="M 0 0 
L -3.5 0 
" id="mcb848cd782" style="stroke:#000000;stroke-width:0.8;"/>
      </defs>
      <g>
       <use style="stroke:#000000;stroke-width:0.8;" x="62.1" xlink:href="#mcb848cd782" y="233.439055"/>
      </g>
     </g>
     <g id="text_7">
      <!-- −1.0 -->
      <g transform="translate(37.45625 236.839836)scale(0.1 -0.1)">
       <defs>
        <path d="M 2934 1797 
Q 2934 1681 2904 1628 
Q 2875 1575 2819 1575 
L 356 1575 
Q 297 1575 267 1628 
Q 238 1681 238 1797 
Q 238 1909 267 1964 
Q 297 2019 356 2019 
L 2819 2019 
Q 2875 2019 2904 1966 
Q 2934 1913 2934 1797 
z
" id="Calibri-2212" transform="scale(0.015625)"/>
       </defs>
       <use xlink:href="#Calibri-2212"/>
       <use x="49.804688" xlink:href="#Calibri-31"/>
       <use x="100.488281" xlink:href="#Calibri-2e"/>
       <use x="125.732422" xlink:href="#Calibri-30"/>
      </g>
     </g>
    </g>
    <g id="ytick_2">
     <g id="line2d_8">
      <g>
       <use style="stroke:#000000;stroke-width:0.8;" x="62.1" xlink:href="#mcb848cd782" y="192.546327"/>
      </g>
     </g>
     <g id="text_8">
      <!-- −0.5 -->
      <g transform="translate(37.45625 195.947109)scale(0.1 -0.1)">
       <use xlink:href="#Calibri-2212"/>
       <use x="49.804688" xlink:href="#Calibri-30"/>
       <use x="100.488281" xlink:href="#Calibri-2e"/>
       <use x="125.732422" xlink:href="#Calibri-35"/>
      </g>
     </g>
    </g>
    <g id="ytick_3">
     <g id="line2d_9">
      <g>
       <use style="stroke:#000000;stroke-width:0.8;" x="62.1" xlink:href="#mcb848cd782" y="151.6536"/>
      </g>
     </g>
     <g id="text_9">
      <!-- 0.0 -->
      <g transform="translate(42.4375 155.054381)scale(0.1 -0.1)">
       <use xlink:href="#Calibri-30"/>
       <use x="50.683594" xlink:href="#Calibri-2e"/>
       <use x="75.927734" xlink:href="#Calibri-30"/>
      </g>
     </g>
    </g>
    <g id="ytick_4">
     <g id="line2d_10">
      <g>
       <use style="stroke:#000000;stroke-width:0.8;" x="62.1" xlink:href="#mcb848cd782" y="110.760873"/>
      </g>
     </g>
     <g id="text_10">
      <!-- 0.5 -->
      <g transform="translate(42.4375 114.161654)scale(0.1 -0.1)">
       <use xlink:href="#Calibri-30"/>
       <use x="50.683594" xlink:href="#Calibri-2e"/>
       <use x="75.927734" xlink:href="#Calibri-35"/>
      </g>
     </g>
    </g>
    <g id="ytick_5">
     <g id="line2d_11">
      <g>
       <use style="stroke:#000000;stroke-width:0.8;" x="62.1" xlink:href="#mcb848cd782" y="69.868145"/>
      </g>
     </g>
     <g id="text_11">
      <!-- 1.0 -->
      <g transform="translate(42.4375 73.268927)scale(0.1 -0.1)">
       <use xlink:href="#Calibri-31"/>
       <use x="50.683594" xlink:href="#Calibri-2e"/>
       <use x="75.927734" xlink:href="#Calibri-30"/>
      </g>
     </g>
    </g>
    <g id="text_12">
     <!-- Amplitud -->
     <g transform="translate(31.678125 170.393444)rotate(-90)scale(0.1 -0.1)">
      <defs>
       <path d="M 3566 191 
Q 3591 122 3592 80 
Q 3594 38 3569 16 
Q 3544 -6 3486 -12 
Q 3428 -19 3331 -19 
Q 3234 -19 3176 -14 
Q 3119 -9 3089 2 
Q 3059 13 3045 31 
Q 3031 50 3019 78 
L 2672 1063 
L 991 1063 
L 659 91 
Q 650 63 634 42 
Q 619 22 589 8 
Q 559 -6 504 -12 
Q 450 -19 363 -19 
Q 272 -19 214 -11 
Q 156 -3 132 19 
Q 109 41 111 83 
Q 113 125 138 194 
L 1494 3950 
Q 1506 3984 1526 4006 
Q 1547 4028 1586 4040 
Q 1625 4053 1686 4058 
Q 1747 4063 1841 4063 
Q 1941 4063 2006 4058 
Q 2072 4053 2112 4040 
Q 2153 4028 2175 4004 
Q 2197 3981 2209 3947 
L 3566 191 
z
M 1825 3506 
L 1822 3506 
L 1125 1491 
L 2531 1491 
L 1825 3506 
z
" id="Calibri-41" transform="scale(0.015625)"/>
       <path d="M 4650 78 
Q 4650 53 4637 36 
Q 4625 19 4597 6 
Q 4569 -6 4519 -12 
Q 4469 -19 4394 -19 
Q 4316 -19 4266 -12 
Q 4216 -6 4186 6 
Q 4156 19 4143 36 
Q 4131 53 4131 78 
L 4131 1788 
Q 4131 1966 4100 2112 
Q 4069 2259 4000 2365 
Q 3931 2472 3825 2528 
Q 3719 2584 3575 2584 
Q 3397 2584 3217 2446 
Q 3038 2309 2822 2044 
L 2822 78 
Q 2822 53 2809 36 
Q 2797 19 2767 6 
Q 2738 -6 2688 -12 
Q 2638 -19 2563 -19 
Q 2491 -19 2439 -12 
Q 2388 -6 2358 6 
Q 2328 19 2317 36 
Q 2306 53 2306 78 
L 2306 1788 
Q 2306 1966 2272 2112 
Q 2238 2259 2169 2365 
Q 2100 2472 1995 2528 
Q 1891 2584 1747 2584 
Q 1569 2584 1387 2446 
Q 1206 2309 994 2044 
L 994 78 
Q 994 53 981 36 
Q 969 19 941 6 
Q 913 -6 863 -12 
Q 813 -19 734 -19 
Q 659 -19 609 -12 
Q 559 -6 529 6 
Q 500 19 489 36 
Q 478 53 478 78 
L 478 2891 
Q 478 2916 487 2933 
Q 497 2950 525 2964 
Q 553 2978 597 2983 
Q 641 2988 713 2988 
Q 781 2988 826 2983 
Q 872 2978 897 2964 
Q 922 2950 933 2933 
Q 944 2916 944 2891 
L 944 2519 
Q 1181 2784 1404 2907 
Q 1628 3031 1856 3031 
Q 2031 3031 2170 2990 
Q 2309 2950 2415 2876 
Q 2522 2803 2597 2701 
Q 2672 2600 2722 2475 
Q 2863 2628 2989 2734 
Q 3116 2841 3233 2906 
Q 3350 2972 3461 3001 
Q 3572 3031 3684 3031 
Q 3956 3031 4140 2936 
Q 4325 2841 4439 2681 
Q 4553 2522 4601 2308 
Q 4650 2094 4650 1856 
L 4650 78 
z
" id="Calibri-6d" transform="scale(0.015625)"/>
       <path d="M 3066 1528 
Q 3066 1159 2986 865 
Q 2906 572 2751 367 
Q 2597 163 2369 52 
Q 2141 -59 1847 -59 
Q 1722 -59 1615 -34 
Q 1509 -9 1407 44 
Q 1306 97 1206 178 
Q 1106 259 994 369 
L 994 -1038 
Q 994 -1063 981 -1081 
Q 969 -1100 941 -1112 
Q 913 -1125 863 -1131 
Q 813 -1138 734 -1138 
Q 659 -1138 609 -1131 
Q 559 -1125 529 -1112 
Q 500 -1100 489 -1081 
Q 478 -1063 478 -1038 
L 478 2891 
Q 478 2919 487 2936 
Q 497 2953 525 2965 
Q 553 2978 597 2983 
Q 641 2988 703 2988 
Q 769 2988 811 2983 
Q 853 2978 881 2965 
Q 909 2953 920 2936 
Q 931 2919 931 2891 
L 931 2513 
Q 1059 2644 1178 2741 
Q 1297 2838 1417 2902 
Q 1538 2966 1664 2998 
Q 1791 3031 1931 3031 
Q 2238 3031 2453 2912 
Q 2669 2794 2805 2587 
Q 2941 2381 3003 2107 
Q 3066 1834 3066 1528 
z
M 2522 1469 
Q 2522 1684 2489 1886 
Q 2456 2088 2376 2244 
Q 2297 2400 2162 2494 
Q 2028 2588 1828 2588 
Q 1728 2588 1631 2558 
Q 1534 2528 1434 2464 
Q 1334 2400 1225 2295 
Q 1116 2191 994 2038 
L 994 919 
Q 1206 659 1397 521 
Q 1588 384 1797 384 
Q 1991 384 2130 478 
Q 2269 572 2355 728 
Q 2441 884 2481 1078 
Q 2522 1272 2522 1469 
z
" id="Calibri-70" transform="scale(0.015625)"/>
       <path d="M 994 78 
Q 994 53 981 36 
Q 969 19 941 6 
Q 913 -6 863 -12 
Q 813 -19 734 -19 
Q 659 -19 609 -12 
Q 559 -6 529 6 
Q 500 19 489 36 
Q 478 53 478 78 
L 478 4253 
Q 478 4278 489 4297 
Q 500 4316 529 4328 
Q 559 4341 609 4347 
Q 659 4353 734 4353 
Q 813 4353 863 4347 
Q 913 4341 941 4328 
Q 969 4316 981 4297 
Q 994 4278 994 4253 
L 994 78 
z
" id="Calibri-6c" transform="scale(0.015625)"/>
       <path d="M 994 78 
Q 994 53 981 36 
Q 969 19 941 6 
Q 913 -6 863 -12 
Q 813 -19 734 -19 
Q 659 -19 609 -12 
Q 559 -6 529 6 
Q 500 19 489 36 
Q 478 53 478 78 
L 478 2891 
Q 478 2913 489 2931 
Q 500 2950 529 2962 
Q 559 2975 609 2981 
Q 659 2988 734 2988 
Q 813 2988 863 2981 
Q 913 2975 941 2962 
Q 969 2950 981 2931 
Q 994 2913 994 2891 
L 994 78 
z
M 1053 3841 
Q 1053 3659 984 3593 
Q 916 3528 731 3528 
Q 550 3528 483 3592 
Q 416 3656 416 3834 
Q 416 4016 484 4081 
Q 553 4147 738 4147 
Q 919 4147 986 4083 
Q 1053 4019 1053 3841 
z
" id="Calibri-69" transform="scale(0.015625)"/>
       <path d="M 1941 284 
Q 1941 194 1928 141 
Q 1916 88 1891 63 
Q 1866 38 1816 16 
Q 1766 -6 1702 -20 
Q 1638 -34 1566 -43 
Q 1494 -53 1422 -53 
Q 1203 -53 1047 5 
Q 891 63 791 180 
Q 691 297 645 476 
Q 600 656 600 900 
L 600 2544 
L 206 2544 
Q 159 2544 131 2594 
Q 103 2644 103 2756 
Q 103 2816 111 2856 
Q 119 2897 131 2923 
Q 144 2950 164 2961 
Q 184 2972 209 2972 
L 600 2972 
L 600 3641 
Q 600 3663 611 3681 
Q 622 3700 651 3714 
Q 681 3728 731 3734 
Q 781 3741 856 3741 
Q 934 3741 984 3734 
Q 1034 3728 1062 3714 
Q 1091 3700 1103 3681 
Q 1116 3663 1116 3641 
L 1116 2972 
L 1838 2972 
Q 1863 2972 1881 2961 
Q 1900 2950 1914 2923 
Q 1928 2897 1934 2856 
Q 1941 2816 1941 2756 
Q 1941 2644 1912 2594 
Q 1884 2544 1838 2544 
L 1116 2544 
L 1116 975 
Q 1116 684 1202 536 
Q 1288 388 1509 388 
Q 1581 388 1637 402 
Q 1694 416 1737 431 
Q 1781 447 1812 461 
Q 1844 475 1869 475 
Q 1884 475 1898 467 
Q 1913 459 1920 437 
Q 1928 416 1934 378 
Q 1941 341 1941 284 
z
" id="Calibri-74" transform="scale(0.015625)"/>
       <path d="M 2888 78 
Q 2888 53 2877 36 
Q 2866 19 2837 6 
Q 2809 -6 2764 -12 
Q 2719 -19 2653 -19 
Q 2581 -19 2536 -12 
Q 2491 -6 2464 6 
Q 2438 19 2428 36 
Q 2419 53 2419 78 
L 2419 450 
Q 2178 184 1943 62 
Q 1709 -59 1469 -59 
Q 1188 -59 995 34 
Q 803 128 684 289 
Q 566 450 514 664 
Q 463 878 463 1184 
L 463 2891 
Q 463 2916 473 2933 
Q 484 2950 515 2964 
Q 547 2978 597 2983 
Q 647 2988 722 2988 
Q 797 2988 847 2983 
Q 897 2978 926 2964 
Q 956 2950 968 2933 
Q 981 2916 981 2891 
L 981 1253 
Q 981 1006 1017 857 
Q 1053 709 1126 604 
Q 1200 500 1312 442 
Q 1425 384 1575 384 
Q 1769 384 1961 521 
Q 2153 659 2369 925 
L 2369 2891 
Q 2369 2916 2380 2933 
Q 2391 2950 2422 2964 
Q 2453 2978 2501 2983 
Q 2550 2988 2628 2988 
Q 2703 2988 2753 2983 
Q 2803 2978 2831 2964 
Q 2859 2950 2873 2933 
Q 2888 2916 2888 2891 
L 2888 78 
z
" id="Calibri-75" transform="scale(0.015625)"/>
       <path d="M 2888 78 
Q 2888 53 2877 34 
Q 2866 16 2839 5 
Q 2813 -6 2769 -12 
Q 2725 -19 2663 -19 
Q 2597 -19 2553 -12 
Q 2509 -6 2481 5 
Q 2453 16 2440 34 
Q 2428 53 2428 78 
L 2428 450 
Q 2206 209 1967 75 
Q 1728 -59 1444 -59 
Q 1134 -59 915 61 
Q 697 181 561 386 
Q 425 591 362 867 
Q 300 1144 300 1450 
Q 300 1813 378 2105 
Q 456 2397 609 2603 
Q 763 2809 989 2920 
Q 1216 3031 1513 3031 
Q 1759 3031 1964 2923 
Q 2169 2816 2369 2606 
L 2369 4241 
Q 2369 4263 2380 4283 
Q 2391 4303 2422 4314 
Q 2453 4325 2501 4333 
Q 2550 4341 2625 4341 
Q 2703 4341 2753 4333 
Q 2803 4325 2831 4314 
Q 2859 4303 2873 4283 
Q 2888 4263 2888 4241 
L 2888 78 
z
M 2369 2056 
Q 2159 2316 1964 2452 
Q 1769 2588 1556 2588 
Q 1359 2588 1221 2494 
Q 1084 2400 998 2247 
Q 913 2094 873 1900 
Q 834 1706 834 1506 
Q 834 1294 867 1091 
Q 900 888 981 730 
Q 1063 572 1197 476 
Q 1331 381 1534 381 
Q 1638 381 1733 409 
Q 1828 438 1928 503 
Q 2028 569 2137 673 
Q 2247 778 2369 931 
L 2369 2056 
z
" id="Calibri-64" transform="scale(0.015625)"/>
      </defs>
      <use xlink:href="#Calibri-41"/>
      <use x="57.861328" xlink:href="#Calibri-6d"/>
      <use x="137.744141" xlink:href="#Calibri-70"/>
      <use x="190.283203" xlink:href="#Calibri-6c"/>
      <use x="213.232422" xlink:href="#Calibri-69"/>
      <use x="236.181641" xlink:href="#Calibri-74"/>
      <use x="269.677734" xlink:href="#Calibri-75"/>
      <use x="322.216797" xlink:href="#Calibri-64"/>
     </g>
    </g>
   </g>
   <g id="line2d_12">
    <path clip-path="url(#p775698c6ab)" d="M 62.1 151.6536 
L 63.604058 104.560867 
L 64.356087 86.565715 
L 65.108116 74.648991 
L 65.48413 71.343238 
L 65.860145 69.923567 
L 66.236159 70.423311 
L 66.612173 72.830737 
L 66.988188 77.089308 
L 67.740217 90.718712 
L 68.492246 110.038696 
L 69.996304 158.170465 
L 71.124347 193.699728 
L 71.876376 212.92206 
L 72.628405 226.422663 
L 73.004419 230.608823 
L 73.380434 232.940734 
L 73.756448 233.363627 
L 74.132463 231.867568 
L 74.508477 228.487698 
L 74.884491 223.30339 
L 75.63652 208.047989 
L 76.388549 187.526029 
L 79.396665 94.536582 
L 80.148694 79.525266 
L 80.524708 74.481381 
L 80.900723 71.249871 
L 81.276737 69.906632 
L 81.652752 70.483208 
L 82.028766 72.966062 
L 82.404781 77.296881 
L 83.156809 91.054576 
L 83.908838 110.471485 
L 85.412896 158.670572 
L 86.540939 194.129368 
L 87.292968 213.253327 
L 88.044997 226.624616 
L 88.421012 230.73821 
L 88.797026 232.994517 
L 89.173041 233.34054 
L 89.549055 231.768161 
L 89.92507 228.314297 
L 90.301084 223.060069 
L 91.053113 207.683481 
L 91.805142 187.074375 
L 94.813257 94.178484 
L 95.565286 79.290067 
L 95.941301 74.316677 
L 96.317315 71.159532 
L 96.69333 69.892778 
L 97.069344 70.546166 
L 97.445359 73.104355 
L 97.821373 77.507258 
L 98.573402 91.392721 
L 99.325431 110.905825 
L 100.829489 159.170416 
L 101.957532 194.557404 
L 102.709561 213.582268 
L 103.46159 226.823746 
L 103.837604 230.864618 
L 104.213619 233.045235 
L 104.589633 233.314377 
L 104.965648 231.665732 
L 105.341662 228.13801 
L 105.717677 222.814058 
L 106.469706 207.316862 
L 107.221734 186.621387 
L 110.22985 93.822551 
L 110.981879 79.057588 
L 111.357893 74.154882 
L 111.733908 71.072219 
L 112.109922 69.882 
L 112.485937 70.612175 
L 112.861951 73.245602 
L 113.237966 77.720423 
L 113.989995 91.733137 
L 114.742024 111.341697 
L 116.246081 159.669976 
L 117.374125 194.983831 
L 118.126154 213.908884 
L 118.878183 227.020044 
L 119.254197 230.988048 
L 119.630211 233.092891 
L 120.006226 233.285143 
L 120.38224 231.56029 
L 120.758255 227.958842 
L 121.134269 222.565371 
L 121.886298 206.948147 
L 122.638327 186.167083 
L 125.646443 93.468793 
L 126.398472 78.827844 
L 126.774486 73.996008 
L 127.150501 70.987944 
L 127.526515 69.874302 
L 127.902529 70.681241 
L 128.278544 73.389798 
L 128.654558 77.936376 
L 129.406587 92.075811 
L 130.158616 111.779088 
L 131.662674 160.169235 
L 132.790717 195.408625 
L 133.542746 214.23315 
L 134.294775 227.213505 
L 134.67079 231.108489 
L 135.046804 233.13748 
L 135.422818 233.252833 
L 135.798833 231.45184 
L 136.174847 227.776797 
L 136.550862 222.314012 
L 137.302891 206.577356 
L 138.430934 173.950062 
L 140.687021 102.53191 
L 141.43905 85.07727 
L 142.191079 73.840054 
L 142.567093 70.906705 
L 142.943108 69.869686 
L 143.319122 70.753349 
L 143.695136 73.536944 
L 144.071151 78.155098 
L 144.82318 92.420722 
L 145.575209 112.21798 
L 147.079267 160.668173 
L 148.20731 195.831767 
L 148.959339 214.555067 
L 149.711368 227.404124 
L 150.087382 231.225938 
L 150.463397 233.178999 
L 150.839411 233.217451 
L 151.215426 231.340388 
L 151.59144 227.591891 
L 151.967454 222.059996 
L 152.719483 206.204493 
L 153.847527 173.466824 
L 156.103613 102.131602 
L 156.855642 84.787054 
L 157.607671 73.687034 
L 157.983686 70.828504 
L 158.3597 69.868145 
L 158.735715 70.828504 
L 159.111729 73.687034 
L 159.487744 78.376594 
L 160.239772 92.767866 
L 160.991801 112.658359 
L 162.495859 161.166772 
L 163.623903 196.253251 
L 164.375931 214.87461 
L 165.12796 227.591891 
L 165.503975 231.340388 
L 165.879989 233.217451 
L 166.256004 233.178999 
L 166.632018 231.225938 
L 167.008033 227.404124 
L 167.760062 214.555067 
L 168.51209 195.831767 
L 169.640134 160.668173 
L 171.520206 101.733166 
L 172.272235 84.499359 
L 173.024264 73.536944 
L 173.400278 70.753349 
L 173.776293 69.869686 
L 174.152307 70.906705 
L 174.528322 73.840054 
L 174.904336 78.600845 
L 175.656365 93.117227 
L 176.408394 113.100203 
L 177.912452 161.665013 
L 179.040495 196.673054 
L 179.792524 215.191778 
L 180.544553 227.776797 
L 180.920567 231.45184 
L 181.296582 233.252833 
L 181.672596 233.13748 
L 182.048611 231.108489 
L 182.424625 227.213505 
L 183.176654 214.23315 
L 183.928683 195.408625 
L 185.056726 160.169235 
L 186.560784 111.779088 
L 187.312813 92.075811 
L 188.064842 77.936376 
L 188.440856 73.389798 
L 188.816871 70.681241 
L 189.192885 69.874302 
L 189.5689 70.987944 
L 189.944914 73.996008 
L 190.320929 78.827844 
L 191.072958 93.468793 
L 191.824987 113.5435 
L 193.705059 174.432459 
L 194.833102 206.948147 
L 195.585131 222.565371 
L 195.961146 227.958842 
L 196.33716 231.56029 
L 196.713174 233.285143 
L 197.089189 233.092891 
L 197.465203 230.988048 
L 197.841218 227.020044 
L 198.593247 213.908884 
L 199.345276 194.983831 
L 200.473319 159.669976 
L 201.977377 111.341697 
L 202.729406 91.733137 
L 203.481435 77.720423 
L 203.857449 73.245602 
L 204.233464 70.612175 
L 204.609478 69.882 
L 204.985492 71.072219 
L 205.361507 74.154882 
L 205.737521 79.057588 
L 206.48955 93.822551 
L 207.241579 113.988232 
L 209.121651 174.913999 
L 210.249695 207.316862 
L 211.001724 222.814058 
L 211.377738 228.13801 
L 211.753753 231.665732 
L 212.129767 233.314377 
L 212.505782 233.045235 
L 212.881796 230.864618 
L 213.25781 226.823746 
L 214.009839 213.582268 
L 214.761868 194.557404 
L 215.889912 159.170416 
L 217.393969 110.905825 
L 218.145998 91.392721 
L 218.898027 77.507258 
L 219.274042 73.104355 
L 219.650056 70.546166 
L 220.026071 69.892778 
L 220.402085 71.159532 
L 220.7781 74.316677 
L 221.154114 79.290067 
L 221.906143 94.178484 
L 222.658172 114.434383 
L 226.042302 216.128869 
L 226.794331 228.314297 
L 227.170345 231.768161 
L 227.54636 233.34054 
L 227.922374 232.994517 
L 228.298389 230.73821 
L 228.674403 226.624616 
L 229.426432 213.253327 
L 230.178461 194.129368 
L 231.682519 146.137668 
L 233.186576 100.158349 
L 233.938605 83.373959 
L 234.690634 72.966062 
L 235.066649 70.483208 
L 235.442663 69.906632 
L 235.818678 71.249871 
L 236.194692 74.481381 
L 236.570707 79.525266 
L 237.322735 94.536582 
L 238.074764 114.881932 
L 241.458894 216.436396 
L 242.210923 228.487698 
L 242.586938 231.867568 
L 242.962952 233.363627 
L 243.338967 232.940734 
L 243.714981 230.608823 
L 244.090996 226.422663 
L 244.843025 212.92206 
L 245.595053 193.699728 
L 247.099111 145.637088 
L 248.227155 110.038696 
L 248.979184 90.718712 
L 249.731212 77.089308 
L 250.107227 72.830737 
L 250.483241 70.423311 
L 250.859256 69.923567 
L 251.23527 71.343238 
L 251.611285 74.648991 
L 251.987299 79.763185 
L 252.739328 94.896829 
L 253.491357 115.330869 
L 256.875487 216.741485 
L 257.627516 228.658209 
L 258.00353 231.963962 
L 258.379545 233.383633 
L 258.755559 232.883889 
L 259.131574 230.476462 
L 259.507588 226.217892 
L 260.259617 212.588488 
L 261.011646 193.268503 
L 262.515704 145.136735 
L 263.643747 109.607472 
L 264.395776 90.38514 
L 265.147805 76.884537 
L 265.52382 72.698377 
L 265.899834 70.366466 
L 266.275848 69.943573 
L 266.651863 71.439632 
L 267.027877 74.819502 
L 267.403892 80.00381 
L 268.155921 95.259211 
L 268.90795 115.781171 
L 271.916065 208.770618 
L 272.668094 223.781934 
L 273.044109 228.825819 
L 273.420123 232.057329 
L 273.796138 233.400568 
L 274.172152 232.823992 
L 274.548166 230.341138 
L 274.924181 226.010319 
L 275.67621 212.252624 
L 276.428239 192.835714 
L 277.932296 144.636628 
L 279.06034 109.177832 
L 279.812369 90.053873 
L 280.564398 76.682584 
L 280.940412 72.56899 
L 281.316427 70.312683 
L 281.692441 69.96666 
L 282.068455 71.539039 
L 282.44447 74.992903 
L 282.820484 80.24713 
L 283.572513 95.623719 
L 284.324542 116.232825 
L 287.332658 209.128716 
L 288.084687 224.017133 
L 288.460701 228.990523 
L 288.836716 232.147668 
L 289.21273 233.414422 
L 289.588745 232.761034 
L 289.964759 230.202845 
L 290.340773 225.799942 
L 291.092802 211.914479 
L 291.844831 192.401375 
L 293.348889 144.136784 
L 294.476932 108.749796 
L 295.228961 89.724932 
L 295.98099 76.483454 
L 296.357005 72.442582 
L 296.733019 70.261965 
L 297.109034 69.992823 
L 297.485048 71.641468 
L 297.861063 75.16919 
L 298.237077 80.493142 
L 298.989106 95.990338 
L 299.741135 116.685813 
L 302.74925 209.484649 
L 303.501279 224.249612 
L 303.877294 229.152318 
L 304.253308 232.234981 
L 304.629323 233.4252 
L 305.005337 232.695025 
L 305.381352 230.061598 
L 305.757366 225.586777 
L 306.509395 211.574063 
L 307.261424 191.965503 
L 308.765482 143.637224 
L 309.893525 108.323369 
L 310.645554 89.398316 
L 311.397583 76.287156 
L 311.773597 72.319152 
L 312.149612 70.214309 
L 312.525626 70.022057 
L 312.901641 71.74691 
L 313.277655 75.348358 
L 313.65367 80.741829 
L 314.405699 96.359052 
L 315.157727 117.140117 
L 318.165843 209.838407 
L 318.917872 224.479356 
L 319.293886 229.311192 
L 319.669901 232.319256 
L 320.045915 233.432898 
L 320.42193 232.625959 
L 320.797944 229.917402 
L 321.173959 225.370824 
L 321.925988 211.231389 
L 322.678017 191.528112 
L 324.182074 143.137965 
L 325.310118 107.898575 
L 326.062147 89.07405 
L 326.814175 76.093695 
L 327.19019 72.198711 
L 327.566204 70.16972 
L 327.942219 70.054367 
L 328.318233 71.85536 
L 328.694248 75.530403 
L 329.070262 80.993188 
L 329.822291 96.729844 
L 330.950334 129.357138 
L 333.206421 200.77529 
L 333.95845 218.22993 
L 334.710479 229.467146 
L 335.086493 232.400495 
L 335.462508 233.437514 
L 335.838522 232.553851 
L 336.214537 229.770256 
L 336.590551 225.152101 
L 337.34258 210.886478 
L 338.094609 191.08922 
L 339.598667 142.639027 
L 340.72671 107.475433 
L 341.478739 88.752133 
L 342.230768 75.903076 
L 342.606783 72.081262 
L 342.982797 70.128201 
L 343.358811 70.089749 
L 343.734826 71.966812 
L 344.11084 75.715308 
L 344.486855 81.247204 
L 345.238884 97.102707 
L 346.366927 129.840376 
L 348.623014 201.175598 
L 349.375043 218.520146 
L 350.127072 229.620166 
L 350.503086 232.478696 
L 350.879101 233.439055 
L 351.255115 232.478696 
L 351.631129 229.620166 
L 352.007144 224.930606 
L 352.759173 210.539334 
L 353.511202 190.648841 
L 355.01526 142.140428 
L 356.143303 107.053949 
L 356.895332 88.43259 
L 357.647361 75.715308 
L 358.023375 71.966812 
L 358.39939 70.089749 
L 358.775404 70.128201 
L 359.151419 72.081262 
L 359.527433 75.903076 
L 360.279462 88.752133 
L 361.031491 107.475433 
L 362.159534 142.639027 
L 364.039606 201.574034 
L 364.791635 218.807841 
L 365.543664 229.770256 
L 365.919679 232.553851 
L 366.295693 233.437514 
L 366.671708 232.400495 
L 367.047722 229.467146 
L 367.423737 224.706355 
L 368.175765 210.189973 
L 368.927794 190.206997 
L 370.431852 141.642187 
L 371.559896 106.634146 
L 372.311924 88.115422 
L 373.063953 75.530403 
L 373.439968 71.85536 
L 373.815982 70.054367 
L 374.191997 70.16972 
L 374.568011 72.198711 
L 374.944026 76.093695 
L 375.696054 89.07405 
L 376.448083 107.898575 
L 377.576127 143.137965 
L 379.080185 191.528112 
L 379.832213 211.231389 
L 380.584242 225.370824 
L 380.960257 229.917402 
L 381.336271 232.625959 
L 381.712286 233.432898 
L 382.0883 232.319256 
L 382.464315 229.311192 
L 382.840329 224.479356 
L 383.592358 209.838407 
L 384.344387 189.7637 
L 386.224459 128.874741 
L 387.352503 96.359052 
L 388.104531 80.741829 
L 388.480546 75.348358 
L 388.85656 71.74691 
L 389.232575 70.022057 
L 389.608589 70.214309 
L 389.984604 72.319152 
L 390.360618 76.287156 
L 391.112647 89.398316 
L 391.864676 108.323369 
L 392.992719 143.637224 
L 394.496777 191.965503 
L 395.248806 211.574063 
L 396.000835 225.586777 
L 396.376849 230.061598 
L 396.752864 232.695025 
L 397.128878 233.4252 
L 397.504893 232.234981 
L 397.880907 229.152318 
L 398.256922 224.249612 
L 399.008951 209.484649 
L 399.76098 189.318968 
L 401.641052 128.393201 
L 402.769095 95.990338 
L 403.521124 80.493142 
L 403.897139 75.16919 
L 404.273153 71.641468 
L 404.649167 69.992823 
L 405.025182 70.261965 
L 405.401196 72.442582 
L 405.777211 76.483454 
L 406.52924 89.724932 
L 407.281269 108.749796 
L 408.409312 144.136784 
L 409.91337 192.401375 
L 410.665399 211.914479 
L 411.417428 225.799942 
L 411.793442 230.202845 
L 412.169457 232.761034 
L 412.545471 233.414422 
L 412.921485 232.147668 
L 413.2975 228.990523 
L 413.673514 224.017133 
L 414.425543 209.128716 
L 415.177572 188.872817 
L 418.561702 87.178331 
L 419.313731 74.992903 
L 419.689746 71.539039 
L 420.06576 69.96666 
L 420.441775 70.312683 
L 420.817789 72.56899 
L 421.193803 76.682584 
L 421.945832 90.053873 
L 422.697861 109.177832 
L 424.201919 157.169532 
L 425.705977 203.148851 
L 426.458006 219.933241 
L 427.210035 230.341138 
L 427.586049 232.823992 
L 427.962064 233.400568 
L 428.338078 232.057329 
L 428.714092 228.825819 
L 429.090107 223.781934 
L 429.842136 208.770618 
L 430.594165 188.425267 
L 433.978295 86.870804 
L 434.730324 74.819502 
L 435.106338 71.439632 
L 435.482353 69.943573 
L 435.858367 70.366466 
L 436.234382 72.698377 
L 436.610396 76.884537 
L 437.362425 90.38514 
L 438.114454 109.607472 
L 439.618512 157.670112 
L 440.746555 193.268503 
L 441.498584 212.588488 
L 442.250613 226.217892 
L 442.626627 230.476462 
L 443.002642 232.883889 
L 443.378656 233.383633 
L 443.754671 231.963962 
L 444.130685 228.658209 
L 444.5067 223.544015 
L 445.258728 208.410371 
L 446.010757 187.976331 
L 447.138801 151.6536 
L 447.138801 151.6536 
" style="fill:none;stroke:#000000;stroke-linecap:square;stroke-width:1.5;"/>
   </g>
   <g id="line2d_13">
    <path clip-path="url(#p775698c6ab)" d="M 62.1 151.6536 
L 63.604058 104.560867 
L 64.356087 86.565715 
L 65.108116 74.648991 
L 65.48413 71.343238 
L 65.860145 69.923567 
L 66.236159 70.423311 
L 66.612173 72.830737 
L 66.988188 77.089308 
L 67.740217 90.718712 
L 68.492246 110.038696 
L 69.996304 158.170465 
L 71.124347 193.699728 
L 71.876376 212.92206 
L 72.628405 226.422663 
L 73.004419 230.608823 
L 73.380434 232.940734 
L 73.756448 233.363627 
L 74.132463 231.867568 
L 74.508477 228.487698 
L 74.884491 223.30339 
L 75.63652 208.047989 
L 76.388549 187.526029 
L 79.396665 94.536582 
L 80.148694 79.525266 
L 80.524708 74.481381 
L 80.900723 71.249871 
L 81.276737 69.906632 
L 81.652752 70.483208 
L 82.028766 72.966062 
L 82.404781 77.296881 
L 83.156809 91.054576 
L 83.908838 110.471485 
L 85.412896 158.670572 
L 86.540939 194.129368 
L 87.292968 213.253327 
L 88.044997 226.624616 
L 88.421012 230.73821 
L 88.797026 232.994517 
L 89.173041 233.34054 
L 89.549055 231.768161 
L 89.92507 228.314297 
L 90.301084 223.060069 
L 91.053113 207.683481 
L 91.805142 187.074375 
L 94.813257 94.178484 
L 95.565286 79.290067 
L 95.941301 74.316677 
L 96.317315 71.159532 
L 96.69333 69.892778 
L 97.069344 70.546166 
L 97.445359 73.104355 
L 97.821373 77.507258 
L 98.573402 91.392721 
L 99.325431 110.905825 
L 100.829489 159.170416 
L 101.957532 194.557404 
L 102.709561 213.582268 
L 103.46159 226.823746 
L 103.837604 230.864618 
L 104.213619 233.045235 
L 104.589633 233.314377 
L 104.965648 231.665732 
L 105.341662 228.13801 
L 105.717677 222.814058 
L 106.469706 207.316862 
L 107.221734 186.621387 
L 110.22985 93.822551 
L 110.981879 79.057588 
L 111.357893 74.154882 
L 111.733908 71.072219 
L 112.109922 69.882 
L 112.485937 70.612175 
L 112.861951 73.245602 
L 113.237966 77.720423 
L 113.989995 91.733137 
L 114.742024 111.341697 
L 116.246081 159.669976 
L 117.374125 194.983831 
L 118.126154 213.908884 
L 118.878183 227.020044 
L 119.254197 230.988048 
L 119.630211 233.092891 
L 120.006226 233.285143 
L 120.38224 231.56029 
L 120.758255 227.958842 
L 121.134269 222.565371 
L 121.886298 206.948147 
L 122.638327 186.167083 
L 125.646443 93.468793 
L 126.398472 78.827844 
L 126.774486 73.996008 
L 127.150501 70.987944 
L 127.526515 69.874302 
L 127.902529 70.681241 
L 128.278544 73.389798 
L 128.654558 77.936376 
L 129.406587 92.075811 
L 130.158616 111.779088 
L 131.662674 160.169235 
L 132.790717 195.408625 
L 133.542746 214.23315 
L 134.294775 227.213505 
L 134.67079 231.108489 
L 135.046804 233.13748 
L 135.422818 233.252833 
L 135.798833 231.45184 
L 136.174847 227.776797 
L 136.550862 222.314012 
L 137.302891 206.577356 
L 138.430934 173.950062 
L 140.687021 102.53191 
L 141.43905 85.07727 
L 142.191079 73.840054 
L 142.567093 70.906705 
L 142.943108 69.869686 
L 143.319122 70.753349 
L 143.695136 73.536944 
L 144.071151 78.155098 
L 144.82318 92.420722 
L 145.575209 112.21798 
L 147.079267 160.668173 
L 148.20731 195.831767 
L 148.959339 214.555067 
L 149.711368 227.404124 
L 150.087382 231.225938 
L 150.463397 233.178999 
L 150.839411 233.217451 
L 151.215426 231.340388 
L 151.59144 227.591891 
L 151.967454 222.059996 
L 152.719483 206.204493 
L 153.847527 173.466824 
L 156.103613 102.131602 
L 156.855642 84.787054 
L 157.607671 73.687034 
L 157.983686 70.828504 
L 158.3597 69.868145 
L 158.735715 70.828504 
L 159.111729 73.687034 
L 159.487744 78.376594 
L 160.239772 92.767866 
L 160.991801 112.658359 
L 162.495859 161.166772 
L 163.623903 196.253251 
L 164.375931 214.87461 
L 165.12796 227.591891 
L 165.503975 231.340388 
L 165.879989 233.217451 
L 166.256004 233.178999 
L 166.632018 231.225938 
L 167.008033 227.404124 
L 167.760062 214.555067 
L 168.51209 195.831767 
L 169.640134 160.668173 
L 171.520206 101.733166 
L 172.272235 84.499359 
L 173.024264 73.536944 
L 173.400278 70.753349 
L 173.776293 69.869686 
L 174.152307 70.906705 
L 174.528322 73.840054 
L 174.904336 78.600845 
L 175.656365 93.117227 
L 176.408394 113.100203 
L 177.912452 161.665013 
L 179.040495 196.673054 
L 179.792524 215.191778 
L 180.544553 227.776797 
L 180.920567 231.45184 
L 181.296582 233.252833 
L 181.672596 233.13748 
L 182.048611 231.108489 
L 182.424625 227.213505 
L 183.176654 214.23315 
L 183.928683 195.408625 
L 185.056726 160.169235 
L 186.560784 111.779088 
L 187.312813 92.075811 
L 188.064842 77.936376 
L 188.440856 73.389798 
L 188.816871 70.681241 
L 189.192885 69.874302 
L 189.5689 70.987944 
L 189.944914 73.996008 
L 190.320929 78.827844 
L 191.072958 93.468793 
L 191.824987 113.5435 
L 193.705059 174.432459 
L 194.833102 206.948147 
L 195.585131 222.565371 
L 195.961146 227.958842 
L 196.33716 231.56029 
L 196.713174 233.285143 
L 197.089189 233.092891 
L 197.465203 230.988048 
L 197.841218 227.020044 
L 198.593247 213.908884 
L 199.345276 194.983831 
L 200.473319 159.669976 
L 201.977377 111.341697 
L 202.729406 91.733137 
L 203.481435 77.720423 
L 203.857449 73.245602 
L 204.233464 70.612175 
L 204.609478 69.882 
L 204.985492 71.072219 
L 205.361507 74.154882 
L 205.737521 79.057588 
L 206.48955 93.822551 
L 207.241579 113.988232 
L 209.121651 174.913999 
L 210.249695 207.316862 
L 211.001724 222.814058 
L 211.377738 228.13801 
L 211.753753 231.665732 
L 212.129767 233.314377 
L 212.505782 233.045235 
L 212.881796 230.864618 
L 213.25781 226.823746 
L 214.009839 213.582268 
L 214.761868 194.557404 
L 215.889912 159.170416 
L 217.393969 110.905825 
L 218.145998 91.392721 
L 218.898027 77.507258 
L 219.274042 73.104355 
L 219.650056 70.546166 
L 220.026071 69.892778 
L 220.402085 71.159532 
L 220.7781 74.316677 
L 221.154114 79.290067 
L 221.906143 94.178484 
L 222.658172 114.434383 
L 226.042302 216.128869 
L 226.794331 228.314297 
L 227.170345 231.768161 
L 227.54636 233.34054 
L 227.922374 232.994517 
L 228.298389 230.73821 
L 228.674403 226.624616 
L 229.426432 213.253327 
L 230.178461 194.129368 
L 231.682519 146.137668 
L 233.186576 100.158349 
L 233.938605 83.373959 
L 234.690634 72.966062 
L 235.066649 70.483208 
L 235.442663 69.906632 
L 235.818678 71.249871 
L 236.194692 74.481381 
L 236.570707 79.525266 
L 237.322735 94.536582 
L 238.074764 114.881932 
L 241.458894 216.436396 
L 242.210923 228.487698 
L 242.586938 231.867568 
L 242.962952 233.363627 
L 243.338967 232.940734 
L 243.714981 230.608823 
L 244.090996 226.422663 
L 244.843025 212.92206 
L 245.595053 193.699728 
L 247.099111 145.637088 
L 248.227155 110.038696 
L 248.979184 90.718712 
L 249.731212 77.089308 
L 250.107227 72.830737 
L 250.483241 70.423311 
L 250.859256 69.923567 
L 251.23527 71.343238 
L 251.611285 74.648991 
L 251.987299 79.763185 
L 252.739328 94.896829 
L 253.491357 115.330869 
L 256.875487 216.741485 
L 257.627516 228.658209 
L 258.00353 231.963962 
L 258.379545 233.383633 
L 258.755559 232.883889 
L 259.131574 230.476462 
L 259.507588 226.217892 
L 260.259617 212.588488 
L 261.011646 193.268503 
L 262.515704 145.136735 
L 263.643747 109.607472 
L 264.395776 90.38514 
L 265.147805 76.884537 
L 265.52382 72.698377 
L 265.899834 70.366466 
L 266.275848 69.943573 
L 266.651863 71.439632 
L 267.027877 74.819502 
L 267.403892 80.00381 
L 268.155921 95.259211 
L 268.90795 115.781171 
L 271.916065 208.770618 
L 272.668094 223.781934 
L 273.044109 228.825819 
L 273.420123 232.057329 
L 273.796138 233.400568 
L 274.172152 232.823992 
L 274.548166 230.341138 
L 274.924181 226.010319 
L 275.67621 212.252624 
L 276.428239 192.835714 
L 277.932296 144.636628 
L 279.06034 109.177832 
L 279.812369 90.053873 
L 280.564398 76.682584 
L 280.940412 72.56899 
L 281.316427 70.312683 
L 281.692441 69.96666 
L 282.068455 71.539039 
L 282.44447 74.992903 
L 282.820484 80.24713 
L 283.572513 95.623719 
L 284.324542 116.232825 
L 287.332658 209.128716 
L 288.084687 224.017133 
L 288.460701 228.990523 
L 288.836716 232.147668 
L 289.21273 233.414422 
L 289.588745 232.761034 
L 289.964759 230.202845 
L 290.340773 225.799942 
L 291.092802 211.914479 
L 291.844831 192.401375 
L 293.348889 144.136784 
L 294.476932 108.749796 
L 295.228961 89.724932 
L 295.98099 76.483454 
L 296.357005 72.442582 
L 296.733019 70.261965 
L 297.109034 69.992823 
L 297.485048 71.641468 
L 297.861063 75.16919 
L 298.237077 80.493142 
L 298.989106 95.990338 
L 299.741135 116.685813 
L 302.74925 209.484649 
L 303.501279 224.249612 
L 303.877294 229.152318 
L 304.253308 232.234981 
L 304.629323 233.4252 
L 305.005337 232.695025 
L 305.381352 230.061598 
L 305.757366 225.586777 
L 306.509395 211.574063 
L 307.261424 191.965503 
L 308.765482 143.637224 
L 309.893525 108.323369 
L 310.645554 89.398316 
L 311.397583 76.287156 
L 311.773597 72.319152 
L 312.149612 70.214309 
L 312.525626 70.022057 
L 312.901641 71.74691 
L 313.277655 75.348358 
L 313.65367 80.741829 
L 314.405699 96.359052 
L 315.157727 117.140117 
L 318.165843 209.838407 
L 318.917872 224.479356 
L 319.293886 229.311192 
L 319.669901 232.319256 
L 320.045915 233.432898 
L 320.42193 232.625959 
L 320.797944 229.917402 
L 321.173959 225.370824 
L 321.925988 211.231389 
L 322.678017 191.528112 
L 324.182074 143.137965 
L 325.310118 107.898575 
L 326.062147 89.07405 
L 326.814175 76.093695 
L 327.19019 72.198711 
L 327.566204 70.16972 
L 327.942219 70.054367 
L 328.318233 71.85536 
L 328.694248 75.530403 
L 329.070262 80.993188 
L 329.822291 96.729844 
L 330.950334 129.357138 
L 333.206421 200.77529 
L 333.95845 218.22993 
L 334.710479 229.467146 
L 335.086493 232.400495 
L 335.462508 233.437514 
L 335.838522 232.553851 
L 336.214537 229.770256 
L 336.590551 225.152101 
L 337.34258 210.886478 
L 338.094609 191.08922 
L 339.598667 142.639027 
L 340.72671 107.475433 
L 341.478739 88.752133 
L 342.230768 75.903076 
L 342.606783 72.081262 
L 342.982797 70.128201 
L 343.358811 70.089749 
L 343.734826 71.966812 
L 344.11084 75.715308 
L 344.486855 81.247204 
L 345.238884 97.102707 
L 346.366927 129.840376 
L 348.623014 201.175598 
L 349.375043 218.520146 
L 350.127072 229.620166 
L 350.503086 232.478696 
L 350.879101 233.439055 
L 351.255115 232.478696 
L 351.631129 229.620166 
L 352.007144 224.930606 
L 352.759173 210.539334 
L 353.511202 190.648841 
L 355.01526 142.140428 
L 356.143303 107.053949 
L 356.895332 88.43259 
L 357.647361 75.715308 
L 358.023375 71.966812 
L 358.39939 70.089749 
L 358.775404 70.128201 
L 359.151419 72.081262 
L 359.527433 75.903076 
L 360.279462 88.752133 
L 361.031491 107.475433 
L 362.159534 142.639027 
L 364.039606 201.574034 
L 364.791635 218.807841 
L 365.543664 229.770256 
L 365.919679 232.553851 
L 366.295693 233.437514 
L 366.671708 232.400495 
L 367.047722 229.467146 
L 367.423737 224.706355 
L 368.175765 210.189973 
L 368.927794 190.206997 
L 370.431852 141.642187 
L 371.559896 106.634146 
L 372.311924 88.115422 
L 373.063953 75.530403 
L 373.439968 71.85536 
L 373.815982 70.054367 
L 374.191997 70.16972 
L 374.568011 72.198711 
L 374.944026 76.093695 
L 375.696054 89.07405 
L 376.448083 107.898575 
L 377.576127 143.137965 
L 379.080185 191.528112 
L 379.832213 211.231389 
L 380.584242 225.370824 
L 380.960257 229.917402 
L 381.336271 232.625959 
L 381.712286 233.432898 
L 382.0883 232.319256 
L 382.464315 229.311192 
L 382.840329 224.479356 
L 383.592358 209.838407 
L 384.344387 189.7637 
L 386.224459 128.874741 
L 387.352503 96.359052 
L 388.104531 80.741829 
L 388.480546 75.348358 
L 388.85656 71.74691 
L 389.232575 70.022057 
L 389.608589 70.214309 
L 389.984604 72.319152 
L 390.360618 76.287156 
L 391.112647 89.398316 
L 391.864676 108.323369 
L 392.992719 143.637224 
L 394.496777 191.965503 
L 395.248806 211.574063 
L 396.000835 225.586777 
L 396.376849 230.061598 
L 396.752864 232.695025 
L 397.128878 233.4252 
L 397.504893 232.234981 
L 397.880907 229.152318 
L 398.256922 224.249612 
L 399.008951 209.484649 
L 399.76098 189.318968 
L 401.641052 128.393201 
L 402.769095 95.990338 
L 403.521124 80.493142 
L 403.897139 75.16919 
L 404.273153 71.641468 
L 404.649167 69.992823 
L 405.025182 70.261965 
L 405.401196 72.442582 
L 405.777211 76.483454 
L 406.52924 89.724932 
L 407.281269 108.749796 
L 408.409312 144.136784 
L 409.91337 192.401375 
L 410.665399 211.914479 
L 411.417428 225.799942 
L 411.793442 230.202845 
L 412.169457 232.761034 
L 412.545471 233.414422 
L 412.921485 232.147668 
L 413.2975 228.990523 
L 413.673514 224.017133 
L 414.425543 209.128716 
L 415.177572 188.872817 
L 418.561702 87.178331 
L 419.313731 74.992903 
L 419.689746 71.539039 
L 420.06576 69.96666 
L 420.441775 70.312683 
L 420.817789 72.56899 
L 421.193803 76.682584 
L 421.945832 90.053873 
L 422.697861 109.177832 
L 424.201919 157.169532 
L 425.705977 203.148851 
L 426.458006 219.933241 
L 427.210035 230.341138 
L 427.586049 232.823992 
L 427.962064 233.400568 
L 428.338078 232.057329 
L 428.714092 228.825819 
L 429.090107 223.781934 
L 429.842136 208.770618 
L 430.594165 188.425267 
L 433.978295 86.870804 
L 434.730324 74.819502 
L 435.106338 71.439632 
L 435.482353 69.943573 
L 435.858367 70.366466 
L 436.234382 72.698377 
L 436.610396 76.884537 
L 437.362425 90.38514 
L 438.114454 109.607472 
L 439.618512 157.670112 
L 440.746555 193.268503 
L 441.498584 212.588488 
L 442.250613 226.217892 
L 442.626627 230.476462 
L 443.002642 232.883889 
L 443.378656 233.383633 
L 443.754671 231.963962 
L 444.130685 228.658209 
L 444.5067 223.544015 
L 445.258728 208.410371 
L 446.010757 187.976331 
L 447.138801 151.6536 
L 447.138801 151.6536 
" style="fill:none;stroke:#000000;stroke-linecap:square;stroke-width:1.5;"/>
   </g>
   <g id="patch_3">
    <path d="M 62.1 241.6176 
L 62.1 61.6896 
" style="fill:none;stroke:#000000;stroke-linecap:square;stroke-linejoin:miter;stroke-width:0.8;"/>
   </g>
   <g id="patch_4">
    <path d="M 447.12 241.6176 
L 447.12 61.6896 
" style="fill:none;stroke:#000000;stroke-linecap:square;stroke-linejoin:miter;stroke-width:0.8;"/>
   </g>
   <g id="patch_5">
    <path d="M 62.1 241.6176 
L 447.12 241.6176 
" style="fill:none;stroke:#000000;stroke-linecap:square;stroke-linejoin:miter;stroke-width:0.8;"/>
   </g>
   <g id="patch_6">
    <path d="M 62.1 61.6896 
L 447.12 61.6896 
" style="fill:none;stroke:#000000;stroke-linecap:square;stroke-linejoin:miter;stroke-width:0.8;"/>
   </g>
   <g id="text_13">
    <!-- Original: Tono de 1 kHz, Amplitud 1.0 -->
    <g transform="translate(163.814062 55.6896)scale(0.12 -0.12)">
     <defs>
      <path d="M 3925 2069 
Q 3925 1578 3809 1184 
Q 3694 791 3464 514 
Q 3234 238 2887 89 
Q 2541 -59 2078 -59 
Q 1622 -59 1289 77 
Q 956 213 739 472 
Q 522 731 415 1115 
Q 309 1500 309 2000 
Q 309 2478 425 2868 
Q 541 3259 772 3532 
Q 1003 3806 1350 3954 
Q 1697 4103 2159 4103 
Q 2606 4103 2937 3968 
Q 3269 3834 3489 3576 
Q 3709 3319 3817 2939 
Q 3925 2559 3925 2069 
z
M 3359 2031 
Q 3359 2375 3298 2670 
Q 3238 2966 3095 3183 
Q 2953 3400 2715 3522 
Q 2478 3644 2128 3644 
Q 1778 3644 1540 3512 
Q 1303 3381 1154 3162 
Q 1006 2944 942 2651 
Q 878 2359 878 2038 
Q 878 1681 937 1381 
Q 997 1081 1137 864 
Q 1278 647 1514 526 
Q 1750 406 2106 406 
Q 2459 406 2700 537 
Q 2941 669 3087 892 
Q 3234 1116 3296 1409 
Q 3359 1703 3359 2031 
z
" id="Calibri-4f" transform="scale(0.015625)"/>
      <path d="M 2122 2706 
Q 2122 2638 2119 2591 
Q 2116 2544 2106 2517 
Q 2097 2491 2083 2477 
Q 2069 2463 2044 2463 
Q 2019 2463 1983 2477 
Q 1947 2491 1901 2505 
Q 1856 2519 1800 2531 
Q 1744 2544 1678 2544 
Q 1600 2544 1525 2512 
Q 1450 2481 1367 2409 
Q 1284 2338 1193 2219 
Q 1103 2100 994 1928 
L 994 78 
Q 994 53 981 36 
Q 969 19 941 6 
Q 913 -6 863 -12 
Q 813 -19 734 -19 
Q 659 -19 609 -12 
Q 559 -6 529 6 
Q 500 19 489 36 
Q 478 53 478 78 
L 478 2891 
Q 478 2916 487 2933 
Q 497 2950 525 2964 
Q 553 2978 597 2983 
Q 641 2988 713 2988 
Q 781 2988 826 2983 
Q 872 2978 897 2964 
Q 922 2950 933 2933 
Q 944 2916 944 2891 
L 944 2481 
Q 1059 2650 1161 2756 
Q 1263 2863 1353 2923 
Q 1444 2984 1533 3007 
Q 1622 3031 1713 3031 
Q 1753 3031 1804 3026 
Q 1856 3022 1912 3009 
Q 1969 2997 2014 2981 
Q 2059 2966 2078 2950 
Q 2097 2934 2103 2920 
Q 2109 2906 2114 2884 
Q 2119 2863 2120 2820 
Q 2122 2778 2122 2706 
z
" id="Calibri-72" transform="scale(0.015625)"/>
      <path d="M 2828 2763 
Q 2828 2653 2798 2604 
Q 2769 2556 2722 2556 
L 2319 2556 
Q 2428 2444 2472 2308 
Q 2516 2172 2516 2025 
Q 2516 1781 2437 1593 
Q 2359 1406 2214 1276 
Q 2069 1147 1869 1078 
Q 1669 1009 1425 1009 
Q 1253 1009 1098 1054 
Q 944 1100 859 1169 
Q 803 1113 767 1041 
Q 731 969 731 875 
Q 731 766 832 694 
Q 934 622 1103 616 
L 1838 584 
Q 2047 578 2222 526 
Q 2397 475 2525 379 
Q 2653 284 2725 145 
Q 2797 6 2797 -178 
Q 2797 -372 2715 -547 
Q 2634 -722 2467 -855 
Q 2300 -988 2040 -1064 
Q 1781 -1141 1428 -1141 
Q 1088 -1141 848 -1083 
Q 609 -1025 456 -925 
Q 303 -825 234 -686 
Q 166 -547 166 -384 
Q 166 -281 191 -184 
Q 216 -88 267 0 
Q 319 88 395 167 
Q 472 247 572 325 
Q 419 403 345 522 
Q 272 641 272 778 
Q 272 969 350 1119 
Q 428 1269 544 1388 
Q 447 1503 390 1648 
Q 334 1794 334 2000 
Q 334 2241 415 2431 
Q 497 2622 640 2753 
Q 784 2884 986 2954 
Q 1188 3025 1425 3025 
Q 1553 3025 1664 3011 
Q 1775 2997 1872 2972 
L 2722 2972 
Q 2775 2972 2801 2920 
Q 2828 2869 2828 2763 
z
M 2022 2022 
Q 2022 2309 1864 2470 
Q 1706 2631 1416 2631 
Q 1266 2631 1155 2581 
Q 1044 2531 970 2443 
Q 897 2356 861 2242 
Q 825 2128 825 2003 
Q 825 1725 983 1565 
Q 1141 1406 1425 1406 
Q 1578 1406 1690 1454 
Q 1803 1503 1876 1589 
Q 1950 1675 1986 1787 
Q 2022 1900 2022 2022 
z
M 2281 -206 
Q 2281 -25 2132 73 
Q 1984 172 1731 178 
L 1003 203 
Q 903 125 839 54 
Q 775 -16 737 -80 
Q 700 -144 686 -206 
Q 672 -269 672 -334 
Q 672 -538 878 -642 
Q 1084 -747 1453 -747 
Q 1688 -747 1845 -701 
Q 2003 -656 2100 -581 
Q 2197 -506 2239 -409 
Q 2281 -313 2281 -206 
z
" id="Calibri-67" transform="scale(0.015625)"/>
      <path d="M 2900 78 
Q 2900 53 2887 36 
Q 2875 19 2847 6 
Q 2819 -6 2769 -12 
Q 2719 -19 2644 -19 
Q 2566 -19 2516 -12 
Q 2466 -6 2437 6 
Q 2409 19 2396 36 
Q 2384 53 2384 78 
L 2384 1725 
Q 2384 1966 2346 2112 
Q 2309 2259 2237 2365 
Q 2166 2472 2052 2528 
Q 1938 2584 1788 2584 
Q 1594 2584 1400 2446 
Q 1206 2309 994 2044 
L 994 78 
Q 994 53 981 36 
Q 969 19 941 6 
Q 913 -6 863 -12 
Q 813 -19 734 -19 
Q 659 -19 609 -12 
Q 559 -6 529 6 
Q 500 19 489 36 
Q 478 53 478 78 
L 478 2891 
Q 478 2916 487 2933 
Q 497 2950 525 2964 
Q 553 2978 597 2983 
Q 641 2988 713 2988 
Q 781 2988 826 2983 
Q 872 2978 897 2964 
Q 922 2950 933 2933 
Q 944 2916 944 2891 
L 944 2519 
Q 1181 2784 1417 2907 
Q 1653 3031 1894 3031 
Q 2175 3031 2367 2936 
Q 2559 2841 2678 2681 
Q 2797 2522 2848 2308 
Q 2900 2094 2900 1794 
L 2900 78 
z
" id="Calibri-6e" transform="scale(0.015625)"/>
      <path d="M 2597 75 
Q 2597 38 2572 19 
Q 2547 0 2503 -9 
Q 2459 -19 2375 -19 
Q 2294 -19 2245 -9 
Q 2197 0 2175 19 
Q 2153 38 2153 75 
L 2153 356 
Q 1969 159 1742 50 
Q 1516 -59 1263 -59 
Q 1041 -59 861 -1 
Q 681 56 554 165 
Q 428 275 358 434 
Q 288 594 288 797 
Q 288 1034 384 1209 
Q 481 1384 662 1500 
Q 844 1616 1106 1673 
Q 1369 1731 1697 1731 
L 2084 1731 
L 2084 1950 
Q 2084 2113 2050 2238 
Q 2016 2363 1939 2445 
Q 1863 2528 1741 2570 
Q 1619 2613 1441 2613 
Q 1250 2613 1098 2567 
Q 947 2522 833 2467 
Q 719 2413 642 2367 
Q 566 2322 528 2322 
Q 503 2322 484 2334 
Q 466 2347 452 2372 
Q 438 2397 431 2436 
Q 425 2475 425 2522 
Q 425 2600 436 2645 
Q 447 2691 489 2731 
Q 531 2772 634 2826 
Q 738 2881 872 2926 
Q 1006 2972 1165 3001 
Q 1325 3031 1488 3031 
Q 1791 3031 2003 2962 
Q 2216 2894 2347 2761 
Q 2478 2628 2537 2431 
Q 2597 2234 2597 1972 
L 2597 75 
z
M 2084 1359 
L 1644 1359 
Q 1431 1359 1275 1323 
Q 1119 1288 1016 1217 
Q 913 1147 864 1048 
Q 816 950 816 822 
Q 816 603 955 473 
Q 1094 344 1344 344 
Q 1547 344 1720 447 
Q 1894 550 2084 763 
L 2084 1359 
z
" id="Calibri-61" transform="scale(0.015625)"/>
      <path d="M 1241 2500 
Q 1241 2400 1227 2331 
Q 1213 2263 1173 2220 
Q 1134 2178 1071 2161 
Q 1009 2144 913 2144 
Q 813 2144 750 2161 
Q 688 2178 650 2220 
Q 613 2263 598 2331 
Q 584 2400 584 2500 
Q 584 2606 598 2676 
Q 613 2747 650 2789 
Q 688 2831 750 2848 
Q 813 2866 913 2866 
Q 1009 2866 1071 2848 
Q 1134 2831 1173 2789 
Q 1213 2747 1227 2676 
Q 1241 2606 1241 2500 
z
M 1241 331 
Q 1241 228 1227 159 
Q 1213 91 1173 48 
Q 1134 6 1071 -11 
Q 1009 -28 913 -28 
Q 813 -28 750 -11 
Q 688 6 650 48 
Q 613 91 598 159 
Q 584 228 584 331 
Q 584 434 598 504 
Q 613 575 650 615 
Q 688 656 750 675 
Q 813 694 913 694 
Q 1009 694 1071 675 
Q 1134 656 1173 615 
Q 1213 575 1227 504 
Q 1241 434 1241 331 
z
" id="Calibri-3a" transform="scale(0.015625)"/>
      <path id="Calibri-20" transform="scale(0.015625)"/>
      <path d="M 3072 3813 
Q 3072 3753 3065 3709 
Q 3059 3666 3045 3639 
Q 3031 3613 3011 3600 
Q 2991 3588 2966 3588 
L 1828 3588 
L 1828 81 
Q 1828 56 1815 37 
Q 1803 19 1772 8 
Q 1741 -3 1689 -11 
Q 1638 -19 1559 -19 
Q 1484 -19 1431 -11 
Q 1378 -3 1347 8 
Q 1316 19 1303 37 
Q 1291 56 1291 81 
L 1291 3588 
L 153 3588 
Q 128 3588 108 3600 
Q 88 3613 75 3639 
Q 63 3666 55 3709 
Q 47 3753 47 3813 
Q 47 3872 55 3917 
Q 63 3963 75 3991 
Q 88 4019 108 4031 
Q 128 4044 153 4044 
L 2966 4044 
Q 2991 4044 3011 4031 
Q 3031 4019 3045 3991 
Q 3059 3963 3065 3917 
Q 3072 3872 3072 3813 
z
" id="Calibri-54" transform="scale(0.015625)"/>
      <path d="M 3094 1516 
Q 3094 1172 3003 883 
Q 2913 594 2733 384 
Q 2553 175 2283 58 
Q 2013 -59 1656 -59 
Q 1309 -59 1051 44 
Q 794 147 622 344 
Q 450 541 365 822 
Q 281 1103 281 1459 
Q 281 1803 370 2092 
Q 459 2381 639 2590 
Q 819 2800 1087 2915 
Q 1356 3031 1716 3031 
Q 2063 3031 2320 2928 
Q 2578 2825 2750 2628 
Q 2922 2431 3008 2150 
Q 3094 1869 3094 1516 
z
M 2550 1481 
Q 2550 1709 2508 1912 
Q 2466 2116 2369 2269 
Q 2272 2422 2106 2511 
Q 1941 2600 1694 2600 
Q 1466 2600 1302 2519 
Q 1138 2438 1031 2289 
Q 925 2141 873 1937 
Q 822 1734 822 1494 
Q 822 1263 864 1059 
Q 906 856 1004 704 
Q 1103 553 1268 464 
Q 1434 375 1681 375 
Q 1906 375 2072 456 
Q 2238 538 2344 684 
Q 2450 831 2500 1034 
Q 2550 1238 2550 1481 
z
" id="Calibri-6f" transform="scale(0.015625)"/>
      <path d="M 2878 1606 
Q 2878 1484 2817 1432 
Q 2756 1381 2678 1381 
L 834 1381 
Q 834 1147 881 959 
Q 928 772 1037 637 
Q 1147 503 1322 431 
Q 1497 359 1750 359 
Q 1950 359 2106 392 
Q 2263 425 2377 465 
Q 2491 506 2564 539 
Q 2638 572 2675 572 
Q 2697 572 2714 561 
Q 2731 550 2740 528 
Q 2750 506 2754 467 
Q 2759 428 2759 372 
Q 2759 331 2756 301 
Q 2753 272 2748 248 
Q 2744 225 2733 206 
Q 2722 188 2705 170 
Q 2688 153 2603 114 
Q 2519 75 2384 37 
Q 2250 0 2073 -29 
Q 1897 -59 1697 -59 
Q 1350 -59 1089 37 
Q 828 134 650 325 
Q 472 516 381 803 
Q 291 1091 291 1472 
Q 291 1834 384 2123 
Q 478 2413 654 2614 
Q 831 2816 1081 2923 
Q 1331 3031 1641 3031 
Q 1972 3031 2205 2925 
Q 2438 2819 2588 2639 
Q 2738 2459 2808 2217 
Q 2878 1975 2878 1700 
L 2878 1606 
z
M 2359 1759 
Q 2369 2166 2180 2397 
Q 1991 2628 1619 2628 
Q 1428 2628 1284 2556 
Q 1141 2484 1044 2365 
Q 947 2247 894 2089 
Q 841 1931 834 1759 
L 2359 1759 
z
" id="Calibri-65" transform="scale(0.015625)"/>
      <path d="M 2788 81 
Q 2788 56 2775 37 
Q 2763 19 2733 6 
Q 2703 -6 2650 -12 
Q 2597 -19 2516 -19 
Q 2431 -19 2376 -14 
Q 2322 -9 2284 2 
Q 2247 13 2223 33 
Q 2200 53 2181 81 
L 994 1638 
L 994 78 
Q 994 53 981 36 
Q 969 19 941 6 
Q 913 -6 863 -12 
Q 813 -19 734 -19 
Q 659 -19 609 -12 
Q 559 -6 529 6 
Q 500 19 489 36 
Q 478 53 478 78 
L 478 4253 
Q 478 4278 489 4297 
Q 500 4316 529 4328 
Q 559 4341 609 4347 
Q 659 4353 734 4353 
Q 813 4353 863 4347 
Q 913 4341 941 4328 
Q 969 4316 981 4297 
Q 994 4278 994 4253 
L 994 1709 
L 2056 2878 
Q 2081 2909 2109 2929 
Q 2138 2950 2177 2964 
Q 2216 2978 2269 2983 
Q 2322 2988 2397 2988 
Q 2475 2988 2528 2983 
Q 2581 2978 2614 2967 
Q 2647 2956 2661 2939 
Q 2675 2922 2675 2894 
Q 2675 2856 2654 2818 
Q 2634 2781 2588 2731 
L 1569 1713 
L 2713 228 
Q 2753 175 2770 142 
Q 2788 109 2788 81 
z
" id="Calibri-6b" transform="scale(0.015625)"/>
      <path d="M 3450 81 
Q 3450 56 3437 37 
Q 3425 19 3394 8 
Q 3363 -3 3311 -11 
Q 3259 -19 3184 -19 
Q 3103 -19 3053 -11 
Q 3003 -3 2972 8 
Q 2941 19 2928 37 
Q 2916 56 2916 81 
L 2916 1875 
L 1075 1875 
L 1075 81 
Q 1075 56 1062 37 
Q 1050 19 1019 8 
Q 988 -3 936 -11 
Q 884 -19 806 -19 
Q 731 -19 678 -11 
Q 625 -3 594 8 
Q 563 19 550 37 
Q 538 56 538 81 
L 538 3963 
Q 538 3988 550 4006 
Q 563 4025 594 4036 
Q 625 4047 678 4055 
Q 731 4063 806 4063 
Q 884 4063 936 4055 
Q 988 4047 1019 4036 
Q 1050 4025 1062 4006 
Q 1075 3988 1075 3963 
L 1075 2344 
L 2916 2344 
L 2916 3963 
Q 2916 3988 2928 4006 
Q 2941 4025 2972 4036 
Q 3003 4047 3053 4055 
Q 3103 4063 3184 4063 
Q 3259 4063 3311 4055 
Q 3363 4047 3394 4036 
Q 3425 4025 3437 4006 
Q 3450 3988 3450 3963 
L 3450 81 
z
" id="Calibri-48" transform="scale(0.015625)"/>
      <path d="M 2272 219 
Q 2272 159 2262 117 
Q 2253 75 2240 48 
Q 2228 22 2206 11 
Q 2184 0 2159 0 
L 428 0 
Q 363 0 320 44 
Q 278 88 278 191 
L 278 297 
Q 278 341 284 375 
Q 291 409 303 443 
Q 316 478 337 517 
Q 359 556 391 606 
L 1631 2538 
L 428 2538 
Q 378 2538 348 2589 
Q 319 2641 319 2756 
Q 319 2813 325 2855 
Q 331 2897 345 2923 
Q 359 2950 379 2961 
Q 400 2972 428 2972 
L 2041 2972 
Q 2075 2972 2101 2962 
Q 2128 2953 2147 2931 
Q 2166 2909 2177 2875 
Q 2188 2841 2188 2788 
L 2188 2688 
Q 2188 2644 2181 2606 
Q 2175 2569 2162 2533 
Q 2150 2497 2128 2456 
Q 2106 2416 2075 2366 
L 841 434 
L 2159 434 
Q 2184 434 2204 423 
Q 2225 413 2239 388 
Q 2253 363 2262 320 
Q 2272 278 2272 219 
z
" id="Calibri-7a" transform="scale(0.015625)"/>
      <path d="M 1159 447 
Q 1159 350 1150 269 
Q 1141 188 1119 116 
Q 1097 44 1061 -26 
Q 1025 -97 972 -175 
L 544 -819 
Q 528 -841 508 -856 
Q 488 -872 458 -884 
Q 428 -897 389 -901 
Q 350 -906 291 -906 
Q 238 -906 202 -901 
Q 166 -897 150 -886 
Q 134 -875 132 -856 
Q 131 -838 144 -813 
L 559 47 
L 559 447 
Q 559 531 576 581 
Q 594 631 631 656 
Q 669 681 725 690 
Q 781 700 863 700 
Q 941 700 997 690 
Q 1053 681 1089 656 
Q 1125 631 1142 581 
Q 1159 531 1159 447 
z
" id="Calibri-2c" transform="scale(0.015625)"/>
     </defs>
     <use xlink:href="#Calibri-4f"/>
     <use x="66.210938" xlink:href="#Calibri-72"/>
     <use x="101.074219" xlink:href="#Calibri-69"/>
     <use x="124.023438" xlink:href="#Calibri-67"/>
     <use x="171.09375" xlink:href="#Calibri-69"/>
     <use x="194.042969" xlink:href="#Calibri-6e"/>
     <use x="246.582031" xlink:href="#Calibri-61"/>
     <use x="294.482422" xlink:href="#Calibri-6c"/>
     <use x="317.431641" xlink:href="#Calibri-3a"/>
     <use x="344.189453" xlink:href="#Calibri-20"/>
     <use x="366.796875" xlink:href="#Calibri-54"/>
     <use x="415.527344" xlink:href="#Calibri-6f"/>
     <use x="468.261719" xlink:href="#Calibri-6e"/>
     <use x="520.800781" xlink:href="#Calibri-6f"/>
     <use x="573.535156" xlink:href="#Calibri-20"/>
     <use x="596.142578" xlink:href="#Calibri-64"/>
     <use x="648.681641" xlink:href="#Calibri-65"/>
     <use x="698.4375" xlink:href="#Calibri-20"/>
     <use x="721.044922" xlink:href="#Calibri-31"/>
     <use x="771.728516" xlink:href="#Calibri-20"/>
     <use x="794.335938" xlink:href="#Calibri-6b"/>
     <use x="839.794922" xlink:href="#Calibri-48"/>
     <use x="902.099609" xlink:href="#Calibri-7a"/>
     <use x="941.601562" xlink:href="#Calibri-2c"/>
     <use x="966.552734" xlink:href="#Calibri-20"/>
     <use x="989.160156" xlink:href="#Calibri-41"/>
     <use x="1047.021484" xlink:href="#Calibri-6d"/>
     <use x="1126.904297" xlink:href="#Calibri-70"/>
     <use x="1179.443359" xlink:href="#Calibri-6c"/>
     <use x="1202.392578" xlink:href="#Calibri-69"/>
     <use x="1225.341797" xlink:href="#Calibri-74"/>
     <use x="1258.837891" xlink:href="#Calibri-75"/>
     <use x="1311.376953" xlink:href="#Calibri-64"/>
     <use x="1363.916016" xlink:href="#Calibri-20"/>
     <use x="1386.523438" xlink:href="#Calibri-31"/>
     <use x="1437.207031" xlink:href="#Calibri-2e"/>
     <use x="1462.451172" xlink:href="#Calibri-30"/>
    </g>
   </g>
  </g>
  <g id="axes_2">
   <g id="patch_7">
    <path d="M 62.1 457.5312 
L 447.12 457.5312 
L 447.12 277.6032 
L 62.1 277.6032 
z
" style="fill:#ffffff;"/>
   </g>
   <g id="matplotlib.axis_3">
    <g id="xtick_7">
     <g id="line2d_14">
      <g>
       <use style="stroke:#000000;stroke-width:0.8;" x="62.1" xlink:href="#maefede01b8" y="457.5312"/>
      </g>
     </g>
     <g id="text_14">
      <!-- 0.00 -->
      <g transform="translate(53.234375 471.332762)scale(0.1 -0.1)">
       <use xlink:href="#Calibri-30"/>
       <use x="50.683594" xlink:href="#Calibri-2e"/>
       <use x="75.927734" xlink:href="#Calibri-30"/>
       <use x="126.611328" xlink:href="#Calibri-30"/>
      </g>
     </g>
    </g>
    <g id="xtick_8">
     <g id="line2d_15">
      <g>
       <use style="stroke:#000000;stroke-width:0.8;" x="139.104" xlink:href="#maefede01b8" y="457.5312"/>
      </g>
     </g>
     <g id="text_15">
      <!-- 0.05 -->
      <g transform="translate(130.238375 471.332762)scale(0.1 -0.1)">
       <use xlink:href="#Calibri-30"/>
       <use x="50.683594" xlink:href="#Calibri-2e"/>
       <use x="75.927734" xlink:href="#Calibri-30"/>
       <use x="126.611328" xlink:href="#Calibri-35"/>
      </g>
     </g>
    </g>
    <g id="xtick_9">
     <g id="line2d_16">
      <g>
       <use style="stroke:#000000;stroke-width:0.8;" x="216.108" xlink:href="#maefede01b8" y="457.5312"/>
      </g>
     </g>
     <g id="text_16">
      <!-- 0.10 -->
      <g transform="translate(207.242375 471.332762)scale(0.1 -0.1)">
       <use xlink:href="#Calibri-30"/>
       <use x="50.683594" xlink:href="#Calibri-2e"/>
       <use x="75.927734" xlink:href="#Calibri-31"/>
       <use x="126.611328" xlink:href="#Calibri-30"/>
      </g>
     </g>
    </g>
    <g id="xtick_10">
     <g id="line2d_17">
      <g>
       <use style="stroke:#000000;stroke-width:0.8;" x="293.112" xlink:href="#maefede01b8" y="457.5312"/>
      </g>
     </g>
     <g id="text_17">
      <!-- 0.15 -->
      <g transform="translate(284.246375 471.332762)scale(0.1 -0.1)">
       <use xlink:href="#Calibri-30"/>
       <use x="50.683594" xlink:href="#Calibri-2e"/>
       <use x="75.927734" xlink:href="#Calibri-31"/>
       <use x="126.611328" xlink:href="#Calibri-35"/>
      </g>
     </g>
    </g>
    <g id="xtick_11">
     <g id="line2d_18">
      <g>
       <use style="stroke:#000000;stroke-width:0.8;" x="370.116" xlink:href="#maefede01b8" y="457.5312"/>
      </g>
     </g>
     <g id="text_18">
      <!-- 0.20 -->
      <g transform="translate(361.250375 471.332762)scale(0.1 -0.1)">
       <use xlink:href="#Calibri-30"/>
       <use x="50.683594" xlink:href="#Calibri-2e"/>
       <use x="75.927734" xlink:href="#Calibri-32"/>
       <use x="126.611328" xlink:href="#Calibri-30"/>
      </g>
     </g>
    </g>
    <g id="xtick_12">
     <g id="line2d_19">
      <g>
       <use style="stroke:#000000;stroke-width:0.8;" x="447.12" xlink:href="#maefede01b8" y="457.5312"/>
      </g>
     </g>
     <g id="text_19">
      <!-- 0.25 -->
      <g transform="translate(438.254375 471.332762)scale(0.1 -0.1)">
       <use xlink:href="#Calibri-30"/>
       <use x="50.683594" xlink:href="#Calibri-2e"/>
       <use x="75.927734" xlink:href="#Calibri-32"/>
       <use x="126.611328" xlink:href="#Calibri-35"/>
      </g>
     </g>
    </g>
    <g id="text_20">
     <!-- Tiempo [s] -->
     <g transform="translate(233.126406 483.942137)scale(0.1 -0.1)">
      <defs>
       <path d="M 1684 -813 
Q 1684 -916 1661 -958 
Q 1638 -1000 1594 -1000 
L 794 -1000 
Q 756 -1000 722 -989 
Q 688 -978 659 -953 
Q 631 -928 614 -886 
Q 597 -844 597 -781 
L 597 4153 
Q 597 4213 614 4255 
Q 631 4297 659 4323 
Q 688 4350 722 4361 
Q 756 4372 794 4372 
L 1594 4372 
Q 1613 4372 1630 4362 
Q 1647 4353 1659 4328 
Q 1672 4303 1678 4267 
Q 1684 4231 1684 4178 
Q 1684 4078 1661 4034 
Q 1638 3991 1594 3991 
L 1084 3991 
L 1084 -622 
L 1594 -622 
Q 1613 -622 1630 -631 
Q 1647 -641 1659 -664 
Q 1672 -688 1678 -723 
Q 1684 -759 1684 -813 
z
" id="Calibri-5b" transform="scale(0.015625)"/>
       <path d="M 2244 844 
Q 2244 628 2164 459 
Q 2084 291 1937 175 
Q 1791 59 1587 0 
Q 1384 -59 1141 -59 
Q 991 -59 855 -36 
Q 719 -13 611 23 
Q 503 59 428 98 
Q 353 138 318 169 
Q 284 200 268 256 
Q 253 313 253 409 
Q 253 469 259 509 
Q 266 550 275 575 
Q 284 600 301 611 
Q 319 622 341 622 
Q 375 622 442 580 
Q 509 538 607 488 
Q 706 438 840 395 
Q 975 353 1150 353 
Q 1281 353 1387 381 
Q 1494 409 1572 464 
Q 1650 519 1692 603 
Q 1734 688 1734 803 
Q 1734 922 1673 1003 
Q 1613 1084 1513 1146 
Q 1413 1209 1288 1257 
Q 1163 1306 1030 1359 
Q 897 1413 770 1480 
Q 644 1547 544 1644 
Q 444 1741 383 1875 
Q 322 2009 322 2197 
Q 322 2363 386 2514 
Q 450 2666 578 2780 
Q 706 2894 898 2962 
Q 1091 3031 1347 3031 
Q 1459 3031 1571 3012 
Q 1684 2994 1775 2966 
Q 1866 2938 1930 2905 
Q 1994 2872 2026 2847 
Q 2059 2822 2070 2803 
Q 2081 2784 2086 2761 
Q 2091 2738 2095 2703 
Q 2100 2669 2100 2619 
Q 2100 2566 2095 2527 
Q 2091 2488 2080 2463 
Q 2069 2438 2053 2427 
Q 2038 2416 2019 2416 
Q 1991 2416 1937 2450 
Q 1884 2484 1800 2523 
Q 1716 2563 1602 2597 
Q 1488 2631 1341 2631 
Q 1209 2631 1109 2601 
Q 1009 2572 945 2517 
Q 881 2463 848 2388 
Q 816 2313 816 2225 
Q 816 2103 878 2020 
Q 941 1938 1041 1875 
Q 1141 1813 1269 1763 
Q 1397 1713 1530 1659 
Q 1663 1606 1792 1540 
Q 1922 1475 2022 1381 
Q 2122 1288 2183 1156 
Q 2244 1025 2244 844 
z
" id="Calibri-73" transform="scale(0.015625)"/>
       <path d="M 1369 -781 
Q 1369 -844 1351 -886 
Q 1334 -928 1306 -953 
Q 1278 -978 1242 -989 
Q 1206 -1000 1169 -1000 
L 372 -1000 
Q 328 -1000 304 -958 
Q 281 -916 281 -813 
Q 281 -759 286 -723 
Q 291 -688 303 -664 
Q 316 -641 333 -631 
Q 350 -622 372 -622 
L 881 -622 
L 881 3991 
L 372 3991 
Q 328 3991 304 4034 
Q 281 4078 281 4178 
Q 281 4231 286 4267 
Q 291 4303 303 4328 
Q 316 4353 333 4362 
Q 350 4372 372 4372 
L 1169 4372 
Q 1206 4372 1242 4361 
Q 1278 4350 1306 4323 
Q 1334 4297 1351 4255 
Q 1369 4213 1369 4153 
L 1369 -781 
z
" id="Calibri-5d" transform="scale(0.015625)"/>
      </defs>
      <use xlink:href="#Calibri-54"/>
      <use x="48.730469" xlink:href="#Calibri-69"/>
      <use x="71.679688" xlink:href="#Calibri-65"/>
      <use x="121.435547" xlink:href="#Calibri-6d"/>
      <use x="201.318359" xlink:href="#Calibri-70"/>
      <use x="253.857422" xlink:href="#Calibri-6f"/>
      <use x="306.591797" xlink:href="#Calibri-20"/>
      <use x="329.199219" xlink:href="#Calibri-5b"/>
      <use x="359.863281" xlink:href="#Calibri-73"/>
      <use x="398.974609" xlink:href="#Calibri-5d"/>
     </g>
    </g>
   </g>
   <g id="matplotlib.axis_4">
    <g id="ytick_6">
     <g id="line2d_20">
      <g>
       <use style="stroke:#000000;stroke-width:0.8;" x="62.1" xlink:href="#mcb848cd782" y="449.352655"/>
      </g>
     </g>
     <g id="text_21">
      <!-- −1.0 -->
      <g transform="translate(37.45625 452.753436)scale(0.1 -0.1)">
       <use xlink:href="#Calibri-2212"/>
       <use x="49.804688" xlink:href="#Calibri-31"/>
       <use x="100.488281" xlink:href="#Calibri-2e"/>
       <use x="125.732422" xlink:href="#Calibri-30"/>
      </g>
     </g>
    </g>
    <g id="ytick_7">
     <g id="line2d_21">
      <g>
       <use style="stroke:#000000;stroke-width:0.8;" x="62.1" xlink:href="#mcb848cd782" y="408.459927"/>
      </g>
     </g>
     <g id="text_22">
      <!-- −0.5 -->
      <g transform="translate(37.45625 411.860709)scale(0.1 -0.1)">
       <use xlink:href="#Calibri-2212"/>
       <use x="49.804688" xlink:href="#Calibri-30"/>
       <use x="100.488281" xlink:href="#Calibri-2e"/>
       <use x="125.732422" xlink:href="#Calibri-35"/>
      </g>
     </g>
    </g>
    <g id="ytick_8">
     <g id="line2d_22">
      <g>
       <use style="stroke:#000000;stroke-width:0.8;" x="62.1" xlink:href="#mcb848cd782" y="367.5672"/>
      </g>
     </g>
     <g id="text_23">
      <!-- 0.0 -->
      <g transform="translate(42.4375 370.967981)scale(0.1 -0.1)">
       <use xlink:href="#Calibri-30"/>
       <use x="50.683594" xlink:href="#Calibri-2e"/>
       <use x="75.927734" xlink:href="#Calibri-30"/>
      </g>
     </g>
    </g>
    <g id="ytick_9">
     <g id="line2d_23">
      <g>
       <use style="stroke:#000000;stroke-width:0.8;" x="62.1" xlink:href="#mcb848cd782" y="326.674473"/>
      </g>
     </g>
     <g id="text_24">
      <!-- 0.5 -->
      <g transform="translate(42.4375 330.075254)scale(0.1 -0.1)">
       <use xlink:href="#Calibri-30"/>
       <use x="50.683594" xlink:href="#Calibri-2e"/>
       <use x="75.927734" xlink:href="#Calibri-35"/>
      </g>
     </g>
    </g>
    <g id="ytick_10">
     <g id="line2d_24">
      <g>
       <use style="stroke:#000000;stroke-width:0.8;" x="62.1" xlink:href="#mcb848cd782" y="285.781745"/>
      </g>
     </g>
     <g id="text_25">
      <!-- 1.0 -->
      <g transform="translate(42.4375 289.182527)scale(0.1 -0.1)">
       <use xlink:href="#Calibri-31"/>
       <use x="50.683594" xlink:href="#Calibri-2e"/>
       <use x="75.927734" xlink:href="#Calibri-30"/>
      </g>
     </g>
    </g>
    <g id="text_26">
     <!-- Amplitud -->
     <g transform="translate(31.678125 386.307044)rotate(-90)scale(0.1 -0.1)">
      <use xlink:href="#Calibri-41"/>
      <use x="57.861328" xlink:href="#Calibri-6d"/>
      <use x="137.744141" xlink:href="#Calibri-70"/>
      <use x="190.283203" xlink:href="#Calibri-6c"/>
      <use x="213.232422" xlink:href="#Calibri-69"/>
      <use x="236.181641" xlink:href="#Calibri-74"/>
      <use x="269.677734" xlink:href="#Calibri-75"/>
      <use x="322.216797" xlink:href="#Calibri-64"/>
     </g>
    </g>
   </g>
   <g id="line2d_25">
    <path clip-path="url(#pa660154171)" d="M 62.1 365.293564 
L 62.476014 355.855844 
L 63.604058 320.660427 
L 64.356087 302.205146 
L 65.108116 290.91239 
L 65.48413 287.167396 
L 65.860145 285.032396 
L 66.236159 285.835902 
L 66.612173 289.007529 
L 66.988188 293.178816 
L 67.364202 298.713673 
L 68.116231 316.014493 
L 68.86826 336.818287 
L 69.620289 361.501011 
L 69.996304 367.634683 
L 70.372318 368.121249 
L 70.748332 367.168753 
L 71.124347 367.440313 
L 71.500361 367.899707 
L 71.876376 367.50648 
L 72.25239 367.276304 
L 72.628405 367.763562 
L 73.004419 367.811514 
L 73.380434 367.034725 
L 73.756448 366.775809 
L 74.132463 367.511203 
L 74.508477 367.912427 
L 74.884491 367.4495 
L 75.260506 367.304881 
L 75.63652 367.803555 
L 76.012535 367.731311 
L 76.388549 367.140445 
L 76.764564 367.624376 
L 77.140578 368.335051 
L 77.516593 365.037097 
L 77.892607 355.37115 
L 78.644636 330.393949 
L 79.772679 301.892051 
L 80.524708 290.747605 
L 80.900723 287.040012 
L 81.276737 285.004053 
L 81.652752 285.928136 
L 82.028766 289.160034 
L 82.404781 293.365191 
L 82.780795 298.982093 
L 83.532824 316.400546 
L 84.284853 337.305259 
L 85.036882 361.874489 
L 85.412896 367.742106 
L 85.788911 368.080146 
L 86.164925 367.153468 
L 86.916954 367.89902 
L 87.292968 367.484343 
L 87.668983 367.285822 
L 88.044997 367.783169 
L 88.421012 367.79099 
L 88.797026 367.004248 
L 89.173041 366.791117 
L 89.549055 367.54396 
L 89.92507 367.906149 
L 90.301084 367.428636 
L 90.677098 367.318061 
L 91.053113 367.819503 
L 91.429127 367.708311 
L 91.805142 367.13098 
L 92.557171 368.310968 
L 92.933185 364.769538 
L 93.3092 354.880902 
L 94.061229 329.961893 
L 95.189272 301.582851 
L 95.941301 290.58394 
L 96.317315 286.915201 
L 96.69333 284.980809 
L 97.069344 286.024193 
L 97.821373 293.553732 
L 98.197388 299.254628 
L 98.949416 316.786767 
L 99.701445 337.795881 
L 100.453474 362.238043 
L 100.829489 367.840011 
L 101.205503 368.037358 
L 101.581518 367.140792 
L 102.333547 367.896596 
L 102.709561 367.462676 
L 103.085575 367.296773 
L 103.46159 367.801827 
L 103.837604 367.768881 
L 104.213619 366.974872 
L 104.589633 366.808297 
L 104.965648 367.575921 
L 105.341662 367.898217 
L 105.717677 367.408542 
L 106.093691 367.33251 
L 106.469706 367.834219 
L 106.84572 367.684263 
L 107.221734 367.123725 
L 107.973763 368.279859 
L 108.349778 364.490926 
L 109.101807 341.324808 
L 109.853836 319.495337 
L 110.605865 301.277602 
L 111.357893 290.421373 
L 111.733908 286.793078 
L 112.109922 284.96269 
L 112.485937 286.123943 
L 113.237966 293.744534 
L 113.61398 299.531284 
L 114.366009 317.173149 
L 115.118038 338.290088 
L 115.870067 362.591481 
L 116.246081 367.928629 
L 116.622096 367.993191 
L 116.99811 367.130727 
L 117.750139 367.892461 
L 118.126154 367.441582 
L 118.502168 367.309107 
L 118.878183 367.819438 
L 119.254197 367.745249 
L 119.630211 366.946697 
L 120.006226 366.827281 
L 120.38224 367.606979 
L 120.758255 367.888685 
L 121.134269 367.389313 
L 121.510284 367.348157 
L 121.886298 367.847621 
L 122.262313 367.659275 
L 122.638327 367.118765 
L 123.390356 368.24141 
L 123.76637 364.201315 
L 124.518399 340.811384 
L 125.270428 319.107716 
L 126.022457 300.97636 
L 126.774486 290.25989 
L 127.150501 286.673778 
L 127.526515 284.949732 
L 127.902529 286.227272 
L 128.654558 293.937705 
L 129.030573 299.812073 
L 129.782602 317.559691 
L 130.534631 338.787791 
L 131.28666 362.934626 
L 131.662674 368.008205 
L 132.038688 367.947947 
L 132.414703 367.123262 
L 133.166732 367.886651 
L 133.542746 367.421164 
L 133.918761 367.322766 
L 134.294775 367.83591 
L 134.67079 367.720167 
L 135.046804 366.919829 
L 135.422818 366.848007 
L 135.798833 367.637028 
L 136.174847 367.877617 
L 136.550862 367.371039 
L 136.926876 367.364929 
L 137.302891 367.859632 
L 137.678905 367.63346 
L 138.05492 367.116177 
L 138.430934 367.808624 
L 138.806949 368.195315 
L 139.182963 363.900779 
L 139.934992 340.300823 
L 140.687021 318.720381 
L 141.43905 300.679155 
L 142.191079 290.099478 
L 142.567093 286.557421 
L 142.943108 284.941952 
L 143.319122 286.334039 
L 144.071151 294.133339 
L 144.447165 300.096991 
L 145.199194 317.946396 
L 145.951223 339.288892 
L 146.703252 363.267317 
L 147.079267 368.078997 
L 147.455281 367.901918 
L 147.831295 367.118374 
L 148.583324 367.879208 
L 148.959339 367.40152 
L 149.335353 367.337688 
L 149.711368 367.851153 
L 150.087382 367.693713 
L 150.463397 366.894365 
L 150.839411 366.870395 
L 151.215426 367.665971 
L 151.59144 367.865082 
L 151.967454 367.353804 
L 152.343469 367.382745 
L 152.719483 367.870183 
L 153.095498 367.60694 
L 153.471512 367.116028 
L 153.847527 367.855386 
L 154.223541 368.141274 
L 154.599556 363.58941 
L 155.351585 339.793278 
L 156.103613 318.333281 
L 156.855642 300.386022 
L 157.607671 289.940145 
L 157.983686 286.44413 
L 158.3597 284.939355 
L 158.735715 286.44413 
L 159.487744 294.331551 
L 159.863758 300.386022 
L 160.615787 318.333281 
L 161.367816 339.793278 
L 162.119845 363.58941 
L 162.495859 368.141274 
L 162.871874 367.855386 
L 163.247888 367.116028 
L 163.623903 367.60694 
L 163.999917 367.870183 
L 164.375931 367.382745 
L 164.751946 367.353804 
L 165.12796 367.865082 
L 165.503975 367.665971 
L 165.879989 366.870395 
L 166.256004 366.894365 
L 166.632018 367.693713 
L 167.008033 367.851153 
L 167.384047 367.337688 
L 167.760062 367.40152 
L 168.136076 367.879208 
L 168.51209 367.579839 
L 168.888105 367.118374 
L 169.264119 367.901918 
L 169.640134 368.078997 
L 170.016148 363.267317 
L 172.272235 300.096991 
L 173.024264 289.781885 
L 173.400278 286.334039 
L 173.776293 284.941952 
L 174.152307 286.557421 
L 174.904336 294.532437 
L 175.280351 300.679155 
L 176.03238 318.720381 
L 176.784408 340.300823 
L 177.536437 363.900779 
L 177.912452 368.195315 
L 178.288466 367.808624 
L 178.664481 367.116177 
L 179.040495 367.63346 
L 179.41651 367.859632 
L 179.792524 367.364929 
L 180.168539 367.371039 
L 180.544553 367.877617 
L 180.920567 367.637028 
L 181.296582 366.848007 
L 181.672596 366.919829 
L 182.048611 367.720167 
L 182.424625 367.83591 
L 182.80064 367.322766 
L 183.176654 367.421164 
L 183.552669 367.886651 
L 184.304697 367.123262 
L 184.680712 367.947947 
L 185.056726 368.008205 
L 185.432741 362.934626 
L 187.312813 308.04257 
L 188.064842 293.937705 
L 188.816871 286.227272 
L 189.192885 284.949732 
L 189.5689 286.673778 
L 190.320929 294.736102 
L 190.696943 300.97636 
L 191.824987 329.107235 
L 192.95303 364.201315 
L 193.329044 368.24141 
L 194.081073 367.118765 
L 194.457088 367.659275 
L 194.833102 367.847621 
L 195.209117 367.348157 
L 195.585131 367.389313 
L 195.961146 367.888685 
L 196.33716 367.606979 
L 196.713174 366.827281 
L 197.089189 366.946697 
L 197.465203 367.745249 
L 197.841218 367.819438 
L 198.217232 367.309107 
L 198.593247 367.441582 
L 198.969261 367.892461 
L 199.72129 367.130727 
L 200.097305 367.993191 
L 200.473319 367.928629 
L 200.849333 362.591481 
L 202.729406 307.677067 
L 203.481435 293.744534 
L 204.233464 286.123943 
L 204.609478 284.96269 
L 204.985492 286.793078 
L 205.737521 294.942654 
L 206.113536 301.277602 
L 207.241579 329.533023 
L 208.369623 364.490926 
L 208.745637 368.279859 
L 209.497666 367.123725 
L 209.87368 367.684263 
L 210.249695 367.834219 
L 210.625709 367.33251 
L 211.001724 367.408542 
L 211.377738 367.898217 
L 211.753753 367.575921 
L 212.129767 366.808297 
L 212.505782 366.974872 
L 212.881796 367.768881 
L 213.25781 367.801827 
L 213.633825 367.296773 
L 214.009839 367.462676 
L 214.385854 367.896596 
L 215.137883 367.140792 
L 215.513897 368.037358 
L 215.889912 367.840011 
L 216.265926 362.238043 
L 218.145998 307.313735 
L 218.898027 293.553732 
L 219.650056 286.024193 
L 220.026071 284.980809 
L 220.402085 286.915201 
L 221.154114 295.152194 
L 221.530128 301.582851 
L 222.658172 329.961893 
L 223.786215 364.769538 
L 224.16223 368.310968 
L 224.914259 367.13098 
L 225.290273 367.708311 
L 225.666287 367.819503 
L 226.042302 367.318061 
L 226.418316 367.428636 
L 226.794331 367.906149 
L 227.170345 367.54396 
L 227.54636 366.791117 
L 227.922374 367.004248 
L 228.298389 367.79099 
L 228.674403 367.783169 
L 229.050418 367.285822 
L 229.426432 367.484343 
L 229.802446 367.89902 
L 230.554475 367.153468 
L 230.93049 368.080146 
L 231.306504 367.742106 
L 231.682519 361.874489 
L 233.562591 306.952702 
L 234.31462 293.365191 
L 235.066649 285.928136 
L 235.442663 285.004053 
L 235.818678 287.040012 
L 236.570707 295.364815 
L 236.946721 301.892051 
L 238.074764 330.393949 
L 239.202808 365.037097 
L 239.578822 368.335051 
L 240.330851 367.140445 
L 240.706866 367.731311 
L 241.08288 367.803555 
L 241.458894 367.304881 
L 241.834909 367.4495 
L 242.210923 367.912427 
L 242.586938 367.511203 
L 242.962952 366.775809 
L 243.338967 367.034725 
L 243.714981 367.811514 
L 244.090996 367.763562 
L 244.46701 367.276304 
L 244.843025 367.50648 
L 245.219039 367.899707 
L 245.595053 367.440313 
L 245.971068 367.168753 
L 246.347082 368.121249 
L 246.723097 367.634683 
L 247.099111 361.501011 
L 248.603169 316.014493 
L 249.355198 298.713673 
L 250.107227 289.007529 
L 250.483241 285.835902 
L 250.859256 285.032396 
L 251.23527 287.167396 
L 251.987299 295.580624 
L 252.363314 302.205146 
L 253.491357 330.829294 
L 254.6194 365.293564 
L 254.995415 368.352432 
L 255.371429 367.580187 
L 255.747444 367.152024 
L 256.123458 367.75316 
L 256.499473 367.786463 
L 256.875487 367.293031 
L 257.251502 367.471038 
L 257.627516 367.916999 
L 258.00353 367.477757 
L 258.379545 366.762429 
L 258.755559 367.066191 
L 259.131574 367.830392 
L 259.507588 367.743108 
L 259.883603 367.268262 
L 260.635632 367.898636 
L 261.011646 367.412585 
L 261.387661 367.186634 
L 261.763675 368.160349 
L 262.139689 367.517523 
L 262.515704 361.117819 
L 264.019762 315.628623 
L 264.771791 298.449346 
L 265.52382 288.856291 
L 265.899834 285.747591 
L 266.275848 285.065782 
L 266.651863 287.297235 
L 267.403892 295.79971 
L 267.779906 302.522085 
L 268.90795 331.268016 
L 270.035993 365.538923 
L 270.412007 368.363436 
L 270.788022 367.537174 
L 271.164036 367.165616 
L 271.540051 367.773763 
L 271.916065 367.768318 
L 272.29208 367.282568 
L 272.668094 367.493148 
L 273.044109 367.919823 
L 273.420123 367.443741 
L 273.796138 366.751021 
L 274.172152 367.098528 
L 274.548166 367.847572 
L 274.924181 367.72191 
L 275.300195 367.261733 
L 276.052224 367.895797 
L 276.428239 367.385255 
L 276.804253 367.207083 
L 277.180268 368.197127 
L 277.556282 367.39042 
L 277.932296 360.725135 
L 279.436354 315.242964 
L 280.188383 298.189088 
L 280.940412 288.706381 
L 281.316427 285.663331 
L 281.692441 285.104177 
L 282.068455 287.429399 
L 282.820484 296.022166 
L 283.196499 302.842792 
L 284.324542 331.710206 
L 285.452586 365.773171 
L 285.8286 368.368396 
L 286.204614 367.495528 
L 286.580629 367.181111 
L 286.956643 367.793032 
L 287.332658 367.749216 
L 287.708672 367.273543 
L 288.084687 367.515726 
L 288.460701 367.920864 
L 289.21273 366.741631 
L 289.588745 367.131628 
L 289.964759 367.863012 
L 290.340773 367.700074 
L 290.716788 367.256747 
L 291.468817 367.891186 
L 291.844831 367.35847 
L 292.220846 367.230061 
L 292.59686 368.231253 
L 292.972875 367.253187 
L 293.348889 360.323195 
L 294.852947 314.857552 
L 295.604976 297.932866 
L 296.357005 288.557863 
L 296.733019 285.583237 
L 297.109034 285.14752 
L 297.485048 287.56379 
L 298.237077 296.248084 
L 298.613091 303.167194 
L 299.741135 332.155938 
L 300.869178 365.996329 
L 301.245193 368.367649 
L 301.621207 367.455426 
L 301.997222 367.198391 
L 302.373236 367.810887 
L 302.74925 367.729259 
L 303.125265 367.265997 
L 303.877294 367.920091 
L 304.629323 366.734291 
L 305.005337 367.165367 
L 305.381352 367.876672 
L 305.757366 367.677711 
L 306.133381 367.253326 
L 306.885409 367.884811 
L 307.261424 367.332376 
L 307.637438 367.255513 
L 308.013453 368.262397 
L 308.389467 367.105649 
L 308.765482 359.912252 
L 309.893525 324.19419 
L 311.021568 297.680635 
L 311.773597 288.410801 
L 312.149612 285.507407 
L 312.525626 285.195739 
L 312.901641 287.700289 
L 313.65367 296.477543 
L 314.405699 312.553074 
L 315.157727 332.605282 
L 316.285771 366.208431 
L 316.661785 368.361532 
L 317.0378 367.417034 
L 317.413814 367.217335 
L 317.789829 367.827255 
L 318.165843 367.70855 
L 318.541858 367.259968 
L 319.293886 367.917482 
L 320.045915 366.72903 
L 320.42193 367.199631 
L 320.797944 367.888523 
L 321.173959 367.654928 
L 321.549973 367.251485 
L 322.302002 367.876685 
L 322.678017 367.307119 
L 323.054031 367.283371 
L 323.430045 368.290223 
L 323.80606 366.947648 
L 324.182074 359.49257 
L 325.310118 323.797263 
L 326.438161 297.432352 
L 327.19019 288.265278 
L 327.566204 285.435948 
L 327.942219 285.248774 
L 328.318233 287.838788 
L 329.070262 296.710627 
L 329.822291 312.935876 
L 330.57432 333.058297 
L 331.326349 358.183902 
L 331.702363 366.409532 
L 332.078378 368.350389 
L 332.454392 367.380503 
L 332.830407 367.237815 
L 333.206421 367.842071 
L 333.582436 367.687196 
L 333.95845 367.255484 
L 334.710479 367.913025 
L 335.462508 366.725867 
L 336.214537 367.898541 
L 336.966566 367.251232 
L 337.34258 367.642989 
L 337.718595 367.86683 
L 338.094609 367.282845 
L 338.470624 367.313555 
L 338.846638 368.314391 
L 339.222652 366.779042 
L 339.598667 359.064424 
L 340.72671 323.401672 
L 341.478739 304.500053 
L 341.854754 297.187964 
L 342.606783 288.121376 
L 342.982797 285.368966 
L 343.358811 285.306544 
L 343.734826 287.979183 
L 344.486855 296.947408 
L 345.238884 313.31929 
L 345.990913 333.515033 
L 346.742942 358.628102 
L 347.118956 366.599706 
L 347.49497 368.334561 
L 347.870985 367.345969 
L 348.246999 367.259697 
L 348.623014 367.855279 
L 348.999028 367.665305 
L 349.375043 367.252568 
L 350.127072 367.906711 
L 350.879101 366.72481 
L 351.631129 367.906711 
L 352.383158 367.252568 
L 352.759173 367.665305 
L 353.135187 367.855279 
L 353.511202 367.259697 
L 353.887216 367.345969 
L 354.263231 368.334561 
L 354.639245 366.599706 
L 355.01526 358.628102 
L 356.143303 323.007288 
L 356.895332 304.161736 
L 357.271346 296.947408 
L 358.023375 287.979183 
L 358.39939 285.306544 
L 358.775404 285.368966 
L 359.151419 288.121376 
L 359.903447 297.187964 
L 360.655476 313.70323 
L 361.407505 333.975529 
L 362.159534 359.064424 
L 362.535549 366.779042 
L 362.911563 368.314391 
L 363.287578 367.313555 
L 363.663592 367.282845 
L 364.039606 367.86683 
L 364.415621 367.642989 
L 364.791635 367.251232 
L 365.543664 367.898541 
L 366.295693 366.725867 
L 367.047722 367.913025 
L 367.799751 367.255484 
L 368.175765 367.687196 
L 368.55178 367.842071 
L 368.927794 367.237815 
L 369.303809 367.380503 
L 369.679823 368.350389 
L 370.055838 366.409532 
L 370.431852 358.183902 
L 371.559896 322.614006 
L 372.311924 303.826751 
L 372.687939 296.710627 
L 373.439968 287.838788 
L 373.815982 285.248774 
L 374.191997 285.435948 
L 374.568011 288.265278 
L 375.32004 297.432352 
L 376.072069 314.087631 
L 376.824098 334.439816 
L 377.576127 359.49257 
L 377.952141 366.947648 
L 378.328156 368.290223 
L 378.70417 367.283371 
L 379.080185 367.307119 
L 379.456199 367.876685 
L 380.208228 367.251485 
L 380.584242 367.654928 
L 380.960257 367.888523 
L 381.712286 366.72903 
L 382.464315 367.917482 
L 383.216344 367.259968 
L 383.592358 367.70855 
L 383.968372 367.827255 
L 384.344387 367.217335 
L 384.720401 367.417034 
L 385.096416 368.361532 
L 385.47243 366.208431 
L 385.848445 357.732134 
L 386.976488 322.22171 
L 387.728517 303.495209 
L 388.104531 296.477543 
L 388.85656 287.700289 
L 389.232575 285.195739 
L 389.608589 285.507407 
L 389.984604 288.410801 
L 390.736633 297.680635 
L 391.488662 314.472423 
L 392.24069 334.90791 
L 392.992719 359.912252 
L 393.368734 367.105649 
L 393.744748 368.262397 
L 394.120763 367.255513 
L 394.496777 367.332376 
L 394.872792 367.884811 
L 395.624821 367.253326 
L 396.000835 367.677711 
L 396.376849 367.876672 
L 396.752864 367.165367 
L 397.128878 366.734291 
L 397.880907 367.920091 
L 398.632936 367.265997 
L 399.008951 367.729259 
L 399.384965 367.810887 
L 399.76098 367.198391 
L 400.136994 367.455426 
L 400.513008 368.367649 
L 400.889023 365.996329 
L 401.265037 357.273115 
L 402.393081 321.830303 
L 403.14511 303.167194 
L 403.521124 296.248084 
L 404.273153 287.56379 
L 404.649167 285.14752 
L 405.025182 285.583237 
L 405.401196 288.557863 
L 405.777211 292.631681 
L 406.153225 297.932866 
L 406.905254 314.857552 
L 407.657283 335.379817 
L 408.409312 360.323195 
L 408.785326 367.253187 
L 409.161341 368.231253 
L 409.537355 367.230061 
L 409.91337 367.35847 
L 410.289384 367.891186 
L 411.041413 367.256747 
L 411.417428 367.700074 
L 411.793442 367.863012 
L 412.169457 367.131628 
L 412.545471 366.741631 
L 413.2975 367.920864 
L 414.049529 367.273543 
L 414.425543 367.749216 
L 414.801558 367.793032 
L 415.177572 367.181111 
L 415.553587 367.495528 
L 415.929601 368.368396 
L 416.305616 365.773171 
L 416.68163 356.807169 
L 417.809673 321.439677 
L 418.561702 302.842792 
L 418.937717 296.022166 
L 419.689746 287.429399 
L 420.06576 285.104177 
L 420.441775 285.663331 
L 420.817789 288.706381 
L 421.193803 292.812153 
L 421.569818 298.189088 
L 422.321847 315.242964 
L 423.073876 335.85553 
L 423.825905 360.725135 
L 424.201919 367.39042 
L 424.577933 368.197127 
L 424.953948 367.207083 
L 425.329962 367.385255 
L 425.705977 367.895797 
L 426.458006 367.261733 
L 426.83402 367.72191 
L 427.210035 367.847572 
L 427.586049 367.098528 
L 427.962064 366.751021 
L 428.714092 367.919823 
L 429.090107 367.493148 
L 429.466121 367.282568 
L 429.842136 367.768318 
L 430.21815 367.773763 
L 430.594165 367.165616 
L 430.970179 367.537174 
L 431.346194 368.363436 
L 431.722208 365.538923 
L 432.098223 356.334633 
L 433.226266 321.049747 
L 433.978295 302.522085 
L 434.354309 295.79971 
L 435.106338 287.297235 
L 435.482353 285.065782 
L 435.858367 285.747591 
L 436.234382 288.856291 
L 436.610396 292.9945 
L 436.98641 298.449346 
L 437.738439 315.628623 
L 438.490468 336.335029 
L 439.242497 361.117819 
L 439.618512 367.517523 
L 439.994526 368.160349 
L 440.370541 367.186634 
L 440.746555 367.412585 
L 441.122569 367.898636 
L 441.874598 367.268262 
L 442.250613 367.743108 
L 442.626627 367.830392 
L 443.002642 367.066191 
L 443.378656 366.762429 
L 443.754671 367.477757 
L 444.130685 367.916999 
L 444.5067 367.471038 
L 444.882714 367.293031 
L 445.258728 367.786463 
L 445.634743 367.75316 
L 446.010757 367.152024 
L 446.386772 367.580187 
L 446.762786 368.352432 
L 447.138801 365.293564 
L 447.138801 365.293564 
" style="fill:none;stroke:#000000;stroke-linecap:square;stroke-width:1.5;"/>
   </g>
   <g id="patch_8">
    <path d="M 62.1 457.5312 
L 62.1 277.6032 
" style="fill:none;stroke:#000000;stroke-linecap:square;stroke-linejoin:miter;stroke-width:0.8;"/>
   </g>
   <g id="patch_9">
    <path d="M 447.12 457.5312 
L 447.12 277.6032 
" style="fill:none;stroke:#000000;stroke-linecap:square;stroke-linejoin:miter;stroke-width:0.8;"/>
   </g>
   <g id="patch_10">
    <path d="M 62.1 457.5312 
L 447.12 457.5312 
" style="fill:none;stroke:#000000;stroke-linecap:square;stroke-linejoin:miter;stroke-width:0.8;"/>
   </g>
   <g id="patch_11">
    <path d="M 62.1 277.6032 
L 447.12 277.6032 
" style="fill:none;stroke:#000000;stroke-linecap:square;stroke-linejoin:miter;stroke-width:0.8;"/>
   </g>
   <g id="text_27">
    <!-- Procesado por NLD con HWR -->
    <g transform="translate(184.084687 271.6032)scale(0.12 -0.12)">
     <defs>
      <path d="M 3022 2859 
Q 3022 2556 2922 2312 
Q 2822 2069 2636 1897 
Q 2450 1725 2179 1631 
Q 1909 1538 1534 1538 
L 1075 1538 
L 1075 81 
Q 1075 56 1061 37 
Q 1047 19 1017 8 
Q 988 -3 936 -11 
Q 884 -19 806 -19 
Q 728 -19 676 -11 
Q 625 -3 594 8 
Q 563 19 550 37 
Q 538 56 538 81 
L 538 3813 
Q 538 3938 603 3991 
Q 669 4044 750 4044 
L 1616 4044 
Q 1747 4044 1867 4033 
Q 1988 4022 2152 3986 
Q 2316 3950 2486 3851 
Q 2656 3753 2775 3609 
Q 2894 3466 2958 3277 
Q 3022 3088 3022 2859 
z
M 2456 2816 
Q 2456 3063 2364 3228 
Q 2272 3394 2136 3475 
Q 2000 3556 1854 3578 
Q 1709 3600 1572 3600 
L 1075 3600 
L 1075 1978 
L 1559 1978 
Q 1803 1978 1964 2040 
Q 2125 2103 2234 2214 
Q 2344 2325 2400 2479 
Q 2456 2634 2456 2816 
z
" id="Calibri-50" transform="scale(0.015625)"/>
      <path d="M 2500 506 
Q 2500 453 2497 414 
Q 2494 375 2486 348 
Q 2478 322 2467 301 
Q 2456 281 2417 242 
Q 2378 203 2284 145 
Q 2191 88 2073 42 
Q 1956 -3 1818 -31 
Q 1681 -59 1534 -59 
Q 1231 -59 997 41 
Q 763 141 605 333 
Q 447 525 364 804 
Q 281 1084 281 1450 
Q 281 1866 382 2164 
Q 484 2463 661 2653 
Q 838 2844 1077 2936 
Q 1316 3028 1594 3028 
Q 1728 3028 1854 3003 
Q 1981 2978 2087 2937 
Q 2194 2897 2276 2844 
Q 2359 2791 2396 2753 
Q 2434 2716 2448 2694 
Q 2463 2672 2472 2642 
Q 2481 2613 2484 2575 
Q 2488 2538 2488 2481 
Q 2488 2359 2459 2311 
Q 2431 2263 2391 2263 
Q 2344 2263 2283 2314 
Q 2222 2366 2128 2428 
Q 2034 2491 1901 2542 
Q 1769 2594 1588 2594 
Q 1216 2594 1017 2308 
Q 819 2022 819 1478 
Q 819 1206 870 1001 
Q 922 797 1022 659 
Q 1122 522 1267 455 
Q 1413 388 1600 388 
Q 1778 388 1912 444 
Q 2047 500 2145 567 
Q 2244 634 2311 689 
Q 2378 744 2416 744 
Q 2438 744 2453 731 
Q 2469 719 2480 689 
Q 2491 659 2495 614 
Q 2500 569 2500 506 
z
" id="Calibri-63" transform="scale(0.015625)"/>
      <path d="M 3594 222 
Q 3594 159 3573 115 
Q 3553 72 3520 44 
Q 3488 16 3447 3 
Q 3406 -9 3366 -9 
L 3194 -9 
Q 3113 -9 3052 8 
Q 2991 25 2936 70 
Q 2881 116 2826 194 
Q 2772 272 2706 394 
L 1431 2694 
Q 1331 2872 1229 3067 
Q 1128 3263 1041 3447 
L 1034 3447 
Q 1041 3222 1044 2987 
Q 1047 2753 1047 2522 
L 1047 81 
Q 1047 59 1034 39 
Q 1022 19 992 8 
Q 963 -3 914 -11 
Q 866 -19 791 -19 
Q 716 -19 667 -11 
Q 619 -3 591 8 
Q 563 19 550 39 
Q 538 59 538 81 
L 538 3813 
Q 538 3938 606 3991 
Q 675 4044 756 4044 
L 1013 4044 
Q 1103 4044 1164 4028 
Q 1225 4013 1273 3977 
Q 1322 3941 1367 3877 
Q 1413 3813 1466 3716 
L 2447 1941 
Q 2538 1778 2622 1623 
Q 2706 1469 2784 1319 
Q 2863 1169 2939 1023 
Q 3016 878 3091 731 
L 3094 731 
Q 3088 978 3086 1245 
Q 3084 1513 3084 1759 
L 3084 3953 
Q 3084 3975 3096 3994 
Q 3109 4013 3139 4027 
Q 3169 4041 3217 4047 
Q 3266 4053 3344 4053 
Q 3413 4053 3463 4047 
Q 3513 4041 3541 4027 
Q 3569 4013 3581 3994 
Q 3594 3975 3594 3953 
L 3594 222 
z
" id="Calibri-4e" transform="scale(0.015625)"/>
      <path d="M 2634 234 
Q 2634 172 2628 130 
Q 2622 88 2608 58 
Q 2594 28 2573 14 
Q 2553 0 2525 0 
L 738 0 
Q 666 0 602 48 
Q 538 97 538 219 
L 538 3963 
Q 538 3988 550 4006 
Q 563 4025 594 4036 
Q 625 4047 678 4055 
Q 731 4063 806 4063 
Q 884 4063 936 4055 
Q 988 4047 1019 4036 
Q 1050 4025 1062 4006 
Q 1075 3988 1075 3963 
L 1075 466 
L 2525 466 
Q 2553 466 2573 452 
Q 2594 438 2608 411 
Q 2622 384 2628 340 
Q 2634 297 2634 234 
z
" id="Calibri-4c" transform="scale(0.015625)"/>
      <path d="M 3647 2081 
Q 3647 1556 3512 1164 
Q 3378 772 3120 514 
Q 2863 256 2488 128 
Q 2113 0 1594 0 
L 738 0 
Q 666 0 602 48 
Q 538 97 538 219 
L 538 3825 
Q 538 3947 602 3995 
Q 666 4044 738 4044 
L 1653 4044 
Q 2178 4044 2540 3908 
Q 2903 3772 3148 3517 
Q 3394 3263 3520 2900 
Q 3647 2538 3647 2081 
z
M 3081 2059 
Q 3081 2388 3000 2670 
Q 2919 2953 2745 3159 
Q 2572 3366 2306 3481 
Q 2041 3597 1622 3597 
L 1075 3597 
L 1075 450 
L 1628 450 
Q 2016 450 2281 547 
Q 2547 644 2725 844 
Q 2903 1044 2992 1345 
Q 3081 1647 3081 2059 
z
" id="Calibri-44" transform="scale(0.015625)"/>
      <path d="M 4409 119 
Q 4397 75 4372 48 
Q 4347 22 4303 8 
Q 4259 -6 4195 -12 
Q 4131 -19 4038 -19 
Q 3941 -19 3873 -12 
Q 3806 -6 3762 8 
Q 3719 22 3697 48 
Q 3675 75 3663 119 
L 2816 3172 
L 2809 3172 
L 2028 119 
Q 2019 75 1997 48 
Q 1975 22 1934 8 
Q 1894 -6 1830 -12 
Q 1766 -19 1666 -19 
Q 1563 -19 1494 -12 
Q 1425 -6 1381 8 
Q 1338 22 1314 48 
Q 1291 75 1281 119 
L 213 3853 
Q 194 3925 192 3965 
Q 191 4006 217 4028 
Q 244 4050 303 4056 
Q 363 4063 463 4063 
Q 559 4063 615 4058 
Q 672 4053 701 4040 
Q 731 4028 742 4006 
Q 753 3984 759 3950 
L 1669 563 
L 1672 563 
L 2534 3944 
Q 2544 3978 2558 4001 
Q 2572 4025 2603 4037 
Q 2634 4050 2692 4056 
Q 2750 4063 2844 4063 
Q 2931 4063 2982 4056 
Q 3034 4050 3065 4037 
Q 3097 4025 3111 4001 
Q 3125 3978 3134 3944 
L 4063 563 
L 4069 563 
L 4959 3947 
Q 4969 3978 4978 4001 
Q 4988 4025 5017 4037 
Q 5047 4050 5101 4056 
Q 5156 4063 5247 4063 
Q 5341 4063 5395 4055 
Q 5450 4047 5475 4025 
Q 5500 4003 5498 3962 
Q 5497 3922 5481 3850 
L 4409 119 
z
" id="Calibri-57" transform="scale(0.015625)"/>
      <path d="M 3234 81 
Q 3234 56 3225 37 
Q 3216 19 3184 6 
Q 3153 -6 3097 -12 
Q 3041 -19 2947 -19 
Q 2866 -19 2814 -12 
Q 2763 -6 2731 8 
Q 2700 22 2683 47 
Q 2666 72 2653 109 
L 2281 1063 
Q 2216 1225 2145 1361 
Q 2075 1497 1978 1595 
Q 1881 1694 1750 1748 
Q 1619 1803 1434 1803 
L 1075 1803 
L 1075 81 
Q 1075 56 1061 37 
Q 1047 19 1017 8 
Q 988 -3 936 -11 
Q 884 -19 806 -19 
Q 728 -19 676 -11 
Q 625 -3 594 8 
Q 563 19 550 37 
Q 538 56 538 81 
L 538 3825 
Q 538 3947 602 3995 
Q 666 4044 738 4044 
L 1597 4044 
Q 1750 4044 1851 4036 
Q 1953 4028 2034 4019 
Q 2269 3978 2448 3890 
Q 2628 3803 2750 3668 
Q 2872 3534 2933 3361 
Q 2994 3188 2994 2978 
Q 2994 2775 2939 2614 
Q 2884 2453 2781 2329 
Q 2678 2206 2534 2115 
Q 2391 2025 2213 1963 
Q 2313 1919 2394 1851 
Q 2475 1784 2545 1690 
Q 2616 1597 2678 1475 
Q 2741 1353 2803 1200 
L 3166 309 
Q 3209 197 3221 151 
Q 3234 106 3234 81 
z
M 2425 2922 
Q 2425 3159 2319 3323 
Q 2213 3488 1963 3559 
Q 1884 3581 1786 3590 
Q 1688 3600 1528 3600 
L 1075 3600 
L 1075 2238 
L 1600 2238 
Q 1813 2238 1967 2289 
Q 2122 2341 2225 2433 
Q 2328 2525 2376 2650 
Q 2425 2775 2425 2922 
z
" id="Calibri-52" transform="scale(0.015625)"/>
     </defs>
     <use xlink:href="#Calibri-50"/>
     <use x="51.660156" xlink:href="#Calibri-72"/>
     <use x="86.523438" xlink:href="#Calibri-6f"/>
     <use x="139.257812" xlink:href="#Calibri-63"/>
     <use x="181.542969" xlink:href="#Calibri-65"/>
     <use x="231.298828" xlink:href="#Calibri-73"/>
     <use x="270.410156" xlink:href="#Calibri-61"/>
     <use x="318.310547" xlink:href="#Calibri-64"/>
     <use x="370.849609" xlink:href="#Calibri-6f"/>
     <use x="423.583984" xlink:href="#Calibri-20"/>
     <use x="446.191406" xlink:href="#Calibri-70"/>
     <use x="498.730469" xlink:href="#Calibri-6f"/>
     <use x="551.464844" xlink:href="#Calibri-72"/>
     <use x="586.328125" xlink:href="#Calibri-20"/>
     <use x="608.935547" xlink:href="#Calibri-4e"/>
     <use x="673.486328" xlink:href="#Calibri-4c"/>
     <use x="715.527344" xlink:href="#Calibri-44"/>
     <use x="777.050781" xlink:href="#Calibri-20"/>
     <use x="799.658203" xlink:href="#Calibri-63"/>
     <use x="841.943359" xlink:href="#Calibri-6f"/>
     <use x="894.677734" xlink:href="#Calibri-6e"/>
     <use x="947.216797" xlink:href="#Calibri-20"/>
     <use x="969.824219" xlink:href="#Calibri-48"/>
     <use x="1032.128906" xlink:href="#Calibri-57"/>
     <use x="1121.09375" xlink:href="#Calibri-52"/>
    </g>
   </g>
  </g>
 </g>
 <defs>
  <clipPath id="p775698c6ab">
   <rect height="179.928" width="385.02" x="62.1" y="61.6896"/>
  </clipPath>
  <clipPath id="pa660154171">
   <rect height="179.928" width="385.02" x="62.1" y="277.6032"/>
  </clipPath>
 </defs>
</svg>
