<?xml version="1.0" encoding="utf-8" standalone="no"?>
<!DOCTYPE svg PUBLIC "-//W3C//DTD SVG 1.1//EN"
  "http://www.w3.org/Graphics/SVG/1.1/DTD/svg11.dtd">
<svg height="226.8pt" version="1.1" viewBox="0 0 503.28 226.8" width="503.28pt" xmlns="http://www.w3.org/2000/svg" xmlns:xlink="http://www.w3.org/1999/xlink">
 <metadata>
  <rdf:RDF xmlns:cc="http://creativecommons.org/ns#" xmlns:dc="http://purl.org/dc/elements/1.1/" xmlns:rdf="http://www.w3.org/1999/02/22-rdf-syntax-ns#">
   <cc:Work>
    <dc:type rdf:resource="http://purl.org/dc/dcmitype/StillImage"/>
    <dc:date>2022-07-14T08:41:46.903802</dc:date>
    <dc:format>image/svg+xml</dc:format>
    <dc:creator>
     <cc:Agent>
      <dc:title>Matplotlib v3.4.1, https://matplotlib.org/</dc:title>
     </cc:Agent>
    </dc:creator>
   </cc:Work>
  </rdf:RDF>
 </metadata>
 <defs>
  <style type="text/css">*{stroke-linecap:butt;stroke-linejoin:round;}</style>
 </defs>
 <g id="figure_1">
  <g id="patch_1">
   <path d="M 0 226.8 
L 503.28 226.8 
L 503.28 0 
L 0 0 
z
" style="fill:#ffffff;"/>
  </g>
  <g id="axes_1">
   <g id="patch_2">
    <path d="M 53.165 187.72 
L 247.7025 187.72 
L 247.7025 25.08 
L 53.165 25.08 
z
" style="fill:#ffffff;"/>
   </g>
   <g id="matplotlib.axis_1">
    <g id="xtick_1">
     <g id="line2d_1">
      <defs>
       <path d="M 0 0 
L 0 3.5 
" id="m9da58f8956" style="stroke:#000000;stroke-width:0.8;"/>
      </defs>
      <g>
       <use style="stroke:#000000;stroke-width:0.8;" x="59.440403" xlink:href="#m9da58f8956" y="187.72"/>
      </g>
     </g>
     <g id="text_1">
      <!-- 0.77 -->
      <g transform="translate(50.574778 201.521562)scale(0.1 -0.1)">
       <defs>
        <path d="M 3022 2031 
Q 3022 1566 2948 1181 
Q 2875 797 2704 520 
Q 2534 244 2259 92 
Q 1984 -59 1581 -59 
Q 1200 -59 939 77 
Q 678 213 518 477 
Q 359 741 292 1127 
Q 225 1513 225 2013 
Q 225 2475 300 2861 
Q 375 3247 544 3523 
Q 713 3800 988 3951 
Q 1263 4103 1663 4103 
Q 2047 4103 2308 3967 
Q 2569 3831 2728 3567 
Q 2888 3303 2955 2917 
Q 3022 2531 3022 2031 
z
M 2472 1994 
Q 2472 2297 2450 2537 
Q 2428 2778 2386 2962 
Q 2344 3147 2276 3280 
Q 2209 3413 2115 3498 
Q 2022 3584 1901 3623 
Q 1781 3663 1631 3663 
Q 1366 3663 1200 3538 
Q 1034 3413 939 3194 
Q 844 2975 809 2681 
Q 775 2388 775 2050 
Q 775 1597 822 1280 
Q 869 963 970 763 
Q 1072 563 1230 472 
Q 1388 381 1613 381 
Q 1788 381 1920 437 
Q 2053 494 2148 598 
Q 2244 703 2306 850 
Q 2369 997 2406 1175 
Q 2444 1353 2458 1561 
Q 2472 1769 2472 1994 
z
" id="Calibri-30" transform="scale(0.015625)"/>
        <path d="M 1144 341 
Q 1144 119 1070 45 
Q 997 -28 803 -28 
Q 616 -28 544 44 
Q 472 116 472 331 
Q 472 553 545 626 
Q 619 700 813 700 
Q 1000 700 1072 628 
Q 1144 556 1144 341 
z
" id="Calibri-2e" transform="scale(0.015625)"/>
        <path d="M 2947 3813 
Q 2947 3756 2942 3711 
Q 2938 3666 2930 3623 
Q 2922 3581 2908 3542 
Q 2894 3503 2875 3459 
L 1419 103 
Q 1403 66 1379 42 
Q 1356 19 1320 5 
Q 1284 -9 1228 -14 
Q 1172 -19 1091 -19 
Q 984 -19 925 -9 
Q 866 0 839 20 
Q 813 41 816 70 
Q 819 100 838 141 
L 2369 3572 
L 428 3572 
Q 369 3572 339 3634 
Q 309 3697 309 3809 
Q 309 3869 317 3912 
Q 325 3956 340 3986 
Q 356 4016 378 4030 
Q 400 4044 428 4044 
L 2784 4044 
Q 2828 4044 2861 4034 
Q 2894 4025 2911 3997 
Q 2928 3969 2937 3925 
Q 2947 3881 2947 3813 
z
" id="Calibri-37" transform="scale(0.015625)"/>
       </defs>
       <use xlink:href="#Calibri-30"/>
       <use x="50.683594" xlink:href="#Calibri-2e"/>
       <use x="75.927734" xlink:href="#Calibri-37"/>
       <use x="126.611328" xlink:href="#Calibri-37"/>
      </g>
     </g>
    </g>
    <g id="xtick_2">
     <g id="line2d_2">
      <g>
       <use style="stroke:#000000;stroke-width:0.8;" x="122.194435" xlink:href="#m9da58f8956" y="187.72"/>
      </g>
     </g>
     <g id="text_2">
      <!-- 0.78 -->
      <g transform="translate(113.32881 201.521562)scale(0.1 -0.1)">
       <defs>
        <path d="M 2981 1038 
Q 2981 775 2887 570 
Q 2794 366 2617 225 
Q 2441 84 2181 12 
Q 1922 -59 1588 -59 
Q 1275 -59 1028 6 
Q 781 72 609 200 
Q 438 328 347 515 
Q 256 703 256 944 
Q 256 1134 318 1293 
Q 381 1453 498 1587 
Q 616 1722 787 1839 
Q 959 1956 1175 2063 
Q 988 2159 844 2267 
Q 700 2375 600 2501 
Q 500 2628 448 2772 
Q 397 2916 397 3084 
Q 397 3297 473 3483 
Q 550 3669 704 3806 
Q 859 3944 1098 4023 
Q 1338 4103 1656 4103 
Q 1963 4103 2186 4029 
Q 2409 3956 2554 3829 
Q 2700 3703 2769 3531 
Q 2838 3359 2838 3163 
Q 2838 3003 2786 2856 
Q 2734 2709 2634 2578 
Q 2534 2447 2389 2333 
Q 2244 2219 2056 2119 
Q 2278 2009 2451 1893 
Q 2625 1778 2742 1645 
Q 2859 1513 2920 1364 
Q 2981 1216 2981 1038 
z
M 2306 3113 
Q 2306 3244 2261 3350 
Q 2216 3456 2128 3531 
Q 2041 3606 1911 3645 
Q 1781 3684 1616 3684 
Q 1278 3684 1104 3531 
Q 931 3378 931 3113 
Q 931 2991 973 2886 
Q 1016 2781 1105 2687 
Q 1194 2594 1330 2505 
Q 1466 2416 1653 2319 
Q 1969 2481 2137 2678 
Q 2306 2875 2306 3113 
z
M 2438 981 
Q 2438 1125 2384 1242 
Q 2331 1359 2223 1461 
Q 2116 1563 1955 1658 
Q 1794 1753 1581 1856 
Q 1384 1759 1236 1662 
Q 1088 1566 992 1462 
Q 897 1359 848 1245 
Q 800 1131 800 994 
Q 800 691 1008 525 
Q 1216 359 1628 359 
Q 2028 359 2233 526 
Q 2438 694 2438 981 
z
" id="Calibri-38" transform="scale(0.015625)"/>
       </defs>
       <use xlink:href="#Calibri-30"/>
       <use x="50.683594" xlink:href="#Calibri-2e"/>
       <use x="75.927734" xlink:href="#Calibri-37"/>
       <use x="126.611328" xlink:href="#Calibri-38"/>
      </g>
     </g>
    </g>
    <g id="xtick_3">
     <g id="line2d_3">
      <g>
       <use style="stroke:#000000;stroke-width:0.8;" x="184.948468" xlink:href="#m9da58f8956" y="187.72"/>
      </g>
     </g>
     <g id="text_3">
      <!-- 0.79 -->
      <g transform="translate(176.082843 201.521562)scale(0.1 -0.1)">
       <defs>
        <path d="M 2919 2181 
Q 2919 1919 2887 1650 
Q 2856 1381 2781 1132 
Q 2706 884 2579 667 
Q 2453 450 2261 287 
Q 2069 125 1805 33 
Q 1541 -59 1191 -59 
Q 1056 -59 929 -42 
Q 803 -25 701 0 
Q 600 25 531 53 
Q 463 81 431 109 
Q 400 138 386 186 
Q 372 234 372 316 
Q 372 384 376 425 
Q 381 466 390 487 
Q 400 509 417 517 
Q 434 525 459 525 
Q 494 525 556 501 
Q 619 478 714 450 
Q 809 422 937 398 
Q 1066 375 1225 375 
Q 1528 375 1745 492 
Q 1963 609 2100 806 
Q 2238 1003 2306 1262 
Q 2375 1522 2381 1809 
Q 2216 1713 1984 1638 
Q 1753 1563 1453 1563 
Q 1116 1563 886 1655 
Q 656 1747 517 1906 
Q 378 2066 317 2284 
Q 256 2503 256 2763 
Q 256 3031 334 3273 
Q 413 3516 578 3700 
Q 744 3884 1000 3993 
Q 1256 4103 1613 4103 
Q 1866 4103 2061 4039 
Q 2256 3975 2400 3854 
Q 2544 3734 2644 3564 
Q 2744 3394 2805 3178 
Q 2866 2963 2892 2711 
Q 2919 2459 2919 2181 
z
M 2372 2241 
Q 2372 2641 2319 2914 
Q 2266 3188 2162 3356 
Q 2059 3525 1909 3600 
Q 1759 3675 1563 3675 
Q 1359 3675 1215 3601 
Q 1072 3528 980 3404 
Q 888 3281 844 3125 
Q 800 2969 800 2803 
Q 800 2619 839 2466 
Q 878 2313 965 2206 
Q 1053 2100 1193 2042 
Q 1334 1984 1541 1984 
Q 1775 1984 1994 2054 
Q 2213 2125 2372 2241 
z
" id="Calibri-39" transform="scale(0.015625)"/>
       </defs>
       <use xlink:href="#Calibri-30"/>
       <use x="50.683594" xlink:href="#Calibri-2e"/>
       <use x="75.927734" xlink:href="#Calibri-37"/>
       <use x="126.611328" xlink:href="#Calibri-39"/>
      </g>
     </g>
    </g>
    <g id="xtick_4">
     <g id="line2d_4">
      <g>
       <use style="stroke:#000000;stroke-width:0.8;" x="247.7025" xlink:href="#m9da58f8956" y="187.72"/>
      </g>
     </g>
     <g id="text_4">
      <!-- 0.80 -->
      <g transform="translate(238.836875 201.521562)scale(0.1 -0.1)">
       <use xlink:href="#Calibri-30"/>
       <use x="50.683594" xlink:href="#Calibri-2e"/>
       <use x="75.927734" xlink:href="#Calibri-38"/>
       <use x="126.611328" xlink:href="#Calibri-30"/>
      </g>
     </g>
    </g>
    <g id="text_5">
     <!-- Tiempo [s] -->
     <g transform="translate(128.950156 214.130937)scale(0.1 -0.1)">
      <defs>
       <path d="M 3072 3813 
Q 3072 3753 3065 3709 
Q 3059 3666 3045 3639 
Q 3031 3613 3011 3600 
Q 2991 3588 2966 3588 
L 1828 3588 
L 1828 81 
Q 1828 56 1815 37 
Q 1803 19 1772 8 
Q 1741 -3 1689 -11 
Q 1638 -19 1559 -19 
Q 1484 -19 1431 -11 
Q 1378 -3 1347 8 
Q 1316 19 1303 37 
Q 1291 56 1291 81 
L 1291 3588 
L 153 3588 
Q 128 3588 108 3600 
Q 88 3613 75 3639 
Q 63 3666 55 3709 
Q 47 3753 47 3813 
Q 47 3872 55 3917 
Q 63 3963 75 3991 
Q 88 4019 108 4031 
Q 128 4044 153 4044 
L 2966 4044 
Q 2991 4044 3011 4031 
Q 3031 4019 3045 3991 
Q 3059 3963 3065 3917 
Q 3072 3872 3072 3813 
z
" id="Calibri-54" transform="scale(0.015625)"/>
       <path d="M 994 78 
Q 994 53 981 36 
Q 969 19 941 6 
Q 913 -6 863 -12 
Q 813 -19 734 -19 
Q 659 -19 609 -12 
Q 559 -6 529 6 
Q 500 19 489 36 
Q 478 53 478 78 
L 478 2891 
Q 478 2913 489 2931 
Q 500 2950 529 2962 
Q 559 2975 609 2981 
Q 659 2988 734 2988 
Q 813 2988 863 2981 
Q 913 2975 941 2962 
Q 969 2950 981 2931 
Q 994 2913 994 2891 
L 994 78 
z
M 1053 3841 
Q 1053 3659 984 3593 
Q 916 3528 731 3528 
Q 550 3528 483 3592 
Q 416 3656 416 3834 
Q 416 4016 484 4081 
Q 553 4147 738 4147 
Q 919 4147 986 4083 
Q 1053 4019 1053 3841 
z
" id="Calibri-69" transform="scale(0.015625)"/>
       <path d="M 2878 1606 
Q 2878 1484 2817 1432 
Q 2756 1381 2678 1381 
L 834 1381 
Q 834 1147 881 959 
Q 928 772 1037 637 
Q 1147 503 1322 431 
Q 1497 359 1750 359 
Q 1950 359 2106 392 
Q 2263 425 2377 465 
Q 2491 506 2564 539 
Q 2638 572 2675 572 
Q 2697 572 2714 561 
Q 2731 550 2740 528 
Q 2750 506 2754 467 
Q 2759 428 2759 372 
Q 2759 331 2756 301 
Q 2753 272 2748 248 
Q 2744 225 2733 206 
Q 2722 188 2705 170 
Q 2688 153 2603 114 
Q 2519 75 2384 37 
Q 2250 0 2073 -29 
Q 1897 -59 1697 -59 
Q 1350 -59 1089 37 
Q 828 134 650 325 
Q 472 516 381 803 
Q 291 1091 291 1472 
Q 291 1834 384 2123 
Q 478 2413 654 2614 
Q 831 2816 1081 2923 
Q 1331 3031 1641 3031 
Q 1972 3031 2205 2925 
Q 2438 2819 2588 2639 
Q 2738 2459 2808 2217 
Q 2878 1975 2878 1700 
L 2878 1606 
z
M 2359 1759 
Q 2369 2166 2180 2397 
Q 1991 2628 1619 2628 
Q 1428 2628 1284 2556 
Q 1141 2484 1044 2365 
Q 947 2247 894 2089 
Q 841 1931 834 1759 
L 2359 1759 
z
" id="Calibri-65" transform="scale(0.015625)"/>
       <path d="M 4650 78 
Q 4650 53 4637 36 
Q 4625 19 4597 6 
Q 4569 -6 4519 -12 
Q 4469 -19 4394 -19 
Q 4316 -19 4266 -12 
Q 4216 -6 4186 6 
Q 4156 19 4143 36 
Q 4131 53 4131 78 
L 4131 1788 
Q 4131 1966 4100 2112 
Q 4069 2259 4000 2365 
Q 3931 2472 3825 2528 
Q 3719 2584 3575 2584 
Q 3397 2584 3217 2446 
Q 3038 2309 2822 2044 
L 2822 78 
Q 2822 53 2809 36 
Q 2797 19 2767 6 
Q 2738 -6 2688 -12 
Q 2638 -19 2563 -19 
Q 2491 -19 2439 -12 
Q 2388 -6 2358 6 
Q 2328 19 2317 36 
Q 2306 53 2306 78 
L 2306 1788 
Q 2306 1966 2272 2112 
Q 2238 2259 2169 2365 
Q 2100 2472 1995 2528 
Q 1891 2584 1747 2584 
Q 1569 2584 1387 2446 
Q 1206 2309 994 2044 
L 994 78 
Q 994 53 981 36 
Q 969 19 941 6 
Q 913 -6 863 -12 
Q 813 -19 734 -19 
Q 659 -19 609 -12 
Q 559 -6 529 6 
Q 500 19 489 36 
Q 478 53 478 78 
L 478 2891 
Q 478 2916 487 2933 
Q 497 2950 525 2964 
Q 553 2978 597 2983 
Q 641 2988 713 2988 
Q 781 2988 826 2983 
Q 872 2978 897 2964 
Q 922 2950 933 2933 
Q 944 2916 944 2891 
L 944 2519 
Q 1181 2784 1404 2907 
Q 1628 3031 1856 3031 
Q 2031 3031 2170 2990 
Q 2309 2950 2415 2876 
Q 2522 2803 2597 2701 
Q 2672 2600 2722 2475 
Q 2863 2628 2989 2734 
Q 3116 2841 3233 2906 
Q 3350 2972 3461 3001 
Q 3572 3031 3684 3031 
Q 3956 3031 4140 2936 
Q 4325 2841 4439 2681 
Q 4553 2522 4601 2308 
Q 4650 2094 4650 1856 
L 4650 78 
z
" id="Calibri-6d" transform="scale(0.015625)"/>
       <path d="M 3066 1528 
Q 3066 1159 2986 865 
Q 2906 572 2751 367 
Q 2597 163 2369 52 
Q 2141 -59 1847 -59 
Q 1722 -59 1615 -34 
Q 1509 -9 1407 44 
Q 1306 97 1206 178 
Q 1106 259 994 369 
L 994 -1038 
Q 994 -1063 981 -1081 
Q 969 -1100 941 -1112 
Q 913 -1125 863 -1131 
Q 813 -1138 734 -1138 
Q 659 -1138 609 -1131 
Q 559 -1125 529 -1112 
Q 500 -1100 489 -1081 
Q 478 -1063 478 -1038 
L 478 2891 
Q 478 2919 487 2936 
Q 497 2953 525 2965 
Q 553 2978 597 2983 
Q 641 2988 703 2988 
Q 769 2988 811 2983 
Q 853 2978 881 2965 
Q 909 2953 920 2936 
Q 931 2919 931 2891 
L 931 2513 
Q 1059 2644 1178 2741 
Q 1297 2838 1417 2902 
Q 1538 2966 1664 2998 
Q 1791 3031 1931 3031 
Q 2238 3031 2453 2912 
Q 2669 2794 2805 2587 
Q 2941 2381 3003 2107 
Q 3066 1834 3066 1528 
z
M 2522 1469 
Q 2522 1684 2489 1886 
Q 2456 2088 2376 2244 
Q 2297 2400 2162 2494 
Q 2028 2588 1828 2588 
Q 1728 2588 1631 2558 
Q 1534 2528 1434 2464 
Q 1334 2400 1225 2295 
Q 1116 2191 994 2038 
L 994 919 
Q 1206 659 1397 521 
Q 1588 384 1797 384 
Q 1991 384 2130 478 
Q 2269 572 2355 728 
Q 2441 884 2481 1078 
Q 2522 1272 2522 1469 
z
" id="Calibri-70" transform="scale(0.015625)"/>
       <path d="M 3094 1516 
Q 3094 1172 3003 883 
Q 2913 594 2733 384 
Q 2553 175 2283 58 
Q 2013 -59 1656 -59 
Q 1309 -59 1051 44 
Q 794 147 622 344 
Q 450 541 365 822 
Q 281 1103 281 1459 
Q 281 1803 370 2092 
Q 459 2381 639 2590 
Q 819 2800 1087 2915 
Q 1356 3031 1716 3031 
Q 2063 3031 2320 2928 
Q 2578 2825 2750 2628 
Q 2922 2431 3008 2150 
Q 3094 1869 3094 1516 
z
M 2550 1481 
Q 2550 1709 2508 1912 
Q 2466 2116 2369 2269 
Q 2272 2422 2106 2511 
Q 1941 2600 1694 2600 
Q 1466 2600 1302 2519 
Q 1138 2438 1031 2289 
Q 925 2141 873 1937 
Q 822 1734 822 1494 
Q 822 1263 864 1059 
Q 906 856 1004 704 
Q 1103 553 1268 464 
Q 1434 375 1681 375 
Q 1906 375 2072 456 
Q 2238 538 2344 684 
Q 2450 831 2500 1034 
Q 2550 1238 2550 1481 
z
" id="Calibri-6f" transform="scale(0.015625)"/>
       <path id="Calibri-20" transform="scale(0.015625)"/>
       <path d="M 1684 -813 
Q 1684 -916 1661 -958 
Q 1638 -1000 1594 -1000 
L 794 -1000 
Q 756 -1000 722 -989 
Q 688 -978 659 -953 
Q 631 -928 614 -886 
Q 597 -844 597 -781 
L 597 4153 
Q 597 4213 614 4255 
Q 631 4297 659 4323 
Q 688 4350 722 4361 
Q 756 4372 794 4372 
L 1594 4372 
Q 1613 4372 1630 4362 
Q 1647 4353 1659 4328 
Q 1672 4303 1678 4267 
Q 1684 4231 1684 4178 
Q 1684 4078 1661 4034 
Q 1638 3991 1594 3991 
L 1084 3991 
L 1084 -622 
L 1594 -622 
Q 1613 -622 1630 -631 
Q 1647 -641 1659 -664 
Q 1672 -688 1678 -723 
Q 1684 -759 1684 -813 
z
" id="Calibri-5b" transform="scale(0.015625)"/>
       <path d="M 2244 844 
Q 2244 628 2164 459 
Q 2084 291 1937 175 
Q 1791 59 1587 0 
Q 1384 -59 1141 -59 
Q 991 -59 855 -36 
Q 719 -13 611 23 
Q 503 59 428 98 
Q 353 138 318 169 
Q 284 200 268 256 
Q 253 313 253 409 
Q 253 469 259 509 
Q 266 550 275 575 
Q 284 600 301 611 
Q 319 622 341 622 
Q 375 622 442 580 
Q 509 538 607 488 
Q 706 438 840 395 
Q 975 353 1150 353 
Q 1281 353 1387 381 
Q 1494 409 1572 464 
Q 1650 519 1692 603 
Q 1734 688 1734 803 
Q 1734 922 1673 1003 
Q 1613 1084 1513 1146 
Q 1413 1209 1288 1257 
Q 1163 1306 1030 1359 
Q 897 1413 770 1480 
Q 644 1547 544 1644 
Q 444 1741 383 1875 
Q 322 2009 322 2197 
Q 322 2363 386 2514 
Q 450 2666 578 2780 
Q 706 2894 898 2962 
Q 1091 3031 1347 3031 
Q 1459 3031 1571 3012 
Q 1684 2994 1775 2966 
Q 1866 2938 1930 2905 
Q 1994 2872 2026 2847 
Q 2059 2822 2070 2803 
Q 2081 2784 2086 2761 
Q 2091 2738 2095 2703 
Q 2100 2669 2100 2619 
Q 2100 2566 2095 2527 
Q 2091 2488 2080 2463 
Q 2069 2438 2053 2427 
Q 2038 2416 2019 2416 
Q 1991 2416 1937 2450 
Q 1884 2484 1800 2523 
Q 1716 2563 1602 2597 
Q 1488 2631 1341 2631 
Q 1209 2631 1109 2601 
Q 1009 2572 945 2517 
Q 881 2463 848 2388 
Q 816 2313 816 2225 
Q 816 2103 878 2020 
Q 941 1938 1041 1875 
Q 1141 1813 1269 1763 
Q 1397 1713 1530 1659 
Q 1663 1606 1792 1540 
Q 1922 1475 2022 1381 
Q 2122 1288 2183 1156 
Q 2244 1025 2244 844 
z
" id="Calibri-73" transform="scale(0.015625)"/>
       <path d="M 1369 -781 
Q 1369 -844 1351 -886 
Q 1334 -928 1306 -953 
Q 1278 -978 1242 -989 
Q 1206 -1000 1169 -1000 
L 372 -1000 
Q 328 -1000 304 -958 
Q 281 -916 281 -813 
Q 281 -759 286 -723 
Q 291 -688 303 -664 
Q 316 -641 333 -631 
Q 350 -622 372 -622 
L 881 -622 
L 881 3991 
L 372 3991 
Q 328 3991 304 4034 
Q 281 4078 281 4178 
Q 281 4231 286 4267 
Q 291 4303 303 4328 
Q 316 4353 333 4362 
Q 350 4372 372 4372 
L 1169 4372 
Q 1206 4372 1242 4361 
Q 1278 4350 1306 4323 
Q 1334 4297 1351 4255 
Q 1369 4213 1369 4153 
L 1369 -781 
z
" id="Calibri-5d" transform="scale(0.015625)"/>
      </defs>
      <use xlink:href="#Calibri-54"/>
      <use x="48.730469" xlink:href="#Calibri-69"/>
      <use x="71.679688" xlink:href="#Calibri-65"/>
      <use x="121.435547" xlink:href="#Calibri-6d"/>
      <use x="201.318359" xlink:href="#Calibri-70"/>
      <use x="253.857422" xlink:href="#Calibri-6f"/>
      <use x="306.591797" xlink:href="#Calibri-20"/>
      <use x="329.199219" xlink:href="#Calibri-5b"/>
      <use x="359.863281" xlink:href="#Calibri-73"/>
      <use x="398.974609" xlink:href="#Calibri-5d"/>
     </g>
    </g>
   </g>
   <g id="matplotlib.axis_2">
    <g id="ytick_1">
     <g id="line2d_5">
      <defs>
       <path d="M 0 0 
L -3.5 0 
" id="m551632211a" style="stroke:#000000;stroke-width:0.8;"/>
      </defs>
      <g>
       <use style="stroke:#000000;stroke-width:0.8;" x="53.165" xlink:href="#m551632211a" y="165.541818"/>
      </g>
     </g>
     <g id="text_6">
      <!-- −0.4 -->
      <g transform="translate(28.52125 168.942599)scale(0.1 -0.1)">
       <defs>
        <path d="M 2934 1797 
Q 2934 1681 2904 1628 
Q 2875 1575 2819 1575 
L 356 1575 
Q 297 1575 267 1628 
Q 238 1681 238 1797 
Q 238 1909 267 1964 
Q 297 2019 356 2019 
L 2819 2019 
Q 2875 2019 2904 1966 
Q 2934 1913 2934 1797 
z
" id="Calibri-2212" transform="scale(0.015625)"/>
        <path d="M 3059 1150 
Q 3059 1047 3028 987 
Q 2997 928 2941 928 
L 2484 928 
L 2484 78 
Q 2484 53 2471 36 
Q 2459 19 2428 6 
Q 2397 -6 2347 -12 
Q 2297 -19 2219 -19 
Q 2144 -19 2094 -12 
Q 2044 -6 2014 6 
Q 1984 19 1973 36 
Q 1963 53 1963 78 
L 1963 928 
L 294 928 
Q 256 928 231 937 
Q 206 947 186 972 
Q 166 997 158 1044 
Q 150 1091 150 1166 
Q 150 1225 153 1272 
Q 156 1319 165 1358 
Q 175 1397 190 1433 
Q 206 1469 228 1509 
L 1684 3966 
Q 1700 3991 1729 4009 
Q 1759 4028 1806 4040 
Q 1853 4053 1922 4058 
Q 1991 4063 2084 4063 
Q 2188 4063 2264 4055 
Q 2341 4047 2387 4034 
Q 2434 4022 2459 4001 
Q 2484 3981 2484 3953 
L 2484 1372 
L 2941 1372 
Q 2994 1372 3026 1317 
Q 3059 1263 3059 1150 
z
M 1963 3591 
L 1956 3591 
L 641 1372 
L 1963 1372 
L 1963 3591 
z
" id="Calibri-34" transform="scale(0.015625)"/>
       </defs>
       <use xlink:href="#Calibri-2212"/>
       <use x="49.804688" xlink:href="#Calibri-30"/>
       <use x="100.488281" xlink:href="#Calibri-2e"/>
       <use x="125.732422" xlink:href="#Calibri-34"/>
      </g>
     </g>
    </g>
    <g id="ytick_2">
     <g id="line2d_6">
      <g>
       <use style="stroke:#000000;stroke-width:0.8;" x="53.165" xlink:href="#m551632211a" y="135.970909"/>
      </g>
     </g>
     <g id="text_7">
      <!-- −0.2 -->
      <g transform="translate(28.52125 139.37169)scale(0.1 -0.1)">
       <defs>
        <path d="M 2888 231 
Q 2888 175 2880 131 
Q 2872 88 2858 58 
Q 2844 28 2820 14 
Q 2797 0 2769 0 
L 534 0 
Q 491 0 458 11 
Q 425 22 401 47 
Q 378 72 367 119 
Q 356 166 356 234 
Q 356 297 361 344 
Q 366 391 381 427 
Q 397 463 420 498 
Q 444 534 481 575 
L 1266 1406 
Q 1538 1694 1702 1922 
Q 1866 2150 1955 2337 
Q 2044 2525 2072 2678 
Q 2100 2831 2100 2966 
Q 2100 3100 2056 3220 
Q 2013 3341 1930 3431 
Q 1847 3522 1722 3575 
Q 1597 3628 1434 3628 
Q 1244 3628 1092 3575 
Q 941 3522 827 3459 
Q 713 3397 636 3344 
Q 559 3291 522 3291 
Q 500 3291 483 3303 
Q 466 3316 455 3344 
Q 444 3372 437 3419 
Q 431 3466 431 3531 
Q 431 3578 434 3612 
Q 438 3647 445 3672 
Q 453 3697 465 3719 
Q 478 3741 515 3773 
Q 553 3806 645 3862 
Q 738 3919 877 3973 
Q 1016 4028 1183 4065 
Q 1350 4103 1534 4103 
Q 1828 4103 2048 4020 
Q 2269 3938 2414 3794 
Q 2559 3650 2631 3459 
Q 2703 3269 2703 3053 
Q 2703 2859 2668 2667 
Q 2634 2475 2523 2251 
Q 2413 2028 2203 1754 
Q 1994 1481 1647 1125 
L 1006 456 
L 2766 456 
Q 2791 456 2814 442 
Q 2838 428 2855 400 
Q 2872 372 2880 330 
Q 2888 288 2888 231 
z
" id="Calibri-32" transform="scale(0.015625)"/>
       </defs>
       <use xlink:href="#Calibri-2212"/>
       <use x="49.804688" xlink:href="#Calibri-30"/>
       <use x="100.488281" xlink:href="#Calibri-2e"/>
       <use x="125.732422" xlink:href="#Calibri-32"/>
      </g>
     </g>
    </g>
    <g id="ytick_3">
     <g id="line2d_7">
      <g>
       <use style="stroke:#000000;stroke-width:0.8;" x="53.165" xlink:href="#m551632211a" y="106.4"/>
      </g>
     </g>
     <g id="text_8">
      <!-- 0.0 -->
      <g transform="translate(33.5025 109.800781)scale(0.1 -0.1)">
       <use xlink:href="#Calibri-30"/>
       <use x="50.683594" xlink:href="#Calibri-2e"/>
       <use x="75.927734" xlink:href="#Calibri-30"/>
      </g>
     </g>
    </g>
    <g id="ytick_4">
     <g id="line2d_8">
      <g>
       <use style="stroke:#000000;stroke-width:0.8;" x="53.165" xlink:href="#m551632211a" y="76.829091"/>
      </g>
     </g>
     <g id="text_9">
      <!-- 0.2 -->
      <g transform="translate(33.5025 80.229872)scale(0.1 -0.1)">
       <use xlink:href="#Calibri-30"/>
       <use x="50.683594" xlink:href="#Calibri-2e"/>
       <use x="75.927734" xlink:href="#Calibri-32"/>
      </g>
     </g>
    </g>
    <g id="ytick_5">
     <g id="line2d_9">
      <g>
       <use style="stroke:#000000;stroke-width:0.8;" x="53.165" xlink:href="#m551632211a" y="47.258182"/>
      </g>
     </g>
     <g id="text_10">
      <!-- 0.4 -->
      <g transform="translate(33.5025 50.658963)scale(0.1 -0.1)">
       <use xlink:href="#Calibri-30"/>
       <use x="50.683594" xlink:href="#Calibri-2e"/>
       <use x="75.927734" xlink:href="#Calibri-34"/>
      </g>
     </g>
    </g>
    <g id="text_11">
     <!-- Amplitud -->
     <g transform="translate(22.743125 125.139844)rotate(-90)scale(0.1 -0.1)">
      <defs>
       <path d="M 3566 191 
Q 3591 122 3592 80 
Q 3594 38 3569 16 
Q 3544 -6 3486 -12 
Q 3428 -19 3331 -19 
Q 3234 -19 3176 -14 
Q 3119 -9 3089 2 
Q 3059 13 3045 31 
Q 3031 50 3019 78 
L 2672 1063 
L 991 1063 
L 659 91 
Q 650 63 634 42 
Q 619 22 589 8 
Q 559 -6 504 -12 
Q 450 -19 363 -19 
Q 272 -19 214 -11 
Q 156 -3 132 19 
Q 109 41 111 83 
Q 113 125 138 194 
L 1494 3950 
Q 1506 3984 1526 4006 
Q 1547 4028 1586 4040 
Q 1625 4053 1686 4058 
Q 1747 4063 1841 4063 
Q 1941 4063 2006 4058 
Q 2072 4053 2112 4040 
Q 2153 4028 2175 4004 
Q 2197 3981 2209 3947 
L 3566 191 
z
M 1825 3506 
L 1822 3506 
L 1125 1491 
L 2531 1491 
L 1825 3506 
z
" id="Calibri-41" transform="scale(0.015625)"/>
       <path d="M 994 78 
Q 994 53 981 36 
Q 969 19 941 6 
Q 913 -6 863 -12 
Q 813 -19 734 -19 
Q 659 -19 609 -12 
Q 559 -6 529 6 
Q 500 19 489 36 
Q 478 53 478 78 
L 478 4253 
Q 478 4278 489 4297 
Q 500 4316 529 4328 
Q 559 4341 609 4347 
Q 659 4353 734 4353 
Q 813 4353 863 4347 
Q 913 4341 941 4328 
Q 969 4316 981 4297 
Q 994 4278 994 4253 
L 994 78 
z
" id="Calibri-6c" transform="scale(0.015625)"/>
       <path d="M 1941 284 
Q 1941 194 1928 141 
Q 1916 88 1891 63 
Q 1866 38 1816 16 
Q 1766 -6 1702 -20 
Q 1638 -34 1566 -43 
Q 1494 -53 1422 -53 
Q 1203 -53 1047 5 
Q 891 63 791 180 
Q 691 297 645 476 
Q 600 656 600 900 
L 600 2544 
L 206 2544 
Q 159 2544 131 2594 
Q 103 2644 103 2756 
Q 103 2816 111 2856 
Q 119 2897 131 2923 
Q 144 2950 164 2961 
Q 184 2972 209 2972 
L 600 2972 
L 600 3641 
Q 600 3663 611 3681 
Q 622 3700 651 3714 
Q 681 3728 731 3734 
Q 781 3741 856 3741 
Q 934 3741 984 3734 
Q 1034 3728 1062 3714 
Q 1091 3700 1103 3681 
Q 1116 3663 1116 3641 
L 1116 2972 
L 1838 2972 
Q 1863 2972 1881 2961 
Q 1900 2950 1914 2923 
Q 1928 2897 1934 2856 
Q 1941 2816 1941 2756 
Q 1941 2644 1912 2594 
Q 1884 2544 1838 2544 
L 1116 2544 
L 1116 975 
Q 1116 684 1202 536 
Q 1288 388 1509 388 
Q 1581 388 1637 402 
Q 1694 416 1737 431 
Q 1781 447 1812 461 
Q 1844 475 1869 475 
Q 1884 475 1898 467 
Q 1913 459 1920 437 
Q 1928 416 1934 378 
Q 1941 341 1941 284 
z
" id="Calibri-74" transform="scale(0.015625)"/>
       <path d="M 2888 78 
Q 2888 53 2877 36 
Q 2866 19 2837 6 
Q 2809 -6 2764 -12 
Q 2719 -19 2653 -19 
Q 2581 -19 2536 -12 
Q 2491 -6 2464 6 
Q 2438 19 2428 36 
Q 2419 53 2419 78 
L 2419 450 
Q 2178 184 1943 62 
Q 1709 -59 1469 -59 
Q 1188 -59 995 34 
Q 803 128 684 289 
Q 566 450 514 664 
Q 463 878 463 1184 
L 463 2891 
Q 463 2916 473 2933 
Q 484 2950 515 2964 
Q 547 2978 597 2983 
Q 647 2988 722 2988 
Q 797 2988 847 2983 
Q 897 2978 926 2964 
Q 956 2950 968 2933 
Q 981 2916 981 2891 
L 981 1253 
Q 981 1006 1017 857 
Q 1053 709 1126 604 
Q 1200 500 1312 442 
Q 1425 384 1575 384 
Q 1769 384 1961 521 
Q 2153 659 2369 925 
L 2369 2891 
Q 2369 2916 2380 2933 
Q 2391 2950 2422 2964 
Q 2453 2978 2501 2983 
Q 2550 2988 2628 2988 
Q 2703 2988 2753 2983 
Q 2803 2978 2831 2964 
Q 2859 2950 2873 2933 
Q 2888 2916 2888 2891 
L 2888 78 
z
" id="Calibri-75" transform="scale(0.015625)"/>
       <path d="M 2888 78 
Q 2888 53 2877 34 
Q 2866 16 2839 5 
Q 2813 -6 2769 -12 
Q 2725 -19 2663 -19 
Q 2597 -19 2553 -12 
Q 2509 -6 2481 5 
Q 2453 16 2440 34 
Q 2428 53 2428 78 
L 2428 450 
Q 2206 209 1967 75 
Q 1728 -59 1444 -59 
Q 1134 -59 915 61 
Q 697 181 561 386 
Q 425 591 362 867 
Q 300 1144 300 1450 
Q 300 1813 378 2105 
Q 456 2397 609 2603 
Q 763 2809 989 2920 
Q 1216 3031 1513 3031 
Q 1759 3031 1964 2923 
Q 2169 2816 2369 2606 
L 2369 4241 
Q 2369 4263 2380 4283 
Q 2391 4303 2422 4314 
Q 2453 4325 2501 4333 
Q 2550 4341 2625 4341 
Q 2703 4341 2753 4333 
Q 2803 4325 2831 4314 
Q 2859 4303 2873 4283 
Q 2888 4263 2888 4241 
L 2888 78 
z
M 2369 2056 
Q 2159 2316 1964 2452 
Q 1769 2588 1556 2588 
Q 1359 2588 1221 2494 
Q 1084 2400 998 2247 
Q 913 2094 873 1900 
Q 834 1706 834 1506 
Q 834 1294 867 1091 
Q 900 888 981 730 
Q 1063 572 1197 476 
Q 1331 381 1534 381 
Q 1638 381 1733 409 
Q 1828 438 1928 503 
Q 2028 569 2137 673 
Q 2247 778 2369 931 
L 2369 2056 
z
" id="Calibri-64" transform="scale(0.015625)"/>
      </defs>
      <use xlink:href="#Calibri-41"/>
      <use x="57.861328" xlink:href="#Calibri-6d"/>
      <use x="137.744141" xlink:href="#Calibri-70"/>
      <use x="190.283203" xlink:href="#Calibri-6c"/>
      <use x="213.232422" xlink:href="#Calibri-69"/>
      <use x="236.181641" xlink:href="#Calibri-74"/>
      <use x="269.677734" xlink:href="#Calibri-75"/>
      <use x="322.216797" xlink:href="#Calibri-64"/>
     </g>
    </g>
   </g>
   <g id="line2d_10">
    <path clip-path="url(#pfe6d73ff7e)" d="M 53.045848 106.4 
L 54.611144 106.475976 
L 54.895743 108.845988 
L 55.038043 108.322505 
L 55.180343 106.693662 
L 55.607242 94.837386 
L 55.749541 96.072034 
L 55.891841 99.049814 
L 56.603339 123.222737 
L 56.887939 124.27284 
L 57.030238 124.313805 
L 57.172538 122.183158 
L 57.741737 98.298376 
L 58.168636 72.594353 
L 58.453235 64.106698 
L 58.595535 61.984192 
L 58.737834 62.717991 
L 58.880134 68.217939 
L 59.164733 96.323515 
L 59.733932 158.846387 
L 60.160831 168.995531 
L 60.30313 168.25759 
L 60.44543 164.043495 
L 60.730029 142.871562 
L 61.726127 34.439568 
L 61.868427 32.475869 
L 62.010726 35.346552 
L 62.295326 48.197464 
L 62.579925 72.40818 
L 63.433723 166.212122 
L 63.576022 171.638028 
L 63.718322 172.397169 
L 63.860622 167.986094 
L 64.287521 136.300628 
L 64.71442 111.97802 
L 65.283618 76.248487 
L 65.710517 54.056366 
L 65.852817 51.010242 
L 65.995117 50.492093 
L 66.137416 52.159306 
L 66.422016 66.520383 
L 66.848915 100.461296 
L 67.560413 164.383577 
L 67.702713 170.597155 
L 67.845012 171.853696 
L 68.129611 164.297379 
L 68.414211 151.140529 
L 68.84111 117.007627 
L 69.552608 57.660672 
L 69.837207 46.577373 
L 69.979507 48.461549 
L 70.264106 59.798437 
L 71.260204 118.12022 
L 71.687103 128.678578 
L 71.829403 129.877141 
L 71.971702 129.029868 
L 72.398601 123.702285 
L 72.540901 123.102734 
L 72.6832 121.364151 
L 73.110099 112.704518 
L 73.394699 112.205317 
L 73.536998 110.409654 
L 73.821598 103.977654 
L 73.963897 103.372337 
L 74.248497 108.251333 
L 74.533096 112.264844 
L 74.675396 111.423607 
L 74.959995 106.031182 
L 75.529194 88.797871 
L 75.671493 90.082714 
L 76.098392 98.045357 
L 76.240692 98.279428 
L 76.525291 97.164183 
L 76.667591 99.443053 
L 77.09449 112.682526 
L 77.521389 118.191629 
L 77.663688 118.159935 
L 78.090587 110.989184 
L 78.232887 110.621964 
L 78.375187 110.595921 
L 78.517486 111.111926 
L 78.659786 111.037011 
L 78.802086 108.846507 
L 79.228985 97.15563 
L 79.513584 94.355956 
L 79.798183 89.720422 
L 79.940483 89.092825 
L 80.082783 89.801345 
L 80.225082 91.773667 
L 80.509682 102.630389 
L 81.22118 134.175388 
L 81.363479 136.946433 
L 81.505779 137.040072 
L 81.790378 130.823764 
L 82.359577 108.426726 
L 82.928776 78.978863 
L 83.071075 76.687321 
L 83.213375 76.613937 
L 83.355675 77.582827 
L 83.497974 80.118014 
L 83.782574 91.161955 
L 84.494072 122.307216 
L 84.778671 129.230494 
L 84.920971 130.232961 
L 85.063271 129.423731 
L 85.34787 125.324219 
L 85.632469 115.033774 
L 86.343967 84.389007 
L 86.628567 80.368552 
L 86.913166 78.079455 
L 87.055466 78.459528 
L 87.340065 83.532523 
L 87.624664 94.306185 
L 88.478462 142.975641 
L 88.763062 148.592704 
L 88.905361 148.742575 
L 89.189961 144.055068 
L 89.47456 134.942559 
L 89.759159 118.908019 
L 90.470657 66.199284 
L 90.755257 60.512853 
L 90.897556 61.946654 
L 91.182156 71.953727 
L 92.462853 129.50936 
L 92.605152 131.658445 
L 92.747452 132.047906 
L 92.889752 131.075334 
L 93.174351 123.452506 
L 93.74355 104.340537 
L 94.028149 100.652868 
L 94.170448 99.917232 
L 94.312748 100.344139 
L 94.597347 102.62378 
L 95.024246 107.468658 
L 95.735745 111.003362 
L 96.020344 112.448493 
L 96.447243 114.738948 
L 96.589543 114.269821 
L 96.874142 109.841762 
L 97.301041 101.565521 
L 98.012539 91.805659 
L 98.154839 92.029327 
L 98.439438 95.028284 
L 99.008637 105.826642 
L 99.435536 113.339553 
L 99.720135 115.387283 
L 99.862435 115.519654 
L 100.004734 115.036583 
L 100.431633 111.505661 
L 100.858532 107.791927 
L 101.285431 103.92841 
L 101.570031 101.360852 
L 101.85463 100.620149 
L 102.139229 100.67891 
L 102.423829 100.590628 
L 102.566128 101.176541 
L 102.993027 105.663225 
L 103.419926 109.952665 
L 103.704525 110.935073 
L 103.846825 111.16078 
L 103.989125 110.969996 
L 104.416024 109.53916 
L 104.558323 109.234974 
L 105.127522 107.30868 
L 105.412121 107.225523 
L 105.696721 106.217254 
L 106.408219 101.981406 
L 106.835118 101.588003 
L 106.977418 101.640797 
L 107.119717 102.201778 
L 108.400414 112.769057 
L 108.542714 112.850317 
L 108.685013 112.5477 
L 108.827313 111.966981 
L 109.111912 109.157855 
L 109.681111 100.951567 
L 109.96571 99.553233 
L 110.10801 99.373864 
L 110.25031 99.407283 
L 110.392609 99.663694 
L 110.534909 100.193155 
L 110.819508 102.643121 
L 111.815606 114.422765 
L 111.957905 114.914092 
L 112.100205 114.977965 
L 112.384804 114.220775 
L 112.669404 112.320624 
L 113.096303 107.874165 
L 113.950101 96.056655 
L 114.2347 95.007113 
L 114.377 95.120541 
L 114.519299 95.418424 
L 114.803899 97.376387 
L 115.230798 103.871572 
L 116.084595 118.800514 
L 116.226895 119.72374 
L 116.369195 119.759731 
L 116.653794 118.264471 
L 117.080693 113.671787 
L 118.076791 97.423478 
L 118.36139 96.460613 
L 118.50369 96.625143 
L 119.215188 100.353395 
L 120.638184 112.606738 
L 120.922784 113.297492 
L 121.207383 113.776522 
L 121.349683 113.582995 
L 121.634282 111.312346 
L 122.203481 104.936568 
L 123.057279 100.659603 
L 123.341878 99.869664 
L 123.484178 99.913318 
L 123.768777 100.983501 
L 124.480275 106.197253 
L 125.334073 112.126957 
L 125.760972 113.589627 
L 125.903272 113.616587 
L 126.045571 113.063149 
L 127.326268 102.026005 
L 127.895467 98.134429 
L 128.037767 97.937554 
L 128.180066 98.309055 
L 128.606965 101.319661 
L 129.033864 106.179204 
L 129.603063 112.870484 
L 129.887662 114.409104 
L 130.029962 114.608895 
L 130.172261 114.171373 
L 130.456861 111.936276 
L 131.452958 101.914523 
L 131.737558 100.714036 
L 131.879857 100.764524 
L 132.164457 102.020567 
L 133.160554 109.577241 
L 133.587453 110.462093 
L 133.729753 110.318023 
L 134.156652 108.471829 
L 134.583551 106.155225 
L 135.295049 101.368244 
L 135.579648 100.264768 
L 135.721948 100.093671 
L 135.864248 100.560613 
L 136.148847 103.097143 
L 137.144945 112.586157 
L 137.429544 113.508312 
L 137.571844 113.265198 
L 137.856443 111.957183 
L 138.141042 109.224122 
L 138.710241 103.118872 
L 139.13714 100.502077 
L 139.279439 100.116653 
L 139.421739 100.165265 
L 139.706338 101.290919 
L 139.990938 103.886169 
L 140.844736 112.940242 
L 140.987035 112.602871 
L 141.271635 111.104373 
L 141.983133 104.583235 
L 142.410032 101.275515 
L 142.694631 100.573603 
L 142.836931 100.613079 
L 143.12153 102.042036 
L 144.544527 111.218626 
L 144.971426 114.080433 
L 145.113725 114.264352 
L 145.256025 113.597489 
L 145.825224 107.612062 
L 146.821321 96.047807 
L 146.963621 95.81568 
L 147.10592 96.28272 
L 147.39052 98.952027 
L 147.959718 107.763507 
L 148.528917 115.443071 
L 148.671217 116.326561 
L 148.813516 116.402893 
L 149.098116 114.840435 
L 149.525015 110.245609 
L 150.378813 100.592605 
L 150.663412 99.380915 
L 150.805712 99.277748 
L 150.948011 99.355431 
L 151.090311 99.671685 
L 151.37491 101.423292 
L 151.801809 105.401333 
L 152.228708 107.880247 
L 152.797907 111.904749 
L 153.082506 112.335676 
L 153.224806 112.274327 
L 153.367105 111.834929 
L 153.651705 109.671851 
L 154.078604 105.549909 
L 154.647802 103.468756 
L 154.932402 102.543604 
L 155.074701 102.532133 
L 155.359301 103.031531 
L 155.6439 103.988209 
L 156.213098 107.106189 
L 156.639997 106.280278 
L 156.782297 106.570022 
L 157.209196 107.952898 
L 157.493795 108.077019 
L 158.062994 109.648456 
L 158.774492 107.084971 
L 159.059092 106.522362 
L 160.197489 102.681498 
L 160.624388 103.449904 
L 160.908987 103.402867 
L 161.051287 103.787707 
L 161.335886 105.941696 
L 161.762785 110.079497 
L 162.331984 112.184996 
L 162.474283 112.316022 
L 162.616583 111.772495 
L 163.612681 102.989073 
L 164.03958 99.574044 
L 164.181879 99.171282 
L 164.324179 99.170113 
L 164.466478 99.731756 
L 164.751078 102.963077 
L 165.320276 110.516624 
L 165.747175 113.3069 
L 166.031775 114.163803 
L 166.174074 113.89378 
L 166.458674 111.553775 
L 167.454771 98.197246 
L 167.739371 97.206198 
L 167.88167 97.311473 
L 168.16627 98.723775 
L 168.593168 102.904295 
L 169.446966 115.600795 
L 169.731566 117.321 
L 169.873865 117.526039 
L 170.016165 117.363168 
L 170.300764 115.475615 
L 170.727663 109.852708 
L 171.723761 94.709725 
L 171.866061 94.173536 
L 172.00836 94.177794 
L 172.15066 94.663174 
L 172.435259 97.310262 
L 173.004458 107.163025 
L 173.431357 113.688533 
L 173.715956 115.384022 
L 173.858256 115.568041 
L 174.000555 115.383889 
L 174.285155 114.002582 
L 174.712054 110.749551 
L 175.565852 102.532875 
L 175.850451 101.51262 
L 176.13505 101.27323 
L 176.27735 101.29557 
L 176.704249 101.932331 
L 176.988848 103.721978 
L 177.558047 108.580629 
L 177.700346 108.925815 
L 177.842646 108.880732 
L 178.127245 108.54803 
L 178.411845 108.777312 
L 178.838744 109.515164 
L 178.981043 109.440244 
L 179.407942 108.34448 
L 179.834841 107.064325 
L 180.119441 106.277149 
L 180.688639 104.069152 
L 181.257838 102.593262 
L 181.400138 102.510452 
L 181.542437 102.699593 
L 181.969336 103.683476 
L 182.253935 103.964735 
L 182.396235 104.40329 
L 182.823134 107.404698 
L 183.534632 112.192261 
L 183.676932 112.47905 
L 183.819232 112.443975 
L 184.103831 111.941989 
L 184.38843 110.50875 
L 184.815329 106.217567 
L 185.384528 100.639632 
L 185.669127 99.549634 
L 185.811427 99.760361 
L 186.096026 101.222533 
L 187.234423 110.132996 
L 187.519023 110.738661 
L 187.661322 110.581931 
L 187.945922 109.332672 
L 188.65742 105.70645 
L 189.226619 104.321083 
L 189.511218 104.403581 
L 189.938117 104.723045 
L 190.222716 105.485198 
L 190.507315 106.768501 
L 191.076514 110.427448 
L 191.218814 110.999195 
L 191.361113 111.098768 
L 191.503413 110.627285 
L 191.930312 107.3844 
L 192.357211 104.559464 
L 192.78411 102.868778 
L 193.068709 102.414657 
L 193.211009 102.529182 
L 193.495608 103.566465 
L 194.207107 107.340763 
L 194.634006 107.945634 
L 194.918605 108.09673 
L 195.772403 107.653247 
L 195.914702 107.392081 
L 196.483901 105.481316 
L 196.626201 105.618502 
L 197.337699 107.860214 
L 197.479999 107.790581 
L 198.476096 106.126571 
L 199.187594 103.247753 
L 199.472194 103.83803 
L 200.610591 107.082544 
L 200.89519 108.299311 
L 201.464389 111.508151 
L 201.606689 111.338582 
L 201.891288 109.642333 
L 202.602786 103.614706 
L 203.171985 101.377702 
L 203.314285 101.088536 
L 203.456584 101.111737 
L 203.598884 101.58048 
L 203.883483 104.025497 
L 204.594981 111.604731 
L 204.879581 112.371927 
L 205.02188 112.211098 
L 205.30648 111.016214 
L 206.017978 106.36197 
L 206.587177 101.505294 
L 206.871776 100.499189 
L 207.014076 100.649314 
L 207.298675 101.582162 
L 208.010173 105.960756 
L 209.14857 112.731668 
L 209.29087 112.689929 
L 209.43317 112.279768 
L 209.717769 110.198549 
L 210.571567 102.527812 
L 210.856166 101.435309 
L 211.140766 101.104412 
L 211.283065 101.314161 
L 211.567665 102.380016 
L 211.994564 105.327682 
L 212.563762 109.707517 
L 212.848361 110.435693 
L 213.132961 110.412573 
L 213.41756 110.229533 
L 213.55986 109.884491 
L 213.844459 108.21097 
L 214.555957 102.68608 
L 214.698257 102.456327 
L 214.840557 102.503227 
L 215.125156 103.640001 
L 215.552055 105.520524 
L 215.978954 106.929936 
L 216.548153 107.743684 
L 216.832752 107.998145 
L 217.117351 108.473328 
L 217.40195 108.056853 
L 218.113449 107.009644 
L 218.540348 104.874518 
L 218.967247 103.230706 
L 219.109546 103.24524 
L 219.394146 103.86441 
L 219.963344 106.49865 
L 220.532543 109.915698 
L 220.817142 110.298597 
L 220.959442 110.100592 
L 221.244041 109.113202 
L 221.81324 105.679794 
L 222.382438 102.516573 
L 222.524738 102.450812 
L 222.951637 103.25293 
L 223.520836 105.205384 
L 224.659233 109.697428 
L 224.943832 110.132805 
L 225.086132 110.111736 
L 225.65533 109.077283 
L 225.93993 107.964869 
L 227.078327 101.865651 
L 227.220627 102.013339 
L 227.647526 103.667883 
L 228.501324 106.976891 
L 228.928223 108.837381 
L 229.212822 109.101627 
L 229.497421 108.830839 
L 229.92432 107.978859 
L 230.208919 108.178777 
L 230.351219 108.041218 
L 231.489616 105.276558 
L 232.343414 103.398715 
L 232.485714 103.304453 
L 232.628014 103.503628 
L 232.912613 104.566701 
L 233.766411 108.085803 
L 234.19331 109.286002 
L 234.477909 109.586168 
L 234.620209 109.533511 
L 234.904808 108.883455 
L 236.185505 104.064803 
L 236.897003 102.790818 
L 237.039303 103.008436 
L 237.608502 105.606118 
L 238.604599 109.890877 
L 238.889198 110.270386 
L 239.031498 110.149212 
L 239.316097 109.162428 
L 239.885296 105.956248 
L 240.312195 103.64904 
L 240.596794 102.967617 
L 240.739094 102.954669 
L 241.023693 103.398767 
L 241.308293 104.468853 
L 242.162091 108.34759 
L 242.44669 108.936777 
L 242.58899 108.996723 
L 242.731289 108.896393 
L 243.015888 108.218078 
L 244.011986 104.720139 
L 244.438885 104.330282 
L 244.581185 104.294829 
L 244.723484 104.423672 
L 245.150383 105.52063 
L 246.146481 108.747026 
L 246.43108 108.844525 
L 246.71568 108.719431 
L 247.000279 107.88904 
L 247.711777 104.611113 
L 247.711777 104.611113 
" style="fill:none;stroke:#000000;stroke-linecap:square;stroke-width:0.8;"/>
   </g>
   <g id="patch_3">
    <path d="M 53.165 187.72 
L 53.165 25.08 
" style="fill:none;stroke:#000000;stroke-linecap:square;stroke-linejoin:miter;stroke-width:0.8;"/>
   </g>
   <g id="patch_4">
    <path d="M 247.7025 187.72 
L 247.7025 25.08 
" style="fill:none;stroke:#000000;stroke-linecap:square;stroke-linejoin:miter;stroke-width:0.8;"/>
   </g>
   <g id="patch_5">
    <path d="M 53.165 187.72 
L 247.7025 187.72 
" style="fill:none;stroke:#000000;stroke-linecap:square;stroke-linejoin:miter;stroke-width:0.8;"/>
   </g>
   <g id="patch_6">
    <path d="M 53.165 25.08 
L 247.7025 25.08 
" style="fill:none;stroke:#000000;stroke-linecap:square;stroke-linejoin:miter;stroke-width:0.8;"/>
   </g>
   <g id="text_12">
    <!-- Pulso de metrónomo -->
    <g transform="translate(99.124375 19.08)scale(0.12 -0.12)">
     <defs>
      <path d="M 3022 2859 
Q 3022 2556 2922 2312 
Q 2822 2069 2636 1897 
Q 2450 1725 2179 1631 
Q 1909 1538 1534 1538 
L 1075 1538 
L 1075 81 
Q 1075 56 1061 37 
Q 1047 19 1017 8 
Q 988 -3 936 -11 
Q 884 -19 806 -19 
Q 728 -19 676 -11 
Q 625 -3 594 8 
Q 563 19 550 37 
Q 538 56 538 81 
L 538 3813 
Q 538 3938 603 3991 
Q 669 4044 750 4044 
L 1616 4044 
Q 1747 4044 1867 4033 
Q 1988 4022 2152 3986 
Q 2316 3950 2486 3851 
Q 2656 3753 2775 3609 
Q 2894 3466 2958 3277 
Q 3022 3088 3022 2859 
z
M 2456 2816 
Q 2456 3063 2364 3228 
Q 2272 3394 2136 3475 
Q 2000 3556 1854 3578 
Q 1709 3600 1572 3600 
L 1075 3600 
L 1075 1978 
L 1559 1978 
Q 1803 1978 1964 2040 
Q 2125 2103 2234 2214 
Q 2344 2325 2400 2479 
Q 2456 2634 2456 2816 
z
" id="Calibri-50" transform="scale(0.015625)"/>
      <path d="M 2122 2706 
Q 2122 2638 2119 2591 
Q 2116 2544 2106 2517 
Q 2097 2491 2083 2477 
Q 2069 2463 2044 2463 
Q 2019 2463 1983 2477 
Q 1947 2491 1901 2505 
Q 1856 2519 1800 2531 
Q 1744 2544 1678 2544 
Q 1600 2544 1525 2512 
Q 1450 2481 1367 2409 
Q 1284 2338 1193 2219 
Q 1103 2100 994 1928 
L 994 78 
Q 994 53 981 36 
Q 969 19 941 6 
Q 913 -6 863 -12 
Q 813 -19 734 -19 
Q 659 -19 609 -12 
Q 559 -6 529 6 
Q 500 19 489 36 
Q 478 53 478 78 
L 478 2891 
Q 478 2916 487 2933 
Q 497 2950 525 2964 
Q 553 2978 597 2983 
Q 641 2988 713 2988 
Q 781 2988 826 2983 
Q 872 2978 897 2964 
Q 922 2950 933 2933 
Q 944 2916 944 2891 
L 944 2481 
Q 1059 2650 1161 2756 
Q 1263 2863 1353 2923 
Q 1444 2984 1533 3007 
Q 1622 3031 1713 3031 
Q 1753 3031 1804 3026 
Q 1856 3022 1912 3009 
Q 1969 2997 2014 2981 
Q 2059 2966 2078 2950 
Q 2097 2934 2103 2920 
Q 2109 2906 2114 2884 
Q 2119 2863 2120 2820 
Q 2122 2778 2122 2706 
z
" id="Calibri-72" transform="scale(0.015625)"/>
      <path d="M 3094 1516 
Q 3094 1172 3003 883 
Q 2913 594 2733 384 
Q 2553 175 2283 58 
Q 2013 -59 1656 -59 
Q 1309 -59 1051 44 
Q 794 147 622 344 
Q 450 541 365 822 
Q 281 1103 281 1459 
Q 281 1803 370 2092 
Q 459 2381 639 2590 
Q 819 2800 1087 2915 
Q 1356 3031 1716 3031 
Q 2063 3031 2320 2928 
Q 2578 2825 2750 2628 
Q 2922 2431 3008 2150 
Q 3094 1869 3094 1516 
z
M 2550 1481 
Q 2550 1709 2508 1912 
Q 2466 2116 2369 2269 
Q 2272 2422 2106 2511 
Q 1941 2600 1694 2600 
Q 1466 2600 1302 2519 
Q 1138 2438 1031 2289 
Q 925 2141 873 1937 
Q 822 1734 822 1494 
Q 822 1263 864 1059 
Q 906 856 1004 704 
Q 1103 553 1268 464 
Q 1434 375 1681 375 
Q 1906 375 2072 456 
Q 2238 538 2344 684 
Q 2450 831 2500 1034 
Q 2550 1238 2550 1481 
z
M 1942 4266 
Q 1961 4300 1986 4322 
Q 2011 4344 2046 4356 
Q 2082 4369 2135 4375 
Q 2189 4381 2264 4381 
Q 2351 4381 2406 4370 
Q 2461 4359 2482 4339 
Q 2504 4319 2501 4292 
Q 2498 4266 2473 4238 
L 1907 3509 
Q 1882 3478 1862 3459 
Q 1842 3441 1815 3430 
Q 1789 3419 1746 3414 
Q 1704 3409 1642 3409 
Q 1573 3409 1532 3418 
Q 1492 3428 1474 3443 
Q 1457 3459 1462 3484 
Q 1467 3509 1489 3544 
L 1942 4266 
z
M 1048 2972 
L 1048 2972 
z
" id="Calibri-f3" transform="scale(0.015625)"/>
      <path d="M 2900 78 
Q 2900 53 2887 36 
Q 2875 19 2847 6 
Q 2819 -6 2769 -12 
Q 2719 -19 2644 -19 
Q 2566 -19 2516 -12 
Q 2466 -6 2437 6 
Q 2409 19 2396 36 
Q 2384 53 2384 78 
L 2384 1725 
Q 2384 1966 2346 2112 
Q 2309 2259 2237 2365 
Q 2166 2472 2052 2528 
Q 1938 2584 1788 2584 
Q 1594 2584 1400 2446 
Q 1206 2309 994 2044 
L 994 78 
Q 994 53 981 36 
Q 969 19 941 6 
Q 913 -6 863 -12 
Q 813 -19 734 -19 
Q 659 -19 609 -12 
Q 559 -6 529 6 
Q 500 19 489 36 
Q 478 53 478 78 
L 478 2891 
Q 478 2916 487 2933 
Q 497 2950 525 2964 
Q 553 2978 597 2983 
Q 641 2988 713 2988 
Q 781 2988 826 2983 
Q 872 2978 897 2964 
Q 922 2950 933 2933 
Q 944 2916 944 2891 
L 944 2519 
Q 1181 2784 1417 2907 
Q 1653 3031 1894 3031 
Q 2175 3031 2367 2936 
Q 2559 2841 2678 2681 
Q 2797 2522 2848 2308 
Q 2900 2094 2900 1794 
L 2900 78 
z
" id="Calibri-6e" transform="scale(0.015625)"/>
     </defs>
     <use xlink:href="#Calibri-50"/>
     <use x="51.660156" xlink:href="#Calibri-75"/>
     <use x="104.199219" xlink:href="#Calibri-6c"/>
     <use x="127.148438" xlink:href="#Calibri-73"/>
     <use x="166.259766" xlink:href="#Calibri-6f"/>
     <use x="218.994141" xlink:href="#Calibri-20"/>
     <use x="241.601562" xlink:href="#Calibri-64"/>
     <use x="294.140625" xlink:href="#Calibri-65"/>
     <use x="343.896484" xlink:href="#Calibri-20"/>
     <use x="366.503906" xlink:href="#Calibri-6d"/>
     <use x="446.386719" xlink:href="#Calibri-65"/>
     <use x="496.142578" xlink:href="#Calibri-74"/>
     <use x="529.638672" xlink:href="#Calibri-72"/>
     <use x="564.501953" xlink:href="#Calibri-f3"/>
     <use x="617.236328" xlink:href="#Calibri-6e"/>
     <use x="669.775391" xlink:href="#Calibri-6f"/>
     <use x="722.509766" xlink:href="#Calibri-6d"/>
     <use x="802.392578" xlink:href="#Calibri-6f"/>
    </g>
   </g>
  </g>
  <g id="axes_2">
   <g id="patch_7">
    <path d="M 297.9425 187.72 
L 492.48 187.72 
L 492.48 25.08 
L 297.9425 25.08 
z
" style="fill:#ffffff;"/>
   </g>
   <g id="matplotlib.axis_3">
    <g id="xtick_5">
     <g id="line2d_11">
      <g>
       <use style="stroke:#000000;stroke-width:0.8;" x="306.785114" xlink:href="#m9da58f8956" y="187.72"/>
      </g>
     </g>
     <g id="text_13">
      <!-- 0 -->
      <g transform="translate(304.250739 201.521562)scale(0.1 -0.1)">
       <use xlink:href="#Calibri-30"/>
      </g>
     </g>
    </g>
    <g id="xtick_6">
     <g id="line2d_12">
      <g>
       <use style="stroke:#000000;stroke-width:0.8;" x="358.896281" xlink:href="#m9da58f8956" y="187.72"/>
      </g>
     </g>
     <g id="text_14">
      <!-- 5 -->
      <g transform="translate(356.361906 201.521562)scale(0.1 -0.1)">
       <defs>
        <path d="M 2869 1300 
Q 2869 975 2759 722 
Q 2650 469 2450 295 
Q 2250 122 1973 31 
Q 1697 -59 1359 -59 
Q 1172 -59 1003 -32 
Q 834 -6 703 33 
Q 572 72 487 109 
Q 403 147 379 169 
Q 356 191 347 209 
Q 338 228 330 254 
Q 322 281 319 322 
Q 316 363 316 419 
Q 316 472 320 514 
Q 325 556 337 582 
Q 350 609 367 621 
Q 384 634 406 634 
Q 438 634 503 595 
Q 569 556 680 511 
Q 791 466 955 425 
Q 1119 384 1344 384 
Q 1553 384 1728 434 
Q 1903 484 2029 590 
Q 2156 697 2228 858 
Q 2300 1019 2300 1250 
Q 2300 1444 2239 1592 
Q 2178 1741 2051 1839 
Q 1925 1938 1731 1986 
Q 1538 2034 1269 2034 
Q 1078 2034 940 2015 
Q 803 1997 684 1997 
Q 597 1997 559 2037 
Q 522 2078 522 2194 
L 522 3841 
Q 522 3944 570 3994 
Q 619 4044 709 4044 
L 2500 4044 
Q 2525 4044 2548 4030 
Q 2572 4016 2587 3987 
Q 2603 3959 2611 3915 
Q 2619 3872 2619 3813 
Q 2619 3700 2587 3637 
Q 2556 3575 2500 3575 
L 991 3575 
L 991 2441 
Q 1100 2456 1214 2459 
Q 1328 2463 1478 2463 
Q 1825 2463 2084 2380 
Q 2344 2297 2517 2145 
Q 2691 1994 2780 1778 
Q 2869 1563 2869 1300 
z
" id="Calibri-35" transform="scale(0.015625)"/>
       </defs>
       <use xlink:href="#Calibri-35"/>
      </g>
     </g>
    </g>
    <g id="xtick_7">
     <g id="line2d_13">
      <g>
       <use style="stroke:#000000;stroke-width:0.8;" x="411.007447" xlink:href="#m9da58f8956" y="187.72"/>
      </g>
     </g>
     <g id="text_15">
      <!-- 10 -->
      <g transform="translate(405.938697 201.521562)scale(0.1 -0.1)">
       <defs>
        <path d="M 2897 213 
Q 2897 153 2887 112 
Q 2878 72 2862 47 
Q 2847 22 2826 11 
Q 2806 0 2784 0 
L 672 0 
Q 650 0 631 11 
Q 613 22 595 47 
Q 578 72 568 112 
Q 559 153 559 213 
Q 559 269 568 309 
Q 578 350 592 376 
Q 606 403 626 417 
Q 647 431 672 431 
L 1516 431 
L 1516 3506 
L 734 3041 
Q 675 3009 639 3003 
Q 603 2997 581 3017 
Q 559 3038 551 3084 
Q 544 3131 544 3203 
Q 544 3256 548 3293 
Q 553 3331 562 3356 
Q 572 3381 589 3400 
Q 606 3419 634 3438 
L 1566 4034 
Q 1578 4044 1597 4050 
Q 1616 4056 1644 4062 
Q 1672 4069 1709 4070 
Q 1747 4072 1803 4072 
Q 1878 4072 1928 4065 
Q 1978 4059 2006 4048 
Q 2034 4038 2043 4020 
Q 2053 4003 2053 3984 
L 2053 431 
L 2784 431 
Q 2809 431 2831 417 
Q 2853 403 2867 376 
Q 2881 350 2889 309 
Q 2897 269 2897 213 
z
" id="Calibri-31" transform="scale(0.015625)"/>
       </defs>
       <use xlink:href="#Calibri-31"/>
       <use x="50.683594" xlink:href="#Calibri-30"/>
      </g>
     </g>
    </g>
    <g id="xtick_8">
     <g id="line2d_14">
      <g>
       <use style="stroke:#000000;stroke-width:0.8;" x="463.118614" xlink:href="#m9da58f8956" y="187.72"/>
      </g>
     </g>
     <g id="text_16">
      <!-- 15 -->
      <g transform="translate(458.049864 201.521562)scale(0.1 -0.1)">
       <use xlink:href="#Calibri-31"/>
       <use x="50.683594" xlink:href="#Calibri-35"/>
      </g>
     </g>
    </g>
    <g id="text_17">
     <!-- Distancia (x) -->
     <g transform="translate(370.347969 214.134062)scale(0.1 -0.1)">
      <defs>
       <path d="M 3647 2081 
Q 3647 1556 3512 1164 
Q 3378 772 3120 514 
Q 2863 256 2488 128 
Q 2113 0 1594 0 
L 738 0 
Q 666 0 602 48 
Q 538 97 538 219 
L 538 3825 
Q 538 3947 602 3995 
Q 666 4044 738 4044 
L 1653 4044 
Q 2178 4044 2540 3908 
Q 2903 3772 3148 3517 
Q 3394 3263 3520 2900 
Q 3647 2538 3647 2081 
z
M 3081 2059 
Q 3081 2388 3000 2670 
Q 2919 2953 2745 3159 
Q 2572 3366 2306 3481 
Q 2041 3597 1622 3597 
L 1075 3597 
L 1075 450 
L 1628 450 
Q 2016 450 2281 547 
Q 2547 644 2725 844 
Q 2903 1044 2992 1345 
Q 3081 1647 3081 2059 
z
" id="Calibri-44" transform="scale(0.015625)"/>
       <path d="M 2597 75 
Q 2597 38 2572 19 
Q 2547 0 2503 -9 
Q 2459 -19 2375 -19 
Q 2294 -19 2245 -9 
Q 2197 0 2175 19 
Q 2153 38 2153 75 
L 2153 356 
Q 1969 159 1742 50 
Q 1516 -59 1263 -59 
Q 1041 -59 861 -1 
Q 681 56 554 165 
Q 428 275 358 434 
Q 288 594 288 797 
Q 288 1034 384 1209 
Q 481 1384 662 1500 
Q 844 1616 1106 1673 
Q 1369 1731 1697 1731 
L 2084 1731 
L 2084 1950 
Q 2084 2113 2050 2238 
Q 2016 2363 1939 2445 
Q 1863 2528 1741 2570 
Q 1619 2613 1441 2613 
Q 1250 2613 1098 2567 
Q 947 2522 833 2467 
Q 719 2413 642 2367 
Q 566 2322 528 2322 
Q 503 2322 484 2334 
Q 466 2347 452 2372 
Q 438 2397 431 2436 
Q 425 2475 425 2522 
Q 425 2600 436 2645 
Q 447 2691 489 2731 
Q 531 2772 634 2826 
Q 738 2881 872 2926 
Q 1006 2972 1165 3001 
Q 1325 3031 1488 3031 
Q 1791 3031 2003 2962 
Q 2216 2894 2347 2761 
Q 2478 2628 2537 2431 
Q 2597 2234 2597 1972 
L 2597 75 
z
M 2084 1359 
L 1644 1359 
Q 1431 1359 1275 1323 
Q 1119 1288 1016 1217 
Q 913 1147 864 1048 
Q 816 950 816 822 
Q 816 603 955 473 
Q 1094 344 1344 344 
Q 1547 344 1720 447 
Q 1894 550 2084 763 
L 2084 1359 
z
" id="Calibri-61" transform="scale(0.015625)"/>
       <path d="M 2500 506 
Q 2500 453 2497 414 
Q 2494 375 2486 348 
Q 2478 322 2467 301 
Q 2456 281 2417 242 
Q 2378 203 2284 145 
Q 2191 88 2073 42 
Q 1956 -3 1818 -31 
Q 1681 -59 1534 -59 
Q 1231 -59 997 41 
Q 763 141 605 333 
Q 447 525 364 804 
Q 281 1084 281 1450 
Q 281 1866 382 2164 
Q 484 2463 661 2653 
Q 838 2844 1077 2936 
Q 1316 3028 1594 3028 
Q 1728 3028 1854 3003 
Q 1981 2978 2087 2937 
Q 2194 2897 2276 2844 
Q 2359 2791 2396 2753 
Q 2434 2716 2448 2694 
Q 2463 2672 2472 2642 
Q 2481 2613 2484 2575 
Q 2488 2538 2488 2481 
Q 2488 2359 2459 2311 
Q 2431 2263 2391 2263 
Q 2344 2263 2283 2314 
Q 2222 2366 2128 2428 
Q 2034 2491 1901 2542 
Q 1769 2594 1588 2594 
Q 1216 2594 1017 2308 
Q 819 2022 819 1478 
Q 819 1206 870 1001 
Q 922 797 1022 659 
Q 1122 522 1267 455 
Q 1413 388 1600 388 
Q 1778 388 1912 444 
Q 2047 500 2145 567 
Q 2244 634 2311 689 
Q 2378 744 2416 744 
Q 2438 744 2453 731 
Q 2469 719 2480 689 
Q 2491 659 2495 614 
Q 2500 569 2500 506 
z
" id="Calibri-63" transform="scale(0.015625)"/>
       <path d="M 1547 4306 
Q 1250 3678 1104 3017 
Q 959 2356 959 1688 
Q 959 1016 1107 356 
Q 1256 -303 1541 -938 
Q 1556 -975 1557 -1001 
Q 1559 -1028 1537 -1045 
Q 1516 -1063 1470 -1070 
Q 1425 -1078 1347 -1078 
Q 1291 -1078 1250 -1075 
Q 1209 -1072 1179 -1062 
Q 1150 -1053 1131 -1040 
Q 1113 -1028 1103 -1013 
Q 934 -694 806 -367 
Q 678 -41 590 296 
Q 503 634 459 979 
Q 416 1325 416 1678 
Q 416 2031 464 2375 
Q 513 2719 602 3058 
Q 691 3397 819 3725 
Q 947 4053 1106 4375 
Q 1109 4388 1123 4397 
Q 1138 4406 1163 4415 
Q 1188 4425 1231 4429 
Q 1275 4434 1344 4434 
Q 1416 4434 1459 4425 
Q 1503 4416 1528 4400 
Q 1553 4384 1556 4359 
Q 1559 4334 1547 4306 
z
" id="Calibri-28" transform="scale(0.015625)"/>
       <path d="M 2609 138 
Q 2634 94 2634 64 
Q 2634 34 2604 15 
Q 2575 -3 2514 -11 
Q 2453 -19 2356 -19 
Q 2263 -19 2208 -14 
Q 2153 -9 2120 2 
Q 2088 13 2070 30 
Q 2053 47 2041 69 
L 1366 1184 
L 694 69 
Q 681 47 664 30 
Q 647 13 614 2 
Q 581 -9 528 -14 
Q 475 -19 388 -19 
Q 297 -19 239 -11 
Q 181 -3 154 15 
Q 128 34 129 64 
Q 131 94 159 138 
L 1034 1509 
L 206 2831 
Q 181 2875 179 2904 
Q 178 2934 208 2954 
Q 238 2975 298 2981 
Q 359 2988 459 2988 
Q 550 2988 604 2983 
Q 659 2978 690 2968 
Q 722 2959 737 2943 
Q 753 2928 766 2906 
L 1406 1859 
L 2056 2906 
Q 2069 2925 2084 2940 
Q 2100 2956 2126 2967 
Q 2153 2978 2201 2983 
Q 2250 2988 2334 2988 
Q 2425 2988 2483 2981 
Q 2541 2975 2569 2958 
Q 2597 2941 2594 2909 
Q 2591 2878 2563 2831 
L 1741 1525 
L 2609 138 
z
" id="Calibri-78" transform="scale(0.015625)"/>
       <path d="M 1522 1678 
Q 1522 1325 1478 979 
Q 1434 634 1346 296 
Q 1259 -41 1132 -367 
Q 1006 -694 838 -1013 
Q 828 -1028 809 -1040 
Q 791 -1053 761 -1062 
Q 731 -1072 690 -1075 
Q 650 -1078 594 -1078 
Q 513 -1078 467 -1070 
Q 422 -1063 401 -1045 
Q 381 -1028 382 -1001 
Q 384 -975 400 -938 
Q 688 -306 834 355 
Q 981 1016 981 1688 
Q 981 2356 834 3017 
Q 688 3678 394 4306 
Q 381 4334 384 4359 
Q 388 4384 413 4400 
Q 438 4416 481 4425 
Q 525 4434 597 4434 
Q 663 4434 706 4429 
Q 750 4425 776 4415 
Q 803 4406 815 4397 
Q 828 4388 834 4375 
Q 1156 3734 1339 3057 
Q 1522 2381 1522 1678 
z
" id="Calibri-29" transform="scale(0.015625)"/>
      </defs>
      <use xlink:href="#Calibri-44"/>
      <use x="61.523438" xlink:href="#Calibri-69"/>
      <use x="84.472656" xlink:href="#Calibri-73"/>
      <use x="123.583984" xlink:href="#Calibri-74"/>
      <use x="157.080078" xlink:href="#Calibri-61"/>
      <use x="204.980469" xlink:href="#Calibri-6e"/>
      <use x="257.519531" xlink:href="#Calibri-63"/>
      <use x="299.804688" xlink:href="#Calibri-69"/>
      <use x="322.753906" xlink:href="#Calibri-61"/>
      <use x="370.654297" xlink:href="#Calibri-20"/>
      <use x="393.261719" xlink:href="#Calibri-28"/>
      <use x="423.583984" xlink:href="#Calibri-78"/>
      <use x="466.894531" xlink:href="#Calibri-29"/>
     </g>
    </g>
   </g>
   <g id="matplotlib.axis_4">
    <g id="ytick_6">
     <g id="line2d_15">
      <g>
       <use style="stroke:#000000;stroke-width:0.8;" x="297.9425" xlink:href="#m551632211a" y="183.876641"/>
      </g>
     </g>
     <g id="text_18">
      <!-- −1.0 -->
      <g transform="translate(273.29875 187.277422)scale(0.1 -0.1)">
       <use xlink:href="#Calibri-2212"/>
       <use x="49.804688" xlink:href="#Calibri-31"/>
       <use x="100.488281" xlink:href="#Calibri-2e"/>
       <use x="125.732422" xlink:href="#Calibri-30"/>
      </g>
     </g>
    </g>
    <g id="ytick_7">
     <g id="line2d_16">
      <g>
       <use style="stroke:#000000;stroke-width:0.8;" x="297.9425" xlink:href="#m551632211a" y="153.182022"/>
      </g>
     </g>
     <g id="text_19">
      <!-- −0.5 -->
      <g transform="translate(273.29875 156.582803)scale(0.1 -0.1)">
       <use xlink:href="#Calibri-2212"/>
       <use x="49.804688" xlink:href="#Calibri-30"/>
       <use x="100.488281" xlink:href="#Calibri-2e"/>
       <use x="125.732422" xlink:href="#Calibri-35"/>
      </g>
     </g>
    </g>
    <g id="ytick_8">
     <g id="line2d_17">
      <g>
       <use style="stroke:#000000;stroke-width:0.8;" x="297.9425" xlink:href="#m551632211a" y="122.487404"/>
      </g>
     </g>
     <g id="text_20">
      <!-- 0.0 -->
      <g transform="translate(278.28 125.888185)scale(0.1 -0.1)">
       <use xlink:href="#Calibri-30"/>
       <use x="50.683594" xlink:href="#Calibri-2e"/>
       <use x="75.927734" xlink:href="#Calibri-30"/>
      </g>
     </g>
    </g>
    <g id="ytick_9">
     <g id="line2d_18">
      <g>
       <use style="stroke:#000000;stroke-width:0.8;" x="297.9425" xlink:href="#m551632211a" y="91.792785"/>
      </g>
     </g>
     <g id="text_21">
      <!-- 0.5 -->
      <g transform="translate(278.28 95.193566)scale(0.1 -0.1)">
       <use xlink:href="#Calibri-30"/>
       <use x="50.683594" xlink:href="#Calibri-2e"/>
       <use x="75.927734" xlink:href="#Calibri-35"/>
      </g>
     </g>
    </g>
    <g id="ytick_10">
     <g id="line2d_19">
      <g>
       <use style="stroke:#000000;stroke-width:0.8;" x="297.9425" xlink:href="#m551632211a" y="61.098166"/>
      </g>
     </g>
     <g id="text_22">
      <!-- 1.0 -->
      <g transform="translate(278.28 64.498947)scale(0.1 -0.1)">
       <use xlink:href="#Calibri-31"/>
       <use x="50.683594" xlink:href="#Calibri-2e"/>
       <use x="75.927734" xlink:href="#Calibri-30"/>
      </g>
     </g>
    </g>
    <g id="ytick_11">
     <g id="line2d_20">
      <g>
       <use style="stroke:#000000;stroke-width:0.8;" x="297.9425" xlink:href="#m551632211a" y="30.403548"/>
      </g>
     </g>
     <g id="text_23">
      <!-- 1.5 -->
      <g transform="translate(278.28 33.804329)scale(0.1 -0.1)">
       <use xlink:href="#Calibri-31"/>
       <use x="50.683594" xlink:href="#Calibri-2e"/>
       <use x="75.927734" xlink:href="#Calibri-35"/>
      </g>
     </g>
    </g>
    <g id="text_24">
     <!-- Amplitud ($\Psi$) -->
     <g transform="translate(267.49875 133.1)rotate(-90)scale(0.1 -0.1)">
      <defs>
       <path d="M 2206 0 
Q 2209 419 2206 969 
Q 1538 969 950 1625 
Q 375 2263 359 3388 
L 359 4666 
L 1025 4666 
L 1025 3388 
Q 1025 2506 1431 1994 
Q 1775 1556 2206 1513 
L 2206 4666 
L 2838 4666 
L 2838 1513 
Q 3269 1556 3613 1994 
Q 4019 2506 4019 3388 
L 4019 4666 
L 4684 4666 
L 4684 3388 
Q 4669 2263 4094 1625 
Q 3506 969 2838 969 
Q 2834 744 2838 0 
L 2206 0 
z
" id="DejaVuSans-3a8" transform="scale(0.015625)"/>
      </defs>
      <use transform="translate(0 0.09375)" xlink:href="#Calibri-41"/>
      <use transform="translate(55.736328 0.09375)" xlink:href="#Calibri-6d"/>
      <use transform="translate(135.619141 0.09375)" xlink:href="#Calibri-70"/>
      <use transform="translate(188.158203 0.09375)" xlink:href="#Calibri-6c"/>
      <use transform="translate(211.107422 0.09375)" xlink:href="#Calibri-69"/>
      <use transform="translate(234.056641 0.09375)" xlink:href="#Calibri-74"/>
      <use transform="translate(267.552734 0.09375)" xlink:href="#Calibri-75"/>
      <use transform="translate(320.091797 0.09375)" xlink:href="#Calibri-64"/>
      <use transform="translate(372.630859 0.09375)" xlink:href="#Calibri-20"/>
      <use transform="translate(394.113281 0.09375)" xlink:href="#Calibri-28"/>
      <use transform="translate(424.435547 0.09375)" xlink:href="#DejaVuSans-3a8"/>
      <use transform="translate(503.146484 0.09375)" xlink:href="#Calibri-29"/>
     </g>
    </g>
   </g>
   <g id="line2d_21">
    <path clip-path="url(#p35b5ebf7c8)" d="M 306.785114 122.487404 
L 355.639333 122.592875 
L 357.267807 122.549795 
L 360.524755 122.280211 
L 361.827534 122.367905 
L 363.130313 122.793333 
L 364.758787 123.384816 
L 366.387261 123.611858 
L 368.34143 123.63399 
L 369.318514 123.339901 
L 370.295598 122.803864 
L 371.924072 121.544008 
L 372.575462 120.709779 
L 374.529631 117.78562 
L 374.855325 117.564173 
L 375.18102 117.602375 
L 376.483799 118.336248 
L 377.460884 118.310756 
L 378.112273 117.92049 
L 378.763663 117.260505 
L 379.740747 116.862663 
L 380.066442 116.362451 
L 381.369221 112.706901 
L 381.694916 112.587826 
L 382.020611 113.073218 
L 382.346306 114.132132 
L 382.672 116.152819 
L 383.32339 123.573382 
L 385.277559 153.77007 
L 386.254643 170.490337 
L 386.906033 178.110861 
L 387.231728 180.034711 
L 387.557422 180.327273 
L 387.883117 178.199198 
L 388.208812 172.982101 
L 388.860202 156.148669 
L 390.162981 112.813067 
L 391.791455 56.210218 
L 392.442844 39.695758 
L 392.768539 34.503929 
L 393.094234 32.472727 
L 393.419929 34.503929 
L 393.745623 39.695758 
L 394.397013 56.210218 
L 395.374097 88.743391 
L 397.002571 145.84291 
L 397.653961 165.408384 
L 398.305351 178.199198 
L 398.631045 180.327273 
L 398.95674 180.034711 
L 399.282435 178.110861 
L 399.933825 170.490337 
L 400.910909 153.77007 
L 402.539383 128.432795 
L 403.190772 119.406398 
L 403.516467 116.152819 
L 403.842162 114.132132 
L 404.167857 113.073218 
L 404.493552 112.587826 
L 404.819246 112.706901 
L 405.144941 113.320087 
L 406.44772 116.862663 
L 407.09911 117.166393 
L 407.424805 117.260505 
L 408.401889 118.154891 
L 409.053279 118.370443 
L 410.030363 118.24546 
L 411.007447 117.602375 
L 411.333142 117.564173 
L 411.658837 117.78562 
L 412.310227 118.643296 
L 413.938701 121.178098 
L 414.59009 121.840588 
L 416.544259 123.190411 
L 417.521343 123.562527 
L 418.498428 123.670205 
L 420.778291 123.507688 
L 422.08107 123.186037 
L 424.360934 122.367905 
L 425.338018 122.278343 
L 427.292187 122.379712 
L 430.549135 122.592875 
L 435.434557 122.457138 
L 453.022076 122.487404 
L 483.637386 122.487404 
L 483.637386 122.487404 
" style="fill:none;stroke:#000000;stroke-linecap:square;stroke-width:0.8;"/>
   </g>
   <g id="patch_8">
    <path d="M 297.9425 187.72 
L 297.9425 25.08 
" style="fill:none;stroke:#000000;stroke-linecap:square;stroke-linejoin:miter;stroke-width:0.8;"/>
   </g>
   <g id="patch_9">
    <path d="M 492.48 187.72 
L 492.48 25.08 
" style="fill:none;stroke:#000000;stroke-linecap:square;stroke-linejoin:miter;stroke-width:0.8;"/>
   </g>
   <g id="patch_10">
    <path d="M 297.9425 187.72 
L 492.48 187.72 
" style="fill:none;stroke:#000000;stroke-linecap:square;stroke-linejoin:miter;stroke-width:0.8;"/>
   </g>
   <g id="patch_11">
    <path d="M 297.9425 25.08 
L 492.48 25.08 
" style="fill:none;stroke:#000000;stroke-linecap:square;stroke-linejoin:miter;stroke-width:0.8;"/>
   </g>
   <g id="text_25">
    <!-- Función wavelet bior6.8 -->
    <g transform="translate(336.590312 19.08)scale(0.12 -0.12)">
     <defs>
      <path d="M 2663 3813 
Q 2663 3753 2656 3709 
Q 2650 3666 2634 3639 
Q 2619 3613 2598 3600 
Q 2578 3588 2556 3588 
L 1075 3588 
L 1075 2213 
L 2475 2213 
Q 2497 2213 2517 2202 
Q 2538 2191 2553 2166 
Q 2569 2141 2575 2098 
Q 2581 2056 2581 1991 
Q 2581 1931 2575 1889 
Q 2569 1847 2553 1820 
Q 2538 1794 2517 1780 
Q 2497 1766 2475 1766 
L 1075 1766 
L 1075 81 
Q 1075 59 1062 39 
Q 1050 19 1019 8 
Q 988 -3 938 -11 
Q 888 -19 806 -19 
Q 731 -19 678 -11 
Q 625 -3 594 8 
Q 563 19 550 39 
Q 538 59 538 81 
L 538 3825 
Q 538 3947 602 3995 
Q 666 4044 738 4044 
L 2556 4044 
Q 2578 4044 2598 4031 
Q 2619 4019 2634 3991 
Q 2650 3963 2656 3917 
Q 2663 3872 2663 3813 
z
" id="Calibri-46" transform="scale(0.015625)"/>
      <path d="M 4413 2897 
Q 4413 2875 4406 2844 
Q 4400 2813 4384 2766 
L 3556 94 
Q 3547 59 3526 37 
Q 3506 16 3470 3 
Q 3434 -9 3371 -14 
Q 3309 -19 3216 -19 
Q 3119 -19 3053 -12 
Q 2988 -6 2948 6 
Q 2909 19 2890 41 
Q 2872 63 2863 94 
L 2272 2134 
L 2266 2163 
L 2259 2134 
L 1713 94 
Q 1703 59 1683 37 
Q 1663 16 1622 3 
Q 1581 -9 1517 -14 
Q 1453 -19 1359 -19 
Q 1263 -19 1202 -12 
Q 1141 -6 1102 6 
Q 1063 19 1044 41 
Q 1025 63 1016 94 
L 194 2766 
Q 178 2813 172 2844 
Q 166 2875 166 2897 
Q 166 2925 178 2942 
Q 191 2959 220 2970 
Q 250 2981 300 2984 
Q 350 2988 422 2988 
Q 509 2988 562 2983 
Q 616 2978 644 2967 
Q 672 2956 684 2936 
Q 697 2916 706 2888 
L 1384 569 
L 1391 541 
L 1397 569 
L 2019 2888 
Q 2025 2916 2039 2936 
Q 2053 2956 2081 2967 
Q 2109 2978 2157 2983 
Q 2206 2988 2284 2988 
Q 2359 2988 2407 2983 
Q 2456 2978 2484 2967 
Q 2513 2956 2525 2937 
Q 2538 2919 2544 2894 
L 3216 569 
L 3222 541 
L 3225 569 
L 3894 2888 
Q 3900 2916 3914 2936 
Q 3928 2956 3958 2967 
Q 3988 2978 4039 2983 
Q 4091 2988 4172 2988 
Q 4247 2988 4292 2984 
Q 4338 2981 4364 2968 
Q 4391 2956 4402 2940 
Q 4413 2925 4413 2897 
z
" id="Calibri-77" transform="scale(0.015625)"/>
      <path d="M 2784 2897 
Q 2784 2884 2782 2870 
Q 2781 2856 2778 2840 
Q 2775 2825 2770 2806 
Q 2766 2788 2759 2766 
L 1800 94 
Q 1788 59 1767 37 
Q 1747 16 1706 3 
Q 1666 -9 1603 -14 
Q 1541 -19 1447 -19 
Q 1353 -19 1290 -12 
Q 1228 -6 1189 6 
Q 1150 19 1128 41 
Q 1106 63 1094 94 
L 138 2766 
Q 125 2803 117 2831 
Q 109 2859 107 2873 
Q 106 2888 106 2897 
Q 106 2922 118 2940 
Q 131 2959 161 2970 
Q 191 2981 239 2984 
Q 288 2988 359 2988 
Q 450 2988 504 2983 
Q 559 2978 589 2965 
Q 619 2953 633 2934 
Q 647 2916 659 2888 
L 1453 569 
L 1466 531 
L 1475 569 
L 2259 2888 
Q 2266 2916 2281 2934 
Q 2297 2953 2326 2965 
Q 2356 2978 2407 2983 
Q 2459 2988 2544 2988 
Q 2616 2988 2662 2984 
Q 2709 2981 2736 2968 
Q 2763 2956 2773 2939 
Q 2784 2922 2784 2897 
z
" id="Calibri-76" transform="scale(0.015625)"/>
      <path d="M 3066 1522 
Q 3066 1156 2986 864 
Q 2906 572 2751 365 
Q 2597 159 2372 50 
Q 2147 -59 1856 -59 
Q 1722 -59 1608 -32 
Q 1494 -6 1384 53 
Q 1275 113 1165 203 
Q 1056 294 934 422 
L 934 78 
Q 934 53 921 34 
Q 909 16 881 5 
Q 853 -6 811 -12 
Q 769 -19 703 -19 
Q 641 -19 597 -12 
Q 553 -6 525 5 
Q 497 16 487 34 
Q 478 53 478 78 
L 478 4253 
Q 478 4278 489 4297 
Q 500 4316 529 4328 
Q 559 4341 609 4347 
Q 659 4353 734 4353 
Q 813 4353 863 4347 
Q 913 4341 941 4328 
Q 969 4316 981 4297 
Q 994 4278 994 4253 
L 994 2569 
Q 1119 2697 1236 2784 
Q 1353 2872 1465 2926 
Q 1578 2981 1690 3006 
Q 1803 3031 1928 3031 
Q 2234 3031 2451 2909 
Q 2669 2788 2805 2583 
Q 2941 2378 3003 2103 
Q 3066 1828 3066 1522 
z
M 2522 1463 
Q 2522 1678 2489 1881 
Q 2456 2084 2375 2240 
Q 2294 2397 2159 2492 
Q 2025 2588 1825 2588 
Q 1725 2588 1628 2559 
Q 1531 2531 1431 2465 
Q 1331 2400 1223 2297 
Q 1116 2194 994 2038 
L 994 916 
Q 1206 656 1400 520 
Q 1594 384 1803 384 
Q 1997 384 2134 478 
Q 2272 572 2358 726 
Q 2444 881 2483 1073 
Q 2522 1266 2522 1463 
z
" id="Calibri-62" transform="scale(0.015625)"/>
      <path d="M 2991 1309 
Q 2991 1044 2909 795 
Q 2828 547 2659 358 
Q 2491 169 2231 55 
Q 1972 -59 1619 -59 
Q 1366 -59 1172 3 
Q 978 66 834 181 
Q 691 297 595 465 
Q 500 634 442 850 
Q 384 1066 359 1322 
Q 334 1578 334 1872 
Q 334 2131 362 2397 
Q 391 2663 462 2909 
Q 534 3156 657 3373 
Q 781 3591 967 3752 
Q 1153 3913 1412 4006 
Q 1672 4100 2016 4100 
Q 2131 4100 2250 4086 
Q 2369 4072 2469 4048 
Q 2569 4025 2637 3997 
Q 2706 3969 2728 3951 
Q 2750 3934 2761 3914 
Q 2772 3894 2778 3870 
Q 2784 3847 2787 3817 
Q 2791 3788 2791 3744 
Q 2791 3688 2789 3647 
Q 2788 3606 2777 3581 
Q 2766 3556 2748 3543 
Q 2731 3531 2703 3531 
Q 2669 3531 2609 3553 
Q 2550 3575 2465 3601 
Q 2381 3628 2261 3650 
Q 2141 3672 1981 3672 
Q 1691 3672 1481 3553 
Q 1272 3434 1139 3234 
Q 1006 3034 942 2770 
Q 878 2506 869 2219 
Q 950 2266 1051 2312 
Q 1153 2359 1273 2396 
Q 1394 2434 1528 2457 
Q 1663 2481 1816 2481 
Q 2144 2481 2369 2392 
Q 2594 2303 2733 2145 
Q 2872 1988 2931 1773 
Q 2991 1559 2991 1309 
z
M 2447 1259 
Q 2447 1441 2411 1589 
Q 2375 1738 2290 1841 
Q 2206 1944 2065 2000 
Q 1925 2056 1719 2056 
Q 1603 2056 1487 2036 
Q 1372 2016 1264 1980 
Q 1156 1944 1057 1895 
Q 959 1847 878 1791 
Q 878 1388 929 1116 
Q 981 844 1079 680 
Q 1178 516 1325 445 
Q 1472 375 1669 375 
Q 1869 375 2016 450 
Q 2163 525 2259 651 
Q 2356 778 2401 936 
Q 2447 1094 2447 1259 
z
" id="Calibri-36" transform="scale(0.015625)"/>
     </defs>
     <use xlink:href="#Calibri-46"/>
     <use x="45.947266" xlink:href="#Calibri-75"/>
     <use x="98.486328" xlink:href="#Calibri-6e"/>
     <use x="151.025391" xlink:href="#Calibri-63"/>
     <use x="193.310547" xlink:href="#Calibri-69"/>
     <use x="216.259766" xlink:href="#Calibri-f3"/>
     <use x="268.994141" xlink:href="#Calibri-6e"/>
     <use x="321.533203" xlink:href="#Calibri-20"/>
     <use x="344.140625" xlink:href="#Calibri-77"/>
     <use x="415.625" xlink:href="#Calibri-61"/>
     <use x="463.525391" xlink:href="#Calibri-76"/>
     <use x="508.691406" xlink:href="#Calibri-65"/>
     <use x="558.447266" xlink:href="#Calibri-6c"/>
     <use x="581.396484" xlink:href="#Calibri-65"/>
     <use x="631.152344" xlink:href="#Calibri-74"/>
     <use x="664.648438" xlink:href="#Calibri-20"/>
     <use x="687.255859" xlink:href="#Calibri-62"/>
     <use x="739.794922" xlink:href="#Calibri-69"/>
     <use x="762.744141" xlink:href="#Calibri-6f"/>
     <use x="815.478516" xlink:href="#Calibri-72"/>
     <use x="850.341797" xlink:href="#Calibri-36"/>
     <use x="901.025391" xlink:href="#Calibri-2e"/>
     <use x="926.269531" xlink:href="#Calibri-38"/>
    </g>
   </g>
  </g>
 </g>
 <defs>
  <clipPath id="pfe6d73ff7e">
   <rect height="162.64" width="194.5375" x="53.165" y="25.08"/>
  </clipPath>
  <clipPath id="p35b5ebf7c8">
   <rect height="162.64" width="194.5375" x="297.9425" y="25.08"/>
  </clipPath>
 </defs>
</svg>
