<?xml version="1.0" encoding="utf-8" standalone="no"?>
<!DOCTYPE svg PUBLIC "-//W3C//DTD SVG 1.1//EN"
  "http://www.w3.org/Graphics/SVG/1.1/DTD/svg11.dtd">
<svg height="441.36pt" version="1.1" viewBox="0 0 384.48 441.36" width="384.48pt" xmlns="http://www.w3.org/2000/svg" xmlns:xlink="http://www.w3.org/1999/xlink">
 <metadata>
  <rdf:RDF xmlns:cc="http://creativecommons.org/ns#" xmlns:dc="http://purl.org/dc/elements/1.1/" xmlns:rdf="http://www.w3.org/1999/02/22-rdf-syntax-ns#">
   <cc:Work>
    <dc:type rdf:resource="http://purl.org/dc/dcmitype/StillImage"/>
    <dc:date>2022-06-24T11:18:23.014641</dc:date>
    <dc:format>image/svg+xml</dc:format>
    <dc:creator>
     <cc:Agent>
      <dc:title>Matplotlib v3.4.1, https://matplotlib.org/</dc:title>
     </cc:Agent>
    </dc:creator>
   </cc:Work>
  </rdf:RDF>
 </metadata>
 <defs>
  <style type="text/css">*{stroke-linecap:butt;stroke-linejoin:round;}</style>
 </defs>
 <g id="figure_1">
  <g id="patch_1">
   <path d="M 0 441.36 
L 384.48 441.36 
L 384.48 0 
L 0 0 
z
" style="fill:#ffffff;"/>
  </g>
  <g id="axes_1">
   <g id="patch_2">
    <path d="M 48.08 123.666667 
L 373.68 123.666667 
L 373.68 26.88 
L 48.08 26.88 
z
" style="fill:#ffffff;"/>
   </g>
   <g id="matplotlib.axis_1">
    <g id="xtick_1">
     <g id="line2d_1">
      <defs>
       <path d="M 0 0 
L 0 3.5 
" id="mfc9553b504" style="stroke:#000000;stroke-width:0.8;"/>
      </defs>
      <g>
       <use style="stroke:#000000;stroke-width:0.8;" x="48.08" xlink:href="#mfc9553b504" y="123.666667"/>
      </g>
     </g>
     <g id="text_1">
      <!-- 2.70 -->
      <g transform="translate(39.214375 137.468229)scale(0.1 -0.1)">
       <defs>
        <path d="M 2888 231 
Q 2888 175 2880 131 
Q 2872 88 2858 58 
Q 2844 28 2820 14 
Q 2797 0 2769 0 
L 534 0 
Q 491 0 458 11 
Q 425 22 401 47 
Q 378 72 367 119 
Q 356 166 356 234 
Q 356 297 361 344 
Q 366 391 381 427 
Q 397 463 420 498 
Q 444 534 481 575 
L 1266 1406 
Q 1538 1694 1702 1922 
Q 1866 2150 1955 2337 
Q 2044 2525 2072 2678 
Q 2100 2831 2100 2966 
Q 2100 3100 2056 3220 
Q 2013 3341 1930 3431 
Q 1847 3522 1722 3575 
Q 1597 3628 1434 3628 
Q 1244 3628 1092 3575 
Q 941 3522 827 3459 
Q 713 3397 636 3344 
Q 559 3291 522 3291 
Q 500 3291 483 3303 
Q 466 3316 455 3344 
Q 444 3372 437 3419 
Q 431 3466 431 3531 
Q 431 3578 434 3612 
Q 438 3647 445 3672 
Q 453 3697 465 3719 
Q 478 3741 515 3773 
Q 553 3806 645 3862 
Q 738 3919 877 3973 
Q 1016 4028 1183 4065 
Q 1350 4103 1534 4103 
Q 1828 4103 2048 4020 
Q 2269 3938 2414 3794 
Q 2559 3650 2631 3459 
Q 2703 3269 2703 3053 
Q 2703 2859 2668 2667 
Q 2634 2475 2523 2251 
Q 2413 2028 2203 1754 
Q 1994 1481 1647 1125 
L 1006 456 
L 2766 456 
Q 2791 456 2814 442 
Q 2838 428 2855 400 
Q 2872 372 2880 330 
Q 2888 288 2888 231 
z
" id="Calibri-32" transform="scale(0.015625)"/>
        <path d="M 1144 341 
Q 1144 119 1070 45 
Q 997 -28 803 -28 
Q 616 -28 544 44 
Q 472 116 472 331 
Q 472 553 545 626 
Q 619 700 813 700 
Q 1000 700 1072 628 
Q 1144 556 1144 341 
z
" id="Calibri-2e" transform="scale(0.015625)"/>
        <path d="M 2947 3813 
Q 2947 3756 2942 3711 
Q 2938 3666 2930 3623 
Q 2922 3581 2908 3542 
Q 2894 3503 2875 3459 
L 1419 103 
Q 1403 66 1379 42 
Q 1356 19 1320 5 
Q 1284 -9 1228 -14 
Q 1172 -19 1091 -19 
Q 984 -19 925 -9 
Q 866 0 839 20 
Q 813 41 816 70 
Q 819 100 838 141 
L 2369 3572 
L 428 3572 
Q 369 3572 339 3634 
Q 309 3697 309 3809 
Q 309 3869 317 3912 
Q 325 3956 340 3986 
Q 356 4016 378 4030 
Q 400 4044 428 4044 
L 2784 4044 
Q 2828 4044 2861 4034 
Q 2894 4025 2911 3997 
Q 2928 3969 2937 3925 
Q 2947 3881 2947 3813 
z
" id="Calibri-37" transform="scale(0.015625)"/>
        <path d="M 3022 2031 
Q 3022 1566 2948 1181 
Q 2875 797 2704 520 
Q 2534 244 2259 92 
Q 1984 -59 1581 -59 
Q 1200 -59 939 77 
Q 678 213 518 477 
Q 359 741 292 1127 
Q 225 1513 225 2013 
Q 225 2475 300 2861 
Q 375 3247 544 3523 
Q 713 3800 988 3951 
Q 1263 4103 1663 4103 
Q 2047 4103 2308 3967 
Q 2569 3831 2728 3567 
Q 2888 3303 2955 2917 
Q 3022 2531 3022 2031 
z
M 2472 1994 
Q 2472 2297 2450 2537 
Q 2428 2778 2386 2962 
Q 2344 3147 2276 3280 
Q 2209 3413 2115 3498 
Q 2022 3584 1901 3623 
Q 1781 3663 1631 3663 
Q 1366 3663 1200 3538 
Q 1034 3413 939 3194 
Q 844 2975 809 2681 
Q 775 2388 775 2050 
Q 775 1597 822 1280 
Q 869 963 970 763 
Q 1072 563 1230 472 
Q 1388 381 1613 381 
Q 1788 381 1920 437 
Q 2053 494 2148 598 
Q 2244 703 2306 850 
Q 2369 997 2406 1175 
Q 2444 1353 2458 1561 
Q 2472 1769 2472 1994 
z
" id="Calibri-30" transform="scale(0.015625)"/>
       </defs>
       <use xlink:href="#Calibri-32"/>
       <use x="50.683594" xlink:href="#Calibri-2e"/>
       <use x="75.927734" xlink:href="#Calibri-37"/>
       <use x="126.611328" xlink:href="#Calibri-30"/>
      </g>
     </g>
    </g>
    <g id="xtick_2">
     <g id="line2d_2">
      <g>
       <use style="stroke:#000000;stroke-width:0.8;" x="102.346667" xlink:href="#mfc9553b504" y="123.666667"/>
      </g>
     </g>
     <g id="text_2">
      <!-- 2.75 -->
      <g transform="translate(93.481042 137.468229)scale(0.1 -0.1)">
       <defs>
        <path d="M 2869 1300 
Q 2869 975 2759 722 
Q 2650 469 2450 295 
Q 2250 122 1973 31 
Q 1697 -59 1359 -59 
Q 1172 -59 1003 -32 
Q 834 -6 703 33 
Q 572 72 487 109 
Q 403 147 379 169 
Q 356 191 347 209 
Q 338 228 330 254 
Q 322 281 319 322 
Q 316 363 316 419 
Q 316 472 320 514 
Q 325 556 337 582 
Q 350 609 367 621 
Q 384 634 406 634 
Q 438 634 503 595 
Q 569 556 680 511 
Q 791 466 955 425 
Q 1119 384 1344 384 
Q 1553 384 1728 434 
Q 1903 484 2029 590 
Q 2156 697 2228 858 
Q 2300 1019 2300 1250 
Q 2300 1444 2239 1592 
Q 2178 1741 2051 1839 
Q 1925 1938 1731 1986 
Q 1538 2034 1269 2034 
Q 1078 2034 940 2015 
Q 803 1997 684 1997 
Q 597 1997 559 2037 
Q 522 2078 522 2194 
L 522 3841 
Q 522 3944 570 3994 
Q 619 4044 709 4044 
L 2500 4044 
Q 2525 4044 2548 4030 
Q 2572 4016 2587 3987 
Q 2603 3959 2611 3915 
Q 2619 3872 2619 3813 
Q 2619 3700 2587 3637 
Q 2556 3575 2500 3575 
L 991 3575 
L 991 2441 
Q 1100 2456 1214 2459 
Q 1328 2463 1478 2463 
Q 1825 2463 2084 2380 
Q 2344 2297 2517 2145 
Q 2691 1994 2780 1778 
Q 2869 1563 2869 1300 
z
" id="Calibri-35" transform="scale(0.015625)"/>
       </defs>
       <use xlink:href="#Calibri-32"/>
       <use x="50.683594" xlink:href="#Calibri-2e"/>
       <use x="75.927734" xlink:href="#Calibri-37"/>
       <use x="126.611328" xlink:href="#Calibri-35"/>
      </g>
     </g>
    </g>
    <g id="xtick_3">
     <g id="line2d_3">
      <g>
       <use style="stroke:#000000;stroke-width:0.8;" x="156.613333" xlink:href="#mfc9553b504" y="123.666667"/>
      </g>
     </g>
     <g id="text_3">
      <!-- 2.80 -->
      <g transform="translate(147.747708 137.468229)scale(0.1 -0.1)">
       <defs>
        <path d="M 2981 1038 
Q 2981 775 2887 570 
Q 2794 366 2617 225 
Q 2441 84 2181 12 
Q 1922 -59 1588 -59 
Q 1275 -59 1028 6 
Q 781 72 609 200 
Q 438 328 347 515 
Q 256 703 256 944 
Q 256 1134 318 1293 
Q 381 1453 498 1587 
Q 616 1722 787 1839 
Q 959 1956 1175 2063 
Q 988 2159 844 2267 
Q 700 2375 600 2501 
Q 500 2628 448 2772 
Q 397 2916 397 3084 
Q 397 3297 473 3483 
Q 550 3669 704 3806 
Q 859 3944 1098 4023 
Q 1338 4103 1656 4103 
Q 1963 4103 2186 4029 
Q 2409 3956 2554 3829 
Q 2700 3703 2769 3531 
Q 2838 3359 2838 3163 
Q 2838 3003 2786 2856 
Q 2734 2709 2634 2578 
Q 2534 2447 2389 2333 
Q 2244 2219 2056 2119 
Q 2278 2009 2451 1893 
Q 2625 1778 2742 1645 
Q 2859 1513 2920 1364 
Q 2981 1216 2981 1038 
z
M 2306 3113 
Q 2306 3244 2261 3350 
Q 2216 3456 2128 3531 
Q 2041 3606 1911 3645 
Q 1781 3684 1616 3684 
Q 1278 3684 1104 3531 
Q 931 3378 931 3113 
Q 931 2991 973 2886 
Q 1016 2781 1105 2687 
Q 1194 2594 1330 2505 
Q 1466 2416 1653 2319 
Q 1969 2481 2137 2678 
Q 2306 2875 2306 3113 
z
M 2438 981 
Q 2438 1125 2384 1242 
Q 2331 1359 2223 1461 
Q 2116 1563 1955 1658 
Q 1794 1753 1581 1856 
Q 1384 1759 1236 1662 
Q 1088 1566 992 1462 
Q 897 1359 848 1245 
Q 800 1131 800 994 
Q 800 691 1008 525 
Q 1216 359 1628 359 
Q 2028 359 2233 526 
Q 2438 694 2438 981 
z
" id="Calibri-38" transform="scale(0.015625)"/>
       </defs>
       <use xlink:href="#Calibri-32"/>
       <use x="50.683594" xlink:href="#Calibri-2e"/>
       <use x="75.927734" xlink:href="#Calibri-38"/>
       <use x="126.611328" xlink:href="#Calibri-30"/>
      </g>
     </g>
    </g>
    <g id="xtick_4">
     <g id="line2d_4">
      <g>
       <use style="stroke:#000000;stroke-width:0.8;" x="210.88" xlink:href="#mfc9553b504" y="123.666667"/>
      </g>
     </g>
     <g id="text_4">
      <!-- 2.85 -->
      <g transform="translate(202.014375 137.468229)scale(0.1 -0.1)">
       <use xlink:href="#Calibri-32"/>
       <use x="50.683594" xlink:href="#Calibri-2e"/>
       <use x="75.927734" xlink:href="#Calibri-38"/>
       <use x="126.611328" xlink:href="#Calibri-35"/>
      </g>
     </g>
    </g>
    <g id="xtick_5">
     <g id="line2d_5">
      <g>
       <use style="stroke:#000000;stroke-width:0.8;" x="265.146667" xlink:href="#mfc9553b504" y="123.666667"/>
      </g>
     </g>
     <g id="text_5">
      <!-- 2.90 -->
      <g transform="translate(256.281042 137.468229)scale(0.1 -0.1)">
       <defs>
        <path d="M 2919 2181 
Q 2919 1919 2887 1650 
Q 2856 1381 2781 1132 
Q 2706 884 2579 667 
Q 2453 450 2261 287 
Q 2069 125 1805 33 
Q 1541 -59 1191 -59 
Q 1056 -59 929 -42 
Q 803 -25 701 0 
Q 600 25 531 53 
Q 463 81 431 109 
Q 400 138 386 186 
Q 372 234 372 316 
Q 372 384 376 425 
Q 381 466 390 487 
Q 400 509 417 517 
Q 434 525 459 525 
Q 494 525 556 501 
Q 619 478 714 450 
Q 809 422 937 398 
Q 1066 375 1225 375 
Q 1528 375 1745 492 
Q 1963 609 2100 806 
Q 2238 1003 2306 1262 
Q 2375 1522 2381 1809 
Q 2216 1713 1984 1638 
Q 1753 1563 1453 1563 
Q 1116 1563 886 1655 
Q 656 1747 517 1906 
Q 378 2066 317 2284 
Q 256 2503 256 2763 
Q 256 3031 334 3273 
Q 413 3516 578 3700 
Q 744 3884 1000 3993 
Q 1256 4103 1613 4103 
Q 1866 4103 2061 4039 
Q 2256 3975 2400 3854 
Q 2544 3734 2644 3564 
Q 2744 3394 2805 3178 
Q 2866 2963 2892 2711 
Q 2919 2459 2919 2181 
z
M 2372 2241 
Q 2372 2641 2319 2914 
Q 2266 3188 2162 3356 
Q 2059 3525 1909 3600 
Q 1759 3675 1563 3675 
Q 1359 3675 1215 3601 
Q 1072 3528 980 3404 
Q 888 3281 844 3125 
Q 800 2969 800 2803 
Q 800 2619 839 2466 
Q 878 2313 965 2206 
Q 1053 2100 1193 2042 
Q 1334 1984 1541 1984 
Q 1775 1984 1994 2054 
Q 2213 2125 2372 2241 
z
" id="Calibri-39" transform="scale(0.015625)"/>
       </defs>
       <use xlink:href="#Calibri-32"/>
       <use x="50.683594" xlink:href="#Calibri-2e"/>
       <use x="75.927734" xlink:href="#Calibri-39"/>
       <use x="126.611328" xlink:href="#Calibri-30"/>
      </g>
     </g>
    </g>
    <g id="xtick_6">
     <g id="line2d_6">
      <g>
       <use style="stroke:#000000;stroke-width:0.8;" x="319.413333" xlink:href="#mfc9553b504" y="123.666667"/>
      </g>
     </g>
     <g id="text_6">
      <!-- 2.95 -->
      <g transform="translate(310.547708 137.468229)scale(0.1 -0.1)">
       <use xlink:href="#Calibri-32"/>
       <use x="50.683594" xlink:href="#Calibri-2e"/>
       <use x="75.927734" xlink:href="#Calibri-39"/>
       <use x="126.611328" xlink:href="#Calibri-35"/>
      </g>
     </g>
    </g>
    <g id="xtick_7">
     <g id="line2d_7">
      <g>
       <use style="stroke:#000000;stroke-width:0.8;" x="373.68" xlink:href="#mfc9553b504" y="123.666667"/>
      </g>
     </g>
     <g id="text_7">
      <!-- 3.00 -->
      <g transform="translate(364.814375 137.468229)scale(0.1 -0.1)">
       <defs>
        <path d="M 2856 1156 
Q 2856 878 2759 654 
Q 2663 431 2481 272 
Q 2300 113 2034 27 
Q 1769 -59 1434 -59 
Q 1231 -59 1054 -26 
Q 878 6 740 51 
Q 603 97 512 145 
Q 422 194 398 216 
Q 375 238 362 259 
Q 350 281 340 312 
Q 331 344 326 389 
Q 322 434 322 500 
Q 322 613 344 656 
Q 366 700 406 700 
Q 434 700 517 650 
Q 600 600 729 542 
Q 859 484 1032 434 
Q 1206 384 1419 384 
Q 1625 384 1781 437 
Q 1938 491 2044 587 
Q 2150 684 2203 817 
Q 2256 950 2256 1106 
Q 2256 1278 2189 1415 
Q 2122 1553 1992 1653 
Q 1863 1753 1673 1806 
Q 1484 1859 1244 1859 
L 859 1859 
Q 834 1859 811 1870 
Q 788 1881 770 1906 
Q 753 1931 742 1972 
Q 731 2013 731 2078 
Q 731 2138 740 2177 
Q 750 2216 767 2239 
Q 784 2263 806 2273 
Q 828 2284 856 2284 
L 1209 2284 
Q 1416 2284 1580 2337 
Q 1744 2391 1858 2491 
Q 1972 2591 2033 2730 
Q 2094 2869 2094 3041 
Q 2094 3166 2053 3280 
Q 2013 3394 1931 3478 
Q 1850 3563 1723 3611 
Q 1597 3659 1431 3659 
Q 1250 3659 1098 3604 
Q 947 3550 828 3487 
Q 709 3425 631 3370 
Q 553 3316 522 3316 
Q 500 3316 483 3323 
Q 466 3331 455 3354 
Q 444 3378 439 3420 
Q 434 3463 434 3531 
Q 434 3578 437 3614 
Q 441 3650 450 3676 
Q 459 3703 471 3725 
Q 484 3747 514 3776 
Q 544 3806 634 3862 
Q 725 3919 858 3973 
Q 991 4028 1164 4065 
Q 1338 4103 1538 4103 
Q 1819 4103 2031 4031 
Q 2244 3959 2386 3828 
Q 2528 3697 2598 3514 
Q 2669 3331 2669 3109 
Q 2669 2919 2619 2755 
Q 2569 2591 2472 2464 
Q 2375 2338 2234 2248 
Q 2094 2159 1909 2125 
L 1909 2119 
Q 2119 2097 2292 2014 
Q 2466 1931 2591 1806 
Q 2716 1681 2786 1514 
Q 2856 1347 2856 1156 
z
" id="Calibri-33" transform="scale(0.015625)"/>
       </defs>
       <use xlink:href="#Calibri-33"/>
       <use x="50.683594" xlink:href="#Calibri-2e"/>
       <use x="75.927734" xlink:href="#Calibri-30"/>
       <use x="126.611328" xlink:href="#Calibri-30"/>
      </g>
     </g>
    </g>
   </g>
   <g id="matplotlib.axis_2">
    <g id="ytick_1">
     <g id="line2d_8">
      <defs>
       <path d="M 0 0 
L -3.5 0 
" id="mf379018d06" style="stroke:#000000;stroke-width:0.8;"/>
      </defs>
      <g>
       <use style="stroke:#000000;stroke-width:0.8;" x="48.08" xlink:href="#mf379018d06" y="103.614139"/>
      </g>
     </g>
     <g id="text_8">
      <!-- −0.5 -->
      <g transform="translate(23.43625 107.01492)scale(0.1 -0.1)">
       <defs>
        <path d="M 2934 1797 
Q 2934 1681 2904 1628 
Q 2875 1575 2819 1575 
L 356 1575 
Q 297 1575 267 1628 
Q 238 1681 238 1797 
Q 238 1909 267 1964 
Q 297 2019 356 2019 
L 2819 2019 
Q 2875 2019 2904 1966 
Q 2934 1913 2934 1797 
z
" id="Calibri-2212" transform="scale(0.015625)"/>
       </defs>
       <use xlink:href="#Calibri-2212"/>
       <use x="49.804688" xlink:href="#Calibri-30"/>
       <use x="100.488281" xlink:href="#Calibri-2e"/>
       <use x="125.732422" xlink:href="#Calibri-35"/>
      </g>
     </g>
    </g>
    <g id="ytick_2">
     <g id="line2d_9">
      <g>
       <use style="stroke:#000000;stroke-width:0.8;" x="48.08" xlink:href="#mf379018d06" y="79.272071"/>
      </g>
     </g>
     <g id="text_9">
      <!-- 0.0 -->
      <g transform="translate(28.4175 82.672853)scale(0.1 -0.1)">
       <use xlink:href="#Calibri-30"/>
       <use x="50.683594" xlink:href="#Calibri-2e"/>
       <use x="75.927734" xlink:href="#Calibri-30"/>
      </g>
     </g>
    </g>
    <g id="ytick_3">
     <g id="line2d_10">
      <g>
       <use style="stroke:#000000;stroke-width:0.8;" x="48.08" xlink:href="#mf379018d06" y="54.930004"/>
      </g>
     </g>
     <g id="text_10">
      <!-- 0.5 -->
      <g transform="translate(28.4175 58.330785)scale(0.1 -0.1)">
       <use xlink:href="#Calibri-30"/>
       <use x="50.683594" xlink:href="#Calibri-2e"/>
       <use x="75.927734" xlink:href="#Calibri-35"/>
      </g>
     </g>
    </g>
    <g id="ytick_4">
     <g id="line2d_11">
      <g>
       <use style="stroke:#000000;stroke-width:0.8;" x="48.08" xlink:href="#mf379018d06" y="30.587936"/>
      </g>
     </g>
     <g id="text_11">
      <!-- 1.0 -->
      <g transform="translate(28.4175 33.988717)scale(0.1 -0.1)">
       <defs>
        <path d="M 2897 213 
Q 2897 153 2887 112 
Q 2878 72 2862 47 
Q 2847 22 2826 11 
Q 2806 0 2784 0 
L 672 0 
Q 650 0 631 11 
Q 613 22 595 47 
Q 578 72 568 112 
Q 559 153 559 213 
Q 559 269 568 309 
Q 578 350 592 376 
Q 606 403 626 417 
Q 647 431 672 431 
L 1516 431 
L 1516 3506 
L 734 3041 
Q 675 3009 639 3003 
Q 603 2997 581 3017 
Q 559 3038 551 3084 
Q 544 3131 544 3203 
Q 544 3256 548 3293 
Q 553 3331 562 3356 
Q 572 3381 589 3400 
Q 606 3419 634 3438 
L 1566 4034 
Q 1578 4044 1597 4050 
Q 1616 4056 1644 4062 
Q 1672 4069 1709 4070 
Q 1747 4072 1803 4072 
Q 1878 4072 1928 4065 
Q 1978 4059 2006 4048 
Q 2034 4038 2043 4020 
Q 2053 4003 2053 3984 
L 2053 431 
L 2784 431 
Q 2809 431 2831 417 
Q 2853 403 2867 376 
Q 2881 350 2889 309 
Q 2897 269 2897 213 
z
" id="Calibri-31" transform="scale(0.015625)"/>
       </defs>
       <use xlink:href="#Calibri-31"/>
       <use x="50.683594" xlink:href="#Calibri-2e"/>
       <use x="75.927734" xlink:href="#Calibri-30"/>
      </g>
     </g>
    </g>
    <g id="text_12">
     <!-- Amplitud -->
     <g transform="translate(17.658125 94.013177)rotate(-90)scale(0.1 -0.1)">
      <defs>
       <path d="M 3566 191 
Q 3591 122 3592 80 
Q 3594 38 3569 16 
Q 3544 -6 3486 -12 
Q 3428 -19 3331 -19 
Q 3234 -19 3176 -14 
Q 3119 -9 3089 2 
Q 3059 13 3045 31 
Q 3031 50 3019 78 
L 2672 1063 
L 991 1063 
L 659 91 
Q 650 63 634 42 
Q 619 22 589 8 
Q 559 -6 504 -12 
Q 450 -19 363 -19 
Q 272 -19 214 -11 
Q 156 -3 132 19 
Q 109 41 111 83 
Q 113 125 138 194 
L 1494 3950 
Q 1506 3984 1526 4006 
Q 1547 4028 1586 4040 
Q 1625 4053 1686 4058 
Q 1747 4063 1841 4063 
Q 1941 4063 2006 4058 
Q 2072 4053 2112 4040 
Q 2153 4028 2175 4004 
Q 2197 3981 2209 3947 
L 3566 191 
z
M 1825 3506 
L 1822 3506 
L 1125 1491 
L 2531 1491 
L 1825 3506 
z
" id="Calibri-41" transform="scale(0.015625)"/>
       <path d="M 4650 78 
Q 4650 53 4637 36 
Q 4625 19 4597 6 
Q 4569 -6 4519 -12 
Q 4469 -19 4394 -19 
Q 4316 -19 4266 -12 
Q 4216 -6 4186 6 
Q 4156 19 4143 36 
Q 4131 53 4131 78 
L 4131 1788 
Q 4131 1966 4100 2112 
Q 4069 2259 4000 2365 
Q 3931 2472 3825 2528 
Q 3719 2584 3575 2584 
Q 3397 2584 3217 2446 
Q 3038 2309 2822 2044 
L 2822 78 
Q 2822 53 2809 36 
Q 2797 19 2767 6 
Q 2738 -6 2688 -12 
Q 2638 -19 2563 -19 
Q 2491 -19 2439 -12 
Q 2388 -6 2358 6 
Q 2328 19 2317 36 
Q 2306 53 2306 78 
L 2306 1788 
Q 2306 1966 2272 2112 
Q 2238 2259 2169 2365 
Q 2100 2472 1995 2528 
Q 1891 2584 1747 2584 
Q 1569 2584 1387 2446 
Q 1206 2309 994 2044 
L 994 78 
Q 994 53 981 36 
Q 969 19 941 6 
Q 913 -6 863 -12 
Q 813 -19 734 -19 
Q 659 -19 609 -12 
Q 559 -6 529 6 
Q 500 19 489 36 
Q 478 53 478 78 
L 478 2891 
Q 478 2916 487 2933 
Q 497 2950 525 2964 
Q 553 2978 597 2983 
Q 641 2988 713 2988 
Q 781 2988 826 2983 
Q 872 2978 897 2964 
Q 922 2950 933 2933 
Q 944 2916 944 2891 
L 944 2519 
Q 1181 2784 1404 2907 
Q 1628 3031 1856 3031 
Q 2031 3031 2170 2990 
Q 2309 2950 2415 2876 
Q 2522 2803 2597 2701 
Q 2672 2600 2722 2475 
Q 2863 2628 2989 2734 
Q 3116 2841 3233 2906 
Q 3350 2972 3461 3001 
Q 3572 3031 3684 3031 
Q 3956 3031 4140 2936 
Q 4325 2841 4439 2681 
Q 4553 2522 4601 2308 
Q 4650 2094 4650 1856 
L 4650 78 
z
" id="Calibri-6d" transform="scale(0.015625)"/>
       <path d="M 3066 1528 
Q 3066 1159 2986 865 
Q 2906 572 2751 367 
Q 2597 163 2369 52 
Q 2141 -59 1847 -59 
Q 1722 -59 1615 -34 
Q 1509 -9 1407 44 
Q 1306 97 1206 178 
Q 1106 259 994 369 
L 994 -1038 
Q 994 -1063 981 -1081 
Q 969 -1100 941 -1112 
Q 913 -1125 863 -1131 
Q 813 -1138 734 -1138 
Q 659 -1138 609 -1131 
Q 559 -1125 529 -1112 
Q 500 -1100 489 -1081 
Q 478 -1063 478 -1038 
L 478 2891 
Q 478 2919 487 2936 
Q 497 2953 525 2965 
Q 553 2978 597 2983 
Q 641 2988 703 2988 
Q 769 2988 811 2983 
Q 853 2978 881 2965 
Q 909 2953 920 2936 
Q 931 2919 931 2891 
L 931 2513 
Q 1059 2644 1178 2741 
Q 1297 2838 1417 2902 
Q 1538 2966 1664 2998 
Q 1791 3031 1931 3031 
Q 2238 3031 2453 2912 
Q 2669 2794 2805 2587 
Q 2941 2381 3003 2107 
Q 3066 1834 3066 1528 
z
M 2522 1469 
Q 2522 1684 2489 1886 
Q 2456 2088 2376 2244 
Q 2297 2400 2162 2494 
Q 2028 2588 1828 2588 
Q 1728 2588 1631 2558 
Q 1534 2528 1434 2464 
Q 1334 2400 1225 2295 
Q 1116 2191 994 2038 
L 994 919 
Q 1206 659 1397 521 
Q 1588 384 1797 384 
Q 1991 384 2130 478 
Q 2269 572 2355 728 
Q 2441 884 2481 1078 
Q 2522 1272 2522 1469 
z
" id="Calibri-70" transform="scale(0.015625)"/>
       <path d="M 994 78 
Q 994 53 981 36 
Q 969 19 941 6 
Q 913 -6 863 -12 
Q 813 -19 734 -19 
Q 659 -19 609 -12 
Q 559 -6 529 6 
Q 500 19 489 36 
Q 478 53 478 78 
L 478 4253 
Q 478 4278 489 4297 
Q 500 4316 529 4328 
Q 559 4341 609 4347 
Q 659 4353 734 4353 
Q 813 4353 863 4347 
Q 913 4341 941 4328 
Q 969 4316 981 4297 
Q 994 4278 994 4253 
L 994 78 
z
" id="Calibri-6c" transform="scale(0.015625)"/>
       <path d="M 994 78 
Q 994 53 981 36 
Q 969 19 941 6 
Q 913 -6 863 -12 
Q 813 -19 734 -19 
Q 659 -19 609 -12 
Q 559 -6 529 6 
Q 500 19 489 36 
Q 478 53 478 78 
L 478 2891 
Q 478 2913 489 2931 
Q 500 2950 529 2962 
Q 559 2975 609 2981 
Q 659 2988 734 2988 
Q 813 2988 863 2981 
Q 913 2975 941 2962 
Q 969 2950 981 2931 
Q 994 2913 994 2891 
L 994 78 
z
M 1053 3841 
Q 1053 3659 984 3593 
Q 916 3528 731 3528 
Q 550 3528 483 3592 
Q 416 3656 416 3834 
Q 416 4016 484 4081 
Q 553 4147 738 4147 
Q 919 4147 986 4083 
Q 1053 4019 1053 3841 
z
" id="Calibri-69" transform="scale(0.015625)"/>
       <path d="M 1941 284 
Q 1941 194 1928 141 
Q 1916 88 1891 63 
Q 1866 38 1816 16 
Q 1766 -6 1702 -20 
Q 1638 -34 1566 -43 
Q 1494 -53 1422 -53 
Q 1203 -53 1047 5 
Q 891 63 791 180 
Q 691 297 645 476 
Q 600 656 600 900 
L 600 2544 
L 206 2544 
Q 159 2544 131 2594 
Q 103 2644 103 2756 
Q 103 2816 111 2856 
Q 119 2897 131 2923 
Q 144 2950 164 2961 
Q 184 2972 209 2972 
L 600 2972 
L 600 3641 
Q 600 3663 611 3681 
Q 622 3700 651 3714 
Q 681 3728 731 3734 
Q 781 3741 856 3741 
Q 934 3741 984 3734 
Q 1034 3728 1062 3714 
Q 1091 3700 1103 3681 
Q 1116 3663 1116 3641 
L 1116 2972 
L 1838 2972 
Q 1863 2972 1881 2961 
Q 1900 2950 1914 2923 
Q 1928 2897 1934 2856 
Q 1941 2816 1941 2756 
Q 1941 2644 1912 2594 
Q 1884 2544 1838 2544 
L 1116 2544 
L 1116 975 
Q 1116 684 1202 536 
Q 1288 388 1509 388 
Q 1581 388 1637 402 
Q 1694 416 1737 431 
Q 1781 447 1812 461 
Q 1844 475 1869 475 
Q 1884 475 1898 467 
Q 1913 459 1920 437 
Q 1928 416 1934 378 
Q 1941 341 1941 284 
z
" id="Calibri-74" transform="scale(0.015625)"/>
       <path d="M 2888 78 
Q 2888 53 2877 36 
Q 2866 19 2837 6 
Q 2809 -6 2764 -12 
Q 2719 -19 2653 -19 
Q 2581 -19 2536 -12 
Q 2491 -6 2464 6 
Q 2438 19 2428 36 
Q 2419 53 2419 78 
L 2419 450 
Q 2178 184 1943 62 
Q 1709 -59 1469 -59 
Q 1188 -59 995 34 
Q 803 128 684 289 
Q 566 450 514 664 
Q 463 878 463 1184 
L 463 2891 
Q 463 2916 473 2933 
Q 484 2950 515 2964 
Q 547 2978 597 2983 
Q 647 2988 722 2988 
Q 797 2988 847 2983 
Q 897 2978 926 2964 
Q 956 2950 968 2933 
Q 981 2916 981 2891 
L 981 1253 
Q 981 1006 1017 857 
Q 1053 709 1126 604 
Q 1200 500 1312 442 
Q 1425 384 1575 384 
Q 1769 384 1961 521 
Q 2153 659 2369 925 
L 2369 2891 
Q 2369 2916 2380 2933 
Q 2391 2950 2422 2964 
Q 2453 2978 2501 2983 
Q 2550 2988 2628 2988 
Q 2703 2988 2753 2983 
Q 2803 2978 2831 2964 
Q 2859 2950 2873 2933 
Q 2888 2916 2888 2891 
L 2888 78 
z
" id="Calibri-75" transform="scale(0.015625)"/>
       <path d="M 2888 78 
Q 2888 53 2877 34 
Q 2866 16 2839 5 
Q 2813 -6 2769 -12 
Q 2725 -19 2663 -19 
Q 2597 -19 2553 -12 
Q 2509 -6 2481 5 
Q 2453 16 2440 34 
Q 2428 53 2428 78 
L 2428 450 
Q 2206 209 1967 75 
Q 1728 -59 1444 -59 
Q 1134 -59 915 61 
Q 697 181 561 386 
Q 425 591 362 867 
Q 300 1144 300 1450 
Q 300 1813 378 2105 
Q 456 2397 609 2603 
Q 763 2809 989 2920 
Q 1216 3031 1513 3031 
Q 1759 3031 1964 2923 
Q 2169 2816 2369 2606 
L 2369 4241 
Q 2369 4263 2380 4283 
Q 2391 4303 2422 4314 
Q 2453 4325 2501 4333 
Q 2550 4341 2625 4341 
Q 2703 4341 2753 4333 
Q 2803 4325 2831 4314 
Q 2859 4303 2873 4283 
Q 2888 4263 2888 4241 
L 2888 78 
z
M 2369 2056 
Q 2159 2316 1964 2452 
Q 1769 2588 1556 2588 
Q 1359 2588 1221 2494 
Q 1084 2400 998 2247 
Q 913 2094 873 1900 
Q 834 1706 834 1506 
Q 834 1294 867 1091 
Q 900 888 981 730 
Q 1063 572 1197 476 
Q 1331 381 1534 381 
Q 1638 381 1733 409 
Q 1828 438 1928 503 
Q 2028 569 2137 673 
Q 2247 778 2369 931 
L 2369 2056 
z
" id="Calibri-64" transform="scale(0.015625)"/>
      </defs>
      <use xlink:href="#Calibri-41"/>
      <use x="57.861328" xlink:href="#Calibri-6d"/>
      <use x="137.744141" xlink:href="#Calibri-70"/>
      <use x="190.283203" xlink:href="#Calibri-6c"/>
      <use x="213.232422" xlink:href="#Calibri-69"/>
      <use x="236.181641" xlink:href="#Calibri-74"/>
      <use x="269.677734" xlink:href="#Calibri-75"/>
      <use x="322.216797" xlink:href="#Calibri-64"/>
     </g>
    </g>
   </g>
   <g id="line2d_12">
    <path clip-path="url(#p794bd46a0b)" d="M 47.835638 78.899825 
L 49.955483 80.329715 
L 50.485445 80.265353 
L 51.015406 79.934706 
L 51.810348 79.056329 
L 52.87027 77.735021 
L 53.400231 77.345335 
L 53.930193 77.314412 
L 54.460154 77.704499 
L 54.990115 78.501802 
L 56.050038 80.841881 
L 56.844979 82.41902 
L 57.374941 82.94532 
L 57.639921 82.980637 
L 57.904902 82.845511 
L 58.169882 82.534869 
L 58.699844 81.409058 
L 59.494786 78.745609 
L 60.554708 74.841155 
L 61.084669 73.514184 
L 61.34965 73.146271 
L 61.61463 73.013028 
L 61.879611 73.132736 
L 62.144592 73.512326 
L 62.674553 75.022575 
L 63.204514 77.382987 
L 65.059378 87.114536 
L 65.58934 88.487908 
L 65.85432 88.708718 
L 66.119301 88.592289 
L 66.384281 88.133817 
L 66.914243 86.236097 
L 67.444204 83.232172 
L 69.564049 69.429607 
L 70.09401 68.03793 
L 70.358991 67.884294 
L 70.623971 68.102789 
L 70.888952 68.68444 
L 71.418913 70.835025 
L 72.213855 75.857254 
L 73.538758 84.904328 
L 74.068719 87.340462 
L 74.598681 88.61107 
L 74.863661 88.778481 
L 75.128642 88.634018 
L 75.393622 88.207942 
L 75.923584 86.589177 
L 76.718525 82.94993 
L 77.778448 77.971881 
L 78.308409 76.238754 
L 78.83837 75.249247 
L 79.103351 75.058087 
L 79.368332 75.051597 
L 79.633312 75.206364 
L 80.163273 75.949908 
L 82.018138 79.504214 
L 82.548099 79.923072 
L 83.07806 79.90536 
L 83.608021 79.509108 
L 85.727866 77.177705 
L 86.257828 77.168998 
L 86.787789 77.538094 
L 87.31775 78.204499 
L 89.437595 81.411348 
L 89.967556 81.715352 
L 90.497517 81.707219 
L 91.027479 81.427786 
L 91.822421 80.661055 
L 93.147324 79.33519 
L 93.677285 79.009005 
L 94.472227 78.82187 
L 95.532149 78.919741 
L 96.592072 79.013663 
L 97.387013 78.846619 
L 98.711916 78.289647 
L 99.506858 78.036731 
L 100.3018 78.077899 
L 101.361723 78.680299 
L 103.746548 80.472011 
L 104.54149 80.564588 
L 105.336432 80.348032 
L 107.986238 79.056781 
L 109.311141 78.97555 
L 110.636044 79.077847 
L 112.225928 78.755916 
L 113.28585 78.475005 
L 114.080792 78.436832 
L 114.875734 78.644116 
L 116.465618 79.57909 
L 117.52554 80.219108 
L 118.320482 80.454145 
L 119.115424 80.473663 
L 119.910366 80.171846 
L 122.825152 78.664377 
L 123.620094 78.554343 
L 124.944997 78.584656 
L 127.859784 78.722477 
L 128.919707 79.070307 
L 129.979629 79.703235 
L 131.569513 80.669107 
L 132.364455 80.839985 
L 132.894416 80.745312 
L 133.689358 80.309796 
L 134.74928 79.349679 
L 135.809203 78.381224 
L 136.604144 77.935081 
L 137.134106 77.814139 
L 137.929047 77.877993 
L 138.98897 78.282595 
L 140.578854 78.933363 
L 143.22866 79.757465 
L 144.023602 80.251997 
L 145.348505 81.282441 
L 145.878466 81.524755 
L 146.408427 81.56405 
L 146.938388 81.328482 
L 147.46835 80.789136 
L 148.263291 79.506805 
L 150.118156 76.017055 
L 150.648117 75.500319 
L 151.178078 75.401538 
L 151.708039 75.751479 
L 152.238001 76.530683 
L 153.032943 78.291553 
L 154.357846 81.466452 
L 154.887807 82.311381 
L 155.417768 82.716393 
L 155.682749 82.739232 
L 155.947729 82.646937 
L 156.477691 82.121148 
L 157.272632 80.772293 
L 158.597535 78.41729 
L 159.127497 77.851539 
L 159.657458 77.635573 
L 160.187419 77.767526 
L 160.71738 78.171622 
L 162.307264 79.741538 
L 162.837225 79.940024 
L 163.367187 79.832431 
L 163.897148 79.442242 
L 166.016993 77.332863 
L 166.546954 77.354264 
L 167.076915 77.75147 
L 167.606876 78.491047 
L 169.461741 81.512527 
L 169.991702 81.733709 
L 170.256682 81.64768 
L 170.786644 81.09762 
L 171.316605 80.075645 
L 173.171469 75.59248 
L 173.43645 75.287936 
L 173.70143 75.16313 
L 173.966411 75.235779 
L 174.231392 75.51726 
L 174.761353 76.727998 
L 175.291314 78.710301 
L 177.411159 88.221453 
L 177.67614 88.746947 
L 177.94112 88.967125 
L 178.206101 88.851241 
L 178.471082 88.380277 
L 179.001043 86.358857 
L 179.531004 82.98749 
L 180.325946 76.070599 
L 181.650849 63.991052 
L 182.18081 60.76742 
L 182.445791 59.77564 
L 182.710771 59.278026 
L 182.975752 59.300364 
L 183.240733 59.870321 
L 183.505713 61.003647 
L 184.035674 64.879769 
L 184.565636 70.652544 
L 185.625558 85.594266 
L 186.685481 99.842867 
L 187.215442 104.615065 
L 187.480422 106.1065 
L 187.745403 106.907195 
L 188.010384 106.982975 
L 188.275364 106.305103 
L 188.540345 104.865146 
L 189.070306 99.786149 
L 189.600267 92.112018 
L 190.66019 71.887092 
L 191.720112 51.934498 
L 192.250074 44.755539 
L 192.780035 40.624177 
L 193.045015 39.880352 
L 193.309996 40.068553 
L 193.574977 41.198728 
L 193.839957 43.248324 
L 194.369918 49.910438 
L 195.16486 64.93234 
L 197.019725 103.911426 
L 197.549686 110.767939 
L 197.814666 112.91506 
L 198.079647 114.133793 
L 198.344628 114.402507 
L 198.609608 113.730402 
L 198.874589 112.151701 
L 199.40455 106.53316 
L 200.199492 93.48815 
L 201.789376 64.206091 
L 202.319337 57.326314 
L 202.849298 53.046292 
L 203.114279 51.955703 
L 203.379259 51.566584 
L 203.64424 51.844292 
L 203.909221 52.745299 
L 204.439182 56.158152 
L 205.234124 64.064898 
L 207.088988 84.000755 
L 207.88393 89.83993 
L 208.678872 93.790945 
L 209.473813 96.506396 
L 210.533736 99.170663 
L 211.063697 100.077718 
L 211.328678 100.357379 
L 211.593658 100.47016 
L 211.858639 100.381838 
L 212.12362 100.045637 
L 212.3886 99.446038 
L 212.918561 97.296989 
L 213.448523 93.760953 
L 214.243465 85.944459 
L 215.568368 68.915157 
L 216.363309 59.412446 
L 216.893271 54.708206 
L 217.423232 51.869644 
L 217.688213 51.259004 
L 217.953193 51.190156 
L 218.218174 51.674464 
L 218.483154 52.67879 
L 219.013116 56.096449 
L 219.808057 63.831381 
L 221.662922 83.637926 
L 222.457864 89.072522 
L 222.987825 91.277175 
L 223.517786 92.539612 
L 224.047747 93.134951 
L 224.842689 93.475006 
L 225.37265 93.696372 
L 226.167592 94.33204 
L 227.227515 95.302249 
L 227.492495 95.385805 
L 227.757476 95.345675 
L 228.022457 95.156669 
L 228.287437 94.786915 
L 228.817398 93.393936 
L 229.34736 91.103043 
L 230.142301 86.160708 
L 232.262146 71.064301 
L 232.792108 68.766256 
L 233.322069 67.527576 
L 233.587049 67.311476 
L 233.85203 67.380617 
L 234.117011 67.637751 
L 234.646972 68.706184 
L 235.971875 72.985889 
L 236.766817 75.05424 
L 237.296778 75.796325 
L 237.826739 76.026706 
L 238.3567 75.83724 
L 239.681604 74.749943 
L 239.946584 74.654933 
L 240.476545 74.777804 
L 241.006507 75.372548 
L 241.536468 76.472263 
L 242.066429 77.90332 
L 243.921293 83.487376 
L 244.451255 84.403493 
L 244.981216 84.799815 
L 245.246196 84.854254 
L 245.776158 84.520266 
L 246.306119 83.816712 
L 247.101061 82.442866 
L 248.160983 80.699628 
L 248.955925 79.870948 
L 249.485886 79.681544 
L 250.015848 79.71349 
L 250.810789 80.00488 
L 251.870712 80.417052 
L 252.400673 80.411469 
L 253.195615 80.118867 
L 254.255537 79.378753 
L 255.31546 78.621695 
L 256.110402 78.337254 
L 256.905344 78.31973 
L 259.55515 78.856626 
L 260.350092 78.70665 
L 261.410014 78.253883 
L 262.734917 77.675379 
L 263.529859 77.552362 
L 264.324801 77.654278 
L 265.119743 78.006049 
L 266.974607 79.261416 
L 268.034529 79.842951 
L 269.094452 80.162577 
L 270.419355 80.238464 
L 272.5392 80.31264 
L 275.453987 80.623481 
L 276.248928 80.481688 
L 277.308851 80.058361 
L 280.488618 78.484685 
L 281.548541 78.42377 
L 282.608463 78.601491 
L 284.198347 78.906441 
L 285.258269 78.864755 
L 286.583172 78.562274 
L 288.173056 78.209289 
L 289.232979 78.262686 
L 290.292901 78.591333 
L 292.942707 79.636538 
L 294.00263 79.737776 
L 296.122475 79.561449 
L 297.447378 79.538828 
L 301.157106 79.748409 
L 303.541932 79.336838 
L 305.131815 79.169526 
L 306.721699 79.234717 
L 308.841544 79.354073 
L 310.961389 79.208944 
L 313.081234 79.133795 
L 318.380846 79.299825 
L 321.030652 79.189848 
L 338.784354 79.335592 
L 358.392919 79.289299 
L 373.761795 79.268226 
L 373.761795 79.268226 
" style="fill:none;stroke:#000000;stroke-linecap:square;stroke-width:0.8;"/>
   </g>
   <g id="line2d_13">
    <path clip-path="url(#p794bd46a0b)" d="M 47.835638 78.39673 
L 51.810348 77.90621 
L 53.400231 77.345177 
L 57.374941 75.598634 
L 59.229805 74.611163 
L 61.084669 73.339599 
L 66.384281 69.483255 
L 68.239146 68.491759 
L 69.564049 68.024671 
L 70.623971 67.856916 
L 71.683894 67.918624 
L 72.743816 68.240651 
L 73.803739 68.830427 
L 74.863661 69.663125 
L 76.188564 70.980539 
L 78.308409 73.53179 
L 82.018138 77.919239 
L 82.81308 78.540394 
L 83.343041 78.601635 
L 84.137983 78.164997 
L 85.727866 77.164188 
L 87.052769 76.646949 
L 88.112692 76.491852 
L 89.172614 76.536571 
L 90.232537 76.755211 
L 92.087401 77.433579 
L 95.532149 78.757104 
L 96.327091 78.801697 
L 97.651994 78.514415 
L 100.03682 77.940184 
L 101.096742 77.779363 
L 104.806471 78.013103 
L 107.191296 78.479126 
L 108.78118 78.823127 
L 110.636044 78.968214 
L 113.550831 78.428113 
L 114.345773 78.308974 
L 115.140715 78.191917 
L 118.055501 78.05077 
L 121.76523 78.257002 
L 126.799862 78.529594 
L 129.184687 78.167031 
L 132.099474 77.723601 
L 134.219319 77.563742 
L 136.869125 77.715832 
L 141.373795 78.308913 
L 142.698699 78.175052 
L 144.023602 77.782117 
L 148.793253 75.852854 
L 150.383136 75.46609 
L 151.708039 75.332841 
L 153.562904 75.408311 
L 155.947729 75.866586 
L 157.802594 76.524762 
L 159.392477 77.298952 
L 162.042283 78.703293 
L 162.572245 78.666269 
L 163.632167 78.194517 
L 164.95707 77.617792 
L 166.281973 77.277668 
L 168.401818 77.07542 
L 169.726721 76.853637 
L 171.316605 76.294176 
L 173.43645 75.277455 
L 174.496372 74.526221 
L 175.291314 73.719484 
L 176.086256 72.649285 
L 177.146178 70.814136 
L 178.471082 68.028783 
L 181.650849 61.120747 
L 182.975752 58.814631 
L 184.300655 56.914646 
L 186.4205 53.995949 
L 187.480422 52.152569 
L 188.540345 49.90614 
L 190.66019 44.651356 
L 191.985093 41.637173 
L 192.780035 40.246668 
L 193.574977 39.30589 
L 194.104938 38.968718 
L 194.634899 38.880245 
L 195.16486 39.043465 
L 195.694822 39.443771 
L 196.489763 40.447825 
L 197.284705 41.835188 
L 198.874589 45.22519 
L 200.199492 47.856436 
L 201.259414 49.446548 
L 202.319337 50.579825 
L 204.439182 52.55493 
L 205.499104 53.950978 
L 207.088988 56.597521 
L 208.14891 58.266596 
L 208.943852 59.105121 
L 209.473813 59.356657 
L 210.003775 59.318073 
L 210.533736 59.007736 
L 211.328678 58.116387 
L 212.3886 56.442572 
L 214.243465 53.385061 
L 215.303387 52.073891 
L 216.098329 51.41365 
L 216.62829 51.148788 
L 217.423232 51.040623 
L 217.953193 51.180679 
L 218.748135 51.712506 
L 219.543077 52.659354 
L 220.338019 54.001068 
L 221.397941 56.326597 
L 224.047747 62.766878 
L 224.577709 63.60653 
L 225.10767 64.119173 
L 225.637631 64.269901 
L 226.167592 64.100916 
L 226.697553 63.67294 
L 229.34736 60.90594 
L 229.877321 60.755092 
L 230.407282 60.815144 
L 230.937243 61.118606 
L 231.467205 61.658227 
L 232.262146 62.884403 
L 233.057088 64.558883 
L 233.85203 66.548047 
L 237.031797 74.8284 
L 237.561759 75.529342 
L 237.826739 75.689654 
L 238.3567 75.628974 
L 239.151642 74.894612 
L 240.741526 73.134477 
L 241.536468 72.584774 
L 242.33141 72.281153 
L 242.861371 72.228776 
L 243.921293 72.559349 
L 245.246196 73.487888 
L 247.101061 75.483312 
L 249.220906 77.803694 
L 250.015848 78.349909 
L 250.545809 78.416179 
L 251.07577 78.252898 
L 252.400673 77.627186 
L 253.460596 77.390656 
L 254.520518 77.381133 
L 255.58044 77.610173 
L 258.760208 78.665001 
L 259.55515 78.587102 
L 261.145033 78.089114 
L 262.734917 77.657128 
L 264.324801 77.432362 
L 265.649704 77.414102 
L 267.769549 77.654873 
L 270.949316 78.181366 
L 272.5392 78.184807 
L 278.368773 77.71398 
L 279.958657 77.917408 
L 282.078502 78.435144 
L 283.933366 78.850917 
L 284.728308 78.828347 
L 286.848153 78.424225 
L 288.967998 78.130077 
L 290.822862 78.136809 
L 292.942707 78.420607 
L 296.387455 78.948636 
L 298.242319 78.85919 
L 301.157106 78.76206 
L 304.866835 79.044642 
L 307.516641 79.239544 
L 310.166447 79.10977 
L 313.876176 79.151918 
L 318.115866 79.172796 
L 322.090575 79.208545 
L 326.860226 79.183277 
L 332.424819 79.153951 
L 338.519373 79.194653 
L 348.588636 79.223182 
L 373.761795 79.266905 
L 373.761795 79.266905 
" style="fill:none;stroke:#0000ff;stroke-linecap:square;stroke-width:0.8;"/>
   </g>
   <g id="patch_3">
    <path d="M 48.08 123.666667 
L 48.08 26.88 
" style="fill:none;stroke:#000000;stroke-linecap:square;stroke-linejoin:miter;stroke-width:0.8;"/>
   </g>
   <g id="patch_4">
    <path d="M 373.68 123.666667 
L 373.68 26.88 
" style="fill:none;stroke:#000000;stroke-linecap:square;stroke-linejoin:miter;stroke-width:0.8;"/>
   </g>
   <g id="patch_5">
    <path d="M 48.08 123.666667 
L 373.68 123.666667 
" style="fill:none;stroke:#000000;stroke-linecap:square;stroke-linejoin:miter;stroke-width:0.8;"/>
   </g>
   <g id="patch_6">
    <path d="M 48.08 26.88 
L 373.68 26.88 
" style="fill:none;stroke:#000000;stroke-linecap:square;stroke-linejoin:miter;stroke-width:0.8;"/>
   </g>
   <g id="text_13">
    <!-- $yt_{LP}(n)$ -->
    <g transform="translate(191.44 20.88)scale(0.12 -0.12)">
     <defs>
      <path d="M 1588 -325 
Q 1188 -997 936 -1164 
Q 684 -1331 294 -1331 
L -159 -1331 
L -63 -850 
L 269 -850 
Q 509 -850 678 -719 
Q 847 -588 1056 -206 
L 1234 128 
L 459 3500 
L 1069 3500 
L 1650 819 
L 3256 3500 
L 3859 3500 
L 1588 -325 
z
" id="DejaVuSans-Oblique-79" transform="scale(0.015625)"/>
      <path d="M 2706 3500 
L 2619 3053 
L 1472 3053 
L 1100 1153 
Q 1081 1047 1072 975 
Q 1063 903 1063 863 
Q 1063 663 1183 572 
Q 1303 481 1569 481 
L 2150 481 
L 2053 0 
L 1503 0 
Q 991 0 739 200 
Q 488 400 488 806 
Q 488 878 497 964 
Q 506 1050 525 1153 
L 897 3053 
L 409 3053 
L 500 3500 
L 978 3500 
L 1172 4494 
L 1747 4494 
L 1556 3500 
L 2706 3500 
z
" id="DejaVuSans-Oblique-74" transform="scale(0.015625)"/>
      <path d="M 1075 4666 
L 1709 4666 
L 909 525 
L 3181 525 
L 3078 0 
L 172 0 
L 1075 4666 
z
" id="DejaVuSans-Oblique-4c" transform="scale(0.015625)"/>
      <path d="M 1081 4666 
L 2541 4666 
Q 3178 4666 3512 4369 
Q 3847 4072 3847 3500 
Q 3847 2731 3353 2303 
Q 2859 1875 1966 1875 
L 1172 1875 
L 806 0 
L 172 0 
L 1081 4666 
z
M 1613 4147 
L 1275 2394 
L 2069 2394 
Q 2606 2394 2893 2669 
Q 3181 2944 3181 3456 
Q 3181 3784 2986 3965 
Q 2791 4147 2438 4147 
L 1613 4147 
z
" id="DejaVuSans-Oblique-50" transform="scale(0.015625)"/>
      <path d="M 1984 4856 
Q 1566 4138 1362 3434 
Q 1159 2731 1159 2009 
Q 1159 1288 1364 580 
Q 1569 -128 1984 -844 
L 1484 -844 
Q 1016 -109 783 600 
Q 550 1309 550 2009 
Q 550 2706 781 3412 
Q 1013 4119 1484 4856 
L 1984 4856 
z
" id="DejaVuSans-28" transform="scale(0.015625)"/>
      <path d="M 3566 2113 
L 3156 0 
L 2578 0 
L 2988 2091 
Q 3016 2238 3031 2350 
Q 3047 2463 3047 2528 
Q 3047 2791 2881 2937 
Q 2716 3084 2419 3084 
Q 1956 3084 1622 2776 
Q 1288 2469 1184 1941 
L 800 0 
L 225 0 
L 903 3500 
L 1478 3500 
L 1363 2950 
Q 1603 3253 1940 3418 
Q 2278 3584 2650 3584 
Q 3113 3584 3367 3334 
Q 3622 3084 3622 2631 
Q 3622 2519 3608 2391 
Q 3594 2263 3566 2113 
z
" id="DejaVuSans-Oblique-6e" transform="scale(0.015625)"/>
      <path d="M 513 4856 
L 1013 4856 
Q 1481 4119 1714 3412 
Q 1947 2706 1947 2009 
Q 1947 1309 1714 600 
Q 1481 -109 1013 -844 
L 513 -844 
Q 928 -128 1133 580 
Q 1338 1288 1338 2009 
Q 1338 2731 1133 3434 
Q 928 4138 513 4856 
z
" id="DejaVuSans-29" transform="scale(0.015625)"/>
     </defs>
     <use transform="translate(0 0.125)" xlink:href="#DejaVuSans-Oblique-79"/>
     <use transform="translate(59.179688 0.125)" xlink:href="#DejaVuSans-Oblique-74"/>
     <use transform="translate(98.388672 -16.28125)scale(0.7)" xlink:href="#DejaVuSans-Oblique-4c"/>
     <use transform="translate(137.387695 -16.28125)scale(0.7)" xlink:href="#DejaVuSans-Oblique-50"/>
     <use transform="translate(182.333984 0.125)" xlink:href="#DejaVuSans-28"/>
     <use transform="translate(221.347656 0.125)" xlink:href="#DejaVuSans-Oblique-6e"/>
     <use transform="translate(284.726562 0.125)" xlink:href="#DejaVuSans-29"/>
    </g>
   </g>
  </g>
  <g id="axes_2">
   <g id="patch_7">
    <path d="M 48.08 262.973333 
L 373.68 262.973333 
L 373.68 166.186667 
L 48.08 166.186667 
z
" style="fill:#ffffff;"/>
   </g>
   <g id="matplotlib.axis_3">
    <g id="xtick_8">
     <g id="line2d_14">
      <g>
       <use style="stroke:#000000;stroke-width:0.8;" x="48.08" xlink:href="#mfc9553b504" y="262.973333"/>
      </g>
     </g>
     <g id="text_14">
      <!-- 2.70 -->
      <g transform="translate(39.214375 276.774896)scale(0.1 -0.1)">
       <use xlink:href="#Calibri-32"/>
       <use x="50.683594" xlink:href="#Calibri-2e"/>
       <use x="75.927734" xlink:href="#Calibri-37"/>
       <use x="126.611328" xlink:href="#Calibri-30"/>
      </g>
     </g>
    </g>
    <g id="xtick_9">
     <g id="line2d_15">
      <g>
       <use style="stroke:#000000;stroke-width:0.8;" x="102.346667" xlink:href="#mfc9553b504" y="262.973333"/>
      </g>
     </g>
     <g id="text_15">
      <!-- 2.75 -->
      <g transform="translate(93.481042 276.774896)scale(0.1 -0.1)">
       <use xlink:href="#Calibri-32"/>
       <use x="50.683594" xlink:href="#Calibri-2e"/>
       <use x="75.927734" xlink:href="#Calibri-37"/>
       <use x="126.611328" xlink:href="#Calibri-35"/>
      </g>
     </g>
    </g>
    <g id="xtick_10">
     <g id="line2d_16">
      <g>
       <use style="stroke:#000000;stroke-width:0.8;" x="156.613333" xlink:href="#mfc9553b504" y="262.973333"/>
      </g>
     </g>
     <g id="text_16">
      <!-- 2.80 -->
      <g transform="translate(147.747708 276.774896)scale(0.1 -0.1)">
       <use xlink:href="#Calibri-32"/>
       <use x="50.683594" xlink:href="#Calibri-2e"/>
       <use x="75.927734" xlink:href="#Calibri-38"/>
       <use x="126.611328" xlink:href="#Calibri-30"/>
      </g>
     </g>
    </g>
    <g id="xtick_11">
     <g id="line2d_17">
      <g>
       <use style="stroke:#000000;stroke-width:0.8;" x="210.88" xlink:href="#mfc9553b504" y="262.973333"/>
      </g>
     </g>
     <g id="text_17">
      <!-- 2.85 -->
      <g transform="translate(202.014375 276.774896)scale(0.1 -0.1)">
       <use xlink:href="#Calibri-32"/>
       <use x="50.683594" xlink:href="#Calibri-2e"/>
       <use x="75.927734" xlink:href="#Calibri-38"/>
       <use x="126.611328" xlink:href="#Calibri-35"/>
      </g>
     </g>
    </g>
    <g id="xtick_12">
     <g id="line2d_18">
      <g>
       <use style="stroke:#000000;stroke-width:0.8;" x="265.146667" xlink:href="#mfc9553b504" y="262.973333"/>
      </g>
     </g>
     <g id="text_18">
      <!-- 2.90 -->
      <g transform="translate(256.281042 276.774896)scale(0.1 -0.1)">
       <use xlink:href="#Calibri-32"/>
       <use x="50.683594" xlink:href="#Calibri-2e"/>
       <use x="75.927734" xlink:href="#Calibri-39"/>
       <use x="126.611328" xlink:href="#Calibri-30"/>
      </g>
     </g>
    </g>
    <g id="xtick_13">
     <g id="line2d_19">
      <g>
       <use style="stroke:#000000;stroke-width:0.8;" x="319.413333" xlink:href="#mfc9553b504" y="262.973333"/>
      </g>
     </g>
     <g id="text_19">
      <!-- 2.95 -->
      <g transform="translate(310.547708 276.774896)scale(0.1 -0.1)">
       <use xlink:href="#Calibri-32"/>
       <use x="50.683594" xlink:href="#Calibri-2e"/>
       <use x="75.927734" xlink:href="#Calibri-39"/>
       <use x="126.611328" xlink:href="#Calibri-35"/>
      </g>
     </g>
    </g>
    <g id="xtick_14">
     <g id="line2d_20">
      <g>
       <use style="stroke:#000000;stroke-width:0.8;" x="373.68" xlink:href="#mfc9553b504" y="262.973333"/>
      </g>
     </g>
     <g id="text_20">
      <!-- 3.00 -->
      <g transform="translate(364.814375 276.774896)scale(0.1 -0.1)">
       <use xlink:href="#Calibri-33"/>
       <use x="50.683594" xlink:href="#Calibri-2e"/>
       <use x="75.927734" xlink:href="#Calibri-30"/>
       <use x="126.611328" xlink:href="#Calibri-30"/>
      </g>
     </g>
    </g>
   </g>
   <g id="matplotlib.axis_4">
    <g id="ytick_5">
     <g id="line2d_21">
      <g>
       <use style="stroke:#000000;stroke-width:0.8;" x="48.08" xlink:href="#mf379018d06" y="262.625709"/>
      </g>
     </g>
     <g id="text_21">
      <!-- −0.5 -->
      <g transform="translate(23.43625 266.02649)scale(0.1 -0.1)">
       <use xlink:href="#Calibri-2212"/>
       <use x="49.804688" xlink:href="#Calibri-30"/>
       <use x="100.488281" xlink:href="#Calibri-2e"/>
       <use x="125.732422" xlink:href="#Calibri-35"/>
      </g>
     </g>
    </g>
    <g id="ytick_6">
     <g id="line2d_22">
      <g>
       <use style="stroke:#000000;stroke-width:0.8;" x="48.08" xlink:href="#mf379018d06" y="231.652553"/>
      </g>
     </g>
     <g id="text_22">
      <!-- 0.0 -->
      <g transform="translate(28.4175 235.053334)scale(0.1 -0.1)">
       <use xlink:href="#Calibri-30"/>
       <use x="50.683594" xlink:href="#Calibri-2e"/>
       <use x="75.927734" xlink:href="#Calibri-30"/>
      </g>
     </g>
    </g>
    <g id="ytick_7">
     <g id="line2d_23">
      <g>
       <use style="stroke:#000000;stroke-width:0.8;" x="48.08" xlink:href="#mf379018d06" y="200.679397"/>
      </g>
     </g>
     <g id="text_23">
      <!-- 0.5 -->
      <g transform="translate(28.4175 204.080178)scale(0.1 -0.1)">
       <use xlink:href="#Calibri-30"/>
       <use x="50.683594" xlink:href="#Calibri-2e"/>
       <use x="75.927734" xlink:href="#Calibri-35"/>
      </g>
     </g>
    </g>
    <g id="ytick_8">
     <g id="line2d_24">
      <g>
       <use style="stroke:#000000;stroke-width:0.8;" x="48.08" xlink:href="#mf379018d06" y="169.706241"/>
      </g>
     </g>
     <g id="text_24">
      <!-- 1.0 -->
      <g transform="translate(28.4175 173.107022)scale(0.1 -0.1)">
       <use xlink:href="#Calibri-31"/>
       <use x="50.683594" xlink:href="#Calibri-2e"/>
       <use x="75.927734" xlink:href="#Calibri-30"/>
      </g>
     </g>
    </g>
    <g id="text_25">
     <!-- Amplitud -->
     <g transform="translate(17.658125 233.319844)rotate(-90)scale(0.1 -0.1)">
      <use xlink:href="#Calibri-41"/>
      <use x="57.861328" xlink:href="#Calibri-6d"/>
      <use x="137.744141" xlink:href="#Calibri-70"/>
      <use x="190.283203" xlink:href="#Calibri-6c"/>
      <use x="213.232422" xlink:href="#Calibri-69"/>
      <use x="236.181641" xlink:href="#Calibri-74"/>
      <use x="269.677734" xlink:href="#Calibri-75"/>
      <use x="322.216797" xlink:href="#Calibri-64"/>
     </g>
    </g>
   </g>
   <g id="line2d_25">
    <path clip-path="url(#p1eb1d6395d)" d="M 47.835638 230.231561 
L 48.63058 231.827937 
L 49.690503 234.039984 
L 50.220464 234.724789 
L 50.485445 234.891285 
L 50.750425 234.922061 
L 51.015406 234.807235 
L 51.545367 234.119438 
L 52.075328 232.845774 
L 53.665212 227.986992 
L 54.195173 227.297738 
L 54.460154 227.279391 
L 54.725134 227.477831 
L 55.255096 228.428798 
L 56.050038 230.65498 
L 57.904902 236.049236 
L 58.434863 237.096799 
L 58.699844 237.339857 
L 58.964824 237.305111 
L 59.229805 236.931705 
L 59.494786 236.182507 
L 60.024747 233.608794 
L 61.34965 225.688663 
L 61.61463 224.920835 
L 61.879611 224.647044 
L 62.144592 224.885938 
L 62.409572 225.606265 
L 62.939533 228.099625 
L 63.734475 232.037967 
L 63.999456 232.798061 
L 64.264437 233.193759 
L 64.529417 233.290667 
L 65.324359 233.053887 
L 65.58934 233.189667 
L 65.85432 233.543983 
L 66.384281 234.930959 
L 67.444204 238.394581 
L 67.709185 238.421193 
L 67.974165 237.723856 
L 68.239146 236.246461 
L 68.769107 231.467633 
L 69.564049 224.030576 
L 69.829029 222.510818 
L 70.09401 221.659185 
L 70.358991 221.487445 
L 70.623971 221.989702 
L 70.888952 223.156097 
L 71.418913 227.295462 
L 72.478836 237.409562 
L 72.743816 238.732084 
L 73.008797 239.261314 
L 73.273777 239.068543 
L 73.538758 238.326608 
L 75.128642 232.30892 
L 75.658603 231.627015 
L 76.718525 231.081486 
L 77.248487 229.97374 
L 78.308409 226.877538 
L 78.57339 226.523109 
L 78.83837 226.500606 
L 79.103351 226.833392 
L 79.633312 228.476582 
L 81.488177 236.394848 
L 81.753157 236.832067 
L 82.018138 237.012508 
L 82.283118 236.949671 
L 82.548099 236.664583 
L 83.07806 235.525992 
L 83.873002 232.771303 
L 85.197905 227.66972 
L 85.727866 226.594913 
L 85.992847 226.43934 
L 86.257828 226.560358 
L 86.522808 226.951429 
L 87.052769 228.420626 
L 88.642653 234.20307 
L 89.172614 235.256898 
L 89.437595 235.521182 
L 89.702576 235.615063 
L 89.967556 235.549238 
L 90.497517 234.991876 
L 91.027479 233.961201 
L 92.087401 231.086765 
L 92.882343 229.110875 
L 93.412304 228.368328 
L 93.677285 228.245343 
L 93.942265 228.298891 
L 94.207246 228.521769 
L 94.737207 229.39985 
L 95.79713 232.088001 
L 96.592072 233.793129 
L 97.122033 234.321433 
L 97.387013 234.369355 
L 97.651994 234.273786 
L 98.181955 233.682261 
L 98.976897 232.090875 
L 99.771839 230.457127 
L 100.3018 229.799474 
L 100.566781 229.66454 
L 100.831761 229.662978 
L 101.361723 230.003379 
L 102.156664 231.040447 
L 103.216587 232.54697 
L 103.746548 232.984013 
L 104.276509 233.108516 
L 104.806471 232.948057 
L 105.336432 232.524874 
L 107.456277 230.224192 
L 107.986238 230.186598 
L 108.516199 230.513713 
L 109.311141 231.404869 
L 110.636044 233.061683 
L 111.166005 233.290525 
L 111.695967 233.104282 
L 112.225928 232.605452 
L 114.080792 230.299517 
L 114.610753 230.21581 
L 115.140715 230.487648 
L 116.465618 231.665132 
L 117.26056 232.356498 
L 117.790521 232.598204 
L 118.585463 232.653651 
L 119.115424 232.531516 
L 119.645385 232.209754 
L 121.235269 230.916081 
L 122.030211 230.660504 
L 122.560172 230.73118 
L 123.090133 231.0325 
L 124.944997 232.529941 
L 125.474959 232.621303 
L 126.00492 232.493705 
L 126.799862 231.96733 
L 128.124765 230.952666 
L 128.654726 230.771072 
L 129.184687 230.801897 
L 129.979629 231.185604 
L 131.834493 232.378024 
L 132.629435 232.538879 
L 133.159396 232.456264 
L 133.954338 232.046327 
L 136.074183 230.507045 
L 136.604144 230.526356 
L 137.134106 230.78949 
L 137.929047 231.533525 
L 138.98897 232.61513 
L 139.518931 232.926085 
L 140.048892 232.987486 
L 140.578854 232.781849 
L 141.373795 232.083219 
L 142.963679 230.473001 
L 143.49364 230.205395 
L 144.023602 230.217553 
L 144.553563 230.502741 
L 145.348505 231.28342 
L 147.203369 233.419954 
L 147.73333 233.649594 
L 148.263291 233.489668 
L 148.793253 232.867022 
L 149.588195 231.247357 
L 150.383136 229.582964 
L 150.913098 228.97432 
L 151.178078 228.910623 
L 151.443059 229.020824 
L 151.97302 229.716875 
L 152.767962 231.513523 
L 153.562904 233.221681 
L 154.092865 233.846641 
L 154.622826 234.018234 
L 155.152787 233.847062 
L 155.682749 233.434357 
L 156.477691 232.504513 
L 157.272632 231.195496 
L 158.332555 229.239785 
L 158.862516 228.630985 
L 159.127497 228.509171 
L 159.392477 228.545064 
L 159.657458 228.755658 
L 160.187419 229.665832 
L 161.247342 232.459717 
L 162.042283 234.431643 
L 162.572245 235.184431 
L 162.837225 235.341655 
L 163.102206 235.366666 
L 163.367187 235.263811 
L 163.632167 235.020422 
L 164.162128 234.045228 
L 164.95707 231.675938 
L 166.016993 228.534572 
L 166.546954 227.586645 
L 166.811935 227.437441 
L 167.076915 227.505062 
L 167.606876 228.100912 
L 168.136838 229.114184 
L 168.931779 231.335713 
L 169.991702 234.143734 
L 170.786644 235.95844 
L 171.051624 236.252205 
L 171.316605 236.291211 
L 171.581586 236.095796 
L 172.111547 235.157864 
L 172.641508 233.478593 
L 173.70143 229.312847 
L 174.231392 228.475456 
L 174.761353 228.315128 
L 175.026334 228.42306 
L 176.086256 229.305089 
L 176.351237 229.071093 
L 176.881198 228.28811 
L 177.146178 228.181431 
L 177.411159 228.439356 
L 177.94112 229.856803 
L 178.471082 232.324797 
L 179.001043 236.447218 
L 179.531004 240.901692 
L 179.795985 242.109876 
L 180.060965 242.183418 
L 180.325946 241.123955 
L 180.855907 236.601926 
L 181.91583 225.84744 
L 182.18081 224.353399 
L 182.445791 223.597319 
L 182.710771 223.344554 
L 183.240733 223.227828 
L 183.505713 223.459455 
L 183.770694 224.512151 
L 184.035674 226.894963 
L 185.095597 241.868763 
L 185.360578 242.307591 
L 185.625558 240.652983 
L 186.950461 224.81321 
L 187.215442 223.578414 
L 187.480422 223.360791 
L 187.745403 223.946595 
L 188.540345 227.35804 
L 188.805326 229.373199 
L 189.070306 232.803681 
L 190.130229 251.694161 
L 190.395209 250.50419 
L 190.92517 239.311176 
L 191.455132 228.318807 
L 191.985093 223.923738 
L 192.780035 219.638223 
L 193.045015 219.007981 
L 193.309996 219.312287 
L 194.369918 222.592338 
L 194.634899 225.203274 
L 195.16486 236.979583 
L 195.694822 249.249025 
L 195.959802 250.882598 
L 196.224783 248.763286 
L 197.284705 230.433994 
L 197.814666 226.803011 
L 198.344628 225.076454 
L 198.609608 224.933026 
L 198.874589 225.420358 
L 199.13957 226.559152 
L 199.40455 228.39694 
L 199.934511 234.601841 
L 200.464473 242.330404 
L 200.729453 244.317715 
L 200.994434 243.584676 
L 201.259414 239.958129 
L 202.054356 223.851854 
L 202.319337 221.315044 
L 202.584317 220.645243 
L 203.64424 222.160999 
L 203.909221 222.928515 
L 204.439182 226.312251 
L 205.234124 233.920205 
L 206.294046 246.827706 
L 206.559027 247.797875 
L 206.824007 247.025759 
L 207.353969 241.990699 
L 208.678872 228.14286 
L 209.208833 223.946194 
L 209.738794 221.752088 
L 210.268755 220.776411 
L 210.533736 220.603779 
L 210.798717 220.779115 
L 211.063697 221.397718 
L 211.593658 223.793105 
L 212.3886 228.930053 
L 212.918561 233.692786 
L 213.713503 243.508116 
L 214.243465 250.123762 
L 214.508445 251.993814 
L 214.773426 251.977081 
L 215.038406 249.692695 
L 215.568368 239.691428 
L 216.098329 228.817391 
L 216.62829 222.41825 
L 217.158251 219.018765 
L 217.688213 216.774816 
L 217.953193 216.429012 
L 218.218174 216.737548 
L 218.748135 218.682724 
L 219.278096 221.977917 
L 219.808057 228.710498 
L 220.86798 247.845961 
L 221.132961 249.842772 
L 221.397941 250.016149 
L 221.662922 248.661366 
L 222.192883 243.280143 
L 223.252805 231.707759 
L 223.782767 227.80452 
L 224.312728 225.190281 
L 224.842689 223.766401 
L 225.10767 223.500685 
L 225.37265 223.493819 
L 225.637631 223.691565 
L 226.167592 224.53866 
L 226.697553 225.947862 
L 227.492495 228.955206 
L 228.552418 233.906196 
L 230.142301 242.628106 
L 230.407282 243.177699 
L 230.672263 242.933062 
L 230.937243 241.73993 
L 231.467205 236.67371 
L 232.527127 224.042964 
L 233.057088 220.910465 
L 233.322069 220.430876 
L 233.587049 220.613936 
L 233.85203 221.387533 
L 234.381991 224.358018 
L 236.236856 237.580208 
L 236.501836 238.36974 
L 236.766817 238.743168 
L 237.031797 238.730882 
L 237.296778 238.378245 
L 237.826739 236.856741 
L 238.621681 233.339117 
L 239.416623 229.759674 
L 239.946584 228.104773 
L 240.211565 227.62587 
L 240.476545 227.407237 
L 240.741526 227.447496 
L 241.006507 227.726527 
L 241.536468 228.842238 
L 242.861371 232.341392 
L 243.391332 233.093162 
L 243.921293 233.353777 
L 244.451255 233.287774 
L 245.246196 232.905092 
L 246.5711 231.965173 
L 248.160983 230.78026 
L 248.690944 230.600109 
L 249.220906 230.634657 
L 250.015848 231.041438 
L 251.870712 232.27493 
L 252.665654 232.394126 
L 253.460596 232.230517 
L 254.520518 231.719485 
L 255.58044 231.227811 
L 256.375382 231.108271 
L 257.170324 231.22532 
L 260.350092 232.058648 
L 261.410014 231.89026 
L 263.79484 231.347634 
L 264.854762 231.404327 
L 267.769549 231.85986 
L 269.359432 231.756719 
L 272.009239 231.513831 
L 274.129083 231.631995 
L 276.513909 231.754467 
L 279.163715 231.6206 
L 281.28356 231.585248 
L 286.053211 231.674339 
L 290.292901 231.644388 
L 294.532591 231.65373 
L 300.097184 231.668185 
L 319.175788 231.638892 
L 323.945439 231.67863 
L 373.761795 231.655187 
L 373.761795 231.655187 
" style="fill:none;stroke:#000000;stroke-linecap:square;stroke-width:0.8;"/>
   </g>
   <g id="line2d_26">
    <path clip-path="url(#p1eb1d6395d)" d="M 47.835638 230.538758 
L 51.810348 229.914613 
L 53.135251 229.336112 
L 56.315018 227.589608 
L 58.699844 226.116206 
L 60.289727 224.837604 
L 62.939533 222.302659 
L 65.85432 219.619409 
L 67.709185 218.252682 
L 69.034088 217.541228 
L 70.09401 217.201327 
L 71.153933 217.12719 
L 71.948874 217.276645 
L 72.743816 217.616033 
L 73.803739 218.366472 
L 74.863661 219.426008 
L 76.188564 221.102302 
L 78.043429 223.930433 
L 81.753157 229.592301 
L 82.548099 230.518855 
L 83.07806 230.824153 
L 83.343041 230.799482 
L 83.873002 230.46105 
L 86.257828 228.648155 
L 87.31775 228.229896 
L 88.112692 228.114967 
L 89.172614 228.171868 
L 90.232537 228.450067 
L 91.822421 229.166299 
L 95.002188 230.812206 
L 95.79713 231.05116 
L 96.592072 231.006991 
L 99.241878 230.16809 
L 100.3018 229.886439 
L 102.156664 229.749601 
L 102.951606 229.744067 
L 106.661335 230.501018 
L 109.04616 231.127594 
L 110.106083 231.273325 
L 110.636044 231.26592 
L 113.550831 230.57869 
L 114.080792 230.441012 
L 115.140715 230.27815 
L 117.790521 230.100862 
L 120.175346 230.168459 
L 126.2699 230.762896 
L 127.859784 230.53112 
L 133.689358 229.512898 
L 135.279241 229.504363 
L 136.604144 229.635388 
L 138.723989 230.040355 
L 141.108815 230.427672 
L 142.168737 230.351839 
L 143.22866 230.104617 
L 144.288582 229.613459 
L 146.143447 228.60739 
L 148.793253 227.301898 
L 150.383136 226.809773 
L 151.708039 226.640226 
L 153.297923 226.705787 
L 154.622826 226.942861 
L 156.21271 227.41928 
L 157.802594 228.156841 
L 159.392477 229.14193 
L 161.777303 230.846817 
L 162.307264 230.946586 
L 162.837225 230.760366 
L 165.752012 229.251592 
L 167.076915 228.992295 
L 169.461741 228.658556 
L 170.786644 228.140159 
L 172.641508 227.105866 
L 173.966411 226.139803 
L 174.761353 225.306823 
L 175.556295 224.173847 
L 176.351237 222.696749 
L 177.411159 220.226895 
L 179.001043 215.8207 
L 181.385868 209.21188 
L 182.710771 206.165679 
L 184.035674 203.656257 
L 186.685481 198.950624 
L 187.745403 196.482053 
L 189.070306 192.686116 
L 191.985093 183.76543 
L 192.780035 181.996134 
L 193.574977 180.799077 
L 194.104938 180.370054 
L 194.634899 180.25748 
L 195.16486 180.465163 
L 195.694822 180.974518 
L 196.489763 182.252089 
L 197.284705 184.017386 
L 198.874589 188.330869 
L 200.199492 191.6789 
L 201.259414 193.702178 
L 202.319337 195.144174 
L 204.439182 197.657322 
L 205.499104 199.433672 
L 206.824007 202.224326 
L 208.14891 204.924919 
L 208.943852 205.991869 
L 209.473813 206.311926 
L 210.003775 206.262832 
L 210.533736 205.867955 
L 211.328678 204.733792 
L 212.3886 202.604009 
L 214.243465 198.713593 
L 215.303387 197.045243 
L 216.098329 196.205144 
L 216.62829 195.86813 
L 217.158251 195.726495 
L 217.688213 195.798589 
L 218.218174 196.08336 
L 218.748135 196.585412 
L 219.543077 197.790194 
L 220.338019 199.497407 
L 221.397941 202.45644 
L 224.047747 210.651135 
L 224.577709 211.719519 
L 225.10767 212.371813 
L 225.637631 212.563601 
L 226.167592 212.348582 
L 226.697553 211.80402 
L 229.34736 208.283254 
L 229.877321 208.091313 
L 230.407282 208.167725 
L 230.937243 208.553853 
L 231.467205 209.240474 
L 231.997166 210.194955 
L 232.792108 212.154353 
L 234.117011 216.358169 
L 236.766817 225.376243 
L 237.296778 226.513284 
L 237.826739 227.09424 
L 238.3567 227.017029 
L 238.886662 226.439917 
L 241.271487 223.295401 
L 242.33141 222.757219 
L 242.861371 222.690575 
L 243.656313 222.935611 
L 244.451255 223.503745 
L 246.041138 225.318511 
L 248.425964 228.708518 
L 249.485886 230.068655 
L 250.015848 230.479181 
L 250.545809 230.563504 
L 251.07577 230.355743 
L 252.400673 229.55958 
L 253.460596 229.258617 
L 254.520518 229.246498 
L 255.58044 229.537933 
L 258.760208 230.880108 
L 259.55515 230.78099 
L 260.615072 230.374959 
L 261.939975 229.847635 
L 263.264878 229.484307 
L 264.854762 229.276711 
L 266.179665 229.336622 
L 268.29951 229.709571 
L 270.949316 230.264726 
L 272.274219 230.286131 
L 273.599122 230.115787 
L 276.513909 229.668044 
L 277.838812 229.643329 
L 278.898735 229.719662 
L 280.753599 230.146856 
L 284.198347 231.133372 
L 285.258269 230.981964 
L 288.703017 230.226732 
L 290.292901 230.172509 
L 291.882785 230.357315 
L 293.737649 230.758177 
L 296.122475 231.218937 
L 297.182397 231.230649 
L 300.362164 231.002818 
L 302.74699 231.108135 
L 308.046602 231.559754 
L 310.961389 231.436151 
L 328.71509 231.492373 
L 333.219761 231.521968 
L 339.049334 231.549915 
L 344.613927 231.577815 
L 358.127938 231.627355 
L 373.761795 231.645979 
L 373.761795 231.645979 
" style="fill:none;stroke:#0000ff;stroke-dasharray:2.96,1.28;stroke-dashoffset:0;stroke-width:0.8;"/>
   </g>
   <g id="patch_8">
    <path d="M 48.08 262.973333 
L 48.08 166.186667 
" style="fill:none;stroke:#000000;stroke-linecap:square;stroke-linejoin:miter;stroke-width:0.8;"/>
   </g>
   <g id="patch_9">
    <path d="M 373.68 262.973333 
L 373.68 166.186667 
" style="fill:none;stroke:#000000;stroke-linecap:square;stroke-linejoin:miter;stroke-width:0.8;"/>
   </g>
   <g id="patch_10">
    <path d="M 48.08 262.973333 
L 373.68 262.973333 
" style="fill:none;stroke:#000000;stroke-linecap:square;stroke-linejoin:miter;stroke-width:0.8;"/>
   </g>
   <g id="patch_11">
    <path d="M 48.08 166.186667 
L 373.68 166.186667 
" style="fill:none;stroke:#000000;stroke-linecap:square;stroke-linejoin:miter;stroke-width:0.8;"/>
   </g>
   <g id="text_26">
    <!-- $yt_{LP+NLD}(n)$ -->
    <g transform="translate(177.58 160.186667)scale(0.12 -0.12)">
     <defs>
      <path d="M 2944 4013 
L 2944 2272 
L 4684 2272 
L 4684 1741 
L 2944 1741 
L 2944 0 
L 2419 0 
L 2419 1741 
L 678 1741 
L 678 2272 
L 2419 2272 
L 2419 4013 
L 2944 4013 
z
" id="DejaVuSans-2b" transform="scale(0.015625)"/>
      <path d="M 1081 4666 
L 1931 4666 
L 3219 666 
L 4000 4666 
L 4616 4666 
L 3706 0 
L 2853 0 
L 1569 4025 
L 788 0 
L 172 0 
L 1081 4666 
z
" id="DejaVuSans-Oblique-4e" transform="scale(0.015625)"/>
      <path d="M 1081 4666 
L 2438 4666 
Q 3519 4666 4070 4208 
Q 4622 3750 4622 2847 
Q 4622 2250 4412 1698 
Q 4203 1147 3834 769 
Q 3463 381 2891 190 
Q 2319 0 1538 0 
L 172 0 
L 1081 4666 
z
M 1613 4147 
L 909 519 
L 1734 519 
Q 2794 519 3375 1128 
Q 3956 1738 3956 2847 
Q 3956 3519 3581 3833 
Q 3206 4147 2406 4147 
L 1613 4147 
z
" id="DejaVuSans-Oblique-44" transform="scale(0.015625)"/>
     </defs>
     <use transform="translate(0 0.125)" xlink:href="#DejaVuSans-Oblique-79"/>
     <use transform="translate(59.179688 0.125)" xlink:href="#DejaVuSans-Oblique-74"/>
     <use transform="translate(98.388672 -16.28125)scale(0.7)" xlink:href="#DejaVuSans-Oblique-4c"/>
     <use transform="translate(137.387695 -16.28125)scale(0.7)" xlink:href="#DejaVuSans-Oblique-50"/>
     <use transform="translate(193.237305 -16.28125)scale(0.7)" xlink:href="#DejaVuSans-2b"/>
     <use transform="translate(265.527344 -16.28125)scale(0.7)" xlink:href="#DejaVuSans-Oblique-4e"/>
     <use transform="translate(317.890625 -16.28125)scale(0.7)" xlink:href="#DejaVuSans-Oblique-4c"/>
     <use transform="translate(356.889648 -16.28125)scale(0.7)" xlink:href="#DejaVuSans-Oblique-44"/>
     <use transform="translate(413.525391 0.125)" xlink:href="#DejaVuSans-28"/>
     <use transform="translate(452.539062 0.125)" xlink:href="#DejaVuSans-Oblique-6e"/>
     <use transform="translate(515.917969 0.125)" xlink:href="#DejaVuSans-29"/>
    </g>
   </g>
  </g>
  <g id="axes_3">
   <g id="patch_12">
    <path d="M 48.08 402.28 
L 373.68 402.28 
L 373.68 305.493333 
L 48.08 305.493333 
z
" style="fill:#ffffff;"/>
   </g>
   <g id="matplotlib.axis_5">
    <g id="xtick_15">
     <g id="line2d_27">
      <g>
       <use style="stroke:#000000;stroke-width:0.8;" x="48.08" xlink:href="#mfc9553b504" y="402.28"/>
      </g>
     </g>
     <g id="text_27">
      <!-- 2.70 -->
      <g transform="translate(39.214375 416.081563)scale(0.1 -0.1)">
       <use xlink:href="#Calibri-32"/>
       <use x="50.683594" xlink:href="#Calibri-2e"/>
       <use x="75.927734" xlink:href="#Calibri-37"/>
       <use x="126.611328" xlink:href="#Calibri-30"/>
      </g>
     </g>
    </g>
    <g id="xtick_16">
     <g id="line2d_28">
      <g>
       <use style="stroke:#000000;stroke-width:0.8;" x="102.346667" xlink:href="#mfc9553b504" y="402.28"/>
      </g>
     </g>
     <g id="text_28">
      <!-- 2.75 -->
      <g transform="translate(93.481042 416.081563)scale(0.1 -0.1)">
       <use xlink:href="#Calibri-32"/>
       <use x="50.683594" xlink:href="#Calibri-2e"/>
       <use x="75.927734" xlink:href="#Calibri-37"/>
       <use x="126.611328" xlink:href="#Calibri-35"/>
      </g>
     </g>
    </g>
    <g id="xtick_17">
     <g id="line2d_29">
      <g>
       <use style="stroke:#000000;stroke-width:0.8;" x="156.613333" xlink:href="#mfc9553b504" y="402.28"/>
      </g>
     </g>
     <g id="text_29">
      <!-- 2.80 -->
      <g transform="translate(147.747708 416.081563)scale(0.1 -0.1)">
       <use xlink:href="#Calibri-32"/>
       <use x="50.683594" xlink:href="#Calibri-2e"/>
       <use x="75.927734" xlink:href="#Calibri-38"/>
       <use x="126.611328" xlink:href="#Calibri-30"/>
      </g>
     </g>
    </g>
    <g id="xtick_18">
     <g id="line2d_30">
      <g>
       <use style="stroke:#000000;stroke-width:0.8;" x="210.88" xlink:href="#mfc9553b504" y="402.28"/>
      </g>
     </g>
     <g id="text_30">
      <!-- 2.85 -->
      <g transform="translate(202.014375 416.081563)scale(0.1 -0.1)">
       <use xlink:href="#Calibri-32"/>
       <use x="50.683594" xlink:href="#Calibri-2e"/>
       <use x="75.927734" xlink:href="#Calibri-38"/>
       <use x="126.611328" xlink:href="#Calibri-35"/>
      </g>
     </g>
    </g>
    <g id="xtick_19">
     <g id="line2d_31">
      <g>
       <use style="stroke:#000000;stroke-width:0.8;" x="265.146667" xlink:href="#mfc9553b504" y="402.28"/>
      </g>
     </g>
     <g id="text_31">
      <!-- 2.90 -->
      <g transform="translate(256.281042 416.081563)scale(0.1 -0.1)">
       <use xlink:href="#Calibri-32"/>
       <use x="50.683594" xlink:href="#Calibri-2e"/>
       <use x="75.927734" xlink:href="#Calibri-39"/>
       <use x="126.611328" xlink:href="#Calibri-30"/>
      </g>
     </g>
    </g>
    <g id="xtick_20">
     <g id="line2d_32">
      <g>
       <use style="stroke:#000000;stroke-width:0.8;" x="319.413333" xlink:href="#mfc9553b504" y="402.28"/>
      </g>
     </g>
     <g id="text_32">
      <!-- 2.95 -->
      <g transform="translate(310.547708 416.081563)scale(0.1 -0.1)">
       <use xlink:href="#Calibri-32"/>
       <use x="50.683594" xlink:href="#Calibri-2e"/>
       <use x="75.927734" xlink:href="#Calibri-39"/>
       <use x="126.611328" xlink:href="#Calibri-35"/>
      </g>
     </g>
    </g>
    <g id="xtick_21">
     <g id="line2d_33">
      <g>
       <use style="stroke:#000000;stroke-width:0.8;" x="373.68" xlink:href="#mfc9553b504" y="402.28"/>
      </g>
     </g>
     <g id="text_33">
      <!-- 3.00 -->
      <g transform="translate(364.814375 416.081563)scale(0.1 -0.1)">
       <use xlink:href="#Calibri-33"/>
       <use x="50.683594" xlink:href="#Calibri-2e"/>
       <use x="75.927734" xlink:href="#Calibri-30"/>
       <use x="126.611328" xlink:href="#Calibri-30"/>
      </g>
     </g>
    </g>
    <g id="text_34">
     <!-- Tiempo [s] -->
     <g transform="translate(189.396406 428.690938)scale(0.1 -0.1)">
      <defs>
       <path d="M 3072 3813 
Q 3072 3753 3065 3709 
Q 3059 3666 3045 3639 
Q 3031 3613 3011 3600 
Q 2991 3588 2966 3588 
L 1828 3588 
L 1828 81 
Q 1828 56 1815 37 
Q 1803 19 1772 8 
Q 1741 -3 1689 -11 
Q 1638 -19 1559 -19 
Q 1484 -19 1431 -11 
Q 1378 -3 1347 8 
Q 1316 19 1303 37 
Q 1291 56 1291 81 
L 1291 3588 
L 153 3588 
Q 128 3588 108 3600 
Q 88 3613 75 3639 
Q 63 3666 55 3709 
Q 47 3753 47 3813 
Q 47 3872 55 3917 
Q 63 3963 75 3991 
Q 88 4019 108 4031 
Q 128 4044 153 4044 
L 2966 4044 
Q 2991 4044 3011 4031 
Q 3031 4019 3045 3991 
Q 3059 3963 3065 3917 
Q 3072 3872 3072 3813 
z
" id="Calibri-54" transform="scale(0.015625)"/>
       <path d="M 2878 1606 
Q 2878 1484 2817 1432 
Q 2756 1381 2678 1381 
L 834 1381 
Q 834 1147 881 959 
Q 928 772 1037 637 
Q 1147 503 1322 431 
Q 1497 359 1750 359 
Q 1950 359 2106 392 
Q 2263 425 2377 465 
Q 2491 506 2564 539 
Q 2638 572 2675 572 
Q 2697 572 2714 561 
Q 2731 550 2740 528 
Q 2750 506 2754 467 
Q 2759 428 2759 372 
Q 2759 331 2756 301 
Q 2753 272 2748 248 
Q 2744 225 2733 206 
Q 2722 188 2705 170 
Q 2688 153 2603 114 
Q 2519 75 2384 37 
Q 2250 0 2073 -29 
Q 1897 -59 1697 -59 
Q 1350 -59 1089 37 
Q 828 134 650 325 
Q 472 516 381 803 
Q 291 1091 291 1472 
Q 291 1834 384 2123 
Q 478 2413 654 2614 
Q 831 2816 1081 2923 
Q 1331 3031 1641 3031 
Q 1972 3031 2205 2925 
Q 2438 2819 2588 2639 
Q 2738 2459 2808 2217 
Q 2878 1975 2878 1700 
L 2878 1606 
z
M 2359 1759 
Q 2369 2166 2180 2397 
Q 1991 2628 1619 2628 
Q 1428 2628 1284 2556 
Q 1141 2484 1044 2365 
Q 947 2247 894 2089 
Q 841 1931 834 1759 
L 2359 1759 
z
" id="Calibri-65" transform="scale(0.015625)"/>
       <path d="M 3094 1516 
Q 3094 1172 3003 883 
Q 2913 594 2733 384 
Q 2553 175 2283 58 
Q 2013 -59 1656 -59 
Q 1309 -59 1051 44 
Q 794 147 622 344 
Q 450 541 365 822 
Q 281 1103 281 1459 
Q 281 1803 370 2092 
Q 459 2381 639 2590 
Q 819 2800 1087 2915 
Q 1356 3031 1716 3031 
Q 2063 3031 2320 2928 
Q 2578 2825 2750 2628 
Q 2922 2431 3008 2150 
Q 3094 1869 3094 1516 
z
M 2550 1481 
Q 2550 1709 2508 1912 
Q 2466 2116 2369 2269 
Q 2272 2422 2106 2511 
Q 1941 2600 1694 2600 
Q 1466 2600 1302 2519 
Q 1138 2438 1031 2289 
Q 925 2141 873 1937 
Q 822 1734 822 1494 
Q 822 1263 864 1059 
Q 906 856 1004 704 
Q 1103 553 1268 464 
Q 1434 375 1681 375 
Q 1906 375 2072 456 
Q 2238 538 2344 684 
Q 2450 831 2500 1034 
Q 2550 1238 2550 1481 
z
" id="Calibri-6f" transform="scale(0.015625)"/>
       <path id="Calibri-20" transform="scale(0.015625)"/>
       <path d="M 1684 -813 
Q 1684 -916 1661 -958 
Q 1638 -1000 1594 -1000 
L 794 -1000 
Q 756 -1000 722 -989 
Q 688 -978 659 -953 
Q 631 -928 614 -886 
Q 597 -844 597 -781 
L 597 4153 
Q 597 4213 614 4255 
Q 631 4297 659 4323 
Q 688 4350 722 4361 
Q 756 4372 794 4372 
L 1594 4372 
Q 1613 4372 1630 4362 
Q 1647 4353 1659 4328 
Q 1672 4303 1678 4267 
Q 1684 4231 1684 4178 
Q 1684 4078 1661 4034 
Q 1638 3991 1594 3991 
L 1084 3991 
L 1084 -622 
L 1594 -622 
Q 1613 -622 1630 -631 
Q 1647 -641 1659 -664 
Q 1672 -688 1678 -723 
Q 1684 -759 1684 -813 
z
" id="Calibri-5b" transform="scale(0.015625)"/>
       <path d="M 2244 844 
Q 2244 628 2164 459 
Q 2084 291 1937 175 
Q 1791 59 1587 0 
Q 1384 -59 1141 -59 
Q 991 -59 855 -36 
Q 719 -13 611 23 
Q 503 59 428 98 
Q 353 138 318 169 
Q 284 200 268 256 
Q 253 313 253 409 
Q 253 469 259 509 
Q 266 550 275 575 
Q 284 600 301 611 
Q 319 622 341 622 
Q 375 622 442 580 
Q 509 538 607 488 
Q 706 438 840 395 
Q 975 353 1150 353 
Q 1281 353 1387 381 
Q 1494 409 1572 464 
Q 1650 519 1692 603 
Q 1734 688 1734 803 
Q 1734 922 1673 1003 
Q 1613 1084 1513 1146 
Q 1413 1209 1288 1257 
Q 1163 1306 1030 1359 
Q 897 1413 770 1480 
Q 644 1547 544 1644 
Q 444 1741 383 1875 
Q 322 2009 322 2197 
Q 322 2363 386 2514 
Q 450 2666 578 2780 
Q 706 2894 898 2962 
Q 1091 3031 1347 3031 
Q 1459 3031 1571 3012 
Q 1684 2994 1775 2966 
Q 1866 2938 1930 2905 
Q 1994 2872 2026 2847 
Q 2059 2822 2070 2803 
Q 2081 2784 2086 2761 
Q 2091 2738 2095 2703 
Q 2100 2669 2100 2619 
Q 2100 2566 2095 2527 
Q 2091 2488 2080 2463 
Q 2069 2438 2053 2427 
Q 2038 2416 2019 2416 
Q 1991 2416 1937 2450 
Q 1884 2484 1800 2523 
Q 1716 2563 1602 2597 
Q 1488 2631 1341 2631 
Q 1209 2631 1109 2601 
Q 1009 2572 945 2517 
Q 881 2463 848 2388 
Q 816 2313 816 2225 
Q 816 2103 878 2020 
Q 941 1938 1041 1875 
Q 1141 1813 1269 1763 
Q 1397 1713 1530 1659 
Q 1663 1606 1792 1540 
Q 1922 1475 2022 1381 
Q 2122 1288 2183 1156 
Q 2244 1025 2244 844 
z
" id="Calibri-73" transform="scale(0.015625)"/>
       <path d="M 1369 -781 
Q 1369 -844 1351 -886 
Q 1334 -928 1306 -953 
Q 1278 -978 1242 -989 
Q 1206 -1000 1169 -1000 
L 372 -1000 
Q 328 -1000 304 -958 
Q 281 -916 281 -813 
Q 281 -759 286 -723 
Q 291 -688 303 -664 
Q 316 -641 333 -631 
Q 350 -622 372 -622 
L 881 -622 
L 881 3991 
L 372 3991 
Q 328 3991 304 4034 
Q 281 4078 281 4178 
Q 281 4231 286 4267 
Q 291 4303 303 4328 
Q 316 4353 333 4362 
Q 350 4372 372 4372 
L 1169 4372 
Q 1206 4372 1242 4361 
Q 1278 4350 1306 4323 
Q 1334 4297 1351 4255 
Q 1369 4213 1369 4153 
L 1369 -781 
z
" id="Calibri-5d" transform="scale(0.015625)"/>
      </defs>
      <use xlink:href="#Calibri-54"/>
      <use x="48.730469" xlink:href="#Calibri-69"/>
      <use x="71.679688" xlink:href="#Calibri-65"/>
      <use x="121.435547" xlink:href="#Calibri-6d"/>
      <use x="201.318359" xlink:href="#Calibri-70"/>
      <use x="253.857422" xlink:href="#Calibri-6f"/>
      <use x="306.591797" xlink:href="#Calibri-20"/>
      <use x="329.199219" xlink:href="#Calibri-5b"/>
      <use x="359.863281" xlink:href="#Calibri-73"/>
      <use x="398.974609" xlink:href="#Calibri-5d"/>
     </g>
    </g>
   </g>
   <g id="matplotlib.axis_6">
    <g id="ytick_9">
     <g id="line2d_34">
      <g>
       <use style="stroke:#000000;stroke-width:0.8;" x="48.08" xlink:href="#mf379018d06" y="399.637308"/>
      </g>
     </g>
     <g id="text_35">
      <!-- −1 -->
      <g transform="translate(31.03 403.038089)scale(0.1 -0.1)">
       <use xlink:href="#Calibri-2212"/>
       <use x="49.804688" xlink:href="#Calibri-31"/>
      </g>
     </g>
    </g>
    <g id="ytick_10">
     <g id="line2d_35">
      <g>
       <use style="stroke:#000000;stroke-width:0.8;" x="48.08" xlink:href="#mf379018d06" y="354.444079"/>
      </g>
     </g>
     <g id="text_36">
      <!-- 0 -->
      <g transform="translate(36.01125 357.844861)scale(0.1 -0.1)">
       <use xlink:href="#Calibri-30"/>
      </g>
     </g>
    </g>
    <g id="ytick_11">
     <g id="line2d_36">
      <g>
       <use style="stroke:#000000;stroke-width:0.8;" x="48.08" xlink:href="#mf379018d06" y="309.25085"/>
      </g>
     </g>
     <g id="text_37">
      <!-- 1 -->
      <g transform="translate(36.01125 312.651632)scale(0.1 -0.1)">
       <use xlink:href="#Calibri-31"/>
      </g>
     </g>
    </g>
    <g id="text_38">
     <!-- Amplitud -->
     <g transform="translate(25.251875 372.62651)rotate(-90)scale(0.1 -0.1)">
      <use xlink:href="#Calibri-41"/>
      <use x="57.861328" xlink:href="#Calibri-6d"/>
      <use x="137.744141" xlink:href="#Calibri-70"/>
      <use x="190.283203" xlink:href="#Calibri-6c"/>
      <use x="213.232422" xlink:href="#Calibri-69"/>
      <use x="236.181641" xlink:href="#Calibri-74"/>
      <use x="269.677734" xlink:href="#Calibri-75"/>
      <use x="322.216797" xlink:href="#Calibri-64"/>
     </g>
    </g>
   </g>
   <g id="line2d_37">
    <path clip-path="url(#pdc95b5305f)" d="M 47.835638 353.631505 
L 48.3656 353.582414 
L 48.63058 355.328099 
L 51.545367 355.648281 
L 52.340309 355.862665 
L 52.60529 352.939976 
L 54.990115 352.021639 
L 56.315018 351.479939 
L 56.579999 357.517337 
L 58.964824 358.623996 
L 60.289727 359.415958 
L 60.554708 349.298098 
L 63.469495 347.24872 
L 63.734475 361.825488 
L 66.119301 363.378992 
L 67.974165 364.339279 
L 68.504126 364.556205 
L 68.769107 344.235962 
L 70.09401 343.901119 
L 71.153933 343.847031 
L 71.683894 343.904733 
L 71.948874 364.932092 
L 73.008797 364.570577 
L 74.068719 363.963958 
L 75.393622 362.907956 
L 75.658603 346.227038 
L 77.513467 348.198325 
L 80.163273 351.256056 
L 80.428254 357.337085 
L 82.018138 355.699906 
L 82.81308 355.123292 
L 83.343041 355.066442 
L 84.137983 355.471771 
L 84.402963 353.247756 
L 85.727866 352.487342 
L 87.052769 352.007192 
L 87.847711 351.873978 
L 88.112692 357.024942 
L 89.437595 356.951502 
L 91.027479 356.543707 
L 91.822421 356.257938 
L 92.087401 352.737417 
L 95.532149 353.966038 
L 95.79713 354.882829 
L 96.592072 354.915052 
L 98.976897 355.472956 
L 99.241878 353.361083 
L 100.3018 353.155602 
L 102.421645 353.029272 
L 102.686626 355.835636 
L 103.746548 355.760321 
L 105.866393 355.436371 
L 106.131374 353.507431 
L 108.251219 353.929774 
L 109.311141 354.069005 
L 109.576122 354.758859 
L 111.166005 354.774751 
L 112.755889 355.061676 
L 113.02087 353.761553 
L 114.875734 353.450905 
L 116.200637 353.377343 
L 116.465618 355.540406 
L 118.850443 355.587678 
L 120.175346 355.526807 
L 120.440327 353.382813 
L 123.620094 353.692965 
L 123.885075 355.167811 
L 125.474959 355.075023 
L 127.064842 355.159209 
L 127.329823 353.694418 
L 129.449668 353.372441 
L 130.50959 353.217246 
L 130.774571 355.715661 
L 134.219319 356.029912 
L 134.484299 352.863614 
L 135.809203 352.909089 
L 137.929047 353.13825 
L 138.194028 355.708089 
L 141.373795 355.338175 
L 141.638776 355.34693 
L 141.903757 353.519064 
L 143.22866 353.314775 
L 144.553563 352.863619 
L 145.613485 352.439137 
L 145.878466 356.54885 
L 147.998311 357.366718 
L 149.323214 357.763971 
L 149.588195 351.063916 
L 151.178078 350.819947 
L 152.767962 350.798759 
L 153.032943 358.071504 
L 154.887807 357.832831 
L 156.742671 357.371671 
L 157.007652 357.284214 
L 157.272632 351.701322 
L 158.862516 352.345456 
L 160.71738 353.342938 
L 160.982361 355.397 
L 162.042283 354.972073 
L 162.572245 355.006443 
L 163.632167 355.444367 
L 164.95707 355.979739 
L 165.222051 352.825499 
L 166.546954 352.557097 
L 168.931779 352.348486 
L 169.19676 356.58519 
L 170.256682 356.830347 
L 172.111547 357.533015 
L 172.906489 357.885284 
L 173.171469 350.875194 
L 174.231392 350.236644 
L 175.026334 349.562759 
L 175.821275 348.655399 
L 176.881198 347.055666 
L 178.206101 344.550753 
L 178.471082 364.881166 
L 181.120888 370.325599 
L 181.385868 338.072379 
L 182.710771 335.850008 
L 184.035674 334.019248 
L 184.300655 333.689798 
L 184.565636 375.519119 
L 186.155519 377.531431 
L 186.4205 330.980387 
L 187.480422 329.269186 
L 188.540345 327.183838 
L 188.805326 326.606335 
L 189.070306 382.87223 
L 191.190151 387.772184 
L 191.455132 320.552141 
L 192.515054 318.605224 
L 193.309996 317.582095 
L 193.839957 317.158303 
L 194.369918 316.9598 
L 194.89988 316.994697 
L 195.16486 391.788085 
L 195.694822 391.416483 
L 196.489763 390.484425 
L 197.019725 389.661044 
L 197.284705 319.691615 
L 198.874589 322.838537 
L 199.669531 324.370403 
L 199.934511 384.049545 
L 200.994434 382.453768 
L 201.524395 381.832772 
L 201.789376 327.325599 
L 203.379259 328.668197 
L 204.439182 329.642696 
L 204.969143 330.244047 
L 205.234124 378.307456 
L 206.559027 376.342775 
L 208.14891 373.943353 
L 208.413891 335.247172 
L 208.943852 335.723204 
L 209.473813 335.956704 
L 210.003775 335.920886 
L 210.533736 335.632803 
L 211.328678 334.805368 
L 212.3886 333.251575 
L 212.653581 332.821265 
L 212.918561 376.491148 
L 214.243465 378.474856 
L 215.303387 379.692008 
L 215.833348 380.132439 
L 216.098329 328.583252 
L 216.893271 328.271449 
L 217.423232 328.236973 
L 218.218174 328.494404 
L 219.013116 329.115272 
L 219.808057 330.111471 
L 220.073038 378.362076 
L 221.132961 376.342687 
L 223.252805 371.362147 
L 223.517786 338.103059 
L 224.312728 339.5485 
L 224.842689 340.175431 
L 225.37265 340.489774 
L 225.902612 340.478972 
L 226.432573 340.184111 
L 227.227515 339.406401 
L 228.022457 338.507637 
L 228.287437 370.671519 
L 229.082379 371.349399 
L 229.61234 371.58906 
L 230.142301 371.630932 
L 230.672263 371.464138 
L 231.202224 371.073332 
L 231.732185 370.471884 
L 231.997166 338.789586 
L 232.792108 340.219074 
L 234.117011 343.285988 
L 235.176933 346.053658 
L 235.441914 362.134955 
L 236.501836 359.573794 
L 237.031797 358.569116 
L 237.561759 357.918435 
L 237.826739 357.769618 
L 238.3567 357.825948 
L 238.886662 358.246983 
L 239.151642 350.380506 
L 240.741526 348.746583 
L 241.536468 348.236296 
L 242.33141 347.954446 
L 242.59639 360.983222 
L 243.126352 360.930738 
L 243.921293 360.675464 
L 245.246196 359.813506 
L 246.83608 358.270306 
L 247.101061 350.926994 
L 249.220906 353.080993 
L 250.015848 353.588041 
L 250.545809 353.649559 
L 250.810789 353.59194 
L 251.07577 355.390173 
L 252.400673 355.971018 
L 253.460596 356.190587 
L 254.520518 356.199428 
L 254.785499 352.722209 
L 256.110402 353.06327 
L 258.230247 353.794691 
L 258.495227 355.041178 
L 259.290169 355.03052 
L 260.615072 355.376154 
L 262.204956 355.825805 
L 262.469936 353.003438 
L 264.05982 352.757831 
L 265.649704 352.719336 
L 265.914684 352.73645 
L 266.179665 356.133678 
L 268.564491 355.814004 
L 270.154374 355.539963 
L 270.419355 353.377789 
L 271.744258 353.462582 
L 273.599122 353.322924 
L 274.129083 353.251846 
L 274.394064 355.673966 
L 276.513909 355.891887 
L 278.103793 355.910597 
L 278.633754 355.87207 
L 278.898735 353.03393 
L 281.018579 353.402888 
L 282.608463 353.799903 
L 282.873444 355.019988 
L 284.198347 354.82285 
L 285.258269 354.933311 
L 286.583172 355.181602 
L 286.848153 353.657028 
L 288.967998 353.383972 
L 290.557882 353.373857 
L 290.822862 355.497937 
L 293.207688 355.190324 
L 294.532591 354.961895 
L 294.797571 353.974022 
L 296.652436 354.146701 
L 298.5073 354.044751 
L 298.772281 354.857855 
L 301.157106 354.917521 
L 302.482009 354.86174 
L 302.74699 354.046897 
L 306.456719 354.386065 
L 306.721699 354.479455 
L 307.516641 354.474274 
L 310.431428 354.598833 
L 310.696408 354.286797 
L 314.406137 354.342401 
L 314.671118 354.538872 
L 318.380846 354.5407 
L 318.645827 354.349213 
L 322.090575 354.385109 
L 322.355555 354.498892 
L 325.535323 354.492328 
L 326.065284 354.505637 
L 326.330265 354.374961 
L 329.775013 354.318537 
L 330.039993 354.571043 
L 333.749722 354.529917 
L 334.014702 354.363788 
L 348.853617 354.489347 
L 349.383578 354.39804 
L 360.247783 354.461415 
L 373.761795 354.448875 
L 373.761795 354.448875 
" style="fill:none;stroke:#000000;stroke-linecap:square;stroke-width:0.8;"/>
   </g>
   <g id="line2d_38">
    <path clip-path="url(#pdc95b5305f)" d="M 47.835638 353.631505 
L 51.810348 353.176157 
L 53.400231 352.655353 
L 57.639921 350.916568 
L 59.494786 349.964634 
L 61.34965 348.751964 
L 66.119301 345.509167 
L 67.974165 344.54888 
L 69.299068 344.070945 
L 70.358991 343.867931 
L 71.418913 343.868278 
L 72.478836 344.105385 
L 73.538758 344.591633 
L 74.598681 345.3129 
L 75.923584 346.486469 
L 77.513467 348.198325 
L 82.018138 353.188252 
L 82.81308 353.764867 
L 83.343041 353.821717 
L 84.137983 353.416388 
L 85.727866 352.487342 
L 87.052769 352.007192 
L 88.112692 351.863216 
L 89.437595 351.936656 
L 91.027479 352.344451 
L 95.79713 354.00533 
L 96.592072 353.973107 
L 101.626703 353.055845 
L 104.54149 353.240469 
L 106.926316 353.661093 
L 110.371064 354.189736 
L 112.225928 353.892433 
L 115.935656 353.393894 
L 119.115424 353.298309 
L 122.560172 353.572745 
L 125.739939 353.814049 
L 127.594804 353.667273 
L 132.894416 352.933527 
L 135.014261 352.863535 
L 137.664067 353.096887 
L 141.108815 353.550462 
L 142.433718 353.46475 
L 143.758621 353.157446 
L 150.118156 350.952391 
L 151.708039 350.787312 
L 153.562904 350.857371 
L 155.947729 351.282785 
L 157.802594 351.893766 
L 159.657458 352.753473 
L 161.777303 353.856251 
L 162.307264 353.929038 
L 163.102206 353.688102 
L 165.222051 352.825499 
L 166.546954 352.557097 
L 169.991702 352.129438 
L 171.316605 351.679715 
L 173.43645 350.735898 
L 174.496372 350.038531 
L 175.291314 349.289641 
L 176.086256 348.296181 
L 177.146178 346.592622 
L 178.471082 344.006993 
L 181.650849 337.594299 
L 182.975752 335.453544 
L 184.300655 333.689798 
L 186.4205 330.980387 
L 187.480422 329.269186 
L 188.540345 327.183838 
L 190.66019 322.30585 
L 191.985093 319.5078 
L 192.780035 318.217001 
L 193.574977 317.343682 
L 194.104938 317.030687 
L 194.634899 316.948558 
L 195.16486 317.100074 
L 195.694822 317.471676 
L 196.489763 318.403734 
L 197.284705 319.691615 
L 198.874589 322.838537 
L 200.199492 325.281109 
L 201.259414 326.757202 
L 202.319337 327.809216 
L 204.439182 329.642696 
L 205.499104 330.93864 
L 207.088988 333.395413 
L 208.14891 334.944806 
L 208.943852 335.723204 
L 209.473813 335.956704 
L 210.003775 335.920886 
L 210.533736 335.632803 
L 211.328678 334.805368 
L 212.3886 333.251575 
L 214.243465 330.413303 
L 215.303387 329.196151 
L 216.098329 328.583252 
L 216.893271 328.271449 
L 217.423232 328.236973 
L 218.218174 328.494404 
L 219.013116 329.115272 
L 219.808057 330.111471 
L 220.602999 331.482236 
L 221.662922 333.751723 
L 224.047747 339.122395 
L 224.577709 339.901839 
L 225.10767 340.377723 
L 225.637631 340.517643 
L 226.167592 340.360775 
L 226.697553 339.963487 
L 229.34736 337.394895 
L 229.877321 337.254864 
L 230.407282 337.31061 
L 230.937243 337.592312 
L 231.467205 338.09324 
L 232.262146 339.231492 
L 233.057088 340.785903 
L 233.85203 342.632434 
L 237.031797 350.319042 
L 237.561759 350.969724 
L 237.826739 351.11854 
L 238.3567 351.062211 
L 239.151642 350.380506 
L 240.741526 348.746583 
L 241.536468 348.236296 
L 242.33141 347.954446 
L 242.861371 347.905825 
L 243.921293 348.212694 
L 245.246196 349.074652 
L 247.101061 350.926994 
L 249.220906 353.080993 
L 250.015848 353.588041 
L 250.545809 353.649559 
L 251.07577 353.497986 
L 252.400673 352.917141 
L 253.460596 352.697572 
L 254.520518 352.688731 
L 255.58044 352.901348 
L 258.760208 353.880539 
L 259.55515 353.808226 
L 261.145033 353.345946 
L 262.734917 352.944936 
L 264.324801 352.736287 
L 265.914684 352.73645 
L 268.034529 352.99142 
L 272.274219 353.447199 
L 274.129083 353.251846 
L 276.77889 352.978203 
L 278.633754 353.016088 
L 280.223638 353.23419 
L 282.608463 353.799903 
L 283.933366 354.053124 
L 284.993289 353.997601 
L 289.497959 353.363946 
L 291.087843 353.412195 
L 293.472668 353.744342 
L 296.122475 354.127733 
L 297.447378 354.116311 
L 301.157106 353.970638 
L 305.131815 354.260003 
L 307.781622 354.39252 
L 311.22637 354.288017 
L 321.295633 354.370826 
L 328.45011 354.330966 
L 333.749722 354.358242 
L 339.314315 354.366495 
L 373.761795 354.439283 
L 373.761795 354.439283 
" style="fill:none;stroke:#0000ff;stroke-linecap:square;stroke-width:0.8;"/>
   </g>
   <g id="patch_13">
    <path d="M 48.08 402.28 
L 48.08 305.493333 
" style="fill:none;stroke:#000000;stroke-linecap:square;stroke-linejoin:miter;stroke-width:0.8;"/>
   </g>
   <g id="patch_14">
    <path d="M 373.68 402.28 
L 373.68 305.493333 
" style="fill:none;stroke:#000000;stroke-linecap:square;stroke-linejoin:miter;stroke-width:0.8;"/>
   </g>
   <g id="patch_15">
    <path d="M 48.08 402.28 
L 373.68 402.28 
" style="fill:none;stroke:#000000;stroke-linecap:square;stroke-linejoin:miter;stroke-width:0.8;"/>
   </g>
   <g id="patch_16">
    <path d="M 48.08 305.493333 
L 373.68 305.493333 
" style="fill:none;stroke:#000000;stroke-linecap:square;stroke-linejoin:miter;stroke-width:0.8;"/>
   </g>
   <g id="text_39">
    <!-- $yt_{LP+NLD+ENV}(n)$ -->
    <g transform="translate(163.72 299.493333)scale(0.12 -0.12)">
     <defs>
      <path d="M 1081 4666 
L 4031 4666 
L 3928 4134 
L 1606 4134 
L 1338 2753 
L 3566 2753 
L 3463 2222 
L 1234 2222 
L 909 531 
L 3284 531 
L 3181 0 
L 172 0 
L 1081 4666 
z
" id="DejaVuSans-Oblique-45" transform="scale(0.015625)"/>
      <path d="M 1319 0 
L 500 4666 
L 1119 4666 
L 1797 653 
L 4063 4666 
L 4750 4666 
L 2053 0 
L 1319 0 
z
" id="DejaVuSans-Oblique-56" transform="scale(0.015625)"/>
     </defs>
     <use transform="translate(0 0.125)" xlink:href="#DejaVuSans-Oblique-79"/>
     <use transform="translate(59.179688 0.125)" xlink:href="#DejaVuSans-Oblique-74"/>
     <use transform="translate(98.388672 -16.28125)scale(0.7)" xlink:href="#DejaVuSans-Oblique-4c"/>
     <use transform="translate(137.387695 -16.28125)scale(0.7)" xlink:href="#DejaVuSans-Oblique-50"/>
     <use transform="translate(193.237305 -16.28125)scale(0.7)" xlink:href="#DejaVuSans-2b"/>
     <use transform="translate(265.527344 -16.28125)scale(0.7)" xlink:href="#DejaVuSans-Oblique-4e"/>
     <use transform="translate(317.890625 -16.28125)scale(0.7)" xlink:href="#DejaVuSans-Oblique-4c"/>
     <use transform="translate(356.889648 -16.28125)scale(0.7)" xlink:href="#DejaVuSans-Oblique-44"/>
     <use transform="translate(424.428711 -16.28125)scale(0.7)" xlink:href="#DejaVuSans-2b"/>
     <use transform="translate(496.71875 -16.28125)scale(0.7)" xlink:href="#DejaVuSans-Oblique-45"/>
     <use transform="translate(540.947266 -16.28125)scale(0.7)" xlink:href="#DejaVuSans-Oblique-4e"/>
     <use transform="translate(593.310547 -16.28125)scale(0.7)" xlink:href="#DejaVuSans-Oblique-56"/>
     <use transform="translate(643.930664 0.125)" xlink:href="#DejaVuSans-28"/>
     <use transform="translate(682.944336 0.125)" xlink:href="#DejaVuSans-Oblique-6e"/>
     <use transform="translate(746.323242 0.125)" xlink:href="#DejaVuSans-29"/>
    </g>
   </g>
  </g>
 </g>
 <defs>
  <clipPath id="p794bd46a0b">
   <rect height="96.786667" width="325.6" x="48.08" y="26.88"/>
  </clipPath>
  <clipPath id="p1eb1d6395d">
   <rect height="96.786667" width="325.6" x="48.08" y="166.186667"/>
  </clipPath>
  <clipPath id="pdc95b5305f">
   <rect height="96.786667" width="325.6" x="48.08" y="305.493333"/>
  </clipPath>
 </defs>
</svg>
