<?xml version="1.0" encoding="utf-8" standalone="no"?>
<!DOCTYPE svg PUBLIC "-//W3C//DTD SVG 1.1//EN"
  "http://www.w3.org/Graphics/SVG/1.1/DTD/svg11.dtd">
<svg height="543.6pt" version="1.1" viewBox="0 0 411.84 543.6" width="411.84pt" xmlns="http://www.w3.org/2000/svg" xmlns:xlink="http://www.w3.org/1999/xlink">
 <metadata>
  <rdf:RDF xmlns:cc="http://creativecommons.org/ns#" xmlns:dc="http://purl.org/dc/elements/1.1/" xmlns:rdf="http://www.w3.org/1999/02/22-rdf-syntax-ns#">
   <cc:Work>
    <dc:type rdf:resource="http://purl.org/dc/dcmitype/StillImage"/>
    <dc:date>2022-06-25T15:46:23.321892</dc:date>
    <dc:format>image/svg+xml</dc:format>
    <dc:creator>
     <cc:Agent>
      <dc:title>Matplotlib v3.4.1, https://matplotlib.org/</dc:title>
     </cc:Agent>
    </dc:creator>
   </cc:Work>
  </rdf:RDF>
 </metadata>
 <defs>
  <style type="text/css">*{stroke-linecap:butt;stroke-linejoin:round;}</style>
 </defs>
 <g id="figure_1">
  <g id="patch_1">
   <path d="M 0 543.6 
L 411.84 543.6 
L 411.84 0 
L 0 0 
z
" style="fill:#ffffff;"/>
  </g>
  <g id="axes_1">
   <g id="patch_2">
    <path d="M 48.08 157.746667 
L 392.175 157.746667 
L 392.175 26.88 
L 48.08 26.88 
z
" style="fill:#ffffff;"/>
   </g>
   <g id="matplotlib.axis_1">
    <g id="xtick_1">
     <g id="line2d_1">
      <defs>
       <path d="M 0 0 
L 0 3.5 
" id="m4db5183e7f" style="stroke:#000000;stroke-width:0.8;"/>
      </defs>
      <g>
       <use style="stroke:#000000;stroke-width:0.8;" x="48.08" xlink:href="#m4db5183e7f" y="157.746667"/>
      </g>
     </g>
     <g id="text_1">
      <!-- 2.70 -->
      <g transform="translate(39.214375 171.548229)scale(0.1 -0.1)">
       <defs>
        <path d="M 2888 231 
Q 2888 175 2880 131 
Q 2872 88 2858 58 
Q 2844 28 2820 14 
Q 2797 0 2769 0 
L 534 0 
Q 491 0 458 11 
Q 425 22 401 47 
Q 378 72 367 119 
Q 356 166 356 234 
Q 356 297 361 344 
Q 366 391 381 427 
Q 397 463 420 498 
Q 444 534 481 575 
L 1266 1406 
Q 1538 1694 1702 1922 
Q 1866 2150 1955 2337 
Q 2044 2525 2072 2678 
Q 2100 2831 2100 2966 
Q 2100 3100 2056 3220 
Q 2013 3341 1930 3431 
Q 1847 3522 1722 3575 
Q 1597 3628 1434 3628 
Q 1244 3628 1092 3575 
Q 941 3522 827 3459 
Q 713 3397 636 3344 
Q 559 3291 522 3291 
Q 500 3291 483 3303 
Q 466 3316 455 3344 
Q 444 3372 437 3419 
Q 431 3466 431 3531 
Q 431 3578 434 3612 
Q 438 3647 445 3672 
Q 453 3697 465 3719 
Q 478 3741 515 3773 
Q 553 3806 645 3862 
Q 738 3919 877 3973 
Q 1016 4028 1183 4065 
Q 1350 4103 1534 4103 
Q 1828 4103 2048 4020 
Q 2269 3938 2414 3794 
Q 2559 3650 2631 3459 
Q 2703 3269 2703 3053 
Q 2703 2859 2668 2667 
Q 2634 2475 2523 2251 
Q 2413 2028 2203 1754 
Q 1994 1481 1647 1125 
L 1006 456 
L 2766 456 
Q 2791 456 2814 442 
Q 2838 428 2855 400 
Q 2872 372 2880 330 
Q 2888 288 2888 231 
z
" id="Calibri-32" transform="scale(0.015625)"/>
        <path d="M 1144 341 
Q 1144 119 1070 45 
Q 997 -28 803 -28 
Q 616 -28 544 44 
Q 472 116 472 331 
Q 472 553 545 626 
Q 619 700 813 700 
Q 1000 700 1072 628 
Q 1144 556 1144 341 
z
" id="Calibri-2e" transform="scale(0.015625)"/>
        <path d="M 2947 3813 
Q 2947 3756 2942 3711 
Q 2938 3666 2930 3623 
Q 2922 3581 2908 3542 
Q 2894 3503 2875 3459 
L 1419 103 
Q 1403 66 1379 42 
Q 1356 19 1320 5 
Q 1284 -9 1228 -14 
Q 1172 -19 1091 -19 
Q 984 -19 925 -9 
Q 866 0 839 20 
Q 813 41 816 70 
Q 819 100 838 141 
L 2369 3572 
L 428 3572 
Q 369 3572 339 3634 
Q 309 3697 309 3809 
Q 309 3869 317 3912 
Q 325 3956 340 3986 
Q 356 4016 378 4030 
Q 400 4044 428 4044 
L 2784 4044 
Q 2828 4044 2861 4034 
Q 2894 4025 2911 3997 
Q 2928 3969 2937 3925 
Q 2947 3881 2947 3813 
z
" id="Calibri-37" transform="scale(0.015625)"/>
        <path d="M 3022 2031 
Q 3022 1566 2948 1181 
Q 2875 797 2704 520 
Q 2534 244 2259 92 
Q 1984 -59 1581 -59 
Q 1200 -59 939 77 
Q 678 213 518 477 
Q 359 741 292 1127 
Q 225 1513 225 2013 
Q 225 2475 300 2861 
Q 375 3247 544 3523 
Q 713 3800 988 3951 
Q 1263 4103 1663 4103 
Q 2047 4103 2308 3967 
Q 2569 3831 2728 3567 
Q 2888 3303 2955 2917 
Q 3022 2531 3022 2031 
z
M 2472 1994 
Q 2472 2297 2450 2537 
Q 2428 2778 2386 2962 
Q 2344 3147 2276 3280 
Q 2209 3413 2115 3498 
Q 2022 3584 1901 3623 
Q 1781 3663 1631 3663 
Q 1366 3663 1200 3538 
Q 1034 3413 939 3194 
Q 844 2975 809 2681 
Q 775 2388 775 2050 
Q 775 1597 822 1280 
Q 869 963 970 763 
Q 1072 563 1230 472 
Q 1388 381 1613 381 
Q 1788 381 1920 437 
Q 2053 494 2148 598 
Q 2244 703 2306 850 
Q 2369 997 2406 1175 
Q 2444 1353 2458 1561 
Q 2472 1769 2472 1994 
z
" id="Calibri-30" transform="scale(0.015625)"/>
       </defs>
       <use xlink:href="#Calibri-32"/>
       <use x="50.683594" xlink:href="#Calibri-2e"/>
       <use x="75.927734" xlink:href="#Calibri-37"/>
       <use x="126.611328" xlink:href="#Calibri-30"/>
      </g>
     </g>
    </g>
    <g id="xtick_2">
     <g id="line2d_2">
      <g>
       <use style="stroke:#000000;stroke-width:0.8;" x="105.429167" xlink:href="#m4db5183e7f" y="157.746667"/>
      </g>
     </g>
     <g id="text_2">
      <!-- 2.75 -->
      <g transform="translate(96.563542 171.548229)scale(0.1 -0.1)">
       <defs>
        <path d="M 2869 1300 
Q 2869 975 2759 722 
Q 2650 469 2450 295 
Q 2250 122 1973 31 
Q 1697 -59 1359 -59 
Q 1172 -59 1003 -32 
Q 834 -6 703 33 
Q 572 72 487 109 
Q 403 147 379 169 
Q 356 191 347 209 
Q 338 228 330 254 
Q 322 281 319 322 
Q 316 363 316 419 
Q 316 472 320 514 
Q 325 556 337 582 
Q 350 609 367 621 
Q 384 634 406 634 
Q 438 634 503 595 
Q 569 556 680 511 
Q 791 466 955 425 
Q 1119 384 1344 384 
Q 1553 384 1728 434 
Q 1903 484 2029 590 
Q 2156 697 2228 858 
Q 2300 1019 2300 1250 
Q 2300 1444 2239 1592 
Q 2178 1741 2051 1839 
Q 1925 1938 1731 1986 
Q 1538 2034 1269 2034 
Q 1078 2034 940 2015 
Q 803 1997 684 1997 
Q 597 1997 559 2037 
Q 522 2078 522 2194 
L 522 3841 
Q 522 3944 570 3994 
Q 619 4044 709 4044 
L 2500 4044 
Q 2525 4044 2548 4030 
Q 2572 4016 2587 3987 
Q 2603 3959 2611 3915 
Q 2619 3872 2619 3813 
Q 2619 3700 2587 3637 
Q 2556 3575 2500 3575 
L 991 3575 
L 991 2441 
Q 1100 2456 1214 2459 
Q 1328 2463 1478 2463 
Q 1825 2463 2084 2380 
Q 2344 2297 2517 2145 
Q 2691 1994 2780 1778 
Q 2869 1563 2869 1300 
z
" id="Calibri-35" transform="scale(0.015625)"/>
       </defs>
       <use xlink:href="#Calibri-32"/>
       <use x="50.683594" xlink:href="#Calibri-2e"/>
       <use x="75.927734" xlink:href="#Calibri-37"/>
       <use x="126.611328" xlink:href="#Calibri-35"/>
      </g>
     </g>
    </g>
    <g id="xtick_3">
     <g id="line2d_3">
      <g>
       <use style="stroke:#000000;stroke-width:0.8;" x="162.778333" xlink:href="#m4db5183e7f" y="157.746667"/>
      </g>
     </g>
     <g id="text_3">
      <!-- 2.80 -->
      <g transform="translate(153.912708 171.548229)scale(0.1 -0.1)">
       <defs>
        <path d="M 2981 1038 
Q 2981 775 2887 570 
Q 2794 366 2617 225 
Q 2441 84 2181 12 
Q 1922 -59 1588 -59 
Q 1275 -59 1028 6 
Q 781 72 609 200 
Q 438 328 347 515 
Q 256 703 256 944 
Q 256 1134 318 1293 
Q 381 1453 498 1587 
Q 616 1722 787 1839 
Q 959 1956 1175 2063 
Q 988 2159 844 2267 
Q 700 2375 600 2501 
Q 500 2628 448 2772 
Q 397 2916 397 3084 
Q 397 3297 473 3483 
Q 550 3669 704 3806 
Q 859 3944 1098 4023 
Q 1338 4103 1656 4103 
Q 1963 4103 2186 4029 
Q 2409 3956 2554 3829 
Q 2700 3703 2769 3531 
Q 2838 3359 2838 3163 
Q 2838 3003 2786 2856 
Q 2734 2709 2634 2578 
Q 2534 2447 2389 2333 
Q 2244 2219 2056 2119 
Q 2278 2009 2451 1893 
Q 2625 1778 2742 1645 
Q 2859 1513 2920 1364 
Q 2981 1216 2981 1038 
z
M 2306 3113 
Q 2306 3244 2261 3350 
Q 2216 3456 2128 3531 
Q 2041 3606 1911 3645 
Q 1781 3684 1616 3684 
Q 1278 3684 1104 3531 
Q 931 3378 931 3113 
Q 931 2991 973 2886 
Q 1016 2781 1105 2687 
Q 1194 2594 1330 2505 
Q 1466 2416 1653 2319 
Q 1969 2481 2137 2678 
Q 2306 2875 2306 3113 
z
M 2438 981 
Q 2438 1125 2384 1242 
Q 2331 1359 2223 1461 
Q 2116 1563 1955 1658 
Q 1794 1753 1581 1856 
Q 1384 1759 1236 1662 
Q 1088 1566 992 1462 
Q 897 1359 848 1245 
Q 800 1131 800 994 
Q 800 691 1008 525 
Q 1216 359 1628 359 
Q 2028 359 2233 526 
Q 2438 694 2438 981 
z
" id="Calibri-38" transform="scale(0.015625)"/>
       </defs>
       <use xlink:href="#Calibri-32"/>
       <use x="50.683594" xlink:href="#Calibri-2e"/>
       <use x="75.927734" xlink:href="#Calibri-38"/>
       <use x="126.611328" xlink:href="#Calibri-30"/>
      </g>
     </g>
    </g>
    <g id="xtick_4">
     <g id="line2d_4">
      <g>
       <use style="stroke:#000000;stroke-width:0.8;" x="220.1275" xlink:href="#m4db5183e7f" y="157.746667"/>
      </g>
     </g>
     <g id="text_4">
      <!-- 2.85 -->
      <g transform="translate(211.261875 171.548229)scale(0.1 -0.1)">
       <use xlink:href="#Calibri-32"/>
       <use x="50.683594" xlink:href="#Calibri-2e"/>
       <use x="75.927734" xlink:href="#Calibri-38"/>
       <use x="126.611328" xlink:href="#Calibri-35"/>
      </g>
     </g>
    </g>
    <g id="xtick_5">
     <g id="line2d_5">
      <g>
       <use style="stroke:#000000;stroke-width:0.8;" x="277.476667" xlink:href="#m4db5183e7f" y="157.746667"/>
      </g>
     </g>
     <g id="text_5">
      <!-- 2.90 -->
      <g transform="translate(268.611042 171.548229)scale(0.1 -0.1)">
       <defs>
        <path d="M 2919 2181 
Q 2919 1919 2887 1650 
Q 2856 1381 2781 1132 
Q 2706 884 2579 667 
Q 2453 450 2261 287 
Q 2069 125 1805 33 
Q 1541 -59 1191 -59 
Q 1056 -59 929 -42 
Q 803 -25 701 0 
Q 600 25 531 53 
Q 463 81 431 109 
Q 400 138 386 186 
Q 372 234 372 316 
Q 372 384 376 425 
Q 381 466 390 487 
Q 400 509 417 517 
Q 434 525 459 525 
Q 494 525 556 501 
Q 619 478 714 450 
Q 809 422 937 398 
Q 1066 375 1225 375 
Q 1528 375 1745 492 
Q 1963 609 2100 806 
Q 2238 1003 2306 1262 
Q 2375 1522 2381 1809 
Q 2216 1713 1984 1638 
Q 1753 1563 1453 1563 
Q 1116 1563 886 1655 
Q 656 1747 517 1906 
Q 378 2066 317 2284 
Q 256 2503 256 2763 
Q 256 3031 334 3273 
Q 413 3516 578 3700 
Q 744 3884 1000 3993 
Q 1256 4103 1613 4103 
Q 1866 4103 2061 4039 
Q 2256 3975 2400 3854 
Q 2544 3734 2644 3564 
Q 2744 3394 2805 3178 
Q 2866 2963 2892 2711 
Q 2919 2459 2919 2181 
z
M 2372 2241 
Q 2372 2641 2319 2914 
Q 2266 3188 2162 3356 
Q 2059 3525 1909 3600 
Q 1759 3675 1563 3675 
Q 1359 3675 1215 3601 
Q 1072 3528 980 3404 
Q 888 3281 844 3125 
Q 800 2969 800 2803 
Q 800 2619 839 2466 
Q 878 2313 965 2206 
Q 1053 2100 1193 2042 
Q 1334 1984 1541 1984 
Q 1775 1984 1994 2054 
Q 2213 2125 2372 2241 
z
" id="Calibri-39" transform="scale(0.015625)"/>
       </defs>
       <use xlink:href="#Calibri-32"/>
       <use x="50.683594" xlink:href="#Calibri-2e"/>
       <use x="75.927734" xlink:href="#Calibri-39"/>
       <use x="126.611328" xlink:href="#Calibri-30"/>
      </g>
     </g>
    </g>
    <g id="xtick_6">
     <g id="line2d_6">
      <g>
       <use style="stroke:#000000;stroke-width:0.8;" x="334.825833" xlink:href="#m4db5183e7f" y="157.746667"/>
      </g>
     </g>
     <g id="text_6">
      <!-- 2.95 -->
      <g transform="translate(325.960208 171.548229)scale(0.1 -0.1)">
       <use xlink:href="#Calibri-32"/>
       <use x="50.683594" xlink:href="#Calibri-2e"/>
       <use x="75.927734" xlink:href="#Calibri-39"/>
       <use x="126.611328" xlink:href="#Calibri-35"/>
      </g>
     </g>
    </g>
    <g id="xtick_7">
     <g id="line2d_7">
      <g>
       <use style="stroke:#000000;stroke-width:0.8;" x="392.175" xlink:href="#m4db5183e7f" y="157.746667"/>
      </g>
     </g>
     <g id="text_7">
      <!-- 3.00 -->
      <g transform="translate(383.309375 171.548229)scale(0.1 -0.1)">
       <defs>
        <path d="M 2856 1156 
Q 2856 878 2759 654 
Q 2663 431 2481 272 
Q 2300 113 2034 27 
Q 1769 -59 1434 -59 
Q 1231 -59 1054 -26 
Q 878 6 740 51 
Q 603 97 512 145 
Q 422 194 398 216 
Q 375 238 362 259 
Q 350 281 340 312 
Q 331 344 326 389 
Q 322 434 322 500 
Q 322 613 344 656 
Q 366 700 406 700 
Q 434 700 517 650 
Q 600 600 729 542 
Q 859 484 1032 434 
Q 1206 384 1419 384 
Q 1625 384 1781 437 
Q 1938 491 2044 587 
Q 2150 684 2203 817 
Q 2256 950 2256 1106 
Q 2256 1278 2189 1415 
Q 2122 1553 1992 1653 
Q 1863 1753 1673 1806 
Q 1484 1859 1244 1859 
L 859 1859 
Q 834 1859 811 1870 
Q 788 1881 770 1906 
Q 753 1931 742 1972 
Q 731 2013 731 2078 
Q 731 2138 740 2177 
Q 750 2216 767 2239 
Q 784 2263 806 2273 
Q 828 2284 856 2284 
L 1209 2284 
Q 1416 2284 1580 2337 
Q 1744 2391 1858 2491 
Q 1972 2591 2033 2730 
Q 2094 2869 2094 3041 
Q 2094 3166 2053 3280 
Q 2013 3394 1931 3478 
Q 1850 3563 1723 3611 
Q 1597 3659 1431 3659 
Q 1250 3659 1098 3604 
Q 947 3550 828 3487 
Q 709 3425 631 3370 
Q 553 3316 522 3316 
Q 500 3316 483 3323 
Q 466 3331 455 3354 
Q 444 3378 439 3420 
Q 434 3463 434 3531 
Q 434 3578 437 3614 
Q 441 3650 450 3676 
Q 459 3703 471 3725 
Q 484 3747 514 3776 
Q 544 3806 634 3862 
Q 725 3919 858 3973 
Q 991 4028 1164 4065 
Q 1338 4103 1538 4103 
Q 1819 4103 2031 4031 
Q 2244 3959 2386 3828 
Q 2528 3697 2598 3514 
Q 2669 3331 2669 3109 
Q 2669 2919 2619 2755 
Q 2569 2591 2472 2464 
Q 2375 2338 2234 2248 
Q 2094 2159 1909 2125 
L 1909 2119 
Q 2119 2097 2292 2014 
Q 2466 1931 2591 1806 
Q 2716 1681 2786 1514 
Q 2856 1347 2856 1156 
z
" id="Calibri-33" transform="scale(0.015625)"/>
       </defs>
       <use xlink:href="#Calibri-33"/>
       <use x="50.683594" xlink:href="#Calibri-2e"/>
       <use x="75.927734" xlink:href="#Calibri-30"/>
       <use x="126.611328" xlink:href="#Calibri-30"/>
      </g>
     </g>
    </g>
   </g>
   <g id="matplotlib.axis_2">
    <g id="ytick_1">
     <g id="line2d_8">
      <defs>
       <path d="M 0 0 
L -3.5 0 
" id="m837690a1af" style="stroke:#000000;stroke-width:0.8;"/>
      </defs>
      <g>
       <use style="stroke:#000000;stroke-width:0.8;" x="48.08" xlink:href="#m837690a1af" y="157.746667"/>
      </g>
     </g>
     <g id="text_8">
      <!-- −1.0 -->
      <g transform="translate(23.43625 161.147448)scale(0.1 -0.1)">
       <defs>
        <path d="M 2934 1797 
Q 2934 1681 2904 1628 
Q 2875 1575 2819 1575 
L 356 1575 
Q 297 1575 267 1628 
Q 238 1681 238 1797 
Q 238 1909 267 1964 
Q 297 2019 356 2019 
L 2819 2019 
Q 2875 2019 2904 1966 
Q 2934 1913 2934 1797 
z
" id="Calibri-2212" transform="scale(0.015625)"/>
        <path d="M 2897 213 
Q 2897 153 2887 112 
Q 2878 72 2862 47 
Q 2847 22 2826 11 
Q 2806 0 2784 0 
L 672 0 
Q 650 0 631 11 
Q 613 22 595 47 
Q 578 72 568 112 
Q 559 153 559 213 
Q 559 269 568 309 
Q 578 350 592 376 
Q 606 403 626 417 
Q 647 431 672 431 
L 1516 431 
L 1516 3506 
L 734 3041 
Q 675 3009 639 3003 
Q 603 2997 581 3017 
Q 559 3038 551 3084 
Q 544 3131 544 3203 
Q 544 3256 548 3293 
Q 553 3331 562 3356 
Q 572 3381 589 3400 
Q 606 3419 634 3438 
L 1566 4034 
Q 1578 4044 1597 4050 
Q 1616 4056 1644 4062 
Q 1672 4069 1709 4070 
Q 1747 4072 1803 4072 
Q 1878 4072 1928 4065 
Q 1978 4059 2006 4048 
Q 2034 4038 2043 4020 
Q 2053 4003 2053 3984 
L 2053 431 
L 2784 431 
Q 2809 431 2831 417 
Q 2853 403 2867 376 
Q 2881 350 2889 309 
Q 2897 269 2897 213 
z
" id="Calibri-31" transform="scale(0.015625)"/>
       </defs>
       <use xlink:href="#Calibri-2212"/>
       <use x="49.804688" xlink:href="#Calibri-31"/>
       <use x="100.488281" xlink:href="#Calibri-2e"/>
       <use x="125.732422" xlink:href="#Calibri-30"/>
      </g>
     </g>
    </g>
    <g id="ytick_2">
     <g id="line2d_9">
      <g>
       <use style="stroke:#000000;stroke-width:0.8;" x="48.08" xlink:href="#m837690a1af" y="125.03"/>
      </g>
     </g>
     <g id="text_9">
      <!-- −0.5 -->
      <g transform="translate(23.43625 128.430781)scale(0.1 -0.1)">
       <use xlink:href="#Calibri-2212"/>
       <use x="49.804688" xlink:href="#Calibri-30"/>
       <use x="100.488281" xlink:href="#Calibri-2e"/>
       <use x="125.732422" xlink:href="#Calibri-35"/>
      </g>
     </g>
    </g>
    <g id="ytick_3">
     <g id="line2d_10">
      <g>
       <use style="stroke:#000000;stroke-width:0.8;" x="48.08" xlink:href="#m837690a1af" y="92.313333"/>
      </g>
     </g>
     <g id="text_10">
      <!-- 0.0 -->
      <g transform="translate(28.4175 95.714115)scale(0.1 -0.1)">
       <use xlink:href="#Calibri-30"/>
       <use x="50.683594" xlink:href="#Calibri-2e"/>
       <use x="75.927734" xlink:href="#Calibri-30"/>
      </g>
     </g>
    </g>
    <g id="ytick_4">
     <g id="line2d_11">
      <g>
       <use style="stroke:#000000;stroke-width:0.8;" x="48.08" xlink:href="#m837690a1af" y="59.596667"/>
      </g>
     </g>
     <g id="text_11">
      <!-- 0.5 -->
      <g transform="translate(28.4175 62.997448)scale(0.1 -0.1)">
       <use xlink:href="#Calibri-30"/>
       <use x="50.683594" xlink:href="#Calibri-2e"/>
       <use x="75.927734" xlink:href="#Calibri-35"/>
      </g>
     </g>
    </g>
    <g id="ytick_5">
     <g id="line2d_12">
      <g>
       <use style="stroke:#000000;stroke-width:0.8;" x="48.08" xlink:href="#m837690a1af" y="26.88"/>
      </g>
     </g>
     <g id="text_12">
      <!-- 1.0 -->
      <g transform="translate(28.4175 30.280781)scale(0.1 -0.1)">
       <use xlink:href="#Calibri-31"/>
       <use x="50.683594" xlink:href="#Calibri-2e"/>
       <use x="75.927734" xlink:href="#Calibri-30"/>
      </g>
     </g>
    </g>
    <g id="text_13">
     <!-- Amplitud -->
     <g transform="translate(17.658125 111.053177)rotate(-90)scale(0.1 -0.1)">
      <defs>
       <path d="M 3566 191 
Q 3591 122 3592 80 
Q 3594 38 3569 16 
Q 3544 -6 3486 -12 
Q 3428 -19 3331 -19 
Q 3234 -19 3176 -14 
Q 3119 -9 3089 2 
Q 3059 13 3045 31 
Q 3031 50 3019 78 
L 2672 1063 
L 991 1063 
L 659 91 
Q 650 63 634 42 
Q 619 22 589 8 
Q 559 -6 504 -12 
Q 450 -19 363 -19 
Q 272 -19 214 -11 
Q 156 -3 132 19 
Q 109 41 111 83 
Q 113 125 138 194 
L 1494 3950 
Q 1506 3984 1526 4006 
Q 1547 4028 1586 4040 
Q 1625 4053 1686 4058 
Q 1747 4063 1841 4063 
Q 1941 4063 2006 4058 
Q 2072 4053 2112 4040 
Q 2153 4028 2175 4004 
Q 2197 3981 2209 3947 
L 3566 191 
z
M 1825 3506 
L 1822 3506 
L 1125 1491 
L 2531 1491 
L 1825 3506 
z
" id="Calibri-41" transform="scale(0.015625)"/>
       <path d="M 4650 78 
Q 4650 53 4637 36 
Q 4625 19 4597 6 
Q 4569 -6 4519 -12 
Q 4469 -19 4394 -19 
Q 4316 -19 4266 -12 
Q 4216 -6 4186 6 
Q 4156 19 4143 36 
Q 4131 53 4131 78 
L 4131 1788 
Q 4131 1966 4100 2112 
Q 4069 2259 4000 2365 
Q 3931 2472 3825 2528 
Q 3719 2584 3575 2584 
Q 3397 2584 3217 2446 
Q 3038 2309 2822 2044 
L 2822 78 
Q 2822 53 2809 36 
Q 2797 19 2767 6 
Q 2738 -6 2688 -12 
Q 2638 -19 2563 -19 
Q 2491 -19 2439 -12 
Q 2388 -6 2358 6 
Q 2328 19 2317 36 
Q 2306 53 2306 78 
L 2306 1788 
Q 2306 1966 2272 2112 
Q 2238 2259 2169 2365 
Q 2100 2472 1995 2528 
Q 1891 2584 1747 2584 
Q 1569 2584 1387 2446 
Q 1206 2309 994 2044 
L 994 78 
Q 994 53 981 36 
Q 969 19 941 6 
Q 913 -6 863 -12 
Q 813 -19 734 -19 
Q 659 -19 609 -12 
Q 559 -6 529 6 
Q 500 19 489 36 
Q 478 53 478 78 
L 478 2891 
Q 478 2916 487 2933 
Q 497 2950 525 2964 
Q 553 2978 597 2983 
Q 641 2988 713 2988 
Q 781 2988 826 2983 
Q 872 2978 897 2964 
Q 922 2950 933 2933 
Q 944 2916 944 2891 
L 944 2519 
Q 1181 2784 1404 2907 
Q 1628 3031 1856 3031 
Q 2031 3031 2170 2990 
Q 2309 2950 2415 2876 
Q 2522 2803 2597 2701 
Q 2672 2600 2722 2475 
Q 2863 2628 2989 2734 
Q 3116 2841 3233 2906 
Q 3350 2972 3461 3001 
Q 3572 3031 3684 3031 
Q 3956 3031 4140 2936 
Q 4325 2841 4439 2681 
Q 4553 2522 4601 2308 
Q 4650 2094 4650 1856 
L 4650 78 
z
" id="Calibri-6d" transform="scale(0.015625)"/>
       <path d="M 3066 1528 
Q 3066 1159 2986 865 
Q 2906 572 2751 367 
Q 2597 163 2369 52 
Q 2141 -59 1847 -59 
Q 1722 -59 1615 -34 
Q 1509 -9 1407 44 
Q 1306 97 1206 178 
Q 1106 259 994 369 
L 994 -1038 
Q 994 -1063 981 -1081 
Q 969 -1100 941 -1112 
Q 913 -1125 863 -1131 
Q 813 -1138 734 -1138 
Q 659 -1138 609 -1131 
Q 559 -1125 529 -1112 
Q 500 -1100 489 -1081 
Q 478 -1063 478 -1038 
L 478 2891 
Q 478 2919 487 2936 
Q 497 2953 525 2965 
Q 553 2978 597 2983 
Q 641 2988 703 2988 
Q 769 2988 811 2983 
Q 853 2978 881 2965 
Q 909 2953 920 2936 
Q 931 2919 931 2891 
L 931 2513 
Q 1059 2644 1178 2741 
Q 1297 2838 1417 2902 
Q 1538 2966 1664 2998 
Q 1791 3031 1931 3031 
Q 2238 3031 2453 2912 
Q 2669 2794 2805 2587 
Q 2941 2381 3003 2107 
Q 3066 1834 3066 1528 
z
M 2522 1469 
Q 2522 1684 2489 1886 
Q 2456 2088 2376 2244 
Q 2297 2400 2162 2494 
Q 2028 2588 1828 2588 
Q 1728 2588 1631 2558 
Q 1534 2528 1434 2464 
Q 1334 2400 1225 2295 
Q 1116 2191 994 2038 
L 994 919 
Q 1206 659 1397 521 
Q 1588 384 1797 384 
Q 1991 384 2130 478 
Q 2269 572 2355 728 
Q 2441 884 2481 1078 
Q 2522 1272 2522 1469 
z
" id="Calibri-70" transform="scale(0.015625)"/>
       <path d="M 994 78 
Q 994 53 981 36 
Q 969 19 941 6 
Q 913 -6 863 -12 
Q 813 -19 734 -19 
Q 659 -19 609 -12 
Q 559 -6 529 6 
Q 500 19 489 36 
Q 478 53 478 78 
L 478 4253 
Q 478 4278 489 4297 
Q 500 4316 529 4328 
Q 559 4341 609 4347 
Q 659 4353 734 4353 
Q 813 4353 863 4347 
Q 913 4341 941 4328 
Q 969 4316 981 4297 
Q 994 4278 994 4253 
L 994 78 
z
" id="Calibri-6c" transform="scale(0.015625)"/>
       <path d="M 994 78 
Q 994 53 981 36 
Q 969 19 941 6 
Q 913 -6 863 -12 
Q 813 -19 734 -19 
Q 659 -19 609 -12 
Q 559 -6 529 6 
Q 500 19 489 36 
Q 478 53 478 78 
L 478 2891 
Q 478 2913 489 2931 
Q 500 2950 529 2962 
Q 559 2975 609 2981 
Q 659 2988 734 2988 
Q 813 2988 863 2981 
Q 913 2975 941 2962 
Q 969 2950 981 2931 
Q 994 2913 994 2891 
L 994 78 
z
M 1053 3841 
Q 1053 3659 984 3593 
Q 916 3528 731 3528 
Q 550 3528 483 3592 
Q 416 3656 416 3834 
Q 416 4016 484 4081 
Q 553 4147 738 4147 
Q 919 4147 986 4083 
Q 1053 4019 1053 3841 
z
" id="Calibri-69" transform="scale(0.015625)"/>
       <path d="M 1941 284 
Q 1941 194 1928 141 
Q 1916 88 1891 63 
Q 1866 38 1816 16 
Q 1766 -6 1702 -20 
Q 1638 -34 1566 -43 
Q 1494 -53 1422 -53 
Q 1203 -53 1047 5 
Q 891 63 791 180 
Q 691 297 645 476 
Q 600 656 600 900 
L 600 2544 
L 206 2544 
Q 159 2544 131 2594 
Q 103 2644 103 2756 
Q 103 2816 111 2856 
Q 119 2897 131 2923 
Q 144 2950 164 2961 
Q 184 2972 209 2972 
L 600 2972 
L 600 3641 
Q 600 3663 611 3681 
Q 622 3700 651 3714 
Q 681 3728 731 3734 
Q 781 3741 856 3741 
Q 934 3741 984 3734 
Q 1034 3728 1062 3714 
Q 1091 3700 1103 3681 
Q 1116 3663 1116 3641 
L 1116 2972 
L 1838 2972 
Q 1863 2972 1881 2961 
Q 1900 2950 1914 2923 
Q 1928 2897 1934 2856 
Q 1941 2816 1941 2756 
Q 1941 2644 1912 2594 
Q 1884 2544 1838 2544 
L 1116 2544 
L 1116 975 
Q 1116 684 1202 536 
Q 1288 388 1509 388 
Q 1581 388 1637 402 
Q 1694 416 1737 431 
Q 1781 447 1812 461 
Q 1844 475 1869 475 
Q 1884 475 1898 467 
Q 1913 459 1920 437 
Q 1928 416 1934 378 
Q 1941 341 1941 284 
z
" id="Calibri-74" transform="scale(0.015625)"/>
       <path d="M 2888 78 
Q 2888 53 2877 36 
Q 2866 19 2837 6 
Q 2809 -6 2764 -12 
Q 2719 -19 2653 -19 
Q 2581 -19 2536 -12 
Q 2491 -6 2464 6 
Q 2438 19 2428 36 
Q 2419 53 2419 78 
L 2419 450 
Q 2178 184 1943 62 
Q 1709 -59 1469 -59 
Q 1188 -59 995 34 
Q 803 128 684 289 
Q 566 450 514 664 
Q 463 878 463 1184 
L 463 2891 
Q 463 2916 473 2933 
Q 484 2950 515 2964 
Q 547 2978 597 2983 
Q 647 2988 722 2988 
Q 797 2988 847 2983 
Q 897 2978 926 2964 
Q 956 2950 968 2933 
Q 981 2916 981 2891 
L 981 1253 
Q 981 1006 1017 857 
Q 1053 709 1126 604 
Q 1200 500 1312 442 
Q 1425 384 1575 384 
Q 1769 384 1961 521 
Q 2153 659 2369 925 
L 2369 2891 
Q 2369 2916 2380 2933 
Q 2391 2950 2422 2964 
Q 2453 2978 2501 2983 
Q 2550 2988 2628 2988 
Q 2703 2988 2753 2983 
Q 2803 2978 2831 2964 
Q 2859 2950 2873 2933 
Q 2888 2916 2888 2891 
L 2888 78 
z
" id="Calibri-75" transform="scale(0.015625)"/>
       <path d="M 2888 78 
Q 2888 53 2877 34 
Q 2866 16 2839 5 
Q 2813 -6 2769 -12 
Q 2725 -19 2663 -19 
Q 2597 -19 2553 -12 
Q 2509 -6 2481 5 
Q 2453 16 2440 34 
Q 2428 53 2428 78 
L 2428 450 
Q 2206 209 1967 75 
Q 1728 -59 1444 -59 
Q 1134 -59 915 61 
Q 697 181 561 386 
Q 425 591 362 867 
Q 300 1144 300 1450 
Q 300 1813 378 2105 
Q 456 2397 609 2603 
Q 763 2809 989 2920 
Q 1216 3031 1513 3031 
Q 1759 3031 1964 2923 
Q 2169 2816 2369 2606 
L 2369 4241 
Q 2369 4263 2380 4283 
Q 2391 4303 2422 4314 
Q 2453 4325 2501 4333 
Q 2550 4341 2625 4341 
Q 2703 4341 2753 4333 
Q 2803 4325 2831 4314 
Q 2859 4303 2873 4283 
Q 2888 4263 2888 4241 
L 2888 78 
z
M 2369 2056 
Q 2159 2316 1964 2452 
Q 1769 2588 1556 2588 
Q 1359 2588 1221 2494 
Q 1084 2400 998 2247 
Q 913 2094 873 1900 
Q 834 1706 834 1506 
Q 834 1294 867 1091 
Q 900 888 981 730 
Q 1063 572 1197 476 
Q 1331 381 1534 381 
Q 1638 381 1733 409 
Q 1828 438 1928 503 
Q 2028 569 2137 673 
Q 2247 778 2369 931 
L 2369 2056 
z
" id="Calibri-64" transform="scale(0.015625)"/>
      </defs>
      <use xlink:href="#Calibri-41"/>
      <use x="57.861328" xlink:href="#Calibri-6d"/>
      <use x="137.744141" xlink:href="#Calibri-70"/>
      <use x="190.283203" xlink:href="#Calibri-6c"/>
      <use x="213.232422" xlink:href="#Calibri-69"/>
      <use x="236.181641" xlink:href="#Calibri-74"/>
      <use x="269.677734" xlink:href="#Calibri-75"/>
      <use x="322.216797" xlink:href="#Calibri-64"/>
     </g>
    </g>
   </g>
   <g id="line2d_13">
    <path clip-path="url(#p1fe50a9d7c)" d="M 47.821758 91.81302 
L 49.781984 93.644271 
L 50.342048 93.737668 
L 50.902113 93.468348 
L 51.462177 92.865734 
L 52.582306 91.084851 
L 53.422403 89.934381 
L 53.982468 89.635105 
L 54.2625 89.682164 
L 54.542532 89.872054 
L 55.102597 90.679439 
L 55.662661 91.982233 
L 57.342855 96.542953 
L 57.902919 97.25032 
L 58.182952 97.297787 
L 58.462984 97.116172 
L 58.743016 96.698658 
L 59.303081 95.185525 
L 60.143178 91.605748 
L 61.263307 86.358013 
L 61.823371 84.574513 
L 62.103403 84.080024 
L 62.383436 83.90094 
L 62.663468 84.061833 
L 62.9435 84.572016 
L 63.503565 86.601848 
L 64.063629 89.774331 
L 66.023855 102.853904 
L 66.58392 104.699769 
L 66.863952 104.996547 
L 67.143984 104.840061 
L 67.424016 104.223857 
L 67.984081 101.67325 
L 68.544145 97.63586 
L 70.784404 79.084686 
L 71.344468 77.21422 
L 71.6245 77.007727 
L 71.904533 77.301392 
L 72.184565 78.083153 
L 72.744629 80.973622 
L 73.584726 87.723689 
L 74.984887 99.883301 
L 75.544952 103.157558 
L 76.105017 104.865304 
L 76.385049 105.09031 
L 76.665081 104.896147 
L 76.945113 104.323484 
L 77.505178 102.147803 
L 78.345275 97.256515 
L 79.465404 90.565828 
L 80.025468 88.23644 
L 80.585533 86.906505 
L 80.865565 86.649578 
L 81.145597 86.640855 
L 81.42563 86.848868 
L 81.985694 87.848219 
L 83.94592 92.625342 
L 84.505984 93.188303 
L 84.786017 93.250147 
L 85.066049 93.164497 
L 85.626113 92.63192 
L 86.746243 90.789333 
L 87.306307 89.969287 
L 87.866372 89.498425 
L 88.426436 89.486722 
L 88.986501 89.982802 
L 89.546565 90.878475 
L 91.786823 95.188602 
L 92.346888 95.597196 
L 92.906952 95.586265 
L 93.467017 95.210696 
L 94.307114 94.18018 
L 95.427243 92.684441 
L 96.267339 91.959762 
L 96.827404 91.737707 
L 97.667501 91.733219 
L 99.347694 91.966023 
L 100.187791 91.741509 
L 101.30792 91.149114 
L 102.148017 90.749519 
L 102.708081 90.62793 
L 103.268146 90.708321 
L 104.108243 91.214614 
L 106.348501 93.565769 
L 107.188598 94.013705 
L 107.748662 94.050525 
L 108.308727 93.904008 
L 109.148824 93.402109 
L 110.268953 92.56805 
L 111.109049 92.137592 
L 111.669114 91.987036 
L 112.229178 91.919786 
L 113.349307 91.98237 
L 114.749469 91.982469 
L 115.589566 91.751461 
L 116.709695 91.33405 
L 117.549791 91.134551 
L 118.66992 91.469338 
L 120.350114 92.725978 
L 121.470243 93.586186 
L 122.31034 93.902086 
L 123.150437 93.928319 
L 123.990533 93.522665 
L 127.070888 91.496568 
L 127.910985 91.348679 
L 129.031114 91.373826 
L 132.671534 91.660706 
L 133.51163 92.042154 
L 134.351727 92.655253 
L 136.311953 94.191003 
L 136.872017 94.393735 
L 137.432082 94.383664 
L 137.992147 94.151837 
L 138.832243 93.430864 
L 141.072501 90.876124 
L 141.912598 90.403578 
L 142.752695 90.362816 
L 143.592792 90.67628 
L 146.113082 91.961151 
L 148.073308 92.656471 
L 148.913405 93.150177 
L 149.753502 93.926907 
L 151.153663 95.214837 
L 151.713727 95.420351 
L 152.273792 95.28466 
L 152.833856 94.757575 
L 153.393921 93.855828 
L 154.234018 91.934021 
L 155.634179 88.466268 
L 156.194244 87.529596 
L 156.754308 87.101458 
L 157.03434 87.111189 
L 157.314373 87.26765 
L 157.874437 88.042472 
L 158.434502 89.333707 
L 159.554631 92.808771 
L 160.394728 95.262665 
L 160.954792 96.398281 
L 161.514857 96.942633 
L 161.794889 96.97333 
L 162.074921 96.849282 
L 162.634986 96.142602 
L 163.475082 94.329688 
L 164.875244 91.164475 
L 165.435308 90.404084 
L 165.995373 90.113817 
L 166.555437 90.291167 
L 167.115502 90.834288 
L 168.795695 92.944314 
L 169.35576 93.211087 
L 169.915824 93.066478 
L 170.475889 92.542049 
L 171.596018 90.875779 
L 172.436115 89.869238 
L 172.996179 89.655777 
L 173.276212 89.735727 
L 173.836276 90.269587 
L 174.396341 91.263607 
L 176.356566 95.324591 
L 176.636599 95.554284 
L 176.916631 95.621868 
L 177.196663 95.506242 
L 177.476696 95.223662 
L 178.03676 94.15194 
L 178.876857 91.580193 
L 179.996986 87.978927 
L 180.55705 86.958504 
L 180.837083 86.790759 
L 181.117115 86.888403 
L 181.397147 87.266724 
L 181.957212 88.894002 
L 182.517276 91.558293 
L 184.757534 104.341644 
L 185.037567 105.047928 
L 185.317599 105.343855 
L 185.597631 105.188103 
L 185.877663 104.555108 
L 186.157696 103.43841 
L 186.71776 99.776098 
L 187.277825 94.468667 
L 189.798115 67.442377 
L 190.078147 66.109386 
L 190.35818 65.440574 
L 190.638212 65.470598 
L 190.918244 66.236642 
L 191.198276 67.759875 
L 191.758341 72.969531 
L 192.318405 80.72836 
L 193.438534 100.810604 
L 194.558664 119.961267 
L 195.118728 126.375283 
L 195.39876 128.379828 
L 195.678793 129.455993 
L 195.958825 129.557844 
L 196.238857 128.646758 
L 196.518889 126.711402 
L 197.078954 119.885035 
L 197.639018 109.570711 
L 198.759147 82.387639 
L 199.879277 55.570593 
L 200.439341 45.921798 
L 200.999406 40.36909 
L 201.279438 39.369361 
L 201.55947 39.62231 
L 201.839502 41.141309 
L 202.119535 43.896044 
L 202.679599 52.850179 
L 203.519696 73.040187 
L 205.479922 125.429565 
L 206.039986 134.64498 
L 206.320019 137.530793 
L 206.600051 139.168816 
L 206.880083 139.529977 
L 207.160115 138.626643 
L 207.440148 136.504809 
L 208.000212 128.953275 
L 208.840309 111.420285 
L 210.520503 72.064082 
L 211.080567 62.817399 
L 211.640632 57.064887 
L 211.920664 55.599093 
L 212.200696 55.076103 
L 212.480728 55.449353 
L 212.760761 56.660341 
L 213.320825 61.247345 
L 214.160922 71.874312 
L 215.841115 95.436546 
L 216.681212 104.200203 
L 217.521309 110.284696 
L 218.361406 114.385673 
L 219.201503 117.415336 
L 220.041599 119.745309 
L 220.601664 120.652791 
L 220.881696 120.804372 
L 221.161728 120.685664 
L 221.441761 120.233798 
L 221.721793 119.427913 
L 222.281858 116.53951 
L 222.841922 111.786942 
L 223.401987 105.195602 
L 224.242083 92.527478 
L 225.922277 65.62124 
L 226.482341 59.298563 
L 227.042406 55.483427 
L 227.322438 54.662703 
L 227.602471 54.570168 
L 227.882503 55.221097 
L 228.162535 56.57095 
L 228.7226 61.164414 
L 229.562696 71.560457 
L 231.522922 98.181209 
L 232.082987 103.439572 
L 232.643051 107.148056 
L 233.203116 109.435321 
L 233.76318 110.626833 
L 234.323245 111.144568 
L 235.723406 111.936853 
L 236.563503 112.921691 
L 237.4036 113.858503 
L 237.683632 113.970805 
L 237.963664 113.91687 
L 238.243696 113.662838 
L 238.523729 113.165875 
L 239.083793 111.293657 
L 239.643858 108.214609 
L 240.483955 101.571924 
L 242.724213 81.281777 
L 243.284277 78.193117 
L 243.844342 76.528284 
L 244.124374 76.237838 
L 244.404406 76.330765 
L 244.684439 76.676363 
L 245.244503 78.112378 
L 246.364632 82.72443 
L 247.204729 85.854208 
L 247.764793 87.218664 
L 248.324858 87.885318 
L 248.60489 87.951438 
L 249.164955 87.696789 
L 250.565116 86.235421 
L 250.845148 86.107723 
L 251.405213 86.272867 
L 251.965277 87.072226 
L 252.525342 88.550284 
L 253.085406 90.473679 
L 255.045632 97.978863 
L 255.605697 99.21016 
L 256.165761 99.742831 
L 256.445794 99.815999 
L 256.725826 99.662523 
L 257.28589 98.964096 
L 258.406019 96.575002 
L 259.526148 94.232024 
L 260.086213 93.388606 
L 260.646277 92.952517 
L 261.206342 92.848764 
L 261.766407 93.002934 
L 263.726632 93.876388 
L 264.286697 93.760821 
L 265.126794 93.236813 
L 267.647084 91.145534 
L 268.207149 91.007532 
L 269.047245 91.110534 
L 271.567536 91.754959 
L 272.407633 91.553385 
L 273.247729 91.117929 
L 274.927923 90.167318 
L 275.76802 90.001979 
L 276.328084 90.051731 
L 277.168181 90.424237 
L 278.008278 91.068011 
L 280.248536 92.925532 
L 281.368665 93.440908 
L 282.488794 93.61196 
L 285.009084 93.680258 
L 286.409246 93.927081 
L 287.809407 94.148038 
L 288.649504 94.093526 
L 289.769633 93.704183 
L 291.169794 92.78993 
L 292.569955 91.774479 
L 293.410052 91.348978 
L 294.250149 91.163382 
L 295.090246 91.20773 
L 296.770439 91.664491 
L 297.890568 91.840713 
L 299.010697 91.70841 
L 302.371085 90.869611 
L 303.211181 91.034954 
L 304.051278 91.398395 
L 306.571569 92.718056 
L 307.411665 92.908879 
L 308.531794 92.911676 
L 311.332117 92.654124 
L 313.292343 92.885753 
L 314.692504 92.998832 
L 316.092665 92.868613 
L 319.453053 92.185495 
L 321.133246 92.236598 
L 323.933569 92.416655 
L 326.173827 92.199695 
L 327.85402 92.121335 
L 329.534214 92.252415 
L 331.774472 92.436548 
L 333.734698 92.350636 
L 336.254988 92.204405 
L 344.655956 92.252914 
L 349.416505 92.449984 
L 364.818279 92.249296 
L 392.261441 92.308165 
L 392.261441 92.308165 
" style="fill:none;stroke:#000000;stroke-linecap:square;stroke-width:0.8;"/>
   </g>
   <g id="line2d_14">
    <path clip-path="url(#p1fe50a9d7c)" d="M 47.821758 91.136842 
L 52.022242 90.477563 
L 53.422403 89.866497 
L 56.502758 88.178439 
L 59.023049 86.661267 
L 60.703242 85.360214 
L 62.9435 83.255072 
L 66.58392 79.834555 
L 68.544145 78.342441 
L 69.944307 77.533439 
L 71.064436 77.114585 
L 72.184565 76.960757 
L 73.024662 77.053867 
L 73.864758 77.344382 
L 74.704855 77.839641 
L 75.824984 78.802425 
L 76.945113 80.05885 
L 78.345275 81.980339 
L 80.585533 85.488394 
L 83.105823 89.365671 
L 84.225952 90.825327 
L 84.786017 91.329931 
L 85.066049 91.438302 
L 85.346081 91.412242 
L 85.906146 91.05476 
L 88.146404 89.30948 
L 88.986501 88.888796 
L 90.10663 88.592194 
L 91.226759 88.587928 
L 92.62692 88.930577 
L 94.307114 89.687126 
L 97.667501 91.425683 
L 98.507598 91.678087 
L 99.347694 91.631432 
L 101.867985 90.823667 
L 104.108243 90.307076 
L 107.748662 90.570678 
L 109.428856 90.957201 
L 111.669114 91.568693 
L 114.469436 91.849547 
L 115.029501 91.757133 
L 116.14963 91.451911 
L 116.989727 91.241778 
L 119.229985 90.831283 
L 121.470243 90.670209 
L 124.83063 90.810722 
L 130.431275 91.391385 
L 132.111469 91.188629 
L 137.432082 90.156047 
L 139.67234 90.013234 
L 141.632566 90.18262 
L 143.592792 90.540578 
L 145.553018 90.946016 
L 146.673147 91.018811 
L 147.793276 90.895405 
L 148.913405 90.573472 
L 150.593598 89.726899 
L 153.673953 88.08177 
L 155.634179 87.333858 
L 157.03434 87.066108 
L 158.434502 87.021261 
L 159.834663 87.172382 
L 161.514857 87.561354 
L 162.915018 88.0746 
L 164.595211 88.933277 
L 165.995373 89.865577 
L 168.235631 91.462242 
L 168.795695 91.567627 
L 169.35576 91.370925 
L 172.436115 89.77722 
L 173.836276 89.503327 
L 176.356566 89.150801 
L 177.756728 88.603224 
L 179.716954 87.510709 
L 181.117115 86.490265 
L 181.957212 85.610395 
L 182.797309 84.413644 
L 183.637405 82.853398 
L 184.757534 80.244514 
L 186.437728 75.590289 
L 188.958018 68.609452 
L 190.35818 65.391777 
L 191.758341 62.741098 
L 194.558664 57.77058 
L 195.678793 55.16305 
L 197.078954 51.153436 
L 200.159309 41.730596 
L 200.999406 39.861704 
L 201.839502 38.597263 
L 202.399567 38.14409 
L 202.959631 38.025179 
L 203.519696 38.244553 
L 204.07976 38.78258 
L 204.639825 39.618284 
L 205.479922 41.324204 
L 206.600051 44.215349 
L 208.560277 49.448852 
L 209.680406 51.759309 
L 210.520503 53.049651 
L 211.920664 54.680707 
L 213.320825 56.404477 
L 214.440954 58.280818 
L 215.841115 61.228561 
L 217.241277 64.081174 
L 218.081374 65.208183 
L 218.641438 65.546257 
L 218.92147 65.576381 
L 219.481535 65.333166 
L 220.041599 64.738005 
L 220.601664 63.879288 
L 221.721793 61.629617 
L 223.682019 57.520205 
L 224.802148 55.757943 
L 225.642245 54.870553 
L 226.202309 54.514569 
L 226.762374 54.364961 
L 227.322438 54.441113 
L 227.882503 54.741914 
L 228.442567 55.272227 
L 229.282664 56.544827 
L 230.122761 58.348142 
L 231.24289 61.473742 
L 234.043213 70.129725 
L 234.603277 71.258249 
L 235.163342 71.947261 
L 235.723406 72.149845 
L 236.003438 72.093854 
L 236.563503 71.666938 
L 237.4036 70.540925 
L 239.083793 68.121469 
L 239.643858 67.628552 
L 240.203922 67.425807 
L 240.763987 67.50652 
L 241.324051 67.914384 
L 241.884116 68.639656 
L 242.44418 69.647866 
L 243.284277 71.71756 
L 244.684439 76.158013 
L 247.484761 85.683724 
L 248.044826 86.88477 
L 248.60489 87.498428 
L 248.884922 87.515049 
L 249.164955 87.416871 
L 249.725019 86.807273 
L 252.24531 83.485749 
L 253.365439 82.917272 
L 253.925503 82.846877 
L 254.7656 83.105706 
L 255.605697 83.705821 
L 257.28589 85.622742 
L 259.806181 89.203576 
L 260.92631 90.640276 
L 261.486374 91.073912 
L 262.046439 91.162981 
L 262.606503 90.943525 
L 263.726632 90.23414 
L 264.566729 89.903983 
L 265.406826 89.755638 
L 266.526955 89.820312 
L 267.647084 90.206654 
L 268.767213 90.71961 
L 269.887342 91.262239 
L 270.727439 91.497407 
L 271.567536 91.392709 
L 272.687665 90.963823 
L 274.087826 90.406814 
L 275.487987 90.023034 
L 277.168181 89.803753 
L 278.568342 89.867037 
L 280.8086 90.260979 
L 283.608923 90.847384 
L 285.009084 90.869994 
L 286.409246 90.690061 
L 289.489601 90.217114 
L 290.889762 90.191008 
L 292.009891 90.271639 
L 293.970117 90.72288 
L 297.610536 91.764927 
L 298.450633 91.666897 
L 302.931149 90.76106 
L 304.611343 90.787498 
L 306.571569 91.106808 
L 310.49202 91.878624 
L 311.892182 91.814763 
L 315.532601 91.627858 
L 318.892988 91.935702 
L 322.253375 92.269616 
L 324.773666 92.101807 
L 328.134053 92.126073 
L 332.614569 92.183976 
L 337.095085 92.210916 
L 340.735505 92.261678 
L 348.296376 92.150953 
L 364.538247 92.250297 
L 381.900247 92.29659 
L 392.261441 92.306389 
L 392.261441 92.306389 
" style="fill:none;stroke:#0000ff;stroke-linecap:square;stroke-width:0.8;"/>
   </g>
   <g id="patch_3">
    <path d="M 48.08 157.746667 
L 48.08 26.88 
" style="fill:none;stroke:#000000;stroke-linecap:square;stroke-linejoin:miter;stroke-width:0.8;"/>
   </g>
   <g id="patch_4">
    <path d="M 392.175 157.746667 
L 392.175 26.88 
" style="fill:none;stroke:#000000;stroke-linecap:square;stroke-linejoin:miter;stroke-width:0.8;"/>
   </g>
   <g id="patch_5">
    <path d="M 48.08 157.746667 
L 392.175 157.746667 
" style="fill:none;stroke:#000000;stroke-linecap:square;stroke-linejoin:miter;stroke-width:0.8;"/>
   </g>
   <g id="patch_6">
    <path d="M 48.08 26.88 
L 392.175 26.88 
" style="fill:none;stroke:#000000;stroke-linecap:square;stroke-linejoin:miter;stroke-width:0.8;"/>
   </g>
   <g id="text_14">
    <!-- $yt_{LP}(n)$ -->
    <g transform="translate(200.6875 20.88)scale(0.12 -0.12)">
     <defs>
      <path d="M 1588 -325 
Q 1188 -997 936 -1164 
Q 684 -1331 294 -1331 
L -159 -1331 
L -63 -850 
L 269 -850 
Q 509 -850 678 -719 
Q 847 -588 1056 -206 
L 1234 128 
L 459 3500 
L 1069 3500 
L 1650 819 
L 3256 3500 
L 3859 3500 
L 1588 -325 
z
" id="DejaVuSans-Oblique-79" transform="scale(0.015625)"/>
      <path d="M 2706 3500 
L 2619 3053 
L 1472 3053 
L 1100 1153 
Q 1081 1047 1072 975 
Q 1063 903 1063 863 
Q 1063 663 1183 572 
Q 1303 481 1569 481 
L 2150 481 
L 2053 0 
L 1503 0 
Q 991 0 739 200 
Q 488 400 488 806 
Q 488 878 497 964 
Q 506 1050 525 1153 
L 897 3053 
L 409 3053 
L 500 3500 
L 978 3500 
L 1172 4494 
L 1747 4494 
L 1556 3500 
L 2706 3500 
z
" id="DejaVuSans-Oblique-74" transform="scale(0.015625)"/>
      <path d="M 1075 4666 
L 1709 4666 
L 909 525 
L 3181 525 
L 3078 0 
L 172 0 
L 1075 4666 
z
" id="DejaVuSans-Oblique-4c" transform="scale(0.015625)"/>
      <path d="M 1081 4666 
L 2541 4666 
Q 3178 4666 3512 4369 
Q 3847 4072 3847 3500 
Q 3847 2731 3353 2303 
Q 2859 1875 1966 1875 
L 1172 1875 
L 806 0 
L 172 0 
L 1081 4666 
z
M 1613 4147 
L 1275 2394 
L 2069 2394 
Q 2606 2394 2893 2669 
Q 3181 2944 3181 3456 
Q 3181 3784 2986 3965 
Q 2791 4147 2438 4147 
L 1613 4147 
z
" id="DejaVuSans-Oblique-50" transform="scale(0.015625)"/>
      <path d="M 1984 4856 
Q 1566 4138 1362 3434 
Q 1159 2731 1159 2009 
Q 1159 1288 1364 580 
Q 1569 -128 1984 -844 
L 1484 -844 
Q 1016 -109 783 600 
Q 550 1309 550 2009 
Q 550 2706 781 3412 
Q 1013 4119 1484 4856 
L 1984 4856 
z
" id="DejaVuSans-28" transform="scale(0.015625)"/>
      <path d="M 3566 2113 
L 3156 0 
L 2578 0 
L 2988 2091 
Q 3016 2238 3031 2350 
Q 3047 2463 3047 2528 
Q 3047 2791 2881 2937 
Q 2716 3084 2419 3084 
Q 1956 3084 1622 2776 
Q 1288 2469 1184 1941 
L 800 0 
L 225 0 
L 903 3500 
L 1478 3500 
L 1363 2950 
Q 1603 3253 1940 3418 
Q 2278 3584 2650 3584 
Q 3113 3584 3367 3334 
Q 3622 3084 3622 2631 
Q 3622 2519 3608 2391 
Q 3594 2263 3566 2113 
z
" id="DejaVuSans-Oblique-6e" transform="scale(0.015625)"/>
      <path d="M 513 4856 
L 1013 4856 
Q 1481 4119 1714 3412 
Q 1947 2706 1947 2009 
Q 1947 1309 1714 600 
Q 1481 -109 1013 -844 
L 513 -844 
Q 928 -128 1133 580 
Q 1338 1288 1338 2009 
Q 1338 2731 1133 3434 
Q 928 4138 513 4856 
z
" id="DejaVuSans-29" transform="scale(0.015625)"/>
     </defs>
     <use transform="translate(0 0.125)" xlink:href="#DejaVuSans-Oblique-79"/>
     <use transform="translate(59.179688 0.125)" xlink:href="#DejaVuSans-Oblique-74"/>
     <use transform="translate(98.388672 -16.28125)scale(0.7)" xlink:href="#DejaVuSans-Oblique-4c"/>
     <use transform="translate(137.387695 -16.28125)scale(0.7)" xlink:href="#DejaVuSans-Oblique-50"/>
     <use transform="translate(182.333984 0.125)" xlink:href="#DejaVuSans-28"/>
     <use transform="translate(221.347656 0.125)" xlink:href="#DejaVuSans-Oblique-6e"/>
     <use transform="translate(284.726562 0.125)" xlink:href="#DejaVuSans-29"/>
    </g>
   </g>
  </g>
  <g id="axes_2">
   <g id="patch_7">
    <path d="M 48.08 331.133333 
L 392.175 331.133333 
L 392.175 200.266667 
L 48.08 200.266667 
z
" style="fill:#ffffff;"/>
   </g>
   <g id="matplotlib.axis_3">
    <g id="xtick_8">
     <g id="line2d_15">
      <g>
       <use style="stroke:#000000;stroke-width:0.8;" x="48.08" xlink:href="#m4db5183e7f" y="331.133333"/>
      </g>
     </g>
     <g id="text_15">
      <!-- 2.70 -->
      <g transform="translate(39.214375 344.934896)scale(0.1 -0.1)">
       <use xlink:href="#Calibri-32"/>
       <use x="50.683594" xlink:href="#Calibri-2e"/>
       <use x="75.927734" xlink:href="#Calibri-37"/>
       <use x="126.611328" xlink:href="#Calibri-30"/>
      </g>
     </g>
    </g>
    <g id="xtick_9">
     <g id="line2d_16">
      <g>
       <use style="stroke:#000000;stroke-width:0.8;" x="105.429167" xlink:href="#m4db5183e7f" y="331.133333"/>
      </g>
     </g>
     <g id="text_16">
      <!-- 2.75 -->
      <g transform="translate(96.563542 344.934896)scale(0.1 -0.1)">
       <use xlink:href="#Calibri-32"/>
       <use x="50.683594" xlink:href="#Calibri-2e"/>
       <use x="75.927734" xlink:href="#Calibri-37"/>
       <use x="126.611328" xlink:href="#Calibri-35"/>
      </g>
     </g>
    </g>
    <g id="xtick_10">
     <g id="line2d_17">
      <g>
       <use style="stroke:#000000;stroke-width:0.8;" x="162.778333" xlink:href="#m4db5183e7f" y="331.133333"/>
      </g>
     </g>
     <g id="text_17">
      <!-- 2.80 -->
      <g transform="translate(153.912708 344.934896)scale(0.1 -0.1)">
       <use xlink:href="#Calibri-32"/>
       <use x="50.683594" xlink:href="#Calibri-2e"/>
       <use x="75.927734" xlink:href="#Calibri-38"/>
       <use x="126.611328" xlink:href="#Calibri-30"/>
      </g>
     </g>
    </g>
    <g id="xtick_11">
     <g id="line2d_18">
      <g>
       <use style="stroke:#000000;stroke-width:0.8;" x="220.1275" xlink:href="#m4db5183e7f" y="331.133333"/>
      </g>
     </g>
     <g id="text_18">
      <!-- 2.85 -->
      <g transform="translate(211.261875 344.934896)scale(0.1 -0.1)">
       <use xlink:href="#Calibri-32"/>
       <use x="50.683594" xlink:href="#Calibri-2e"/>
       <use x="75.927734" xlink:href="#Calibri-38"/>
       <use x="126.611328" xlink:href="#Calibri-35"/>
      </g>
     </g>
    </g>
    <g id="xtick_12">
     <g id="line2d_19">
      <g>
       <use style="stroke:#000000;stroke-width:0.8;" x="277.476667" xlink:href="#m4db5183e7f" y="331.133333"/>
      </g>
     </g>
     <g id="text_19">
      <!-- 2.90 -->
      <g transform="translate(268.611042 344.934896)scale(0.1 -0.1)">
       <use xlink:href="#Calibri-32"/>
       <use x="50.683594" xlink:href="#Calibri-2e"/>
       <use x="75.927734" xlink:href="#Calibri-39"/>
       <use x="126.611328" xlink:href="#Calibri-30"/>
      </g>
     </g>
    </g>
    <g id="xtick_13">
     <g id="line2d_20">
      <g>
       <use style="stroke:#000000;stroke-width:0.8;" x="334.825833" xlink:href="#m4db5183e7f" y="331.133333"/>
      </g>
     </g>
     <g id="text_20">
      <!-- 2.95 -->
      <g transform="translate(325.960208 344.934896)scale(0.1 -0.1)">
       <use xlink:href="#Calibri-32"/>
       <use x="50.683594" xlink:href="#Calibri-2e"/>
       <use x="75.927734" xlink:href="#Calibri-39"/>
       <use x="126.611328" xlink:href="#Calibri-35"/>
      </g>
     </g>
    </g>
    <g id="xtick_14">
     <g id="line2d_21">
      <g>
       <use style="stroke:#000000;stroke-width:0.8;" x="392.175" xlink:href="#m4db5183e7f" y="331.133333"/>
      </g>
     </g>
     <g id="text_21">
      <!-- 3.00 -->
      <g transform="translate(383.309375 344.934896)scale(0.1 -0.1)">
       <use xlink:href="#Calibri-33"/>
       <use x="50.683594" xlink:href="#Calibri-2e"/>
       <use x="75.927734" xlink:href="#Calibri-30"/>
       <use x="126.611328" xlink:href="#Calibri-30"/>
      </g>
     </g>
    </g>
   </g>
   <g id="matplotlib.axis_4">
    <g id="ytick_6">
     <g id="line2d_22">
      <g>
       <use style="stroke:#000000;stroke-width:0.8;" x="48.08" xlink:href="#m837690a1af" y="331.133333"/>
      </g>
     </g>
     <g id="text_22">
      <!-- −1.0 -->
      <g transform="translate(23.43625 334.534115)scale(0.1 -0.1)">
       <use xlink:href="#Calibri-2212"/>
       <use x="49.804688" xlink:href="#Calibri-31"/>
       <use x="100.488281" xlink:href="#Calibri-2e"/>
       <use x="125.732422" xlink:href="#Calibri-30"/>
      </g>
     </g>
    </g>
    <g id="ytick_7">
     <g id="line2d_23">
      <g>
       <use style="stroke:#000000;stroke-width:0.8;" x="48.08" xlink:href="#m837690a1af" y="298.416667"/>
      </g>
     </g>
     <g id="text_23">
      <!-- −0.5 -->
      <g transform="translate(23.43625 301.817448)scale(0.1 -0.1)">
       <use xlink:href="#Calibri-2212"/>
       <use x="49.804688" xlink:href="#Calibri-30"/>
       <use x="100.488281" xlink:href="#Calibri-2e"/>
       <use x="125.732422" xlink:href="#Calibri-35"/>
      </g>
     </g>
    </g>
    <g id="ytick_8">
     <g id="line2d_24">
      <g>
       <use style="stroke:#000000;stroke-width:0.8;" x="48.08" xlink:href="#m837690a1af" y="265.7"/>
      </g>
     </g>
     <g id="text_24">
      <!-- 0.0 -->
      <g transform="translate(28.4175 269.100781)scale(0.1 -0.1)">
       <use xlink:href="#Calibri-30"/>
       <use x="50.683594" xlink:href="#Calibri-2e"/>
       <use x="75.927734" xlink:href="#Calibri-30"/>
      </g>
     </g>
    </g>
    <g id="ytick_9">
     <g id="line2d_25">
      <g>
       <use style="stroke:#000000;stroke-width:0.8;" x="48.08" xlink:href="#m837690a1af" y="232.983333"/>
      </g>
     </g>
     <g id="text_25">
      <!-- 0.5 -->
      <g transform="translate(28.4175 236.384115)scale(0.1 -0.1)">
       <use xlink:href="#Calibri-30"/>
       <use x="50.683594" xlink:href="#Calibri-2e"/>
       <use x="75.927734" xlink:href="#Calibri-35"/>
      </g>
     </g>
    </g>
    <g id="ytick_10">
     <g id="line2d_26">
      <g>
       <use style="stroke:#000000;stroke-width:0.8;" x="48.08" xlink:href="#m837690a1af" y="200.266667"/>
      </g>
     </g>
     <g id="text_26">
      <!-- 1.0 -->
      <g transform="translate(28.4175 203.667448)scale(0.1 -0.1)">
       <use xlink:href="#Calibri-31"/>
       <use x="50.683594" xlink:href="#Calibri-2e"/>
       <use x="75.927734" xlink:href="#Calibri-30"/>
      </g>
     </g>
    </g>
    <g id="text_27">
     <!-- Amplitud -->
     <g transform="translate(17.658125 284.439844)rotate(-90)scale(0.1 -0.1)">
      <use xlink:href="#Calibri-41"/>
      <use x="57.861328" xlink:href="#Calibri-6d"/>
      <use x="137.744141" xlink:href="#Calibri-70"/>
      <use x="190.283203" xlink:href="#Calibri-6c"/>
      <use x="213.232422" xlink:href="#Calibri-69"/>
      <use x="236.181641" xlink:href="#Calibri-74"/>
      <use x="269.677734" xlink:href="#Calibri-75"/>
      <use x="322.216797" xlink:href="#Calibri-64"/>
     </g>
    </g>
   </g>
   <g id="line2d_27">
    <path clip-path="url(#pce2bc2e895)" d="M 47.821758 264.199019 
L 48.661855 265.885257 
L 49.781984 268.221822 
L 50.342048 268.945176 
L 50.622081 269.121044 
L 50.902113 269.153553 
L 51.182145 269.032262 
L 51.462177 268.750316 
L 52.022242 267.703907 
L 52.862339 265.173906 
L 53.702436 262.495123 
L 54.2625 261.353397 
L 54.542532 261.100048 
L 54.822565 261.080668 
L 55.102597 261.290279 
L 55.662661 262.294777 
L 56.502758 264.646272 
L 58.462984 270.344177 
L 59.023049 271.450708 
L 59.303081 271.707448 
L 59.583113 271.670747 
L 59.863145 271.276321 
L 60.143178 270.48495 
L 60.703242 267.76636 
L 62.103403 259.400396 
L 62.383436 258.589347 
L 62.663468 258.300144 
L 62.9435 258.552486 
L 63.223532 259.31336 
L 63.783597 261.947075 
L 64.623694 266.10711 
L 64.903726 266.90999 
L 65.183758 267.327963 
L 65.463791 267.430325 
L 66.303887 267.180217 
L 66.58392 267.32364 
L 66.863952 267.6979 
L 67.424016 269.162951 
L 68.544145 272.821544 
L 68.824178 272.849653 
L 69.10421 272.113063 
L 69.384242 270.552504 
L 69.944307 265.504671 
L 70.784404 257.648975 
L 71.064436 256.043667 
L 71.344468 255.144095 
L 71.6245 254.962688 
L 71.904533 255.493217 
L 72.184565 256.72527 
L 72.744629 261.097645 
L 73.864758 271.781077 
L 74.144791 273.178045 
L 74.424823 273.737066 
L 74.704855 273.533443 
L 74.984887 272.749745 
L 76.665081 266.393315 
L 77.225146 265.673025 
L 78.345275 265.096787 
L 78.905339 263.926685 
L 80.025468 260.656195 
L 80.3055 260.281814 
L 80.585533 260.258045 
L 80.865565 260.609563 
L 81.145597 261.32182 
L 81.705662 263.602061 
L 82.825791 268.985278 
L 83.385855 270.709244 
L 83.665888 271.171074 
L 83.94592 271.361673 
L 84.225952 271.295298 
L 84.505984 270.994163 
L 85.066049 269.791479 
L 85.626113 267.962484 
L 87.586339 260.801077 
L 87.866372 260.35766 
L 88.146404 260.19333 
L 88.426436 260.32116 
L 88.706468 260.734245 
L 89.266533 262.286145 
L 90.946726 268.394089 
L 91.506791 269.507238 
L 91.786823 269.786399 
L 92.066855 269.885564 
L 92.346888 269.816034 
L 92.906952 269.227297 
L 93.467017 268.138604 
L 94.587146 265.102363 
L 95.427243 263.015249 
L 95.987307 262.230903 
L 96.267339 262.100995 
L 96.547372 262.157557 
L 96.827404 262.392981 
L 97.387468 263.32049 
L 98.227565 265.416511 
L 99.067662 267.467936 
L 99.627727 268.315126 
L 99.907759 268.519114 
L 100.187791 268.569734 
L 100.467823 268.468785 
L 101.027888 267.843963 
L 101.867985 266.162995 
L 102.708081 264.437282 
L 103.268146 263.74261 
L 103.548178 263.60008 
L 103.828211 263.59843 
L 104.388275 263.957992 
L 105.228372 265.053438 
L 106.348501 266.644765 
L 106.908565 267.106409 
L 107.46863 267.237921 
L 108.028694 267.068429 
L 108.588759 266.621425 
L 109.708888 265.242841 
L 110.548985 264.358352 
L 111.109049 264.119409 
L 111.669114 264.282904 
L 112.229178 264.772388 
L 113.349307 266.193495 
L 114.189404 267.188452 
L 114.749469 267.430175 
L 115.309533 267.233448 
L 115.869598 266.706538 
L 116.989727 265.165459 
L 117.549791 264.484228 
L 118.109856 264.169998 
L 118.66992 264.291353 
L 119.510017 264.928585 
L 121.470243 266.599507 
L 122.030308 266.750852 
L 122.870404 266.714917 
L 123.430469 266.486757 
L 124.270566 265.783536 
L 125.110662 265.088279 
L 125.950759 264.699213 
L 126.510824 264.658975 
L 127.070888 264.857176 
L 127.910985 265.541005 
L 129.031114 266.491739 
L 129.591179 266.704448 
L 130.151243 266.683849 
L 130.711308 266.442083 
L 131.831437 265.5566 
L 132.671534 264.960716 
L 133.231598 264.768899 
L 133.791663 264.80146 
L 134.631759 265.206766 
L 136.591985 266.466309 
L 137.15205 266.619329 
L 137.712114 266.612793 
L 138.272179 266.44445 
L 139.112276 265.898891 
L 140.792469 264.577882 
L 141.352534 264.466913 
L 141.912598 264.618998 
L 142.472663 265.011381 
L 144.712921 267.045221 
L 145.272985 267.110078 
L 145.83305 266.892866 
L 146.673147 266.154909 
L 148.35334 264.45405 
L 148.913405 264.17138 
L 149.473469 264.184222 
L 150.033534 264.485465 
L 150.873631 265.310088 
L 152.833856 267.56689 
L 153.393921 267.809457 
L 153.673953 267.783551 
L 154.234018 267.37291 
L 154.794082 266.484097 
L 156.474276 263.115094 
L 156.754308 262.871007 
L 157.03434 262.803725 
L 157.314373 262.920128 
L 157.874437 263.655361 
L 158.714534 265.553144 
L 159.554631 267.357456 
L 160.114695 268.017595 
L 160.67476 268.198848 
L 161.234824 268.01804 
L 161.794889 267.582104 
L 162.634986 266.599918 
L 163.475082 265.217215 
L 164.595211 263.151415 
L 165.155276 262.508345 
L 165.435308 262.379674 
L 165.715341 262.417587 
L 165.995373 262.640036 
L 166.555437 263.601445 
L 167.675566 266.5526 
L 168.515663 268.635528 
L 169.075728 269.430691 
L 169.35576 269.596766 
L 169.635792 269.623184 
L 169.915824 269.514539 
L 170.195857 269.25745 
L 170.755921 268.227361 
L 171.596018 265.724701 
L 172.716147 262.406505 
L 173.276212 261.405218 
L 173.556244 261.247615 
L 173.836276 261.319042 
L 174.396341 261.948433 
L 174.956405 263.018743 
L 175.796502 265.365325 
L 176.916631 268.331412 
L 177.756728 270.24827 
L 178.03676 270.558571 
L 178.316792 270.599773 
L 178.596825 270.393357 
L 179.156889 269.402628 
L 179.716954 267.62883 
L 180.837083 263.22859 
L 181.397147 262.344061 
L 181.677179 262.196559 
L 181.957212 262.174708 
L 182.237244 262.288715 
L 183.357373 263.220395 
L 183.637405 262.973227 
L 184.19747 262.146169 
L 184.477502 262.033485 
L 184.757534 262.305928 
L 185.317599 263.803165 
L 185.877663 266.410085 
L 186.437728 270.764561 
L 186.997792 275.469782 
L 187.277825 276.745977 
L 187.557857 276.823658 
L 187.837889 275.704557 
L 188.397954 270.927979 
L 189.518083 259.568112 
L 189.798115 257.98997 
L 190.078147 257.191328 
L 190.35818 256.924336 
L 190.918244 256.801039 
L 191.198276 257.045704 
L 191.478309 258.157658 
L 191.758341 260.674601 
L 192.87847 276.491292 
L 193.158502 276.954821 
L 193.438534 275.207074 
L 194.838696 258.475663 
L 195.118728 257.171359 
L 195.39876 256.941486 
L 195.678793 257.560266 
L 196.518889 261.163745 
L 196.798922 263.292339 
L 197.078954 266.915927 
L 198.199083 286.869771 
L 198.479115 285.612815 
L 198.759147 280.683461 
L 199.599244 262.178594 
L 199.879277 259.245553 
L 200.999406 253.009371 
L 201.279438 252.343652 
L 201.55947 252.665088 
L 202.679599 256.129776 
L 202.959631 258.887685 
L 203.519696 271.326894 
L 204.07976 284.286995 
L 204.359793 286.012524 
L 204.639825 283.773914 
L 205.759954 264.412847 
L 206.320019 260.577472 
L 206.880083 258.753725 
L 207.160115 258.602224 
L 207.440148 259.116989 
L 207.72018 260.319886 
L 208.000212 262.261125 
L 208.560277 268.815307 
L 209.120341 276.978918 
L 209.400373 279.078097 
L 209.680406 278.303795 
L 209.960438 274.473105 
L 210.800535 257.460192 
L 211.080567 254.780582 
L 211.360599 254.073077 
L 212.480728 255.674157 
L 212.760761 256.484877 
L 213.320825 260.059087 
L 214.160922 268.095301 
L 215.281051 281.729378 
L 215.561083 282.754158 
L 215.841115 281.93858 
L 216.40118 276.620091 
L 217.521309 264.720977 
L 218.361406 257.559842 
L 218.92147 255.242228 
L 219.481535 254.211629 
L 219.761567 254.029279 
L 220.041599 254.214485 
L 220.321632 254.86791 
L 220.881696 257.398136 
L 221.721793 262.824248 
L 222.281858 267.85508 
L 223.121954 278.222925 
L 223.682019 285.210972 
L 223.962051 287.186292 
L 224.242083 287.168616 
L 224.522116 284.75564 
L 225.08218 274.191392 
L 225.642245 262.705244 
L 226.202309 255.945889 
L 226.762374 252.355044 
L 227.322438 249.98478 
L 227.602471 249.619511 
L 227.882503 249.945414 
L 228.442567 252.000086 
L 229.002632 255.480769 
L 229.282664 258.427605 
L 229.842729 267.842603 
L 230.682825 282.804951 
L 230.962858 284.914165 
L 231.24289 285.097302 
L 231.522922 283.666256 
L 232.082987 277.982119 
L 233.203116 265.758314 
L 233.76318 261.635358 
L 234.323245 258.87396 
L 234.883309 257.369929 
L 235.163342 257.089256 
L 235.443374 257.082002 
L 235.723406 257.29088 
L 236.283471 258.185658 
L 236.843535 259.674186 
L 237.683632 262.850817 
L 238.803761 268.080504 
L 240.483955 277.293379 
L 240.763987 277.873909 
L 241.044019 277.615501 
L 241.324051 276.355206 
L 241.884116 271.003803 
L 243.004245 257.66206 
L 243.564309 254.353229 
L 243.844342 253.846643 
L 244.124374 254.040008 
L 244.404406 254.857152 
L 244.964471 257.994848 
L 246.924697 271.961329 
L 247.204729 272.795304 
L 247.484761 273.189753 
L 247.764793 273.176776 
L 248.044826 272.804288 
L 248.60489 271.197137 
L 249.444987 267.481503 
L 250.285084 263.700569 
L 250.845148 261.952512 
L 251.125181 261.446651 
L 251.405213 261.215711 
L 251.685245 261.258236 
L 251.965277 261.552974 
L 252.525342 262.73149 
L 253.925503 266.427614 
L 254.485568 267.221703 
L 255.045632 267.496988 
L 255.605697 267.427269 
L 256.445794 267.023046 
L 257.845955 266.030217 
L 259.526148 264.778605 
L 260.086213 264.588313 
L 260.646277 264.624806 
L 261.206342 264.874017 
L 263.726632 266.438825 
L 264.566729 266.454015 
L 265.406826 266.201061 
L 267.927116 265.137072 
L 268.767213 265.184163 
L 269.887342 265.531445 
L 271.567536 266.06778 
L 272.407633 266.128954 
L 273.527762 265.951088 
L 276.048052 265.377917 
L 277.168181 265.437801 
L 280.248536 265.918977 
L 281.928729 265.81003 
L 284.729052 265.553469 
L 286.689278 265.653338 
L 289.489601 265.807651 
L 292.009891 265.68555 
L 294.250149 265.620426 
L 300.130826 265.704207 
L 303.771246 265.683841 
L 308.531794 265.701243 
L 314.13244 265.714675 
L 326.453859 265.686467 
L 336.254988 265.676109 
L 350.256601 265.694434 
L 354.457085 265.712318 
L 358.937602 265.684471 
L 363.978182 265.728803 
L 392.261441 265.702782 
L 392.261441 265.702782 
" style="fill:none;stroke:#000000;stroke-linecap:square;stroke-width:0.8;"/>
   </g>
   <g id="line2d_28">
    <path clip-path="url(#pce2bc2e895)" d="M 47.821758 264.523508 
L 52.022242 263.86423 
L 53.422403 263.253164 
L 56.502758 261.565106 
L 59.023049 260.047934 
L 60.703242 258.746881 
L 62.9435 256.641738 
L 66.58392 253.221221 
L 68.544145 251.729108 
L 69.944307 250.920106 
L 71.064436 250.501252 
L 72.184565 250.347424 
L 73.024662 250.440534 
L 73.864758 250.731048 
L 74.704855 251.226308 
L 75.824984 252.189091 
L 76.945113 253.445517 
L 78.345275 255.367006 
L 80.585533 258.87506 
L 83.105823 262.752338 
L 84.225952 264.211993 
L 84.786017 264.716598 
L 85.066049 264.824968 
L 85.346081 264.798908 
L 85.906146 264.441427 
L 88.146404 262.696147 
L 88.986501 262.275463 
L 90.10663 261.978861 
L 91.226759 261.974595 
L 92.62692 262.317243 
L 94.307114 263.073792 
L 97.667501 264.81235 
L 98.507598 265.064754 
L 99.347694 265.018099 
L 101.867985 264.210334 
L 104.108243 263.693743 
L 107.748662 263.957344 
L 109.428856 264.343867 
L 111.669114 264.95536 
L 114.469436 265.236213 
L 115.029501 265.1438 
L 116.14963 264.838577 
L 116.989727 264.628445 
L 119.229985 264.21795 
L 121.470243 264.056876 
L 124.83063 264.197389 
L 130.431275 264.778052 
L 132.111469 264.575296 
L 137.432082 263.542714 
L 139.67234 263.399901 
L 141.632566 263.569287 
L 143.592792 263.927244 
L 145.553018 264.332683 
L 146.673147 264.405478 
L 147.793276 264.282072 
L 148.913405 263.960139 
L 150.593598 263.113565 
L 153.673953 261.468436 
L 155.634179 260.720524 
L 157.03434 260.452775 
L 158.434502 260.407928 
L 159.834663 260.559049 
L 161.514857 260.948021 
L 162.915018 261.461266 
L 164.595211 262.319944 
L 165.995373 263.252244 
L 168.235631 264.848909 
L 168.795695 264.954294 
L 169.35576 264.757591 
L 172.436115 263.163886 
L 173.836276 262.889994 
L 176.356566 262.537468 
L 177.756728 261.98989 
L 179.716954 260.897375 
L 181.117115 259.876931 
L 181.957212 258.997062 
L 182.797309 257.800311 
L 183.637405 256.240065 
L 184.757534 253.63118 
L 186.437728 248.976956 
L 188.958018 241.996119 
L 190.35818 238.778444 
L 191.758341 236.127764 
L 194.558664 231.157246 
L 195.678793 228.549716 
L 197.078954 224.540103 
L 200.159309 215.117262 
L 200.999406 213.24837 
L 201.839502 211.98393 
L 202.399567 211.530757 
L 202.959631 211.411846 
L 203.519696 211.631219 
L 204.07976 212.169247 
L 204.639825 213.00495 
L 205.479922 214.710871 
L 206.600051 217.602015 
L 208.560277 222.835519 
L 209.680406 225.145976 
L 210.520503 226.436318 
L 211.920664 228.067374 
L 213.320825 229.791143 
L 214.440954 231.667485 
L 215.841115 234.615228 
L 217.241277 237.46784 
L 218.081374 238.59485 
L 218.641438 238.932923 
L 218.92147 238.963048 
L 219.481535 238.719832 
L 220.041599 238.124671 
L 220.601664 237.265954 
L 221.721793 235.016283 
L 223.682019 230.906872 
L 224.802148 229.144609 
L 225.642245 228.25722 
L 226.202309 227.901235 
L 226.762374 227.751628 
L 227.322438 227.82778 
L 227.882503 228.12858 
L 228.442567 228.658894 
L 229.282664 229.931494 
L 230.122761 231.734808 
L 231.24289 234.860409 
L 234.043213 243.516391 
L 234.603277 244.644915 
L 235.163342 245.333928 
L 235.723406 245.536511 
L 236.003438 245.480521 
L 236.563503 245.053604 
L 237.4036 243.927591 
L 239.083793 241.508136 
L 239.643858 241.015219 
L 240.203922 240.812474 
L 240.763987 240.893187 
L 241.324051 241.30105 
L 241.884116 242.026322 
L 242.44418 243.034533 
L 243.284277 245.104226 
L 244.684439 249.54468 
L 247.484761 259.07039 
L 248.044826 260.271436 
L 248.60489 260.885095 
L 248.884922 260.901715 
L 249.164955 260.803538 
L 249.725019 260.193939 
L 252.24531 256.872416 
L 253.365439 256.303939 
L 253.925503 256.233543 
L 254.7656 256.492373 
L 255.605697 257.092488 
L 257.28589 259.009409 
L 259.806181 262.590243 
L 260.92631 264.026943 
L 261.486374 264.460578 
L 262.046439 264.549647 
L 262.606503 264.330192 
L 263.726632 263.620806 
L 264.566729 263.290649 
L 265.406826 263.142305 
L 266.526955 263.206979 
L 267.647084 263.593321 
L 268.767213 264.106276 
L 269.887342 264.648906 
L 270.727439 264.884074 
L 271.567536 264.779376 
L 272.687665 264.350489 
L 274.087826 263.793481 
L 275.487987 263.409701 
L 277.168181 263.19042 
L 278.568342 263.253703 
L 280.8086 263.647646 
L 283.608923 264.234051 
L 285.009084 264.25666 
L 286.409246 264.076728 
L 289.489601 263.603781 
L 290.889762 263.577675 
L 292.009891 263.658305 
L 293.970117 264.109546 
L 297.610536 265.151594 
L 298.450633 265.053564 
L 302.931149 264.147727 
L 304.611343 264.174165 
L 306.571569 264.493474 
L 310.49202 265.26529 
L 311.892182 265.20143 
L 315.532601 265.014525 
L 318.892988 265.322369 
L 322.253375 265.656283 
L 324.773666 265.488474 
L 328.134053 265.51274 
L 332.614569 265.570643 
L 337.095085 265.597582 
L 340.735505 265.648344 
L 348.296376 265.537619 
L 364.538247 265.636963 
L 381.900247 265.683257 
L 392.261441 265.693056 
L 392.261441 265.693056 
" style="fill:none;stroke:#0000ff;stroke-dasharray:2.96,1.28;stroke-dashoffset:0;stroke-width:0.8;"/>
   </g>
   <g id="patch_8">
    <path d="M 48.08 331.133333 
L 48.08 200.266667 
" style="fill:none;stroke:#000000;stroke-linecap:square;stroke-linejoin:miter;stroke-width:0.8;"/>
   </g>
   <g id="patch_9">
    <path d="M 392.175 331.133333 
L 392.175 200.266667 
" style="fill:none;stroke:#000000;stroke-linecap:square;stroke-linejoin:miter;stroke-width:0.8;"/>
   </g>
   <g id="patch_10">
    <path d="M 48.08 331.133333 
L 392.175 331.133333 
" style="fill:none;stroke:#000000;stroke-linecap:square;stroke-linejoin:miter;stroke-width:0.8;"/>
   </g>
   <g id="patch_11">
    <path d="M 48.08 200.266667 
L 392.175 200.266667 
" style="fill:none;stroke:#000000;stroke-linecap:square;stroke-linejoin:miter;stroke-width:0.8;"/>
   </g>
   <g id="text_28">
    <!-- $yt_{LP+NLD}(n)$ -->
    <g transform="translate(186.8275 194.266667)scale(0.12 -0.12)">
     <defs>
      <path d="M 2944 4013 
L 2944 2272 
L 4684 2272 
L 4684 1741 
L 2944 1741 
L 2944 0 
L 2419 0 
L 2419 1741 
L 678 1741 
L 678 2272 
L 2419 2272 
L 2419 4013 
L 2944 4013 
z
" id="DejaVuSans-2b" transform="scale(0.015625)"/>
      <path d="M 1081 4666 
L 1931 4666 
L 3219 666 
L 4000 4666 
L 4616 4666 
L 3706 0 
L 2853 0 
L 1569 4025 
L 788 0 
L 172 0 
L 1081 4666 
z
" id="DejaVuSans-Oblique-4e" transform="scale(0.015625)"/>
      <path d="M 1081 4666 
L 2438 4666 
Q 3519 4666 4070 4208 
Q 4622 3750 4622 2847 
Q 4622 2250 4412 1698 
Q 4203 1147 3834 769 
Q 3463 381 2891 190 
Q 2319 0 1538 0 
L 172 0 
L 1081 4666 
z
M 1613 4147 
L 909 519 
L 1734 519 
Q 2794 519 3375 1128 
Q 3956 1738 3956 2847 
Q 3956 3519 3581 3833 
Q 3206 4147 2406 4147 
L 1613 4147 
z
" id="DejaVuSans-Oblique-44" transform="scale(0.015625)"/>
     </defs>
     <use transform="translate(0 0.125)" xlink:href="#DejaVuSans-Oblique-79"/>
     <use transform="translate(59.179688 0.125)" xlink:href="#DejaVuSans-Oblique-74"/>
     <use transform="translate(98.388672 -16.28125)scale(0.7)" xlink:href="#DejaVuSans-Oblique-4c"/>
     <use transform="translate(137.387695 -16.28125)scale(0.7)" xlink:href="#DejaVuSans-Oblique-50"/>
     <use transform="translate(193.237305 -16.28125)scale(0.7)" xlink:href="#DejaVuSans-2b"/>
     <use transform="translate(265.527344 -16.28125)scale(0.7)" xlink:href="#DejaVuSans-Oblique-4e"/>
     <use transform="translate(317.890625 -16.28125)scale(0.7)" xlink:href="#DejaVuSans-Oblique-4c"/>
     <use transform="translate(356.889648 -16.28125)scale(0.7)" xlink:href="#DejaVuSans-Oblique-44"/>
     <use transform="translate(413.525391 0.125)" xlink:href="#DejaVuSans-28"/>
     <use transform="translate(452.539062 0.125)" xlink:href="#DejaVuSans-Oblique-6e"/>
     <use transform="translate(515.917969 0.125)" xlink:href="#DejaVuSans-29"/>
    </g>
   </g>
  </g>
  <g id="axes_3">
   <g id="patch_12">
    <path d="M 48.08 504.52 
L 392.175 504.52 
L 392.175 373.653333 
L 48.08 373.653333 
z
" style="fill:#ffffff;"/>
   </g>
   <g id="matplotlib.axis_5">
    <g id="xtick_15">
     <g id="line2d_29">
      <g>
       <use style="stroke:#000000;stroke-width:0.8;" x="48.08" xlink:href="#m4db5183e7f" y="504.52"/>
      </g>
     </g>
     <g id="text_29">
      <!-- 2.70 -->
      <g transform="translate(39.214375 518.321563)scale(0.1 -0.1)">
       <use xlink:href="#Calibri-32"/>
       <use x="50.683594" xlink:href="#Calibri-2e"/>
       <use x="75.927734" xlink:href="#Calibri-37"/>
       <use x="126.611328" xlink:href="#Calibri-30"/>
      </g>
     </g>
    </g>
    <g id="xtick_16">
     <g id="line2d_30">
      <g>
       <use style="stroke:#000000;stroke-width:0.8;" x="105.429167" xlink:href="#m4db5183e7f" y="504.52"/>
      </g>
     </g>
     <g id="text_30">
      <!-- 2.75 -->
      <g transform="translate(96.563542 518.321563)scale(0.1 -0.1)">
       <use xlink:href="#Calibri-32"/>
       <use x="50.683594" xlink:href="#Calibri-2e"/>
       <use x="75.927734" xlink:href="#Calibri-37"/>
       <use x="126.611328" xlink:href="#Calibri-35"/>
      </g>
     </g>
    </g>
    <g id="xtick_17">
     <g id="line2d_31">
      <g>
       <use style="stroke:#000000;stroke-width:0.8;" x="162.778333" xlink:href="#m4db5183e7f" y="504.52"/>
      </g>
     </g>
     <g id="text_31">
      <!-- 2.80 -->
      <g transform="translate(153.912708 518.321563)scale(0.1 -0.1)">
       <use xlink:href="#Calibri-32"/>
       <use x="50.683594" xlink:href="#Calibri-2e"/>
       <use x="75.927734" xlink:href="#Calibri-38"/>
       <use x="126.611328" xlink:href="#Calibri-30"/>
      </g>
     </g>
    </g>
    <g id="xtick_18">
     <g id="line2d_32">
      <g>
       <use style="stroke:#000000;stroke-width:0.8;" x="220.1275" xlink:href="#m4db5183e7f" y="504.52"/>
      </g>
     </g>
     <g id="text_32">
      <!-- 2.85 -->
      <g transform="translate(211.261875 518.321563)scale(0.1 -0.1)">
       <use xlink:href="#Calibri-32"/>
       <use x="50.683594" xlink:href="#Calibri-2e"/>
       <use x="75.927734" xlink:href="#Calibri-38"/>
       <use x="126.611328" xlink:href="#Calibri-35"/>
      </g>
     </g>
    </g>
    <g id="xtick_19">
     <g id="line2d_33">
      <g>
       <use style="stroke:#000000;stroke-width:0.8;" x="277.476667" xlink:href="#m4db5183e7f" y="504.52"/>
      </g>
     </g>
     <g id="text_33">
      <!-- 2.90 -->
      <g transform="translate(268.611042 518.321563)scale(0.1 -0.1)">
       <use xlink:href="#Calibri-32"/>
       <use x="50.683594" xlink:href="#Calibri-2e"/>
       <use x="75.927734" xlink:href="#Calibri-39"/>
       <use x="126.611328" xlink:href="#Calibri-30"/>
      </g>
     </g>
    </g>
    <g id="xtick_20">
     <g id="line2d_34">
      <g>
       <use style="stroke:#000000;stroke-width:0.8;" x="334.825833" xlink:href="#m4db5183e7f" y="504.52"/>
      </g>
     </g>
     <g id="text_34">
      <!-- 2.95 -->
      <g transform="translate(325.960208 518.321563)scale(0.1 -0.1)">
       <use xlink:href="#Calibri-32"/>
       <use x="50.683594" xlink:href="#Calibri-2e"/>
       <use x="75.927734" xlink:href="#Calibri-39"/>
       <use x="126.611328" xlink:href="#Calibri-35"/>
      </g>
     </g>
    </g>
    <g id="xtick_21">
     <g id="line2d_35">
      <g>
       <use style="stroke:#000000;stroke-width:0.8;" x="392.175" xlink:href="#m4db5183e7f" y="504.52"/>
      </g>
     </g>
     <g id="text_35">
      <!-- 3.00 -->
      <g transform="translate(383.309375 518.321563)scale(0.1 -0.1)">
       <use xlink:href="#Calibri-33"/>
       <use x="50.683594" xlink:href="#Calibri-2e"/>
       <use x="75.927734" xlink:href="#Calibri-30"/>
       <use x="126.611328" xlink:href="#Calibri-30"/>
      </g>
     </g>
    </g>
    <g id="text_36">
     <!-- Tiempo [s] -->
     <g transform="translate(198.643906 530.930938)scale(0.1 -0.1)">
      <defs>
       <path d="M 3072 3813 
Q 3072 3753 3065 3709 
Q 3059 3666 3045 3639 
Q 3031 3613 3011 3600 
Q 2991 3588 2966 3588 
L 1828 3588 
L 1828 81 
Q 1828 56 1815 37 
Q 1803 19 1772 8 
Q 1741 -3 1689 -11 
Q 1638 -19 1559 -19 
Q 1484 -19 1431 -11 
Q 1378 -3 1347 8 
Q 1316 19 1303 37 
Q 1291 56 1291 81 
L 1291 3588 
L 153 3588 
Q 128 3588 108 3600 
Q 88 3613 75 3639 
Q 63 3666 55 3709 
Q 47 3753 47 3813 
Q 47 3872 55 3917 
Q 63 3963 75 3991 
Q 88 4019 108 4031 
Q 128 4044 153 4044 
L 2966 4044 
Q 2991 4044 3011 4031 
Q 3031 4019 3045 3991 
Q 3059 3963 3065 3917 
Q 3072 3872 3072 3813 
z
" id="Calibri-54" transform="scale(0.015625)"/>
       <path d="M 2878 1606 
Q 2878 1484 2817 1432 
Q 2756 1381 2678 1381 
L 834 1381 
Q 834 1147 881 959 
Q 928 772 1037 637 
Q 1147 503 1322 431 
Q 1497 359 1750 359 
Q 1950 359 2106 392 
Q 2263 425 2377 465 
Q 2491 506 2564 539 
Q 2638 572 2675 572 
Q 2697 572 2714 561 
Q 2731 550 2740 528 
Q 2750 506 2754 467 
Q 2759 428 2759 372 
Q 2759 331 2756 301 
Q 2753 272 2748 248 
Q 2744 225 2733 206 
Q 2722 188 2705 170 
Q 2688 153 2603 114 
Q 2519 75 2384 37 
Q 2250 0 2073 -29 
Q 1897 -59 1697 -59 
Q 1350 -59 1089 37 
Q 828 134 650 325 
Q 472 516 381 803 
Q 291 1091 291 1472 
Q 291 1834 384 2123 
Q 478 2413 654 2614 
Q 831 2816 1081 2923 
Q 1331 3031 1641 3031 
Q 1972 3031 2205 2925 
Q 2438 2819 2588 2639 
Q 2738 2459 2808 2217 
Q 2878 1975 2878 1700 
L 2878 1606 
z
M 2359 1759 
Q 2369 2166 2180 2397 
Q 1991 2628 1619 2628 
Q 1428 2628 1284 2556 
Q 1141 2484 1044 2365 
Q 947 2247 894 2089 
Q 841 1931 834 1759 
L 2359 1759 
z
" id="Calibri-65" transform="scale(0.015625)"/>
       <path d="M 3094 1516 
Q 3094 1172 3003 883 
Q 2913 594 2733 384 
Q 2553 175 2283 58 
Q 2013 -59 1656 -59 
Q 1309 -59 1051 44 
Q 794 147 622 344 
Q 450 541 365 822 
Q 281 1103 281 1459 
Q 281 1803 370 2092 
Q 459 2381 639 2590 
Q 819 2800 1087 2915 
Q 1356 3031 1716 3031 
Q 2063 3031 2320 2928 
Q 2578 2825 2750 2628 
Q 2922 2431 3008 2150 
Q 3094 1869 3094 1516 
z
M 2550 1481 
Q 2550 1709 2508 1912 
Q 2466 2116 2369 2269 
Q 2272 2422 2106 2511 
Q 1941 2600 1694 2600 
Q 1466 2600 1302 2519 
Q 1138 2438 1031 2289 
Q 925 2141 873 1937 
Q 822 1734 822 1494 
Q 822 1263 864 1059 
Q 906 856 1004 704 
Q 1103 553 1268 464 
Q 1434 375 1681 375 
Q 1906 375 2072 456 
Q 2238 538 2344 684 
Q 2450 831 2500 1034 
Q 2550 1238 2550 1481 
z
" id="Calibri-6f" transform="scale(0.015625)"/>
       <path id="Calibri-20" transform="scale(0.015625)"/>
       <path d="M 1684 -813 
Q 1684 -916 1661 -958 
Q 1638 -1000 1594 -1000 
L 794 -1000 
Q 756 -1000 722 -989 
Q 688 -978 659 -953 
Q 631 -928 614 -886 
Q 597 -844 597 -781 
L 597 4153 
Q 597 4213 614 4255 
Q 631 4297 659 4323 
Q 688 4350 722 4361 
Q 756 4372 794 4372 
L 1594 4372 
Q 1613 4372 1630 4362 
Q 1647 4353 1659 4328 
Q 1672 4303 1678 4267 
Q 1684 4231 1684 4178 
Q 1684 4078 1661 4034 
Q 1638 3991 1594 3991 
L 1084 3991 
L 1084 -622 
L 1594 -622 
Q 1613 -622 1630 -631 
Q 1647 -641 1659 -664 
Q 1672 -688 1678 -723 
Q 1684 -759 1684 -813 
z
" id="Calibri-5b" transform="scale(0.015625)"/>
       <path d="M 2244 844 
Q 2244 628 2164 459 
Q 2084 291 1937 175 
Q 1791 59 1587 0 
Q 1384 -59 1141 -59 
Q 991 -59 855 -36 
Q 719 -13 611 23 
Q 503 59 428 98 
Q 353 138 318 169 
Q 284 200 268 256 
Q 253 313 253 409 
Q 253 469 259 509 
Q 266 550 275 575 
Q 284 600 301 611 
Q 319 622 341 622 
Q 375 622 442 580 
Q 509 538 607 488 
Q 706 438 840 395 
Q 975 353 1150 353 
Q 1281 353 1387 381 
Q 1494 409 1572 464 
Q 1650 519 1692 603 
Q 1734 688 1734 803 
Q 1734 922 1673 1003 
Q 1613 1084 1513 1146 
Q 1413 1209 1288 1257 
Q 1163 1306 1030 1359 
Q 897 1413 770 1480 
Q 644 1547 544 1644 
Q 444 1741 383 1875 
Q 322 2009 322 2197 
Q 322 2363 386 2514 
Q 450 2666 578 2780 
Q 706 2894 898 2962 
Q 1091 3031 1347 3031 
Q 1459 3031 1571 3012 
Q 1684 2994 1775 2966 
Q 1866 2938 1930 2905 
Q 1994 2872 2026 2847 
Q 2059 2822 2070 2803 
Q 2081 2784 2086 2761 
Q 2091 2738 2095 2703 
Q 2100 2669 2100 2619 
Q 2100 2566 2095 2527 
Q 2091 2488 2080 2463 
Q 2069 2438 2053 2427 
Q 2038 2416 2019 2416 
Q 1991 2416 1937 2450 
Q 1884 2484 1800 2523 
Q 1716 2563 1602 2597 
Q 1488 2631 1341 2631 
Q 1209 2631 1109 2601 
Q 1009 2572 945 2517 
Q 881 2463 848 2388 
Q 816 2313 816 2225 
Q 816 2103 878 2020 
Q 941 1938 1041 1875 
Q 1141 1813 1269 1763 
Q 1397 1713 1530 1659 
Q 1663 1606 1792 1540 
Q 1922 1475 2022 1381 
Q 2122 1288 2183 1156 
Q 2244 1025 2244 844 
z
" id="Calibri-73" transform="scale(0.015625)"/>
       <path d="M 1369 -781 
Q 1369 -844 1351 -886 
Q 1334 -928 1306 -953 
Q 1278 -978 1242 -989 
Q 1206 -1000 1169 -1000 
L 372 -1000 
Q 328 -1000 304 -958 
Q 281 -916 281 -813 
Q 281 -759 286 -723 
Q 291 -688 303 -664 
Q 316 -641 333 -631 
Q 350 -622 372 -622 
L 881 -622 
L 881 3991 
L 372 3991 
Q 328 3991 304 4034 
Q 281 4078 281 4178 
Q 281 4231 286 4267 
Q 291 4303 303 4328 
Q 316 4353 333 4362 
Q 350 4372 372 4372 
L 1169 4372 
Q 1206 4372 1242 4361 
Q 1278 4350 1306 4323 
Q 1334 4297 1351 4255 
Q 1369 4213 1369 4153 
L 1369 -781 
z
" id="Calibri-5d" transform="scale(0.015625)"/>
      </defs>
      <use xlink:href="#Calibri-54"/>
      <use x="48.730469" xlink:href="#Calibri-69"/>
      <use x="71.679688" xlink:href="#Calibri-65"/>
      <use x="121.435547" xlink:href="#Calibri-6d"/>
      <use x="201.318359" xlink:href="#Calibri-70"/>
      <use x="253.857422" xlink:href="#Calibri-6f"/>
      <use x="306.591797" xlink:href="#Calibri-20"/>
      <use x="329.199219" xlink:href="#Calibri-5b"/>
      <use x="359.863281" xlink:href="#Calibri-73"/>
      <use x="398.974609" xlink:href="#Calibri-5d"/>
     </g>
    </g>
   </g>
   <g id="matplotlib.axis_6">
    <g id="ytick_11">
     <g id="line2d_36">
      <g>
       <use style="stroke:#000000;stroke-width:0.8;" x="48.08" xlink:href="#m837690a1af" y="504.52"/>
      </g>
     </g>
     <g id="text_37">
      <!-- −1.0 -->
      <g transform="translate(23.43625 507.920781)scale(0.1 -0.1)">
       <use xlink:href="#Calibri-2212"/>
       <use x="49.804688" xlink:href="#Calibri-31"/>
       <use x="100.488281" xlink:href="#Calibri-2e"/>
       <use x="125.732422" xlink:href="#Calibri-30"/>
      </g>
     </g>
    </g>
    <g id="ytick_12">
     <g id="line2d_37">
      <g>
       <use style="stroke:#000000;stroke-width:0.8;" x="48.08" xlink:href="#m837690a1af" y="471.803333"/>
      </g>
     </g>
     <g id="text_38">
      <!-- −0.5 -->
      <g transform="translate(23.43625 475.204115)scale(0.1 -0.1)">
       <use xlink:href="#Calibri-2212"/>
       <use x="49.804688" xlink:href="#Calibri-30"/>
       <use x="100.488281" xlink:href="#Calibri-2e"/>
       <use x="125.732422" xlink:href="#Calibri-35"/>
      </g>
     </g>
    </g>
    <g id="ytick_13">
     <g id="line2d_38">
      <g>
       <use style="stroke:#000000;stroke-width:0.8;" x="48.08" xlink:href="#m837690a1af" y="439.086667"/>
      </g>
     </g>
     <g id="text_39">
      <!-- 0.0 -->
      <g transform="translate(28.4175 442.487448)scale(0.1 -0.1)">
       <use xlink:href="#Calibri-30"/>
       <use x="50.683594" xlink:href="#Calibri-2e"/>
       <use x="75.927734" xlink:href="#Calibri-30"/>
      </g>
     </g>
    </g>
    <g id="ytick_14">
     <g id="line2d_39">
      <g>
       <use style="stroke:#000000;stroke-width:0.8;" x="48.08" xlink:href="#m837690a1af" y="406.37"/>
      </g>
     </g>
     <g id="text_40">
      <!-- 0.5 -->
      <g transform="translate(28.4175 409.770781)scale(0.1 -0.1)">
       <use xlink:href="#Calibri-30"/>
       <use x="50.683594" xlink:href="#Calibri-2e"/>
       <use x="75.927734" xlink:href="#Calibri-35"/>
      </g>
     </g>
    </g>
    <g id="ytick_15">
     <g id="line2d_40">
      <g>
       <use style="stroke:#000000;stroke-width:0.8;" x="48.08" xlink:href="#m837690a1af" y="373.653333"/>
      </g>
     </g>
     <g id="text_41">
      <!-- 1.0 -->
      <g transform="translate(28.4175 377.054115)scale(0.1 -0.1)">
       <use xlink:href="#Calibri-31"/>
       <use x="50.683594" xlink:href="#Calibri-2e"/>
       <use x="75.927734" xlink:href="#Calibri-30"/>
      </g>
     </g>
    </g>
    <g id="text_42">
     <!-- Amplitud -->
     <g transform="translate(17.658125 457.82651)rotate(-90)scale(0.1 -0.1)">
      <use xlink:href="#Calibri-41"/>
      <use x="57.861328" xlink:href="#Calibri-6d"/>
      <use x="137.744141" xlink:href="#Calibri-70"/>
      <use x="190.283203" xlink:href="#Calibri-6c"/>
      <use x="213.232422" xlink:href="#Calibri-69"/>
      <use x="236.181641" xlink:href="#Calibri-74"/>
      <use x="269.677734" xlink:href="#Calibri-75"/>
      <use x="322.216797" xlink:href="#Calibri-64"/>
     </g>
    </g>
   </g>
   <g id="line2d_41">
    <path clip-path="url(#pa102946e7a)" d="M 47.821758 438.432773 
L 48.661855 439.168475 
L 49.781984 440.192945 
L 50.342048 440.503312 
L 50.902113 440.601122 
L 51.462177 440.45222 
L 52.022242 440.021169 
L 52.582306 439.286058 
L 54.542532 436.066253 
L 54.822565 435.910364 
L 55.102597 435.908916 
L 55.382629 436.069695 
L 55.942694 436.855828 
L 56.502758 438.136716 
L 59.023049 444.712137 
L 59.303081 444.895441 
L 59.583113 444.799386 
L 59.863145 444.380243 
L 60.143178 443.611667 
L 60.703242 441.057038 
L 62.383436 431.070517 
L 62.663468 430.334737 
L 62.9435 430.158452 
L 63.223532 430.592647 
L 63.503565 431.640509 
L 64.063629 435.294526 
L 65.183758 444.017173 
L 65.463791 445.316099 
L 65.743823 445.998477 
L 66.023855 446.13047 
L 66.303887 446.047417 
L 66.58392 446.233603 
L 66.863952 446.947032 
L 67.424016 449.570428 
L 67.984081 452.201743 
L 68.264113 452.857423 
L 68.544145 452.741937 
L 68.824178 451.681978 
L 69.10421 449.615767 
L 69.664274 442.9108 
L 70.784404 427.724222 
L 71.064436 425.424058 
L 71.344468 424.100426 
L 71.6245 423.809574 
L 71.904533 424.561295 
L 72.184565 426.32932 
L 72.744629 432.534547 
L 74.144791 451.227948 
L 74.424823 452.917116 
L 74.704855 453.520837 
L 74.984887 453.122132 
L 75.26492 451.899367 
L 75.824984 447.927259 
L 76.665081 441.50481 
L 77.225146 438.975043 
L 77.505178 438.456853 
L 78.065242 437.794216 
L 78.345275 437.038932 
L 79.745436 431.758904 
L 80.025468 431.561402 
L 80.3055 431.81007 
L 80.585533 432.481622 
L 81.145597 434.691307 
L 82.265726 439.584942 
L 82.825791 440.928432 
L 83.105823 441.21637 
L 83.385855 441.276129 
L 83.665888 441.150761 
L 84.225952 440.566459 
L 84.786017 439.938708 
L 85.346081 439.620656 
L 85.906146 439.358456 
L 86.46621 438.730602 
L 88.146404 436.084908 
L 88.426436 435.969601 
L 88.706468 436.060746 
L 88.986501 436.345294 
L 89.546565 437.429093 
L 91.226759 441.839407 
L 91.786823 442.528874 
L 92.066855 442.615825 
L 92.346888 442.550297 
L 92.906952 441.976123 
L 93.747049 440.401003 
L 94.867178 438.240225 
L 95.427243 437.633588 
L 95.987307 437.461664 
L 96.547372 437.687899 
L 98.78763 439.314902 
L 100.467823 440.08676 
L 101.027888 440.047969 
L 101.587952 439.667869 
L 102.428049 438.576088 
L 103.268146 437.457636 
L 103.828211 437.163714 
L 104.108243 437.136874 
L 104.668307 437.581347 
L 105.508404 438.832591 
L 106.348501 440.204675 
L 106.908565 440.770815 
L 107.46863 440.906447 
L 108.028694 440.615457 
L 108.588759 440.045538 
L 109.708888 438.706607 
L 110.268953 438.281257 
L 110.829017 438.16007 
L 111.389082 438.274071 
L 113.349307 439.217725 
L 115.309533 439.667521 
L 116.14963 439.424742 
L 116.989727 438.744624 
L 117.829824 437.953165 
L 118.389888 437.704813 
L 118.66992 437.698683 
L 119.229985 437.97356 
L 119.790049 438.465083 
L 121.750275 440.560282 
L 122.31034 440.716199 
L 122.870404 440.646262 
L 123.430469 440.251276 
L 124.270566 439.204887 
L 125.110662 438.235888 
L 125.670727 437.866302 
L 126.230792 437.750933 
L 126.790856 437.936168 
L 127.350921 438.371341 
L 128.751082 439.648263 
L 129.591179 439.981381 
L 130.151243 439.969248 
L 130.711308 439.779932 
L 131.551404 439.186823 
L 133.231598 437.75216 
L 133.791663 437.661419 
L 134.351727 437.927235 
L 134.911792 438.509497 
L 136.872017 441.036115 
L 137.432082 441.238015 
L 137.992147 441.03014 
L 138.552211 440.425396 
L 139.392308 438.996592 
L 140.232405 437.565759 
L 140.792469 437.013911 
L 141.072501 436.911033 
L 141.352534 436.933597 
L 141.912598 437.311176 
L 142.752695 438.465953 
L 143.872824 440.038475 
L 144.432889 440.462716 
L 144.992953 440.544099 
L 145.553018 440.362176 
L 146.393114 439.749905 
L 148.073308 438.081799 
L 148.913405 437.369939 
L 149.473469 437.160303 
L 149.753502 437.18987 
L 150.313566 437.605684 
L 150.873631 438.439498 
L 151.713727 440.289076 
L 152.553824 442.212049 
L 153.113889 443.01396 
L 153.393921 443.16704 
L 153.673953 443.103042 
L 153.953985 442.804353 
L 154.51405 441.514218 
L 155.354147 438.292101 
L 156.194244 435.092358 
L 156.754308 433.957871 
L 157.03434 433.850406 
L 157.314373 434.062252 
L 157.594405 434.587345 
L 158.154469 436.405445 
L 159.834663 443.009553 
L 160.394728 443.922785 
L 160.67476 444.044731 
L 160.954792 443.962588 
L 161.514857 443.291787 
L 162.074921 442.131804 
L 164.315179 436.581372 
L 164.875244 436.089055 
L 165.155276 436.084515 
L 165.715341 436.538962 
L 166.555437 437.905877 
L 167.395534 439.114596 
L 167.955599 439.512265 
L 169.635792 440.17466 
L 170.195857 440.350876 
L 170.475889 440.312244 
L 171.035954 439.895087 
L 171.596018 439.099384 
L 172.996179 436.768776 
L 173.556244 436.328409 
L 173.836276 436.296663 
L 174.396341 436.596136 
L 174.956405 437.272685 
L 175.796502 438.85049 
L 177.476696 442.159161 
L 178.03676 442.916663 
L 178.316792 443.064558 
L 178.596825 443.023798 
L 178.876857 442.797788 
L 179.156889 442.382235 
L 179.716954 440.888436 
L 180.55705 437.323191 
L 181.397147 434.079794 
L 181.957212 432.597435 
L 182.517276 431.645796 
L 183.077341 430.96845 
L 183.917438 429.426847 
L 184.19747 429.348532 
L 184.477502 429.828441 
L 184.757534 430.948423 
L 185.317599 434.798803 
L 185.877663 440.559236 
L 187.277825 458.162353 
L 187.557857 458.570085 
L 187.837889 457.127964 
L 188.117922 453.956993 
L 188.677986 443.589978 
L 189.798115 418.941147 
L 190.35818 412.718525 
L 190.638212 411.59127 
L 190.918244 411.703693 
L 191.198276 413.575194 
L 191.478309 418.059447 
L 192.038373 436.367164 
L 192.87847 468.075098 
L 193.158502 470.976762 
L 193.438534 467.819822 
L 193.718567 459.20033 
L 194.838696 410.62334 
L 195.118728 404.562392 
L 195.39876 402.73454 
L 195.678793 404.587387 
L 196.238857 414.615448 
L 196.798922 430.87964 
L 197.919051 479.508619 
L 198.199083 483.828621 
L 198.479115 481.193812 
L 198.759147 472.003834 
L 200.159309 408.581634 
L 200.999406 389.467059 
L 201.279438 386.362647 
L 201.55947 386.225976 
L 201.839502 388.449489 
L 202.119535 392.033444 
L 202.399567 397.092062 
L 202.679599 405.129079 
L 203.239664 434.537744 
L 204.07976 485.850693 
L 204.359793 491.944105 
L 204.639825 489.497287 
L 204.919857 479.560443 
L 206.320019 408.853516 
L 206.880083 394.123218 
L 207.160115 392.555107 
L 207.440148 396.312731 
L 207.72018 405.445526 
L 208.280244 435.844291 
L 208.840309 468.342519 
L 209.120341 477.956053 
L 209.400373 480.025665 
L 209.680406 474.213145 
L 210.24047 446.374809 
L 210.800535 417.191239 
L 211.080567 408.036406 
L 211.360599 403.119685 
L 211.640632 401.401374 
L 211.920664 401.55197 
L 212.200696 402.879533 
L 212.480728 405.488437 
L 213.040793 415.613061 
L 215.281051 469.612667 
L 215.561083 470.768826 
L 215.841115 469.200172 
L 216.40118 460.312257 
L 218.361406 421.524265 
L 218.92147 415.311133 
L 219.481535 412.313783 
L 219.761567 411.894807 
L 220.041599 412.340704 
L 220.321632 413.776769 
L 220.881696 419.2897 
L 221.441761 427.407934 
L 222.281858 443.853369 
L 223.401987 468.462405 
L 223.682019 472.515257 
L 223.962051 474.373817 
L 224.242083 473.392375 
L 224.522116 469.279935 
L 225.08218 453.196562 
L 225.922277 424.911311 
L 226.482341 412.368573 
L 227.042406 404.420539 
L 227.322438 402.142288 
L 227.602471 401.337884 
L 227.882503 402.12858 
L 228.162535 404.331936 
L 228.7226 412.134082 
L 229.282664 424.988536 
L 230.682825 465.703573 
L 230.962858 469.113598 
L 231.24289 469.885933 
L 231.522922 468.36439 
L 232.082987 460.472693 
L 233.76318 430.674268 
L 234.323245 424.498132 
L 234.883309 420.636991 
L 235.163342 419.571536 
L 235.443374 419.02343 
L 235.723406 418.947685 
L 236.003438 419.326072 
L 236.283471 420.126399 
L 236.843535 423.147883 
L 237.4036 428.029939 
L 238.243696 437.93943 
L 239.92389 460.364679 
L 240.203922 462.643437 
L 240.483955 463.838784 
L 240.763987 463.667025 
L 241.044019 461.926036 
L 241.324051 458.602349 
L 241.884116 448.174227 
L 242.724213 430.474644 
L 243.284277 422.845049 
L 243.564309 421.005744 
L 243.844342 420.396357 
L 244.124374 421.061397 
L 244.404406 422.73867 
L 244.964471 428.168672 
L 246.0846 440.585432 
L 246.644664 444.297044 
L 246.924697 445.204266 
L 247.204729 445.571842 
L 247.484761 445.452521 
L 247.764793 445.048642 
L 248.60489 443.049236 
L 249.164955 441.535372 
L 249.725019 439.505563 
L 250.565116 435.23916 
L 251.125181 432.462533 
L 251.405213 431.433552 
L 251.685245 430.841023 
L 251.965277 430.726292 
L 252.24531 431.112727 
L 252.525342 432.095993 
L 253.085406 435.272381 
L 254.485568 445.087966 
L 255.045632 447.152672 
L 255.325664 447.563434 
L 255.605697 447.658542 
L 255.885729 447.370149 
L 256.445794 446.145129 
L 257.28589 442.990704 
L 258.406019 438.562807 
L 258.966084 437.043245 
L 259.246116 436.580379 
L 259.526148 436.333723 
L 259.806181 436.282368 
L 260.086213 436.449694 
L 260.92631 437.574736 
L 261.486374 438.305388 
L 262.886536 439.739057 
L 264.006665 441.224051 
L 264.566729 441.462662 
L 264.846761 441.390385 
L 265.406826 440.859695 
L 266.246923 439.348103 
L 267.08702 437.819041 
L 267.647084 437.288037 
L 267.927116 437.191111 
L 268.487181 437.380222 
L 269.047245 437.876694 
L 270.447407 439.1691 
L 272.407633 440.322349 
L 272.967697 440.406987 
L 273.527762 440.150708 
L 274.087826 439.551819 
L 276.048052 436.807131 
L 276.608116 436.632634 
L 276.888149 436.736679 
L 277.448213 437.33074 
L 278.28831 438.830487 
L 279.128407 440.285733 
L 279.688471 440.928809 
L 280.248536 441.207713 
L 280.8086 441.105551 
L 281.368665 440.692814 
L 282.488794 439.413946 
L 283.608923 438.268533 
L 284.44902 437.771847 
L 285.009084 437.643339 
L 285.569149 437.707609 
L 286.129213 437.98113 
L 286.689278 438.469945 
L 288.929536 440.98045 
L 289.489601 441.182744 
L 290.049665 441.081062 
L 290.60973 440.661959 
L 291.449826 439.616498 
L 292.569955 438.051564 
L 293.13002 437.573983 
L 293.690084 437.432008 
L 294.250149 437.630378 
L 295.090246 438.330988 
L 296.210375 439.25282 
L 297.050472 439.537179 
L 298.730665 439.705438 
L 299.29073 439.61838 
L 300.130826 439.18017 
L 302.091052 437.647281 
L 302.651117 437.591938 
L 303.211181 437.853989 
L 303.771246 438.375956 
L 305.171407 439.932093 
L 305.731472 440.266857 
L 306.291536 440.343242 
L 306.851601 440.18157 
L 307.97173 439.478371 
L 309.091859 438.867404 
L 309.931956 438.682824 
L 311.332117 438.687931 
L 312.172214 438.844709 
L 313.572375 439.39757 
L 314.692504 439.743694 
L 315.532601 439.740412 
L 316.372698 439.468948 
L 318.052891 438.778534 
L 318.892988 438.718113 
L 320.013117 438.897648 
L 321.413278 439.088296 
L 323.093472 439.198586 
L 324.493633 439.24345 
L 326.173827 438.974264 
L 327.293956 438.877225 
L 328.97415 439.015395 
L 331.49444 439.206196 
L 333.454666 439.125173 
L 335.694924 438.957041 
L 341.575601 439.111301 
L 344.655956 438.965836 
L 348.85644 439.216356 
L 352.216827 439.01069 
L 357.817473 439.118636 
L 359.497666 438.985567 
L 366.778505 439.037367 
L 368.458699 439.040324 
L 372.939215 439.127913 
L 379.659989 439.106838 
L 392.261441 439.093436 
L 392.261441 439.093436 
" style="fill:none;stroke:#000000;stroke-linecap:square;stroke-width:0.8;"/>
   </g>
   <g id="line2d_42">
    <path clip-path="url(#pa102946e7a)" d="M 47.821758 437.910175 
L 52.022242 437.250897 
L 53.422403 436.639831 
L 56.502758 434.951772 
L 59.023049 433.434601 
L 60.703242 432.133547 
L 62.9435 430.028405 
L 66.58392 426.607888 
L 68.544145 425.115775 
L 69.944307 424.306772 
L 71.064436 423.887918 
L 72.184565 423.73409 
L 73.024662 423.827201 
L 73.864758 424.117715 
L 74.704855 424.612974 
L 75.824984 425.575758 
L 76.945113 426.832184 
L 78.345275 428.753672 
L 80.585533 432.261727 
L 83.105823 436.139005 
L 84.225952 437.59866 
L 84.786017 438.103264 
L 85.066049 438.211635 
L 85.346081 438.185575 
L 85.906146 437.828093 
L 88.146404 436.082813 
L 88.986501 435.66213 
L 90.10663 435.365527 
L 91.226759 435.361261 
L 92.62692 435.70391 
L 94.307114 436.460459 
L 97.667501 438.199016 
L 98.507598 438.45142 
L 99.347694 438.404766 
L 101.867985 437.597001 
L 104.108243 437.080409 
L 107.748662 437.344011 
L 109.428856 437.730534 
L 111.669114 438.342027 
L 114.469436 438.62288 
L 115.029501 438.530467 
L 116.14963 438.225244 
L 116.989727 438.015112 
L 119.229985 437.604617 
L 121.470243 437.443543 
L 124.83063 437.584056 
L 130.431275 438.164718 
L 132.111469 437.961963 
L 137.432082 436.929381 
L 139.67234 436.786568 
L 141.632566 436.955953 
L 143.592792 437.313911 
L 145.553018 437.71935 
L 146.673147 437.792145 
L 147.793276 437.668738 
L 148.913405 437.346805 
L 150.593598 436.500232 
L 153.673953 434.855103 
L 155.634179 434.107191 
L 157.03434 433.839442 
L 158.434502 433.794594 
L 159.834663 433.945716 
L 161.514857 434.334688 
L 162.915018 434.847933 
L 164.595211 435.706611 
L 165.995373 436.638911 
L 168.235631 438.235575 
L 168.795695 438.34096 
L 169.35576 438.144258 
L 172.436115 436.550553 
L 173.836276 436.276661 
L 176.356566 435.924135 
L 177.756728 435.376557 
L 179.716954 434.284042 
L 181.117115 433.263598 
L 181.957212 432.383729 
L 182.797309 431.186977 
L 183.637405 429.626731 
L 184.757534 427.017847 
L 186.437728 422.363622 
L 188.958018 415.382786 
L 190.35818 412.165111 
L 191.758341 409.514431 
L 194.558664 404.543913 
L 195.678793 401.936383 
L 197.078954 397.92677 
L 200.159309 388.503929 
L 200.999406 386.635037 
L 201.839502 385.370596 
L 202.399567 384.917424 
L 202.959631 384.798512 
L 203.519696 385.017886 
L 204.07976 385.555913 
L 204.639825 386.391617 
L 205.479922 388.097538 
L 206.600051 390.988682 
L 208.560277 396.222185 
L 209.680406 398.532642 
L 210.520503 399.822985 
L 211.920664 401.45404 
L 213.320825 403.17781 
L 214.440954 405.054152 
L 215.841115 408.001894 
L 217.241277 410.854507 
L 218.081374 411.981517 
L 218.641438 412.31959 
L 218.92147 412.349715 
L 219.481535 412.106499 
L 220.041599 411.511338 
L 220.601664 410.652621 
L 221.721793 408.40295 
L 223.682019 404.293539 
L 224.802148 402.531276 
L 225.642245 401.643887 
L 226.202309 401.287902 
L 226.762374 401.138295 
L 227.322438 401.214446 
L 227.882503 401.515247 
L 228.442567 402.04556 
L 229.282664 403.318161 
L 230.122761 405.121475 
L 231.24289 408.247075 
L 234.043213 416.903058 
L 234.603277 418.031582 
L 235.163342 418.720594 
L 235.723406 418.923178 
L 236.003438 418.867188 
L 236.563503 418.440271 
L 237.4036 417.314258 
L 239.083793 414.894803 
L 239.643858 414.401886 
L 240.203922 414.19914 
L 240.763987 414.279853 
L 241.324051 414.687717 
L 241.884116 415.412989 
L 242.44418 416.421199 
L 243.284277 418.490893 
L 244.684439 422.931346 
L 247.484761 432.457057 
L 248.044826 433.658103 
L 248.60489 434.271762 
L 248.884922 434.288382 
L 249.164955 434.190204 
L 249.725019 433.580606 
L 252.24531 430.259082 
L 253.365439 429.690606 
L 253.925503 429.62021 
L 254.7656 429.87904 
L 255.605697 430.479154 
L 257.28589 432.396076 
L 259.806181 435.976909 
L 260.92631 437.41361 
L 261.486374 437.847245 
L 262.046439 437.936314 
L 262.606503 437.716859 
L 263.726632 437.007473 
L 264.566729 436.677316 
L 265.406826 436.528972 
L 266.526955 436.593645 
L 267.647084 436.979987 
L 268.767213 437.492943 
L 269.887342 438.035573 
L 270.727439 438.27074 
L 271.567536 438.166042 
L 272.687665 437.737156 
L 274.087826 437.180148 
L 275.487987 436.796368 
L 277.168181 436.577086 
L 278.568342 436.64037 
L 280.8086 437.034312 
L 283.608923 437.620717 
L 285.009084 437.643327 
L 286.409246 437.463394 
L 289.489601 436.990448 
L 290.889762 436.964341 
L 292.009891 437.044972 
L 293.970117 437.496213 
L 297.610536 438.53826 
L 298.450633 438.44023 
L 302.931149 437.534394 
L 304.611343 437.560831 
L 306.571569 437.880141 
L 310.49202 438.651957 
L 311.892182 438.588096 
L 315.532601 438.401191 
L 318.892988 438.709036 
L 322.253375 439.042949 
L 324.773666 438.875141 
L 328.134053 438.899407 
L 332.614569 438.957309 
L 337.095085 438.984249 
L 340.735505 439.035011 
L 348.296376 438.924286 
L 364.538247 439.02363 
L 381.900247 439.069924 
L 392.261441 439.079723 
L 392.261441 439.079723 
" style="fill:none;stroke:#0000ff;stroke-linecap:square;stroke-width:0.8;"/>
   </g>
   <g id="patch_13">
    <path d="M 48.08 504.52 
L 48.08 373.653333 
" style="fill:none;stroke:#000000;stroke-linecap:square;stroke-linejoin:miter;stroke-width:0.8;"/>
   </g>
   <g id="patch_14">
    <path d="M 392.175 504.52 
L 392.175 373.653333 
" style="fill:none;stroke:#000000;stroke-linecap:square;stroke-linejoin:miter;stroke-width:0.8;"/>
   </g>
   <g id="patch_15">
    <path d="M 48.08 504.52 
L 392.175 504.52 
" style="fill:none;stroke:#000000;stroke-linecap:square;stroke-linejoin:miter;stroke-width:0.8;"/>
   </g>
   <g id="patch_16">
    <path d="M 48.08 373.653333 
L 392.175 373.653333 
" style="fill:none;stroke:#000000;stroke-linecap:square;stroke-linejoin:miter;stroke-width:0.8;"/>
   </g>
   <g id="text_43">
    <!-- $yt_{LP+NLD+ENV}(n)$ -->
    <g transform="translate(172.9675 367.653333)scale(0.12 -0.12)">
     <defs>
      <path d="M 1081 4666 
L 4031 4666 
L 3928 4134 
L 1606 4134 
L 1338 2753 
L 3566 2753 
L 3463 2222 
L 1234 2222 
L 909 531 
L 3284 531 
L 3181 0 
L 172 0 
L 1081 4666 
z
" id="DejaVuSans-Oblique-45" transform="scale(0.015625)"/>
      <path d="M 1319 0 
L 500 4666 
L 1119 4666 
L 1797 653 
L 4063 4666 
L 4750 4666 
L 2053 0 
L 1319 0 
z
" id="DejaVuSans-Oblique-56" transform="scale(0.015625)"/>
     </defs>
     <use transform="translate(0 0.125)" xlink:href="#DejaVuSans-Oblique-79"/>
     <use transform="translate(59.179688 0.125)" xlink:href="#DejaVuSans-Oblique-74"/>
     <use transform="translate(98.388672 -16.28125)scale(0.7)" xlink:href="#DejaVuSans-Oblique-4c"/>
     <use transform="translate(137.387695 -16.28125)scale(0.7)" xlink:href="#DejaVuSans-Oblique-50"/>
     <use transform="translate(193.237305 -16.28125)scale(0.7)" xlink:href="#DejaVuSans-2b"/>
     <use transform="translate(265.527344 -16.28125)scale(0.7)" xlink:href="#DejaVuSans-Oblique-4e"/>
     <use transform="translate(317.890625 -16.28125)scale(0.7)" xlink:href="#DejaVuSans-Oblique-4c"/>
     <use transform="translate(356.889648 -16.28125)scale(0.7)" xlink:href="#DejaVuSans-Oblique-44"/>
     <use transform="translate(424.428711 -16.28125)scale(0.7)" xlink:href="#DejaVuSans-2b"/>
     <use transform="translate(496.71875 -16.28125)scale(0.7)" xlink:href="#DejaVuSans-Oblique-45"/>
     <use transform="translate(540.947266 -16.28125)scale(0.7)" xlink:href="#DejaVuSans-Oblique-4e"/>
     <use transform="translate(593.310547 -16.28125)scale(0.7)" xlink:href="#DejaVuSans-Oblique-56"/>
     <use transform="translate(643.930664 0.125)" xlink:href="#DejaVuSans-28"/>
     <use transform="translate(682.944336 0.125)" xlink:href="#DejaVuSans-Oblique-6e"/>
     <use transform="translate(746.323242 0.125)" xlink:href="#DejaVuSans-29"/>
    </g>
   </g>
  </g>
 </g>
 <defs>
  <clipPath id="p1fe50a9d7c">
   <rect height="130.866667" width="344.095" x="48.08" y="26.88"/>
  </clipPath>
  <clipPath id="pce2bc2e895">
   <rect height="130.866667" width="344.095" x="48.08" y="200.266667"/>
  </clipPath>
  <clipPath id="pa102946e7a">
   <rect height="130.866667" width="344.095" x="48.08" y="373.653333"/>
  </clipPath>
 </defs>
</svg>
