<?xml version="1.0" encoding="utf-8" standalone="no"?>
<!DOCTYPE svg PUBLIC "-//W3C//DTD SVG 1.1//EN"
  "http://www.w3.org/Graphics/SVG/1.1/DTD/svg11.dtd">
<svg height="468pt" version="1.1" viewBox="0 0 680.4 468" width="680.4pt" xmlns="http://www.w3.org/2000/svg" xmlns:xlink="http://www.w3.org/1999/xlink">
 <metadata>
  <rdf:RDF xmlns:cc="http://creativecommons.org/ns#" xmlns:dc="http://purl.org/dc/elements/1.1/" xmlns:rdf="http://www.w3.org/1999/02/22-rdf-syntax-ns#">
   <cc:Work>
    <dc:type rdf:resource="http://purl.org/dc/dcmitype/StillImage"/>
    <dc:date>2022-05-18T19:47:38.908091</dc:date>
    <dc:format>image/svg+xml</dc:format>
    <dc:creator>
     <cc:Agent>
      <dc:title>Matplotlib v3.4.1, https://matplotlib.org/</dc:title>
     </cc:Agent>
    </dc:creator>
   </cc:Work>
  </rdf:RDF>
 </metadata>
 <defs>
  <style type="text/css">*{stroke-linecap:butt;stroke-linejoin:round;}</style>
 </defs>
 <g id="figure_1">
  <g id="patch_1">
   <path d="M 0 468 
L 680.4 468 
L 680.4 0 
L 0 0 
z
" style="fill:#ffffff;"/>
  </g>
  <g id="axes_1">
   <g id="patch_2">
    <path d="M 85.05 219.96 
L 612.36 219.96 
L 612.36 56.16 
L 85.05 56.16 
z
" style="fill:#ffffff;"/>
   </g>
   <g id="matplotlib.axis_1">
    <g id="xtick_1">
     <g id="line2d_1">
      <defs>
       <path d="M 0 0 
L 0 3.5 
" id="me9edefce09" style="stroke:#000000;stroke-width:0.8;"/>
      </defs>
      <g>
       <use style="stroke:#000000;stroke-width:0.8;" x="85.899481" xlink:href="#me9edefce09" y="219.96"/>
      </g>
     </g>
     <g id="text_1">
      <!-- 0.00 -->
      <g transform="translate(77.033856 233.761562)scale(0.1 -0.1)">
       <defs>
        <path d="M 3022 2031 
Q 3022 1566 2948 1181 
Q 2875 797 2704 520 
Q 2534 244 2259 92 
Q 1984 -59 1581 -59 
Q 1200 -59 939 77 
Q 678 213 518 477 
Q 359 741 292 1127 
Q 225 1513 225 2013 
Q 225 2475 300 2861 
Q 375 3247 544 3523 
Q 713 3800 988 3951 
Q 1263 4103 1663 4103 
Q 2047 4103 2308 3967 
Q 2569 3831 2728 3567 
Q 2888 3303 2955 2917 
Q 3022 2531 3022 2031 
z
M 2472 1994 
Q 2472 2297 2450 2537 
Q 2428 2778 2386 2962 
Q 2344 3147 2276 3280 
Q 2209 3413 2115 3498 
Q 2022 3584 1901 3623 
Q 1781 3663 1631 3663 
Q 1366 3663 1200 3538 
Q 1034 3413 939 3194 
Q 844 2975 809 2681 
Q 775 2388 775 2050 
Q 775 1597 822 1280 
Q 869 963 970 763 
Q 1072 563 1230 472 
Q 1388 381 1613 381 
Q 1788 381 1920 437 
Q 2053 494 2148 598 
Q 2244 703 2306 850 
Q 2369 997 2406 1175 
Q 2444 1353 2458 1561 
Q 2472 1769 2472 1994 
z
" id="Calibri-30" transform="scale(0.015625)"/>
        <path d="M 1144 341 
Q 1144 119 1070 45 
Q 997 -28 803 -28 
Q 616 -28 544 44 
Q 472 116 472 331 
Q 472 553 545 626 
Q 619 700 813 700 
Q 1000 700 1072 628 
Q 1144 556 1144 341 
z
" id="Calibri-2e" transform="scale(0.015625)"/>
       </defs>
       <use xlink:href="#Calibri-30"/>
       <use x="50.683594" xlink:href="#Calibri-2e"/>
       <use x="75.927734" xlink:href="#Calibri-30"/>
       <use x="126.611328" xlink:href="#Calibri-30"/>
      </g>
     </g>
    </g>
    <g id="xtick_2">
     <g id="line2d_2">
      <g>
       <use style="stroke:#000000;stroke-width:0.8;" x="190.636569" xlink:href="#me9edefce09" y="219.96"/>
      </g>
     </g>
     <g id="text_2">
      <!-- 0.05 -->
      <g transform="translate(181.770944 233.761562)scale(0.1 -0.1)">
       <defs>
        <path d="M 2869 1300 
Q 2869 975 2759 722 
Q 2650 469 2450 295 
Q 2250 122 1973 31 
Q 1697 -59 1359 -59 
Q 1172 -59 1003 -32 
Q 834 -6 703 33 
Q 572 72 487 109 
Q 403 147 379 169 
Q 356 191 347 209 
Q 338 228 330 254 
Q 322 281 319 322 
Q 316 363 316 419 
Q 316 472 320 514 
Q 325 556 337 582 
Q 350 609 367 621 
Q 384 634 406 634 
Q 438 634 503 595 
Q 569 556 680 511 
Q 791 466 955 425 
Q 1119 384 1344 384 
Q 1553 384 1728 434 
Q 1903 484 2029 590 
Q 2156 697 2228 858 
Q 2300 1019 2300 1250 
Q 2300 1444 2239 1592 
Q 2178 1741 2051 1839 
Q 1925 1938 1731 1986 
Q 1538 2034 1269 2034 
Q 1078 2034 940 2015 
Q 803 1997 684 1997 
Q 597 1997 559 2037 
Q 522 2078 522 2194 
L 522 3841 
Q 522 3944 570 3994 
Q 619 4044 709 4044 
L 2500 4044 
Q 2525 4044 2548 4030 
Q 2572 4016 2587 3987 
Q 2603 3959 2611 3915 
Q 2619 3872 2619 3813 
Q 2619 3700 2587 3637 
Q 2556 3575 2500 3575 
L 991 3575 
L 991 2441 
Q 1100 2456 1214 2459 
Q 1328 2463 1478 2463 
Q 1825 2463 2084 2380 
Q 2344 2297 2517 2145 
Q 2691 1994 2780 1778 
Q 2869 1563 2869 1300 
z
" id="Calibri-35" transform="scale(0.015625)"/>
       </defs>
       <use xlink:href="#Calibri-30"/>
       <use x="50.683594" xlink:href="#Calibri-2e"/>
       <use x="75.927734" xlink:href="#Calibri-30"/>
       <use x="126.611328" xlink:href="#Calibri-35"/>
      </g>
     </g>
    </g>
    <g id="xtick_3">
     <g id="line2d_3">
      <g>
       <use style="stroke:#000000;stroke-width:0.8;" x="295.373657" xlink:href="#me9edefce09" y="219.96"/>
      </g>
     </g>
     <g id="text_3">
      <!-- 0.10 -->
      <g transform="translate(286.508032 233.761562)scale(0.1 -0.1)">
       <defs>
        <path d="M 2897 213 
Q 2897 153 2887 112 
Q 2878 72 2862 47 
Q 2847 22 2826 11 
Q 2806 0 2784 0 
L 672 0 
Q 650 0 631 11 
Q 613 22 595 47 
Q 578 72 568 112 
Q 559 153 559 213 
Q 559 269 568 309 
Q 578 350 592 376 
Q 606 403 626 417 
Q 647 431 672 431 
L 1516 431 
L 1516 3506 
L 734 3041 
Q 675 3009 639 3003 
Q 603 2997 581 3017 
Q 559 3038 551 3084 
Q 544 3131 544 3203 
Q 544 3256 548 3293 
Q 553 3331 562 3356 
Q 572 3381 589 3400 
Q 606 3419 634 3438 
L 1566 4034 
Q 1578 4044 1597 4050 
Q 1616 4056 1644 4062 
Q 1672 4069 1709 4070 
Q 1747 4072 1803 4072 
Q 1878 4072 1928 4065 
Q 1978 4059 2006 4048 
Q 2034 4038 2043 4020 
Q 2053 4003 2053 3984 
L 2053 431 
L 2784 431 
Q 2809 431 2831 417 
Q 2853 403 2867 376 
Q 2881 350 2889 309 
Q 2897 269 2897 213 
z
" id="Calibri-31" transform="scale(0.015625)"/>
       </defs>
       <use xlink:href="#Calibri-30"/>
       <use x="50.683594" xlink:href="#Calibri-2e"/>
       <use x="75.927734" xlink:href="#Calibri-31"/>
       <use x="126.611328" xlink:href="#Calibri-30"/>
      </g>
     </g>
    </g>
    <g id="xtick_4">
     <g id="line2d_4">
      <g>
       <use style="stroke:#000000;stroke-width:0.8;" x="400.110745" xlink:href="#me9edefce09" y="219.96"/>
      </g>
     </g>
     <g id="text_4">
      <!-- 0.15 -->
      <g transform="translate(391.24512 233.761562)scale(0.1 -0.1)">
       <use xlink:href="#Calibri-30"/>
       <use x="50.683594" xlink:href="#Calibri-2e"/>
       <use x="75.927734" xlink:href="#Calibri-31"/>
       <use x="126.611328" xlink:href="#Calibri-35"/>
      </g>
     </g>
    </g>
    <g id="xtick_5">
     <g id="line2d_5">
      <g>
       <use style="stroke:#000000;stroke-width:0.8;" x="504.847832" xlink:href="#me9edefce09" y="219.96"/>
      </g>
     </g>
     <g id="text_5">
      <!-- 0.20 -->
      <g transform="translate(495.982207 233.761562)scale(0.1 -0.1)">
       <defs>
        <path d="M 2888 231 
Q 2888 175 2880 131 
Q 2872 88 2858 58 
Q 2844 28 2820 14 
Q 2797 0 2769 0 
L 534 0 
Q 491 0 458 11 
Q 425 22 401 47 
Q 378 72 367 119 
Q 356 166 356 234 
Q 356 297 361 344 
Q 366 391 381 427 
Q 397 463 420 498 
Q 444 534 481 575 
L 1266 1406 
Q 1538 1694 1702 1922 
Q 1866 2150 1955 2337 
Q 2044 2525 2072 2678 
Q 2100 2831 2100 2966 
Q 2100 3100 2056 3220 
Q 2013 3341 1930 3431 
Q 1847 3522 1722 3575 
Q 1597 3628 1434 3628 
Q 1244 3628 1092 3575 
Q 941 3522 827 3459 
Q 713 3397 636 3344 
Q 559 3291 522 3291 
Q 500 3291 483 3303 
Q 466 3316 455 3344 
Q 444 3372 437 3419 
Q 431 3466 431 3531 
Q 431 3578 434 3612 
Q 438 3647 445 3672 
Q 453 3697 465 3719 
Q 478 3741 515 3773 
Q 553 3806 645 3862 
Q 738 3919 877 3973 
Q 1016 4028 1183 4065 
Q 1350 4103 1534 4103 
Q 1828 4103 2048 4020 
Q 2269 3938 2414 3794 
Q 2559 3650 2631 3459 
Q 2703 3269 2703 3053 
Q 2703 2859 2668 2667 
Q 2634 2475 2523 2251 
Q 2413 2028 2203 1754 
Q 1994 1481 1647 1125 
L 1006 456 
L 2766 456 
Q 2791 456 2814 442 
Q 2838 428 2855 400 
Q 2872 372 2880 330 
Q 2888 288 2888 231 
z
" id="Calibri-32" transform="scale(0.015625)"/>
       </defs>
       <use xlink:href="#Calibri-30"/>
       <use x="50.683594" xlink:href="#Calibri-2e"/>
       <use x="75.927734" xlink:href="#Calibri-32"/>
       <use x="126.611328" xlink:href="#Calibri-30"/>
      </g>
     </g>
    </g>
    <g id="xtick_6">
     <g id="line2d_6">
      <g>
       <use style="stroke:#000000;stroke-width:0.8;" x="609.58492" xlink:href="#me9edefce09" y="219.96"/>
      </g>
     </g>
     <g id="text_6">
      <!-- 0.25 -->
      <g transform="translate(600.719295 233.761562)scale(0.1 -0.1)">
       <use xlink:href="#Calibri-30"/>
       <use x="50.683594" xlink:href="#Calibri-2e"/>
       <use x="75.927734" xlink:href="#Calibri-32"/>
       <use x="126.611328" xlink:href="#Calibri-35"/>
      </g>
     </g>
    </g>
   </g>
   <g id="matplotlib.axis_2">
    <g id="ytick_1">
     <g id="line2d_7">
      <defs>
       <path d="M 0 0 
L -3.5 0 
" id="m679c0075fb" style="stroke:#000000;stroke-width:0.8;"/>
      </defs>
      <g>
       <use style="stroke:#000000;stroke-width:0.8;" x="85.05" xlink:href="#m679c0075fb" y="179.498822"/>
      </g>
     </g>
     <g id="text_7">
      <!-- −0.5 -->
      <g transform="translate(60.40625 182.899603)scale(0.1 -0.1)">
       <defs>
        <path d="M 2934 1797 
Q 2934 1681 2904 1628 
Q 2875 1575 2819 1575 
L 356 1575 
Q 297 1575 267 1628 
Q 238 1681 238 1797 
Q 238 1909 267 1964 
Q 297 2019 356 2019 
L 2819 2019 
Q 2875 2019 2904 1966 
Q 2934 1913 2934 1797 
z
" id="Calibri-2212" transform="scale(0.015625)"/>
       </defs>
       <use xlink:href="#Calibri-2212"/>
       <use x="49.804688" xlink:href="#Calibri-30"/>
       <use x="100.488281" xlink:href="#Calibri-2e"/>
       <use x="125.732422" xlink:href="#Calibri-35"/>
      </g>
     </g>
    </g>
    <g id="ytick_2">
     <g id="line2d_8">
      <g>
       <use style="stroke:#000000;stroke-width:0.8;" x="85.05" xlink:href="#m679c0075fb" y="138.570079"/>
      </g>
     </g>
     <g id="text_8">
      <!-- 0.0 -->
      <g transform="translate(65.3875 141.97086)scale(0.1 -0.1)">
       <use xlink:href="#Calibri-30"/>
       <use x="50.683594" xlink:href="#Calibri-2e"/>
       <use x="75.927734" xlink:href="#Calibri-30"/>
      </g>
     </g>
    </g>
    <g id="ytick_3">
     <g id="line2d_9">
      <g>
       <use style="stroke:#000000;stroke-width:0.8;" x="85.05" xlink:href="#m679c0075fb" y="97.641336"/>
      </g>
     </g>
     <g id="text_9">
      <!-- 0.5 -->
      <g transform="translate(65.3875 101.042117)scale(0.1 -0.1)">
       <use xlink:href="#Calibri-30"/>
       <use x="50.683594" xlink:href="#Calibri-2e"/>
       <use x="75.927734" xlink:href="#Calibri-35"/>
      </g>
     </g>
    </g>
    <g id="ytick_4">
     <g id="line2d_10">
      <g>
       <use style="stroke:#000000;stroke-width:0.8;" x="85.05" xlink:href="#m679c0075fb" y="56.712593"/>
      </g>
     </g>
     <g id="text_10">
      <!-- 1.0 -->
      <g transform="translate(65.3875 60.113375)scale(0.1 -0.1)">
       <use xlink:href="#Calibri-31"/>
       <use x="50.683594" xlink:href="#Calibri-2e"/>
       <use x="75.927734" xlink:href="#Calibri-30"/>
      </g>
     </g>
    </g>
    <g id="text_11">
     <!-- Amplitud -->
     <g transform="translate(54.628125 156.799844)rotate(-90)scale(0.1 -0.1)">
      <defs>
       <path d="M 3566 191 
Q 3591 122 3592 80 
Q 3594 38 3569 16 
Q 3544 -6 3486 -12 
Q 3428 -19 3331 -19 
Q 3234 -19 3176 -14 
Q 3119 -9 3089 2 
Q 3059 13 3045 31 
Q 3031 50 3019 78 
L 2672 1063 
L 991 1063 
L 659 91 
Q 650 63 634 42 
Q 619 22 589 8 
Q 559 -6 504 -12 
Q 450 -19 363 -19 
Q 272 -19 214 -11 
Q 156 -3 132 19 
Q 109 41 111 83 
Q 113 125 138 194 
L 1494 3950 
Q 1506 3984 1526 4006 
Q 1547 4028 1586 4040 
Q 1625 4053 1686 4058 
Q 1747 4063 1841 4063 
Q 1941 4063 2006 4058 
Q 2072 4053 2112 4040 
Q 2153 4028 2175 4004 
Q 2197 3981 2209 3947 
L 3566 191 
z
M 1825 3506 
L 1822 3506 
L 1125 1491 
L 2531 1491 
L 1825 3506 
z
" id="Calibri-41" transform="scale(0.015625)"/>
       <path d="M 4650 78 
Q 4650 53 4637 36 
Q 4625 19 4597 6 
Q 4569 -6 4519 -12 
Q 4469 -19 4394 -19 
Q 4316 -19 4266 -12 
Q 4216 -6 4186 6 
Q 4156 19 4143 36 
Q 4131 53 4131 78 
L 4131 1788 
Q 4131 1966 4100 2112 
Q 4069 2259 4000 2365 
Q 3931 2472 3825 2528 
Q 3719 2584 3575 2584 
Q 3397 2584 3217 2446 
Q 3038 2309 2822 2044 
L 2822 78 
Q 2822 53 2809 36 
Q 2797 19 2767 6 
Q 2738 -6 2688 -12 
Q 2638 -19 2563 -19 
Q 2491 -19 2439 -12 
Q 2388 -6 2358 6 
Q 2328 19 2317 36 
Q 2306 53 2306 78 
L 2306 1788 
Q 2306 1966 2272 2112 
Q 2238 2259 2169 2365 
Q 2100 2472 1995 2528 
Q 1891 2584 1747 2584 
Q 1569 2584 1387 2446 
Q 1206 2309 994 2044 
L 994 78 
Q 994 53 981 36 
Q 969 19 941 6 
Q 913 -6 863 -12 
Q 813 -19 734 -19 
Q 659 -19 609 -12 
Q 559 -6 529 6 
Q 500 19 489 36 
Q 478 53 478 78 
L 478 2891 
Q 478 2916 487 2933 
Q 497 2950 525 2964 
Q 553 2978 597 2983 
Q 641 2988 713 2988 
Q 781 2988 826 2983 
Q 872 2978 897 2964 
Q 922 2950 933 2933 
Q 944 2916 944 2891 
L 944 2519 
Q 1181 2784 1404 2907 
Q 1628 3031 1856 3031 
Q 2031 3031 2170 2990 
Q 2309 2950 2415 2876 
Q 2522 2803 2597 2701 
Q 2672 2600 2722 2475 
Q 2863 2628 2989 2734 
Q 3116 2841 3233 2906 
Q 3350 2972 3461 3001 
Q 3572 3031 3684 3031 
Q 3956 3031 4140 2936 
Q 4325 2841 4439 2681 
Q 4553 2522 4601 2308 
Q 4650 2094 4650 1856 
L 4650 78 
z
" id="Calibri-6d" transform="scale(0.015625)"/>
       <path d="M 3066 1528 
Q 3066 1159 2986 865 
Q 2906 572 2751 367 
Q 2597 163 2369 52 
Q 2141 -59 1847 -59 
Q 1722 -59 1615 -34 
Q 1509 -9 1407 44 
Q 1306 97 1206 178 
Q 1106 259 994 369 
L 994 -1038 
Q 994 -1063 981 -1081 
Q 969 -1100 941 -1112 
Q 913 -1125 863 -1131 
Q 813 -1138 734 -1138 
Q 659 -1138 609 -1131 
Q 559 -1125 529 -1112 
Q 500 -1100 489 -1081 
Q 478 -1063 478 -1038 
L 478 2891 
Q 478 2919 487 2936 
Q 497 2953 525 2965 
Q 553 2978 597 2983 
Q 641 2988 703 2988 
Q 769 2988 811 2983 
Q 853 2978 881 2965 
Q 909 2953 920 2936 
Q 931 2919 931 2891 
L 931 2513 
Q 1059 2644 1178 2741 
Q 1297 2838 1417 2902 
Q 1538 2966 1664 2998 
Q 1791 3031 1931 3031 
Q 2238 3031 2453 2912 
Q 2669 2794 2805 2587 
Q 2941 2381 3003 2107 
Q 3066 1834 3066 1528 
z
M 2522 1469 
Q 2522 1684 2489 1886 
Q 2456 2088 2376 2244 
Q 2297 2400 2162 2494 
Q 2028 2588 1828 2588 
Q 1728 2588 1631 2558 
Q 1534 2528 1434 2464 
Q 1334 2400 1225 2295 
Q 1116 2191 994 2038 
L 994 919 
Q 1206 659 1397 521 
Q 1588 384 1797 384 
Q 1991 384 2130 478 
Q 2269 572 2355 728 
Q 2441 884 2481 1078 
Q 2522 1272 2522 1469 
z
" id="Calibri-70" transform="scale(0.015625)"/>
       <path d="M 994 78 
Q 994 53 981 36 
Q 969 19 941 6 
Q 913 -6 863 -12 
Q 813 -19 734 -19 
Q 659 -19 609 -12 
Q 559 -6 529 6 
Q 500 19 489 36 
Q 478 53 478 78 
L 478 4253 
Q 478 4278 489 4297 
Q 500 4316 529 4328 
Q 559 4341 609 4347 
Q 659 4353 734 4353 
Q 813 4353 863 4347 
Q 913 4341 941 4328 
Q 969 4316 981 4297 
Q 994 4278 994 4253 
L 994 78 
z
" id="Calibri-6c" transform="scale(0.015625)"/>
       <path d="M 994 78 
Q 994 53 981 36 
Q 969 19 941 6 
Q 913 -6 863 -12 
Q 813 -19 734 -19 
Q 659 -19 609 -12 
Q 559 -6 529 6 
Q 500 19 489 36 
Q 478 53 478 78 
L 478 2891 
Q 478 2913 489 2931 
Q 500 2950 529 2962 
Q 559 2975 609 2981 
Q 659 2988 734 2988 
Q 813 2988 863 2981 
Q 913 2975 941 2962 
Q 969 2950 981 2931 
Q 994 2913 994 2891 
L 994 78 
z
M 1053 3841 
Q 1053 3659 984 3593 
Q 916 3528 731 3528 
Q 550 3528 483 3592 
Q 416 3656 416 3834 
Q 416 4016 484 4081 
Q 553 4147 738 4147 
Q 919 4147 986 4083 
Q 1053 4019 1053 3841 
z
" id="Calibri-69" transform="scale(0.015625)"/>
       <path d="M 1941 284 
Q 1941 194 1928 141 
Q 1916 88 1891 63 
Q 1866 38 1816 16 
Q 1766 -6 1702 -20 
Q 1638 -34 1566 -43 
Q 1494 -53 1422 -53 
Q 1203 -53 1047 5 
Q 891 63 791 180 
Q 691 297 645 476 
Q 600 656 600 900 
L 600 2544 
L 206 2544 
Q 159 2544 131 2594 
Q 103 2644 103 2756 
Q 103 2816 111 2856 
Q 119 2897 131 2923 
Q 144 2950 164 2961 
Q 184 2972 209 2972 
L 600 2972 
L 600 3641 
Q 600 3663 611 3681 
Q 622 3700 651 3714 
Q 681 3728 731 3734 
Q 781 3741 856 3741 
Q 934 3741 984 3734 
Q 1034 3728 1062 3714 
Q 1091 3700 1103 3681 
Q 1116 3663 1116 3641 
L 1116 2972 
L 1838 2972 
Q 1863 2972 1881 2961 
Q 1900 2950 1914 2923 
Q 1928 2897 1934 2856 
Q 1941 2816 1941 2756 
Q 1941 2644 1912 2594 
Q 1884 2544 1838 2544 
L 1116 2544 
L 1116 975 
Q 1116 684 1202 536 
Q 1288 388 1509 388 
Q 1581 388 1637 402 
Q 1694 416 1737 431 
Q 1781 447 1812 461 
Q 1844 475 1869 475 
Q 1884 475 1898 467 
Q 1913 459 1920 437 
Q 1928 416 1934 378 
Q 1941 341 1941 284 
z
" id="Calibri-74" transform="scale(0.015625)"/>
       <path d="M 2888 78 
Q 2888 53 2877 36 
Q 2866 19 2837 6 
Q 2809 -6 2764 -12 
Q 2719 -19 2653 -19 
Q 2581 -19 2536 -12 
Q 2491 -6 2464 6 
Q 2438 19 2428 36 
Q 2419 53 2419 78 
L 2419 450 
Q 2178 184 1943 62 
Q 1709 -59 1469 -59 
Q 1188 -59 995 34 
Q 803 128 684 289 
Q 566 450 514 664 
Q 463 878 463 1184 
L 463 2891 
Q 463 2916 473 2933 
Q 484 2950 515 2964 
Q 547 2978 597 2983 
Q 647 2988 722 2988 
Q 797 2988 847 2983 
Q 897 2978 926 2964 
Q 956 2950 968 2933 
Q 981 2916 981 2891 
L 981 1253 
Q 981 1006 1017 857 
Q 1053 709 1126 604 
Q 1200 500 1312 442 
Q 1425 384 1575 384 
Q 1769 384 1961 521 
Q 2153 659 2369 925 
L 2369 2891 
Q 2369 2916 2380 2933 
Q 2391 2950 2422 2964 
Q 2453 2978 2501 2983 
Q 2550 2988 2628 2988 
Q 2703 2988 2753 2983 
Q 2803 2978 2831 2964 
Q 2859 2950 2873 2933 
Q 2888 2916 2888 2891 
L 2888 78 
z
" id="Calibri-75" transform="scale(0.015625)"/>
       <path d="M 2888 78 
Q 2888 53 2877 34 
Q 2866 16 2839 5 
Q 2813 -6 2769 -12 
Q 2725 -19 2663 -19 
Q 2597 -19 2553 -12 
Q 2509 -6 2481 5 
Q 2453 16 2440 34 
Q 2428 53 2428 78 
L 2428 450 
Q 2206 209 1967 75 
Q 1728 -59 1444 -59 
Q 1134 -59 915 61 
Q 697 181 561 386 
Q 425 591 362 867 
Q 300 1144 300 1450 
Q 300 1813 378 2105 
Q 456 2397 609 2603 
Q 763 2809 989 2920 
Q 1216 3031 1513 3031 
Q 1759 3031 1964 2923 
Q 2169 2816 2369 2606 
L 2369 4241 
Q 2369 4263 2380 4283 
Q 2391 4303 2422 4314 
Q 2453 4325 2501 4333 
Q 2550 4341 2625 4341 
Q 2703 4341 2753 4333 
Q 2803 4325 2831 4314 
Q 2859 4303 2873 4283 
Q 2888 4263 2888 4241 
L 2888 78 
z
M 2369 2056 
Q 2159 2316 1964 2452 
Q 1769 2588 1556 2588 
Q 1359 2588 1221 2494 
Q 1084 2400 998 2247 
Q 913 2094 873 1900 
Q 834 1706 834 1506 
Q 834 1294 867 1091 
Q 900 888 981 730 
Q 1063 572 1197 476 
Q 1331 381 1534 381 
Q 1638 381 1733 409 
Q 1828 438 1928 503 
Q 2028 569 2137 673 
Q 2247 778 2369 931 
L 2369 2056 
z
" id="Calibri-64" transform="scale(0.015625)"/>
      </defs>
      <use xlink:href="#Calibri-41"/>
      <use x="57.861328" xlink:href="#Calibri-6d"/>
      <use x="137.744141" xlink:href="#Calibri-70"/>
      <use x="190.283203" xlink:href="#Calibri-6c"/>
      <use x="213.232422" xlink:href="#Calibri-69"/>
      <use x="236.181641" xlink:href="#Calibri-74"/>
      <use x="269.677734" xlink:href="#Calibri-75"/>
      <use x="322.216797" xlink:href="#Calibri-64"/>
     </g>
    </g>
   </g>
   <g id="line2d_11">
    <path clip-path="url(#p8c96604603)" d="M 85.899481 138.570079 
L 87.43379 102.215357 
L 88.456663 81.76332 
L 89.479536 66.616348 
L 89.990973 61.49765 
L 90.502409 58.188985 
L 91.013846 56.768064 
L 91.525283 57.268248 
L 92.036719 59.677795 
L 92.548156 63.940116 
L 93.059592 69.955112 
L 94.082465 86.64024 
L 95.105338 108.174986 
L 98.685394 190.887199 
L 99.708267 207.457655 
L 100.219704 213.404993 
L 100.73114 217.59484 
L 101.242577 219.928805 
L 101.754013 220.35207 
L 102.26545 218.854693 
L 102.776886 215.471847 
L 103.288323 210.282973 
L 103.799759 203.409931 
L 104.822632 185.292756 
L 106.356942 150.581066 
L 108.402688 101.766025 
L 109.425561 81.402756 
L 110.448434 66.378219 
L 110.959871 61.329892 
L 111.471307 58.095536 
L 111.982744 56.751114 
L 112.49418 57.328197 
L 113.005617 59.813238 
L 113.517053 64.147872 
L 114.02849 70.230302 
L 115.051363 87.029474 
L 116.074236 108.641919 
L 119.654292 191.272511 
L 120.677165 207.727668 
L 121.188602 213.607124 
L 121.700038 217.724341 
L 122.211475 219.982635 
L 122.722911 220.328963 
L 123.234348 218.755199 
L 123.745784 215.298293 
L 124.257221 210.039438 
L 124.768657 203.102134 
L 125.79153 184.879463 
L 127.32584 150.084009 
L 129.371586 101.318081 
L 130.394459 81.044343 
L 131.417332 66.142813 
L 131.928769 61.165043 
L 132.440205 58.005117 
L 132.951642 56.737247 
L 133.463078 57.391211 
L 133.974515 59.951653 
L 134.485951 64.358434 
L 134.997388 70.508068 
L 136.020261 87.42065 
L 137.043134 109.109975 
L 140.62319 191.655836 
L 141.646063 207.995077 
L 142.157499 213.806429 
L 142.668936 217.85086 
L 143.180373 220.033397 
L 143.691809 220.302777 
L 144.203246 218.652679 
L 144.714682 215.121851 
L 145.226119 209.79321 
L 146.248992 194.282365 
L 147.271865 173.568663 
L 149.317611 124.575569 
L 150.851921 90.211976 
L 151.874794 72.523565 
L 152.38623 65.91013 
L 152.897667 61.003106 
L 153.409103 57.917728 
L 153.92054 56.72646 
L 154.431976 57.457278 
L 154.943413 60.093024 
L 155.454849 64.571787 
L 155.966286 70.788391 
L 156.989159 87.813753 
L 158.012032 109.579143 
L 161.592088 192.037166 
L 162.614961 208.259874 
L 163.126397 214.0029 
L 163.637834 217.974399 
L 164.14927 220.081095 
L 164.660707 220.273517 
L 165.172144 218.547145 
L 165.68358 214.942525 
L 166.195017 209.544304 
L 167.21789 193.913326 
L 168.240763 173.113959 
L 172.332255 80.334026 
L 173.355128 65.680183 
L 173.866565 60.844091 
L 174.378001 57.833378 
L 174.889438 56.718756 
L 175.400874 57.526405 
L 175.912311 60.237348 
L 176.423747 64.78793 
L 176.935184 71.071271 
L 177.958057 88.208769 
L 178.98093 110.049401 
L 182.560986 192.416481 
L 183.583859 208.522047 
L 184.095295 214.196532 
L 184.606732 218.094946 
L 185.118168 220.125724 
L 185.629605 220.241178 
L 186.141041 218.4386 
L 186.652478 214.76032 
L 187.163915 209.292723 
L 188.186788 193.542208 
L 189.209661 172.657955 
L 193.301153 79.982151 
L 194.324026 65.452984 
L 194.835463 60.688 
L 195.346899 57.752068 
L 195.858336 56.714135 
L 196.369772 57.598577 
L 196.881209 60.384623 
L 197.392645 65.006845 
L 197.904082 71.356693 
L 198.926955 88.605678 
L 199.949828 110.520733 
L 203.529884 192.793771 
L 204.552757 208.781585 
L 205.064193 214.387319 
L 205.57563 218.212498 
L 206.087066 220.16728 
L 206.598503 220.205766 
L 207.109939 218.327049 
L 207.621376 214.575251 
L 208.132812 209.038484 
L 209.155686 193.169016 
L 210.178559 172.200667 
L 214.270051 79.632482 
L 215.292924 65.228536 
L 215.80436 60.534845 
L 216.315797 57.673798 
L 216.827234 56.712593 
L 217.33867 57.673798 
L 217.850107 60.534845 
L 218.361543 65.228536 
L 218.87298 71.644642 
L 219.895853 89.004465 
L 220.918726 110.993122 
L 224.498782 193.169016 
L 225.521655 209.038484 
L 226.033091 214.575251 
L 226.544528 218.327049 
L 227.055964 220.205766 
L 227.567401 220.16728 
L 228.078837 218.212498 
L 228.590274 214.387319 
L 229.10171 208.781585 
L 230.124583 192.793771 
L 231.147457 171.742113 
L 235.238949 79.285032 
L 236.261822 65.006845 
L 236.773258 60.384623 
L 237.284695 57.598577 
L 237.796131 56.714135 
L 238.307568 57.752068 
L 238.819005 60.688 
L 239.330441 65.452984 
L 239.841878 71.935113 
L 240.864751 89.405126 
L 241.887624 111.466549 
L 244.956243 183.629183 
L 245.979116 202.164217 
L 246.490553 209.292723 
L 247.001989 214.76032 
L 247.513426 218.4386 
L 248.024862 220.241178 
L 248.536299 220.125724 
L 249.047735 218.094946 
L 249.559172 214.196532 
L 250.070608 208.522047 
L 251.093481 192.416481 
L 252.116354 171.282311 
L 256.207847 78.939818 
L 257.23072 64.78793 
L 257.742156 60.237348 
L 258.253593 57.526405 
L 258.765029 56.718756 
L 259.276466 57.833378 
L 259.787902 60.844091 
L 260.299339 65.680183 
L 260.810776 72.228093 
L 261.833649 89.807631 
L 262.856522 111.940996 
L 265.925141 184.047662 
L 266.948014 202.479265 
L 267.45945 209.544304 
L 267.970887 214.942525 
L 268.482324 218.547145 
L 268.99376 220.273517 
L 269.505197 220.081095 
L 270.016633 217.974399 
L 270.52807 214.0029 
L 271.039506 208.259874 
L 272.062379 192.037166 
L 273.085252 170.821276 
L 276.665308 87.813753 
L 277.688181 70.788391 
L 278.199618 64.571787 
L 278.711054 60.093024 
L 279.222491 57.457278 
L 279.733927 56.72646 
L 280.245364 57.917728 
L 280.7568 61.003106 
L 281.268237 65.91013 
L 281.779673 72.523565 
L 282.802547 90.211976 
L 283.82542 112.416446 
L 286.894039 184.464424 
L 287.916912 202.791907 
L 288.428348 209.79321 
L 288.939785 215.121851 
L 289.451221 218.652679 
L 289.962658 220.302777 
L 290.474095 220.033397 
L 290.985531 217.85086 
L 291.496968 213.806429 
L 292.008404 207.995077 
L 293.031277 191.655836 
L 294.05415 170.359027 
L 297.634206 87.42065 
L 298.657079 70.508068 
L 299.168516 64.358434 
L 299.679952 59.951653 
L 300.191389 57.391211 
L 300.702825 56.737247 
L 301.214262 58.005117 
L 301.725698 61.165043 
L 302.237135 66.142813 
L 302.748571 72.821531 
L 303.771444 90.61814 
L 304.794318 112.892879 
L 307.862937 184.879463 
L 308.88581 203.102134 
L 309.397246 210.039438 
L 309.908683 215.298293 
L 310.420119 218.755199 
L 310.931556 220.328963 
L 311.442992 219.982635 
L 311.954429 217.724341 
L 312.465866 213.607124 
L 312.977302 207.727668 
L 314.000175 191.272511 
L 315.023048 169.895582 
L 318.603104 87.029474 
L 319.625977 70.230302 
L 320.137414 64.147872 
L 320.64885 59.813238 
L 321.160287 57.328197 
L 321.671723 56.751114 
L 322.18316 58.095536 
L 322.694596 61.329892 
L 323.206033 66.378219 
L 323.717469 73.121971 
L 324.740342 91.02611 
L 326.274652 125.56635 
L 328.320398 174.474102 
L 329.343271 195.014136 
L 330.366144 210.282973 
L 330.877581 215.471847 
L 331.389017 218.854693 
L 331.900454 220.35207 
L 332.41189 219.928805 
L 332.923327 217.59484 
L 333.434763 213.404993 
L 333.9462 207.457655 
L 334.969073 190.887199 
L 335.991946 169.430959 
L 339.572002 86.64024 
L 340.594875 69.955112 
L 341.106311 63.940116 
L 341.617748 59.677795 
L 342.129185 57.268248 
L 342.640621 56.768064 
L 343.152058 58.188985 
L 343.663494 61.49765 
L 344.174931 66.616348 
L 344.686367 73.424869 
L 345.70924 91.43587 
L 347.24355 126.062485 
L 349.289296 174.9248 
L 350.312169 195.376837 
L 351.335042 210.523809 
L 351.846479 215.642508 
L 352.357915 218.951172 
L 352.869352 220.372094 
L 353.380788 219.871909 
L 353.892225 217.462363 
L 354.403661 213.200042 
L 354.915098 207.185046 
L 355.937971 190.499917 
L 356.960844 168.965172 
L 360.5409 86.252958 
L 361.563773 69.682503 
L 362.075209 63.735165 
L 362.586646 59.545318 
L 363.098082 57.211353 
L 363.609519 56.788087 
L 364.120956 58.285464 
L 364.632392 61.668311 
L 365.143829 66.857185 
L 365.655265 73.730227 
L 366.678138 91.847401 
L 368.212448 126.559092 
L 370.258194 175.374132 
L 371.281067 195.737402 
L 372.30394 210.761938 
L 372.815377 215.810265 
L 373.326813 219.044621 
L 373.83825 220.389044 
L 374.349686 219.81196 
L 374.861123 217.32692 
L 375.372559 212.992286 
L 375.883996 206.909855 
L 376.906869 190.110683 
L 377.929742 168.498238 
L 381.509798 85.867647 
L 382.532671 69.412489 
L 383.044107 63.533034 
L 383.555544 59.415817 
L 384.06698 57.157522 
L 384.578417 56.811195 
L 385.089853 58.384959 
L 385.60129 61.841865 
L 386.112727 67.100719 
L 386.624163 74.038024 
L 387.647036 92.260694 
L 389.181346 127.056149 
L 391.227092 175.822076 
L 392.249965 196.095814 
L 393.272838 210.997344 
L 393.784275 215.975115 
L 394.295711 219.135041 
L 394.807148 220.40291 
L 395.318584 219.748947 
L 395.830021 217.188505 
L 396.341457 212.781724 
L 396.852894 206.632089 
L 397.875767 189.719507 
L 398.89864 168.030183 
L 402.478696 85.484322 
L 403.501569 69.145081 
L 404.013005 63.333728 
L 404.524442 59.289297 
L 405.035878 57.10676 
L 405.547315 56.837381 
L 406.058751 58.487478 
L 406.570188 62.018307 
L 407.081624 67.346947 
L 408.104498 82.857792 
L 409.127371 103.571495 
L 411.173117 152.564589 
L 412.707426 186.928182 
L 413.730299 204.616592 
L 414.241736 211.230028 
L 414.753172 216.137052 
L 415.264609 219.22243 
L 415.776046 220.413698 
L 416.287482 219.682879 
L 416.798919 217.047133 
L 417.310355 212.568371 
L 417.821792 206.351766 
L 418.844665 189.326404 
L 419.867538 167.561015 
L 423.447594 85.102992 
L 424.470467 68.880283 
L 424.981903 63.137257 
L 425.49334 59.165759 
L 426.004776 57.059062 
L 426.516213 56.866641 
L 427.027649 58.593013 
L 427.539086 62.197633 
L 428.050522 67.595854 
L 429.073395 83.226832 
L 430.096269 104.026199 
L 434.187761 196.806131 
L 435.210634 211.459974 
L 435.72207 216.296066 
L 436.233507 219.30678 
L 436.744943 220.421402 
L 437.25638 219.613752 
L 437.767817 216.90281 
L 438.279253 212.352227 
L 438.79069 206.068886 
L 439.813563 188.931388 
L 440.836436 167.090756 
L 444.416492 84.723677 
L 445.439365 68.61811 
L 445.950801 62.943626 
L 446.462238 59.045211 
L 446.973674 57.014433 
L 447.485111 56.898979 
L 447.996547 58.701558 
L 448.507984 62.379837 
L 449.01942 67.847434 
L 450.042293 83.59795 
L 451.065166 104.482203 
L 455.156659 197.158006 
L 456.179532 211.687174 
L 456.690968 216.452158 
L 457.202405 219.38809 
L 457.713841 220.426022 
L 458.225278 219.541581 
L 458.736714 216.755535 
L 459.248151 212.133313 
L 459.759588 205.783465 
L 460.782461 188.53448 
L 461.805334 166.619424 
L 465.385389 84.346387 
L 466.408263 68.358572 
L 466.919699 62.752839 
L 467.431136 58.927659 
L 467.942572 56.972878 
L 468.454009 56.934392 
L 468.965445 58.813108 
L 469.476882 62.564906 
L 469.988318 68.101674 
L 471.011191 83.971141 
L 472.034064 104.93949 
L 476.125557 197.507676 
L 477.14843 211.911622 
L 477.659866 216.605312 
L 478.171303 219.46636 
L 478.682739 220.427564 
L 479.194176 219.46636 
L 479.705612 216.605312 
L 480.217049 211.911622 
L 480.728485 205.495516 
L 481.751359 188.135692 
L 482.774232 166.147036 
L 486.354287 83.971141 
L 487.37716 68.101674 
L 487.888597 62.564906 
L 488.400034 58.813108 
L 488.91147 56.934392 
L 489.422907 56.972878 
L 489.934343 58.927659 
L 490.44578 62.752839 
L 490.957216 68.358572 
L 491.980089 84.346387 
L 493.002962 105.398044 
L 497.094455 197.855125 
L 498.117328 212.133313 
L 498.628764 216.755535 
L 499.140201 219.541581 
L 499.651637 220.426022 
L 500.163074 219.38809 
L 500.67451 216.452158 
L 501.185947 211.687174 
L 501.697383 205.205044 
L 502.720256 187.735032 
L 503.74313 165.673608 
L 506.811749 93.510975 
L 507.834622 74.97594 
L 508.346058 67.847434 
L 508.857495 62.379837 
L 509.368931 58.701558 
L 509.880368 56.898979 
L 510.391805 57.014433 
L 510.903241 59.045211 
L 511.414678 62.943626 
L 511.926114 68.61811 
L 512.948987 84.723677 
L 513.97186 105.857847 
L 518.063353 198.20034 
L 519.086226 212.352227 
L 519.597662 216.90281 
L 520.109099 219.613752 
L 520.620535 220.421402 
L 521.131972 219.30678 
L 521.643408 216.296066 
L 522.154845 211.459974 
L 522.666281 204.912065 
L 523.689154 187.332526 
L 524.712027 165.199161 
L 527.780647 93.092496 
L 528.80352 74.660893 
L 529.314956 67.595854 
L 529.826393 62.197633 
L 530.337829 58.593013 
L 530.849266 56.866641 
L 531.360702 57.059062 
L 531.872139 59.165759 
L 532.383576 63.137257 
L 532.895012 68.880283 
L 533.917885 85.102992 
L 534.940758 106.318881 
L 538.520814 189.326404 
L 539.543687 206.351766 
L 540.055124 212.568371 
L 540.56656 217.047133 
L 541.077997 219.682879 
L 541.589433 220.413698 
L 542.10087 219.22243 
L 542.612306 216.137052 
L 543.123743 211.230028 
L 543.635179 204.616592 
L 544.658052 186.928182 
L 545.680925 164.723711 
L 548.749545 92.675734 
L 549.772418 74.348251 
L 550.283854 67.346947 
L 550.795291 62.018307 
L 551.306727 58.487478 
L 551.818164 56.837381 
L 552.3296 57.10676 
L 552.841037 59.289297 
L 553.352473 63.333728 
L 553.86391 69.145081 
L 554.886783 85.484322 
L 555.909656 106.781131 
L 559.489712 189.719507 
L 560.512585 206.632089 
L 561.024021 212.781724 
L 561.535458 217.188505 
L 562.046895 219.748947 
L 562.558331 220.40291 
L 563.069768 219.135041 
L 563.581204 215.975115 
L 564.092641 210.997344 
L 564.604077 204.318626 
L 565.62695 186.522017 
L 566.649823 164.247278 
L 569.718443 92.260694 
L 570.741316 74.038024 
L 571.252752 67.100719 
L 571.764189 61.841865 
L 572.275625 58.384959 
L 572.787062 56.811195 
L 573.298498 57.157522 
L 573.809935 59.415817 
L 574.321371 63.533034 
L 574.832808 69.412489 
L 575.855681 85.867647 
L 576.878554 107.244576 
L 580.45861 190.110683 
L 581.481483 206.909855 
L 581.992919 212.992286 
L 582.504356 217.32692 
L 583.015792 219.81196 
L 583.527229 220.389044 
L 584.038666 219.044621 
L 584.550102 215.810265 
L 585.061539 210.761938 
L 585.572975 204.018187 
L 586.595848 186.114048 
L 588.130158 151.573807 
L 590.175904 102.666056 
L 591.198777 82.126022 
L 592.22165 66.857185 
L 592.733087 61.668311 
L 593.244523 58.285464 
L 593.75596 56.788087 
L 594.267396 57.211353 
L 594.778833 59.545318 
L 595.290269 63.735165 
L 595.801706 69.682503 
L 596.824579 86.252958 
L 597.847452 107.709199 
L 601.427508 190.499917 
L 602.450381 207.185046 
L 602.961817 213.200042 
L 603.473254 217.462363 
L 603.98469 219.871909 
L 604.496127 220.372094 
L 605.007563 218.951172 
L 605.519 215.642508 
L 606.030437 210.523809 
L 606.541873 203.715288 
L 607.564746 185.704287 
L 609.099056 151.077673 
L 611.144802 102.215357 
L 612.167675 81.76332 
L 612.679111 73.424869 
L 612.679111 73.424869 
" style="fill:none;stroke:#000000;stroke-linecap:square;stroke-width:1.5;"/>
   </g>
   <g id="patch_3">
    <path d="M 85.05 219.96 
L 85.05 56.16 
" style="fill:none;stroke:#000000;stroke-linecap:square;stroke-linejoin:miter;stroke-width:0.8;"/>
   </g>
   <g id="patch_4">
    <path d="M 612.36 219.96 
L 612.36 56.16 
" style="fill:none;stroke:#000000;stroke-linecap:square;stroke-linejoin:miter;stroke-width:0.8;"/>
   </g>
   <g id="patch_5">
    <path d="M 85.05 219.96 
L 612.36 219.96 
" style="fill:none;stroke:#000000;stroke-linecap:square;stroke-linejoin:miter;stroke-width:0.8;"/>
   </g>
   <g id="patch_6">
    <path d="M 85.05 56.16 
L 612.36 56.16 
" style="fill:none;stroke:#000000;stroke-linecap:square;stroke-linejoin:miter;stroke-width:0.8;"/>
   </g>
   <g id="text_12">
    <!-- Original -->
    <g transform="translate(329.656875 50.16)scale(0.12 -0.12)">
     <defs>
      <path d="M 3925 2069 
Q 3925 1578 3809 1184 
Q 3694 791 3464 514 
Q 3234 238 2887 89 
Q 2541 -59 2078 -59 
Q 1622 -59 1289 77 
Q 956 213 739 472 
Q 522 731 415 1115 
Q 309 1500 309 2000 
Q 309 2478 425 2868 
Q 541 3259 772 3532 
Q 1003 3806 1350 3954 
Q 1697 4103 2159 4103 
Q 2606 4103 2937 3968 
Q 3269 3834 3489 3576 
Q 3709 3319 3817 2939 
Q 3925 2559 3925 2069 
z
M 3359 2031 
Q 3359 2375 3298 2670 
Q 3238 2966 3095 3183 
Q 2953 3400 2715 3522 
Q 2478 3644 2128 3644 
Q 1778 3644 1540 3512 
Q 1303 3381 1154 3162 
Q 1006 2944 942 2651 
Q 878 2359 878 2038 
Q 878 1681 937 1381 
Q 997 1081 1137 864 
Q 1278 647 1514 526 
Q 1750 406 2106 406 
Q 2459 406 2700 537 
Q 2941 669 3087 892 
Q 3234 1116 3296 1409 
Q 3359 1703 3359 2031 
z
" id="Calibri-4f" transform="scale(0.015625)"/>
      <path d="M 2122 2706 
Q 2122 2638 2119 2591 
Q 2116 2544 2106 2517 
Q 2097 2491 2083 2477 
Q 2069 2463 2044 2463 
Q 2019 2463 1983 2477 
Q 1947 2491 1901 2505 
Q 1856 2519 1800 2531 
Q 1744 2544 1678 2544 
Q 1600 2544 1525 2512 
Q 1450 2481 1367 2409 
Q 1284 2338 1193 2219 
Q 1103 2100 994 1928 
L 994 78 
Q 994 53 981 36 
Q 969 19 941 6 
Q 913 -6 863 -12 
Q 813 -19 734 -19 
Q 659 -19 609 -12 
Q 559 -6 529 6 
Q 500 19 489 36 
Q 478 53 478 78 
L 478 2891 
Q 478 2916 487 2933 
Q 497 2950 525 2964 
Q 553 2978 597 2983 
Q 641 2988 713 2988 
Q 781 2988 826 2983 
Q 872 2978 897 2964 
Q 922 2950 933 2933 
Q 944 2916 944 2891 
L 944 2481 
Q 1059 2650 1161 2756 
Q 1263 2863 1353 2923 
Q 1444 2984 1533 3007 
Q 1622 3031 1713 3031 
Q 1753 3031 1804 3026 
Q 1856 3022 1912 3009 
Q 1969 2997 2014 2981 
Q 2059 2966 2078 2950 
Q 2097 2934 2103 2920 
Q 2109 2906 2114 2884 
Q 2119 2863 2120 2820 
Q 2122 2778 2122 2706 
z
" id="Calibri-72" transform="scale(0.015625)"/>
      <path d="M 2828 2763 
Q 2828 2653 2798 2604 
Q 2769 2556 2722 2556 
L 2319 2556 
Q 2428 2444 2472 2308 
Q 2516 2172 2516 2025 
Q 2516 1781 2437 1593 
Q 2359 1406 2214 1276 
Q 2069 1147 1869 1078 
Q 1669 1009 1425 1009 
Q 1253 1009 1098 1054 
Q 944 1100 859 1169 
Q 803 1113 767 1041 
Q 731 969 731 875 
Q 731 766 832 694 
Q 934 622 1103 616 
L 1838 584 
Q 2047 578 2222 526 
Q 2397 475 2525 379 
Q 2653 284 2725 145 
Q 2797 6 2797 -178 
Q 2797 -372 2715 -547 
Q 2634 -722 2467 -855 
Q 2300 -988 2040 -1064 
Q 1781 -1141 1428 -1141 
Q 1088 -1141 848 -1083 
Q 609 -1025 456 -925 
Q 303 -825 234 -686 
Q 166 -547 166 -384 
Q 166 -281 191 -184 
Q 216 -88 267 0 
Q 319 88 395 167 
Q 472 247 572 325 
Q 419 403 345 522 
Q 272 641 272 778 
Q 272 969 350 1119 
Q 428 1269 544 1388 
Q 447 1503 390 1648 
Q 334 1794 334 2000 
Q 334 2241 415 2431 
Q 497 2622 640 2753 
Q 784 2884 986 2954 
Q 1188 3025 1425 3025 
Q 1553 3025 1664 3011 
Q 1775 2997 1872 2972 
L 2722 2972 
Q 2775 2972 2801 2920 
Q 2828 2869 2828 2763 
z
M 2022 2022 
Q 2022 2309 1864 2470 
Q 1706 2631 1416 2631 
Q 1266 2631 1155 2581 
Q 1044 2531 970 2443 
Q 897 2356 861 2242 
Q 825 2128 825 2003 
Q 825 1725 983 1565 
Q 1141 1406 1425 1406 
Q 1578 1406 1690 1454 
Q 1803 1503 1876 1589 
Q 1950 1675 1986 1787 
Q 2022 1900 2022 2022 
z
M 2281 -206 
Q 2281 -25 2132 73 
Q 1984 172 1731 178 
L 1003 203 
Q 903 125 839 54 
Q 775 -16 737 -80 
Q 700 -144 686 -206 
Q 672 -269 672 -334 
Q 672 -538 878 -642 
Q 1084 -747 1453 -747 
Q 1688 -747 1845 -701 
Q 2003 -656 2100 -581 
Q 2197 -506 2239 -409 
Q 2281 -313 2281 -206 
z
" id="Calibri-67" transform="scale(0.015625)"/>
      <path d="M 2900 78 
Q 2900 53 2887 36 
Q 2875 19 2847 6 
Q 2819 -6 2769 -12 
Q 2719 -19 2644 -19 
Q 2566 -19 2516 -12 
Q 2466 -6 2437 6 
Q 2409 19 2396 36 
Q 2384 53 2384 78 
L 2384 1725 
Q 2384 1966 2346 2112 
Q 2309 2259 2237 2365 
Q 2166 2472 2052 2528 
Q 1938 2584 1788 2584 
Q 1594 2584 1400 2446 
Q 1206 2309 994 2044 
L 994 78 
Q 994 53 981 36 
Q 969 19 941 6 
Q 913 -6 863 -12 
Q 813 -19 734 -19 
Q 659 -19 609 -12 
Q 559 -6 529 6 
Q 500 19 489 36 
Q 478 53 478 78 
L 478 2891 
Q 478 2916 487 2933 
Q 497 2950 525 2964 
Q 553 2978 597 2983 
Q 641 2988 713 2988 
Q 781 2988 826 2983 
Q 872 2978 897 2964 
Q 922 2950 933 2933 
Q 944 2916 944 2891 
L 944 2519 
Q 1181 2784 1417 2907 
Q 1653 3031 1894 3031 
Q 2175 3031 2367 2936 
Q 2559 2841 2678 2681 
Q 2797 2522 2848 2308 
Q 2900 2094 2900 1794 
L 2900 78 
z
" id="Calibri-6e" transform="scale(0.015625)"/>
      <path d="M 2597 75 
Q 2597 38 2572 19 
Q 2547 0 2503 -9 
Q 2459 -19 2375 -19 
Q 2294 -19 2245 -9 
Q 2197 0 2175 19 
Q 2153 38 2153 75 
L 2153 356 
Q 1969 159 1742 50 
Q 1516 -59 1263 -59 
Q 1041 -59 861 -1 
Q 681 56 554 165 
Q 428 275 358 434 
Q 288 594 288 797 
Q 288 1034 384 1209 
Q 481 1384 662 1500 
Q 844 1616 1106 1673 
Q 1369 1731 1697 1731 
L 2084 1731 
L 2084 1950 
Q 2084 2113 2050 2238 
Q 2016 2363 1939 2445 
Q 1863 2528 1741 2570 
Q 1619 2613 1441 2613 
Q 1250 2613 1098 2567 
Q 947 2522 833 2467 
Q 719 2413 642 2367 
Q 566 2322 528 2322 
Q 503 2322 484 2334 
Q 466 2347 452 2372 
Q 438 2397 431 2436 
Q 425 2475 425 2522 
Q 425 2600 436 2645 
Q 447 2691 489 2731 
Q 531 2772 634 2826 
Q 738 2881 872 2926 
Q 1006 2972 1165 3001 
Q 1325 3031 1488 3031 
Q 1791 3031 2003 2962 
Q 2216 2894 2347 2761 
Q 2478 2628 2537 2431 
Q 2597 2234 2597 1972 
L 2597 75 
z
M 2084 1359 
L 1644 1359 
Q 1431 1359 1275 1323 
Q 1119 1288 1016 1217 
Q 913 1147 864 1048 
Q 816 950 816 822 
Q 816 603 955 473 
Q 1094 344 1344 344 
Q 1547 344 1720 447 
Q 1894 550 2084 763 
L 2084 1359 
z
" id="Calibri-61" transform="scale(0.015625)"/>
     </defs>
     <use xlink:href="#Calibri-4f"/>
     <use x="66.210938" xlink:href="#Calibri-72"/>
     <use x="101.074219" xlink:href="#Calibri-69"/>
     <use x="124.023438" xlink:href="#Calibri-67"/>
     <use x="171.09375" xlink:href="#Calibri-69"/>
     <use x="194.042969" xlink:href="#Calibri-6e"/>
     <use x="246.582031" xlink:href="#Calibri-61"/>
     <use x="294.482422" xlink:href="#Calibri-6c"/>
    </g>
   </g>
  </g>
  <g id="axes_2">
   <g id="patch_7">
    <path d="M 85.05 416.52 
L 612.36 416.52 
L 612.36 252.72 
L 85.05 252.72 
z
" style="fill:#ffffff;"/>
   </g>
   <g id="matplotlib.axis_3">
    <g id="xtick_7">
     <g id="line2d_12">
      <g>
       <use style="stroke:#000000;stroke-width:0.8;" x="85.821364" xlink:href="#me9edefce09" y="416.52"/>
      </g>
     </g>
     <g id="text_13">
      <!-- 0.00 -->
      <g transform="translate(76.955739 430.321563)scale(0.1 -0.1)">
       <use xlink:href="#Calibri-30"/>
       <use x="50.683594" xlink:href="#Calibri-2e"/>
       <use x="75.927734" xlink:href="#Calibri-30"/>
       <use x="126.611328" xlink:href="#Calibri-30"/>
      </g>
     </g>
    </g>
    <g id="xtick_8">
     <g id="line2d_13">
      <g>
       <use style="stroke:#000000;stroke-width:0.8;" x="190.944841" xlink:href="#me9edefce09" y="416.52"/>
      </g>
     </g>
     <g id="text_14">
      <!-- 0.05 -->
      <g transform="translate(182.079216 430.321563)scale(0.1 -0.1)">
       <use xlink:href="#Calibri-30"/>
       <use x="50.683594" xlink:href="#Calibri-2e"/>
       <use x="75.927734" xlink:href="#Calibri-30"/>
       <use x="126.611328" xlink:href="#Calibri-35"/>
      </g>
     </g>
    </g>
    <g id="xtick_9">
     <g id="line2d_14">
      <g>
       <use style="stroke:#000000;stroke-width:0.8;" x="296.068318" xlink:href="#me9edefce09" y="416.52"/>
      </g>
     </g>
     <g id="text_15">
      <!-- 0.10 -->
      <g transform="translate(287.202693 430.321563)scale(0.1 -0.1)">
       <use xlink:href="#Calibri-30"/>
       <use x="50.683594" xlink:href="#Calibri-2e"/>
       <use x="75.927734" xlink:href="#Calibri-31"/>
       <use x="126.611328" xlink:href="#Calibri-30"/>
      </g>
     </g>
    </g>
    <g id="xtick_10">
     <g id="line2d_15">
      <g>
       <use style="stroke:#000000;stroke-width:0.8;" x="401.191795" xlink:href="#me9edefce09" y="416.52"/>
      </g>
     </g>
     <g id="text_16">
      <!-- 0.15 -->
      <g transform="translate(392.32617 430.321563)scale(0.1 -0.1)">
       <use xlink:href="#Calibri-30"/>
       <use x="50.683594" xlink:href="#Calibri-2e"/>
       <use x="75.927734" xlink:href="#Calibri-31"/>
       <use x="126.611328" xlink:href="#Calibri-35"/>
      </g>
     </g>
    </g>
    <g id="xtick_11">
     <g id="line2d_16">
      <g>
       <use style="stroke:#000000;stroke-width:0.8;" x="506.315272" xlink:href="#me9edefce09" y="416.52"/>
      </g>
     </g>
     <g id="text_17">
      <!-- 0.20 -->
      <g transform="translate(497.449647 430.321563)scale(0.1 -0.1)">
       <use xlink:href="#Calibri-30"/>
       <use x="50.683594" xlink:href="#Calibri-2e"/>
       <use x="75.927734" xlink:href="#Calibri-32"/>
       <use x="126.611328" xlink:href="#Calibri-30"/>
      </g>
     </g>
    </g>
    <g id="xtick_12">
     <g id="line2d_17">
      <g>
       <use style="stroke:#000000;stroke-width:0.8;" x="611.438749" xlink:href="#me9edefce09" y="416.52"/>
      </g>
     </g>
     <g id="text_18">
      <!-- 0.25 -->
      <g transform="translate(602.573124 430.321563)scale(0.1 -0.1)">
       <use xlink:href="#Calibri-30"/>
       <use x="50.683594" xlink:href="#Calibri-2e"/>
       <use x="75.927734" xlink:href="#Calibri-32"/>
       <use x="126.611328" xlink:href="#Calibri-35"/>
      </g>
     </g>
    </g>
    <g id="text_19">
     <!-- Tiempo [s] -->
     <g transform="translate(327.221406 442.930938)scale(0.1 -0.1)">
      <defs>
       <path d="M 3072 3813 
Q 3072 3753 3065 3709 
Q 3059 3666 3045 3639 
Q 3031 3613 3011 3600 
Q 2991 3588 2966 3588 
L 1828 3588 
L 1828 81 
Q 1828 56 1815 37 
Q 1803 19 1772 8 
Q 1741 -3 1689 -11 
Q 1638 -19 1559 -19 
Q 1484 -19 1431 -11 
Q 1378 -3 1347 8 
Q 1316 19 1303 37 
Q 1291 56 1291 81 
L 1291 3588 
L 153 3588 
Q 128 3588 108 3600 
Q 88 3613 75 3639 
Q 63 3666 55 3709 
Q 47 3753 47 3813 
Q 47 3872 55 3917 
Q 63 3963 75 3991 
Q 88 4019 108 4031 
Q 128 4044 153 4044 
L 2966 4044 
Q 2991 4044 3011 4031 
Q 3031 4019 3045 3991 
Q 3059 3963 3065 3917 
Q 3072 3872 3072 3813 
z
" id="Calibri-54" transform="scale(0.015625)"/>
       <path d="M 2878 1606 
Q 2878 1484 2817 1432 
Q 2756 1381 2678 1381 
L 834 1381 
Q 834 1147 881 959 
Q 928 772 1037 637 
Q 1147 503 1322 431 
Q 1497 359 1750 359 
Q 1950 359 2106 392 
Q 2263 425 2377 465 
Q 2491 506 2564 539 
Q 2638 572 2675 572 
Q 2697 572 2714 561 
Q 2731 550 2740 528 
Q 2750 506 2754 467 
Q 2759 428 2759 372 
Q 2759 331 2756 301 
Q 2753 272 2748 248 
Q 2744 225 2733 206 
Q 2722 188 2705 170 
Q 2688 153 2603 114 
Q 2519 75 2384 37 
Q 2250 0 2073 -29 
Q 1897 -59 1697 -59 
Q 1350 -59 1089 37 
Q 828 134 650 325 
Q 472 516 381 803 
Q 291 1091 291 1472 
Q 291 1834 384 2123 
Q 478 2413 654 2614 
Q 831 2816 1081 2923 
Q 1331 3031 1641 3031 
Q 1972 3031 2205 2925 
Q 2438 2819 2588 2639 
Q 2738 2459 2808 2217 
Q 2878 1975 2878 1700 
L 2878 1606 
z
M 2359 1759 
Q 2369 2166 2180 2397 
Q 1991 2628 1619 2628 
Q 1428 2628 1284 2556 
Q 1141 2484 1044 2365 
Q 947 2247 894 2089 
Q 841 1931 834 1759 
L 2359 1759 
z
" id="Calibri-65" transform="scale(0.015625)"/>
       <path d="M 3094 1516 
Q 3094 1172 3003 883 
Q 2913 594 2733 384 
Q 2553 175 2283 58 
Q 2013 -59 1656 -59 
Q 1309 -59 1051 44 
Q 794 147 622 344 
Q 450 541 365 822 
Q 281 1103 281 1459 
Q 281 1803 370 2092 
Q 459 2381 639 2590 
Q 819 2800 1087 2915 
Q 1356 3031 1716 3031 
Q 2063 3031 2320 2928 
Q 2578 2825 2750 2628 
Q 2922 2431 3008 2150 
Q 3094 1869 3094 1516 
z
M 2550 1481 
Q 2550 1709 2508 1912 
Q 2466 2116 2369 2269 
Q 2272 2422 2106 2511 
Q 1941 2600 1694 2600 
Q 1466 2600 1302 2519 
Q 1138 2438 1031 2289 
Q 925 2141 873 1937 
Q 822 1734 822 1494 
Q 822 1263 864 1059 
Q 906 856 1004 704 
Q 1103 553 1268 464 
Q 1434 375 1681 375 
Q 1906 375 2072 456 
Q 2238 538 2344 684 
Q 2450 831 2500 1034 
Q 2550 1238 2550 1481 
z
" id="Calibri-6f" transform="scale(0.015625)"/>
       <path id="Calibri-20" transform="scale(0.015625)"/>
       <path d="M 1684 -813 
Q 1684 -916 1661 -958 
Q 1638 -1000 1594 -1000 
L 794 -1000 
Q 756 -1000 722 -989 
Q 688 -978 659 -953 
Q 631 -928 614 -886 
Q 597 -844 597 -781 
L 597 4153 
Q 597 4213 614 4255 
Q 631 4297 659 4323 
Q 688 4350 722 4361 
Q 756 4372 794 4372 
L 1594 4372 
Q 1613 4372 1630 4362 
Q 1647 4353 1659 4328 
Q 1672 4303 1678 4267 
Q 1684 4231 1684 4178 
Q 1684 4078 1661 4034 
Q 1638 3991 1594 3991 
L 1084 3991 
L 1084 -622 
L 1594 -622 
Q 1613 -622 1630 -631 
Q 1647 -641 1659 -664 
Q 1672 -688 1678 -723 
Q 1684 -759 1684 -813 
z
" id="Calibri-5b" transform="scale(0.015625)"/>
       <path d="M 2244 844 
Q 2244 628 2164 459 
Q 2084 291 1937 175 
Q 1791 59 1587 0 
Q 1384 -59 1141 -59 
Q 991 -59 855 -36 
Q 719 -13 611 23 
Q 503 59 428 98 
Q 353 138 318 169 
Q 284 200 268 256 
Q 253 313 253 409 
Q 253 469 259 509 
Q 266 550 275 575 
Q 284 600 301 611 
Q 319 622 341 622 
Q 375 622 442 580 
Q 509 538 607 488 
Q 706 438 840 395 
Q 975 353 1150 353 
Q 1281 353 1387 381 
Q 1494 409 1572 464 
Q 1650 519 1692 603 
Q 1734 688 1734 803 
Q 1734 922 1673 1003 
Q 1613 1084 1513 1146 
Q 1413 1209 1288 1257 
Q 1163 1306 1030 1359 
Q 897 1413 770 1480 
Q 644 1547 544 1644 
Q 444 1741 383 1875 
Q 322 2009 322 2197 
Q 322 2363 386 2514 
Q 450 2666 578 2780 
Q 706 2894 898 2962 
Q 1091 3031 1347 3031 
Q 1459 3031 1571 3012 
Q 1684 2994 1775 2966 
Q 1866 2938 1930 2905 
Q 1994 2872 2026 2847 
Q 2059 2822 2070 2803 
Q 2081 2784 2086 2761 
Q 2091 2738 2095 2703 
Q 2100 2669 2100 2619 
Q 2100 2566 2095 2527 
Q 2091 2488 2080 2463 
Q 2069 2438 2053 2427 
Q 2038 2416 2019 2416 
Q 1991 2416 1937 2450 
Q 1884 2484 1800 2523 
Q 1716 2563 1602 2597 
Q 1488 2631 1341 2631 
Q 1209 2631 1109 2601 
Q 1009 2572 945 2517 
Q 881 2463 848 2388 
Q 816 2313 816 2225 
Q 816 2103 878 2020 
Q 941 1938 1041 1875 
Q 1141 1813 1269 1763 
Q 1397 1713 1530 1659 
Q 1663 1606 1792 1540 
Q 1922 1475 2022 1381 
Q 2122 1288 2183 1156 
Q 2244 1025 2244 844 
z
" id="Calibri-73" transform="scale(0.015625)"/>
       <path d="M 1369 -781 
Q 1369 -844 1351 -886 
Q 1334 -928 1306 -953 
Q 1278 -978 1242 -989 
Q 1206 -1000 1169 -1000 
L 372 -1000 
Q 328 -1000 304 -958 
Q 281 -916 281 -813 
Q 281 -759 286 -723 
Q 291 -688 303 -664 
Q 316 -641 333 -631 
Q 350 -622 372 -622 
L 881 -622 
L 881 3991 
L 372 3991 
Q 328 3991 304 4034 
Q 281 4078 281 4178 
Q 281 4231 286 4267 
Q 291 4303 303 4328 
Q 316 4353 333 4362 
Q 350 4372 372 4372 
L 1169 4372 
Q 1206 4372 1242 4361 
Q 1278 4350 1306 4323 
Q 1334 4297 1351 4255 
Q 1369 4213 1369 4153 
L 1369 -781 
z
" id="Calibri-5d" transform="scale(0.015625)"/>
      </defs>
      <use xlink:href="#Calibri-54"/>
      <use x="48.730469" xlink:href="#Calibri-69"/>
      <use x="71.679688" xlink:href="#Calibri-65"/>
      <use x="121.435547" xlink:href="#Calibri-6d"/>
      <use x="201.318359" xlink:href="#Calibri-70"/>
      <use x="253.857422" xlink:href="#Calibri-6f"/>
      <use x="306.591797" xlink:href="#Calibri-20"/>
      <use x="329.199219" xlink:href="#Calibri-5b"/>
      <use x="359.863281" xlink:href="#Calibri-73"/>
      <use x="398.974609" xlink:href="#Calibri-5d"/>
     </g>
    </g>
   </g>
   <g id="matplotlib.axis_4">
    <g id="ytick_5">
     <g id="line2d_18">
      <g>
       <use style="stroke:#000000;stroke-width:0.8;" x="85.05" xlink:href="#m679c0075fb" y="413.792555"/>
      </g>
     </g>
     <g id="text_20">
      <!-- 0.0 -->
      <g transform="translate(65.3875 417.193336)scale(0.1 -0.1)">
       <use xlink:href="#Calibri-30"/>
       <use x="50.683594" xlink:href="#Calibri-2e"/>
       <use x="75.927734" xlink:href="#Calibri-30"/>
      </g>
     </g>
    </g>
    <g id="ytick_6">
     <g id="line2d_19">
      <g>
       <use style="stroke:#000000;stroke-width:0.8;" x="85.05" xlink:href="#m679c0075fb" y="382.65242"/>
      </g>
     </g>
     <g id="text_21">
      <!-- 0.2 -->
      <g transform="translate(65.3875 386.053201)scale(0.1 -0.1)">
       <use xlink:href="#Calibri-30"/>
       <use x="50.683594" xlink:href="#Calibri-2e"/>
       <use x="75.927734" xlink:href="#Calibri-32"/>
      </g>
     </g>
    </g>
    <g id="ytick_7">
     <g id="line2d_20">
      <g>
       <use style="stroke:#000000;stroke-width:0.8;" x="85.05" xlink:href="#m679c0075fb" y="351.512285"/>
      </g>
     </g>
     <g id="text_22">
      <!-- 0.4 -->
      <g transform="translate(65.3875 354.913066)scale(0.1 -0.1)">
       <defs>
        <path d="M 3059 1150 
Q 3059 1047 3028 987 
Q 2997 928 2941 928 
L 2484 928 
L 2484 78 
Q 2484 53 2471 36 
Q 2459 19 2428 6 
Q 2397 -6 2347 -12 
Q 2297 -19 2219 -19 
Q 2144 -19 2094 -12 
Q 2044 -6 2014 6 
Q 1984 19 1973 36 
Q 1963 53 1963 78 
L 1963 928 
L 294 928 
Q 256 928 231 937 
Q 206 947 186 972 
Q 166 997 158 1044 
Q 150 1091 150 1166 
Q 150 1225 153 1272 
Q 156 1319 165 1358 
Q 175 1397 190 1433 
Q 206 1469 228 1509 
L 1684 3966 
Q 1700 3991 1729 4009 
Q 1759 4028 1806 4040 
Q 1853 4053 1922 4058 
Q 1991 4063 2084 4063 
Q 2188 4063 2264 4055 
Q 2341 4047 2387 4034 
Q 2434 4022 2459 4001 
Q 2484 3981 2484 3953 
L 2484 1372 
L 2941 1372 
Q 2994 1372 3026 1317 
Q 3059 1263 3059 1150 
z
M 1963 3591 
L 1956 3591 
L 641 1372 
L 1963 1372 
L 1963 3591 
z
" id="Calibri-34" transform="scale(0.015625)"/>
       </defs>
       <use xlink:href="#Calibri-30"/>
       <use x="50.683594" xlink:href="#Calibri-2e"/>
       <use x="75.927734" xlink:href="#Calibri-34"/>
      </g>
     </g>
    </g>
    <g id="ytick_8">
     <g id="line2d_21">
      <g>
       <use style="stroke:#000000;stroke-width:0.8;" x="85.05" xlink:href="#m679c0075fb" y="320.37215"/>
      </g>
     </g>
     <g id="text_23">
      <!-- 0.6 -->
      <g transform="translate(65.3875 323.772932)scale(0.1 -0.1)">
       <defs>
        <path d="M 2991 1309 
Q 2991 1044 2909 795 
Q 2828 547 2659 358 
Q 2491 169 2231 55 
Q 1972 -59 1619 -59 
Q 1366 -59 1172 3 
Q 978 66 834 181 
Q 691 297 595 465 
Q 500 634 442 850 
Q 384 1066 359 1322 
Q 334 1578 334 1872 
Q 334 2131 362 2397 
Q 391 2663 462 2909 
Q 534 3156 657 3373 
Q 781 3591 967 3752 
Q 1153 3913 1412 4006 
Q 1672 4100 2016 4100 
Q 2131 4100 2250 4086 
Q 2369 4072 2469 4048 
Q 2569 4025 2637 3997 
Q 2706 3969 2728 3951 
Q 2750 3934 2761 3914 
Q 2772 3894 2778 3870 
Q 2784 3847 2787 3817 
Q 2791 3788 2791 3744 
Q 2791 3688 2789 3647 
Q 2788 3606 2777 3581 
Q 2766 3556 2748 3543 
Q 2731 3531 2703 3531 
Q 2669 3531 2609 3553 
Q 2550 3575 2465 3601 
Q 2381 3628 2261 3650 
Q 2141 3672 1981 3672 
Q 1691 3672 1481 3553 
Q 1272 3434 1139 3234 
Q 1006 3034 942 2770 
Q 878 2506 869 2219 
Q 950 2266 1051 2312 
Q 1153 2359 1273 2396 
Q 1394 2434 1528 2457 
Q 1663 2481 1816 2481 
Q 2144 2481 2369 2392 
Q 2594 2303 2733 2145 
Q 2872 1988 2931 1773 
Q 2991 1559 2991 1309 
z
M 2447 1259 
Q 2447 1441 2411 1589 
Q 2375 1738 2290 1841 
Q 2206 1944 2065 2000 
Q 1925 2056 1719 2056 
Q 1603 2056 1487 2036 
Q 1372 2016 1264 1980 
Q 1156 1944 1057 1895 
Q 959 1847 878 1791 
Q 878 1388 929 1116 
Q 981 844 1079 680 
Q 1178 516 1325 445 
Q 1472 375 1669 375 
Q 1869 375 2016 450 
Q 2163 525 2259 651 
Q 2356 778 2401 936 
Q 2447 1094 2447 1259 
z
" id="Calibri-36" transform="scale(0.015625)"/>
       </defs>
       <use xlink:href="#Calibri-30"/>
       <use x="50.683594" xlink:href="#Calibri-2e"/>
       <use x="75.927734" xlink:href="#Calibri-36"/>
      </g>
     </g>
    </g>
    <g id="ytick_9">
     <g id="line2d_22">
      <g>
       <use style="stroke:#000000;stroke-width:0.8;" x="85.05" xlink:href="#m679c0075fb" y="289.232016"/>
      </g>
     </g>
     <g id="text_24">
      <!-- 0.8 -->
      <g transform="translate(65.3875 292.632797)scale(0.1 -0.1)">
       <defs>
        <path d="M 2981 1038 
Q 2981 775 2887 570 
Q 2794 366 2617 225 
Q 2441 84 2181 12 
Q 1922 -59 1588 -59 
Q 1275 -59 1028 6 
Q 781 72 609 200 
Q 438 328 347 515 
Q 256 703 256 944 
Q 256 1134 318 1293 
Q 381 1453 498 1587 
Q 616 1722 787 1839 
Q 959 1956 1175 2063 
Q 988 2159 844 2267 
Q 700 2375 600 2501 
Q 500 2628 448 2772 
Q 397 2916 397 3084 
Q 397 3297 473 3483 
Q 550 3669 704 3806 
Q 859 3944 1098 4023 
Q 1338 4103 1656 4103 
Q 1963 4103 2186 4029 
Q 2409 3956 2554 3829 
Q 2700 3703 2769 3531 
Q 2838 3359 2838 3163 
Q 2838 3003 2786 2856 
Q 2734 2709 2634 2578 
Q 2534 2447 2389 2333 
Q 2244 2219 2056 2119 
Q 2278 2009 2451 1893 
Q 2625 1778 2742 1645 
Q 2859 1513 2920 1364 
Q 2981 1216 2981 1038 
z
M 2306 3113 
Q 2306 3244 2261 3350 
Q 2216 3456 2128 3531 
Q 2041 3606 1911 3645 
Q 1781 3684 1616 3684 
Q 1278 3684 1104 3531 
Q 931 3378 931 3113 
Q 931 2991 973 2886 
Q 1016 2781 1105 2687 
Q 1194 2594 1330 2505 
Q 1466 2416 1653 2319 
Q 1969 2481 2137 2678 
Q 2306 2875 2306 3113 
z
M 2438 981 
Q 2438 1125 2384 1242 
Q 2331 1359 2223 1461 
Q 2116 1563 1955 1658 
Q 1794 1753 1581 1856 
Q 1384 1759 1236 1662 
Q 1088 1566 992 1462 
Q 897 1359 848 1245 
Q 800 1131 800 994 
Q 800 691 1008 525 
Q 1216 359 1628 359 
Q 2028 359 2233 526 
Q 2438 694 2438 981 
z
" id="Calibri-38" transform="scale(0.015625)"/>
       </defs>
       <use xlink:href="#Calibri-30"/>
       <use x="50.683594" xlink:href="#Calibri-2e"/>
       <use x="75.927734" xlink:href="#Calibri-38"/>
      </g>
     </g>
    </g>
    <g id="ytick_10">
     <g id="line2d_23">
      <g>
       <use style="stroke:#000000;stroke-width:0.8;" x="85.05" xlink:href="#m679c0075fb" y="258.091881"/>
      </g>
     </g>
     <g id="text_25">
      <!-- 1.0 -->
      <g transform="translate(65.3875 261.492662)scale(0.1 -0.1)">
       <use xlink:href="#Calibri-31"/>
       <use x="50.683594" xlink:href="#Calibri-2e"/>
       <use x="75.927734" xlink:href="#Calibri-30"/>
      </g>
     </g>
    </g>
    <g id="text_26">
     <!-- Amplitud -->
     <g transform="translate(59.609375 353.359844)rotate(-90)scale(0.1 -0.1)">
      <use xlink:href="#Calibri-41"/>
      <use x="57.861328" xlink:href="#Calibri-6d"/>
      <use x="137.744141" xlink:href="#Calibri-70"/>
      <use x="190.283203" xlink:href="#Calibri-6c"/>
      <use x="213.232422" xlink:href="#Calibri-69"/>
      <use x="236.181641" xlink:href="#Calibri-74"/>
      <use x="269.677734" xlink:href="#Calibri-75"/>
      <use x="322.216797" xlink:href="#Calibri-64"/>
     </g>
    </g>
   </g>
   <g id="line2d_24">
    <path clip-path="url(#pa6a1eadcda)" d="M 85.821364 409.464076 
L 86.334687 391.496829 
L 87.361334 343.85204 
L 88.901304 289.358254 
L 89.414627 276.746688 
L 90.441273 260.72984 
L 90.954597 256.665292 
L 91.46792 258.194982 
L 91.981243 264.23303 
L 92.494567 272.174199 
L 93.00789 282.711294 
L 94.034537 315.648072 
L 95.061183 355.253705 
L 96.08783 402.243928 
L 96.601153 413.921027 
L 97.114476 414.847336 
L 97.6278 413.034003 
L 98.141123 413.550991 
L 98.654446 414.425571 
L 99.167769 413.676957 
L 99.681093 413.238756 
L 100.194416 414.166383 
L 100.707739 414.257671 
L 101.221063 412.778845 
L 101.734386 412.285928 
L 102.247709 413.685949 
L 102.761033 414.449786 
L 103.274356 413.568481 
L 103.787679 413.293159 
L 104.301002 414.242521 
L 104.814326 414.104984 
L 105.327649 412.980111 
L 105.840972 413.901405 
L 106.354296 415.254367 
L 106.867619 408.97582 
L 107.380942 390.574084 
L 108.407589 343.023243 
L 109.947559 288.762194 
L 110.460882 276.335838 
L 111.487528 260.487331 
L 112.000852 256.611333 
L 112.514175 258.370574 
L 113.027498 264.523365 
L 113.540822 272.529016 
L 114.054145 283.222302 
L 115.080792 316.383026 
L 116.107438 356.180788 
L 117.134085 402.954943 
L 117.647408 414.125536 
L 118.160731 414.769087 
L 118.674055 413.004904 
L 119.187378 413.604255 
L 119.700701 414.424264 
L 120.214024 413.634814 
L 120.727348 413.256876 
L 121.240671 414.20371 
L 121.753994 414.2186 
L 122.267318 412.720824 
L 122.780641 412.315072 
L 123.293964 413.74831 
L 123.807288 414.437836 
L 124.320611 413.52876 
L 124.833934 413.318252 
L 125.347257 414.272882 
L 125.860581 414.061198 
L 126.373904 412.962093 
L 127.400551 415.208517 
L 127.913874 408.466451 
L 128.427197 389.640764 
L 129.453844 342.200709 
L 130.993814 288.173547 
L 131.507137 275.931056 
L 132.533783 260.249718 
L 133.047107 256.567082 
L 133.56043 258.553446 
L 134.073753 264.816037 
L 134.587077 272.887954 
L 135.1004 283.741148 
L 136.127047 317.118303 
L 137.153693 357.114818 
L 138.18034 403.647067 
L 138.693663 414.311924 
L 139.206986 414.687627 
L 139.72031 412.980772 
L 140.746956 414.419649 
L 141.260279 413.593564 
L 141.773603 413.277724 
L 142.286926 414.23923 
L 142.800249 414.176508 
L 143.313573 412.664898 
L 143.826896 412.347777 
L 144.340219 413.809158 
L 144.853543 414.422734 
L 145.366866 413.490506 
L 145.880189 413.345759 
L 146.393512 414.300898 
L 146.906836 414.015416 
L 147.420159 412.948281 
L 148.446806 415.149293 
L 148.960129 407.936037 
L 149.473452 388.697544 
L 150.500099 341.384239 
L 152.040069 287.592423 
L 152.553392 275.532142 
L 153.580038 260.017225 
L 154.093362 256.532589 
L 154.606685 258.743346 
L 155.120008 265.110944 
L 155.633332 273.251196 
L 156.146655 284.267835 
L 157.173302 317.853885 
L 158.199948 358.055674 
L 159.226595 404.319931 
L 159.739918 414.480632 
L 160.253241 414.603544 
L 160.766565 412.961611 
L 161.793211 414.411777 
L 162.306534 413.553406 
L 162.819858 413.301204 
L 163.333181 414.272758 
L 163.846504 414.131519 
L 164.359828 412.61126 
L 164.873151 412.38392 
L 165.386474 413.868284 
L 165.899798 414.404588 
L 166.413121 413.453899 
L 166.926444 413.375548 
L 167.439767 414.326412 
L 167.953091 413.967844 
L 168.466414 412.938838 
L 168.979737 414.163211 
L 169.493061 415.076096 
L 170.006384 407.384685 
L 170.519707 387.745104 
L 171.546354 340.573636 
L 173.086324 287.018929 
L 173.599647 275.138915 
L 174.626293 259.790105 
L 175.139617 256.507919 
L 175.65294 258.940061 
L 176.166263 265.408021 
L 176.679587 273.618949 
L 177.19291 284.802395 
L 178.219557 318.589771 
L 179.246203 359.003187 
L 180.27285 404.9732 
L 180.786173 414.632127 
L 181.299496 414.51741 
L 181.81282 412.9474 
L 182.839466 414.400715 
L 183.352789 413.514536 
L 183.866113 413.327208 
L 184.379436 414.304116 
L 184.892759 414.083769 
L 185.406083 412.560109 
L 185.919406 412.423376 
L 186.432729 413.925491 
L 186.946053 414.383517 
L 187.459376 413.419109 
L 187.972699 413.407477 
L 188.486022 414.349279 
L 188.999346 413.918699 
L 189.512669 412.933911 
L 190.025992 414.25217 
L 190.539316 414.988341 
L 191.052639 406.812534 
L 191.565962 386.784132 
L 192.592609 339.76869 
L 194.132579 286.453118 
L 194.645902 274.751182 
L 195.672548 259.568589 
L 196.185872 256.493108 
L 196.699195 259.143321 
L 197.212518 265.707225 
L 197.725842 273.991391 
L 198.239165 285.344812 
L 199.265812 319.325969 
L 200.292458 359.957167 
L 201.319105 405.606567 
L 201.832428 414.766899 
L 202.345751 414.42978 
L 202.859075 412.938094 
L 203.372398 413.816617 
L 203.885721 414.386546 
L 204.399044 413.477138 
L 204.912368 413.355616 
L 205.425691 414.333135 
L 205.939014 414.033407 
L 206.452338 412.511632 
L 206.965661 412.465998 
L 207.478984 413.980592 
L 207.992308 414.359653 
L 208.505631 413.386297 
L 209.018954 413.441396 
L 209.532277 414.369364 
L 210.045601 413.86821 
L 210.558924 412.933627 
L 211.072247 414.341194 
L 211.585571 414.885459 
L 212.098894 406.219759 
L 212.612217 385.815315 
L 213.638864 338.96918 
L 215.178834 285.895061 
L 215.692157 274.368742 
L 216.718803 259.352908 
L 217.232127 256.488164 
L 217.74545 259.352908 
L 218.258773 266.008516 
L 218.772097 274.368742 
L 219.28542 285.895061 
L 220.312067 320.06251 
L 221.338713 360.917402 
L 222.36536 406.219759 
L 222.878683 414.885459 
L 223.392006 414.341194 
L 223.90533 412.933627 
L 224.418653 413.86821 
L 224.931976 414.369364 
L 225.445299 413.441396 
L 225.958623 413.386297 
L 226.471946 414.359653 
L 226.985269 413.980592 
L 227.498593 412.465998 
L 228.011916 412.511632 
L 228.525239 414.033407 
L 229.038562 414.333135 
L 229.551886 413.355616 
L 230.065209 413.477138 
L 230.578532 414.386546 
L 231.091856 413.816617 
L 231.605179 412.938094 
L 232.118502 414.42978 
L 232.631826 414.766899 
L 233.145149 405.606567 
L 234.171795 359.957167 
L 235.198442 319.325969 
L 236.225089 285.344812 
L 236.738412 273.991391 
L 237.765058 259.143321 
L 238.278382 256.493108 
L 238.791705 259.568589 
L 239.305028 266.31185 
L 239.818352 274.751182 
L 240.331675 286.453118 
L 241.358322 320.799459 
L 242.384968 361.883651 
L 243.411615 406.812534 
L 243.924938 414.988341 
L 244.438261 414.25217 
L 244.951585 412.933911 
L 245.464908 413.918699 
L 245.978231 414.349279 
L 246.491554 413.407477 
L 247.004878 413.419109 
L 247.518201 414.383517 
L 248.031524 413.925491 
L 248.544848 412.423376 
L 249.058171 412.560109 
L 249.571494 414.083769 
L 250.084817 414.304116 
L 250.598141 413.327208 
L 251.111464 413.514536 
L 251.624787 414.400715 
L 252.138111 413.764166 
L 252.651434 412.9474 
L 253.164757 414.51741 
L 253.678081 414.632127 
L 254.191404 404.9732 
L 256.75802 300.471366 
L 257.271344 284.802395 
L 257.784667 273.618949 
L 258.811313 258.940061 
L 259.324637 256.507919 
L 259.83796 259.790105 
L 260.351283 266.617238 
L 260.864607 275.138915 
L 261.37793 287.018929 
L 262.404577 321.536856 
L 263.431223 362.855643 
L 264.45787 407.384685 
L 264.971193 415.076096 
L 265.484516 414.163211 
L 265.99784 412.938838 
L 266.511163 413.967844 
L 267.024486 414.326412 
L 267.537809 413.375548 
L 268.051133 413.453899 
L 268.564456 414.404588 
L 269.077779 413.868284 
L 269.591103 412.38392 
L 270.104426 412.61126 
L 270.617749 414.131519 
L 271.131072 414.272758 
L 271.644396 413.301204 
L 272.157719 413.553406 
L 272.671042 414.411777 
L 273.697689 412.961611 
L 274.211012 414.603544 
L 274.724336 414.480632 
L 275.237659 404.319931 
L 277.804275 299.775532 
L 278.317599 284.267835 
L 278.830922 273.251196 
L 279.344245 265.110944 
L 279.857568 258.743346 
L 280.370892 256.532589 
L 280.884215 260.017225 
L 281.397538 266.924663 
L 281.910862 275.532142 
L 282.424185 287.592423 
L 283.450832 322.274796 
L 284.477478 363.833083 
L 284.990801 388.697544 
L 285.504125 407.936037 
L 286.017448 415.149293 
L 287.044095 412.948281 
L 287.557418 414.015416 
L 288.070741 414.300898 
L 288.584064 413.345759 
L 289.097388 413.490506 
L 289.610711 414.422734 
L 290.124034 413.809158 
L 290.637358 412.347777 
L 291.150681 412.664898 
L 291.664004 414.176508 
L 292.177327 414.23923 
L 292.690651 413.277724 
L 293.203974 413.593564 
L 293.717297 414.419649 
L 294.743944 412.980772 
L 295.257267 414.687627 
L 295.770591 414.311924 
L 296.283914 403.647067 
L 298.85053 299.083831 
L 299.363854 283.741148 
L 299.877177 272.887954 
L 300.3905 264.816037 
L 300.903823 258.553446 
L 301.417147 256.567082 
L 301.93047 260.249718 
L 302.443793 267.234154 
L 302.957117 275.931056 
L 303.47044 288.173547 
L 304.497087 323.013367 
L 305.523733 364.815647 
L 306.037056 389.640764 
L 306.55038 408.466451 
L 307.063703 415.208517 
L 308.09035 412.962093 
L 308.603673 414.061198 
L 309.116996 414.272882 
L 309.630319 413.318252 
L 310.143643 413.52876 
L 310.656966 414.437836 
L 311.170289 413.74831 
L 311.683613 412.315072 
L 312.196936 412.720824 
L 312.710259 414.2186 
L 313.223582 414.20371 
L 313.736906 413.256876 
L 314.250229 413.634814 
L 314.763552 414.424264 
L 315.276876 413.604255 
L 315.790199 413.004904 
L 316.303522 414.769087 
L 316.816846 414.125536 
L 317.330169 402.954943 
L 319.383462 316.383026 
L 320.410109 283.222302 
L 320.923432 272.529016 
L 321.436755 264.523365 
L 321.950078 258.370574 
L 322.463402 256.611333 
L 322.976725 260.487331 
L 323.490048 267.545734 
L 324.003372 276.335838 
L 324.516695 288.762194 
L 325.543342 323.75268 
L 326.569988 365.802995 
L 327.083311 390.574084 
L 327.596635 408.97582 
L 328.109958 415.254367 
L 328.623281 413.901405 
L 329.136605 412.980111 
L 329.649928 414.104984 
L 330.163251 414.242521 
L 330.676574 413.293159 
L 331.189898 413.568481 
L 331.703221 414.449786 
L 332.216544 413.685949 
L 332.729868 412.285928 
L 333.243191 412.778845 
L 333.756514 414.257671 
L 334.269837 414.166383 
L 334.783161 413.238756 
L 335.296484 413.676957 
L 335.809807 414.425571 
L 336.323131 413.550991 
L 336.836454 413.034003 
L 337.349777 414.847336 
L 337.863101 413.921027 
L 338.376424 402.243928 
L 340.429717 315.648072 
L 341.456364 282.711294 
L 341.969687 272.174199 
L 342.48301 264.23303 
L 342.996333 258.194982 
L 343.509657 256.665292 
L 344.02298 260.72984 
L 344.536303 267.859447 
L 345.049627 276.746688 
L 345.56295 289.358254 
L 346.589597 324.492859 
L 347.616243 366.79475 
L 348.129566 391.496829 
L 348.64289 409.464076 
L 349.156213 415.287455 
L 349.669536 413.817279 
L 350.18286 413.002156 
L 350.696183 414.146579 
L 351.209506 414.20998 
L 351.722829 413.270599 
L 352.236153 413.609485 
L 352.749476 414.458491 
L 353.262799 413.622277 
L 353.776123 412.260457 
L 354.289446 412.838748 
L 354.802769 414.293611 
L 355.316092 414.127443 
L 355.829416 413.223446 
L 356.342739 413.719788 
L 356.856062 414.423532 
L 357.369386 413.498204 
L 357.882709 413.068044 
L 358.396032 414.921774 
L 358.909356 413.69798 
L 359.422679 401.514418 
L 361.475972 314.913463 
L 362.502619 282.208075 
L 363.015942 271.823304 
L 363.529265 263.945107 
L 364.042588 258.026859 
L 364.555912 256.728851 
L 365.069235 260.977025 
L 365.582558 268.175355 
L 366.095882 277.163779 
L 366.609205 289.961632 
L 367.635852 325.234036 
L 368.662498 367.790512 
L 369.175821 392.408334 
L 369.689145 409.931182 
L 370.202468 415.308405 
L 370.715791 413.735392 
L 371.229115 413.028031 
L 371.742438 414.185802 
L 372.255761 414.175436 
L 372.769084 413.250681 
L 373.282408 413.651577 
L 373.795731 414.463868 
L 374.309054 413.557517 
L 374.822378 412.238738 
L 375.335701 412.900311 
L 375.849024 414.326319 
L 376.362347 414.087087 
L 376.875671 413.211017 
L 377.902317 414.418127 
L 378.415641 413.446174 
L 378.928964 413.106976 
L 379.442287 414.99179 
L 379.955611 413.456007 
L 380.468934 400.766837 
L 382.008904 332.740174 
L 383.03555 296.363118 
L 383.548874 281.712605 
L 384.062197 271.476158 
L 384.57552 263.659713 
L 385.088843 257.866447 
L 385.602167 256.801947 
L 386.11549 261.228633 
L 386.628813 268.493521 
L 387.142137 277.587284 
L 387.65546 290.572185 
L 388.682107 325.976372 
L 389.708753 368.789864 
L 390.222076 393.307933 
L 390.7354 410.377137 
L 391.248723 415.317848 
L 391.762046 413.656107 
L 392.27537 413.057529 
L 392.788693 414.222487 
L 393.302016 414.139072 
L 393.815339 413.233499 
L 394.328663 413.69456 
L 394.841986 414.465849 
L 395.355309 413.49189 
L 395.868633 412.220862 
L 396.381956 412.963325 
L 396.895279 414.355713 
L 397.408602 414.045517 
L 397.921926 413.201524 
L 398.948572 414.40935 
L 399.461896 413.39518 
L 399.975219 413.15072 
L 400.488542 415.056759 
L 401.001866 413.194747 
L 401.515189 400.001638 
L 403.055159 331.978756 
L 404.081805 295.69564 
L 404.595129 281.224817 
L 405.108452 271.13258 
L 405.621775 263.376969 
L 406.135098 257.713966 
L 406.648422 256.884461 
L 407.161745 261.484482 
L 407.675068 268.814029 
L 408.188392 278.017379 
L 408.701715 291.189772 
L 409.728362 326.720034 
L 410.755008 369.792352 
L 411.268331 394.194987 
L 411.781655 410.801977 
L 412.294978 415.316424 
L 412.808301 413.579763 
L 413.321625 413.090427 
L 413.834948 414.256478 
L 414.348271 414.101078 
L 414.861594 413.219134 
L 415.374918 413.738232 
L 415.888241 414.464377 
L 416.914888 412.206887 
L 417.428211 413.027558 
L 417.941534 414.381719 
L 418.454857 414.002942 
L 418.968181 413.195011 
L 419.994827 414.397213 
L 420.508151 413.345503 
L 421.021474 413.199174 
L 421.534797 415.11605 
L 422.048121 412.913868 
L 422.561444 399.219297 
L 424.101414 331.22033 
L 425.12806 295.033681 
L 425.641384 280.744627 
L 426.154707 270.792402 
L 426.66803 263.096998 
L 427.181353 257.569603 
L 427.694677 256.976259 
L 428.208 261.744345 
L 428.721323 269.136978 
L 429.234647 278.454216 
L 429.74797 291.814236 
L 431.28794 347.233113 
L 432.314586 395.068854 
L 432.82791 411.205771 
L 433.341233 415.30478 
L 433.854556 413.506674 
L 434.36788 413.126493 
L 434.881203 414.28764 
L 435.394526 414.061652 
L 435.907849 413.207656 
L 436.934496 414.459412 
L 437.961143 412.196871 
L 438.474466 413.092787 
L 438.987789 414.404279 
L 439.501112 413.959569 
L 440.014436 413.191506 
L 440.527759 413.893758 
L 441.041082 414.381742 
L 441.554406 413.29742 
L 442.067729 413.25221 
L 442.581052 415.169024 
L 443.094376 412.61307 
L 443.607699 398.420318 
L 445.147669 330.464673 
L 446.174315 294.377481 
L 446.687639 280.271953 
L 447.200962 270.455455 
L 447.714285 262.819955 
L 448.227608 257.433563 
L 448.740932 257.077226 
L 449.254255 262.008016 
L 449.767578 269.462477 
L 450.280902 278.897955 
L 450.794225 292.445416 
L 452.334195 348.095549 
L 453.360841 395.928916 
L 453.874165 411.588622 
L 454.387488 415.283566 
L 454.900811 413.437126 
L 455.414135 413.165481 
L 455.927458 414.315846 
L 456.440781 414.020999 
L 456.954104 413.19912 
L 457.980751 414.450925 
L 459.007398 412.190849 
L 459.520721 413.15877 
L 460.034044 414.423351 
L 460.547367 413.915614 
L 461.060691 413.191025 
L 461.574014 413.936839 
L 462.087337 414.362982 
L 462.600661 413.251208 
L 463.113984 413.309673 
L 463.627307 415.215035 
L 464.140631 412.292083 
L 464.653954 397.605227 
L 466.193924 329.711559 
L 467.22057 293.727229 
L 467.733894 279.806695 
L 468.247217 270.121579 
L 468.76054 262.545998 
L 469.273863 257.306044 
L 469.787187 257.187206 
L 470.30051 262.275296 
L 470.813833 269.790631 
L 471.327157 279.348731 
L 471.84048 293.08315 
L 473.38045 348.965069 
L 474.407096 396.77457 
L 474.92042 411.950669 
L 475.433743 415.253433 
L 475.947066 413.371381 
L 476.46039 413.207139 
L 476.973713 414.340991 
L 477.487036 413.979323 
L 478.000359 413.193567 
L 479.027006 414.438905 
L 480.053653 412.188838 
L 481.080299 414.438905 
L 482.106946 413.193567 
L 482.620269 413.979323 
L 483.133592 414.340991 
L 483.646916 413.207139 
L 484.160239 413.371381 
L 484.673562 415.253433 
L 485.186886 411.950669 
L 485.700209 396.77457 
L 487.240179 328.960743 
L 488.266825 293.08315 
L 488.780149 279.348731 
L 489.806795 262.275296 
L 490.320118 257.187206 
L 490.833442 257.306044 
L 491.346765 262.545998 
L 491.860088 270.121579 
L 492.373412 279.806695 
L 492.886735 293.727229 
L 494.426705 349.841749 
L 495.453351 397.605227 
L 495.966675 412.292083 
L 496.479998 415.215035 
L 496.993321 413.309673 
L 497.506645 413.251208 
L 498.019968 414.362982 
L 498.533291 413.936839 
L 499.046614 413.191025 
L 499.559938 413.915614 
L 500.073261 414.423351 
L 500.586584 413.15877 
L 501.099908 412.190849 
L 502.126554 414.450925 
L 503.153201 413.19912 
L 503.666524 414.020999 
L 504.179847 414.315846 
L 504.693171 413.165481 
L 505.206494 413.437126 
L 505.719817 415.283566 
L 506.233141 411.588622 
L 506.746464 395.928916 
L 508.286434 328.212024 
L 509.31308 292.445416 
L 509.826404 278.897955 
L 510.85305 262.008016 
L 511.366373 257.077226 
L 511.879697 257.433563 
L 512.39302 262.819955 
L 512.906343 270.455455 
L 513.419667 280.271953 
L 513.93299 294.377481 
L 515.47296 350.725643 
L 516.499606 398.420318 
L 517.01293 412.61307 
L 517.526253 415.169024 
L 518.039576 413.25221 
L 518.5529 413.29742 
L 519.066223 414.381742 
L 519.579546 413.893758 
L 520.092869 413.191506 
L 520.606193 413.959569 
L 521.119516 414.404279 
L 521.632839 413.092787 
L 522.146163 412.196871 
L 523.172809 414.459412 
L 524.199456 413.207656 
L 524.712779 414.061652 
L 525.226102 414.28764 
L 525.739426 413.126493 
L 526.252749 413.506674 
L 526.766072 415.30478 
L 527.279396 411.205771 
L 527.792719 395.068854 
L 529.332689 327.465182 
L 530.359335 291.814236 
L 530.872659 278.454216 
L 531.899305 261.744345 
L 532.412628 256.976259 
L 532.925952 257.569603 
L 533.439275 263.096998 
L 533.952598 270.792402 
L 534.465922 280.744627 
L 534.979245 295.033681 
L 536.519215 351.616786 
L 537.545861 399.219297 
L 538.059185 412.913868 
L 538.572508 415.11605 
L 539.085831 413.199174 
L 539.599155 413.345503 
L 540.112478 414.397213 
L 541.139124 413.195011 
L 541.652448 414.002942 
L 542.165771 414.381719 
L 542.679094 413.027558 
L 543.192418 412.206887 
L 544.219064 414.464377 
L 544.732387 413.738232 
L 545.245711 413.219134 
L 545.759034 414.101078 
L 546.272357 414.256478 
L 546.785681 413.090427 
L 547.299004 413.579763 
L 547.812327 415.316424 
L 548.325651 410.801977 
L 548.838974 394.194987 
L 549.86562 346.377666 
L 551.40559 291.189772 
L 551.918914 278.017379 
L 552.94556 261.484482 
L 553.458883 256.884461 
L 553.972207 257.713966 
L 554.48553 263.376969 
L 554.998853 271.13258 
L 555.512177 281.224817 
L 556.0255 295.69564 
L 557.56547 352.515189 
L 558.592116 400.001638 
L 559.10544 413.194747 
L 559.618763 415.056759 
L 560.132086 413.15072 
L 560.64541 413.39518 
L 561.158733 414.40935 
L 562.185379 413.201524 
L 562.698703 414.045517 
L 563.212026 414.355713 
L 563.725349 412.963325 
L 564.238673 412.220862 
L 564.751996 413.49189 
L 565.265319 414.465849 
L 565.778642 413.69456 
L 566.291966 413.233499 
L 566.805289 414.139072 
L 567.318612 414.222487 
L 567.831936 413.057529 
L 568.345259 413.656107 
L 568.858582 415.317848 
L 569.371906 410.377137 
L 569.885229 393.307933 
L 570.911875 345.529094 
L 572.451845 290.572185 
L 572.965169 277.587284 
L 573.991815 261.228633 
L 574.505138 256.801947 
L 575.018462 257.866447 
L 575.531785 263.659713 
L 576.045108 271.476158 
L 576.558432 281.712605 
L 577.585078 314.179258 
L 578.611725 353.420836 
L 579.638371 400.766837 
L 580.151695 413.456007 
L 580.665018 414.99179 
L 581.178341 413.106976 
L 581.691665 413.446174 
L 582.204988 414.418127 
L 583.231634 413.211017 
L 583.744958 414.087087 
L 584.258281 414.326319 
L 584.771604 412.900311 
L 585.284928 412.238738 
L 585.798251 413.557517 
L 586.311574 414.463868 
L 586.824897 413.651577 
L 587.338221 413.250681 
L 587.851544 414.175436 
L 588.364867 414.185802 
L 588.878191 413.028031 
L 589.391514 413.735392 
L 589.904837 415.308405 
L 590.418161 409.931182 
L 590.931484 392.408334 
L 591.95813 344.687266 
L 593.4981 289.961632 
L 594.011424 277.163779 
L 595.03807 260.977025 
L 595.551393 256.728851 
L 596.064717 258.026859 
L 596.57804 263.945107 
L 597.091363 271.823304 
L 597.604687 282.208075 
L 598.631333 314.913463 
L 599.65798 354.333693 
L 600.684626 401.514418 
L 601.19795 413.69798 
L 601.711273 414.921774 
L 602.224596 413.068044 
L 602.73792 413.498204 
L 603.251243 414.423532 
L 603.764566 413.719788 
L 604.277889 413.223446 
L 604.791213 414.127443 
L 605.304536 414.293611 
L 605.817859 412.838748 
L 606.331183 412.260457 
L 606.844506 413.622277 
L 607.357829 414.458491 
L 607.871152 413.609485 
L 608.384476 413.270599 
L 608.897799 414.20998 
L 609.411122 414.146579 
L 609.924446 413.002156 
L 610.437769 413.817279 
L 610.951092 415.287455 
L 611.464416 409.464076 
L 611.977739 391.496829 
L 612.491062 366.79475 
L 612.491062 366.79475 
" style="fill:none;stroke:#000000;stroke-linecap:square;stroke-width:1.5;"/>
   </g>
   <g id="patch_8">
    <path d="M 85.05 416.52 
L 85.05 252.72 
" style="fill:none;stroke:#000000;stroke-linecap:square;stroke-linejoin:miter;stroke-width:0.8;"/>
   </g>
   <g id="patch_9">
    <path d="M 612.36 416.52 
L 612.36 252.72 
" style="fill:none;stroke:#000000;stroke-linecap:square;stroke-linejoin:miter;stroke-width:0.8;"/>
   </g>
   <g id="patch_10">
    <path d="M 85.05 416.52 
L 612.36 416.52 
" style="fill:none;stroke:#000000;stroke-linecap:square;stroke-linejoin:miter;stroke-width:0.8;"/>
   </g>
   <g id="patch_11">
    <path d="M 85.05 252.72 
L 612.36 252.72 
" style="fill:none;stroke:#000000;stroke-linecap:square;stroke-linejoin:miter;stroke-width:0.8;"/>
   </g>
   <g id="text_27">
    <!-- NLD Processed -->
    <g transform="translate(312.553125 246.72)scale(0.12 -0.12)">
     <defs>
      <path d="M 3594 222 
Q 3594 159 3573 115 
Q 3553 72 3520 44 
Q 3488 16 3447 3 
Q 3406 -9 3366 -9 
L 3194 -9 
Q 3113 -9 3052 8 
Q 2991 25 2936 70 
Q 2881 116 2826 194 
Q 2772 272 2706 394 
L 1431 2694 
Q 1331 2872 1229 3067 
Q 1128 3263 1041 3447 
L 1034 3447 
Q 1041 3222 1044 2987 
Q 1047 2753 1047 2522 
L 1047 81 
Q 1047 59 1034 39 
Q 1022 19 992 8 
Q 963 -3 914 -11 
Q 866 -19 791 -19 
Q 716 -19 667 -11 
Q 619 -3 591 8 
Q 563 19 550 39 
Q 538 59 538 81 
L 538 3813 
Q 538 3938 606 3991 
Q 675 4044 756 4044 
L 1013 4044 
Q 1103 4044 1164 4028 
Q 1225 4013 1273 3977 
Q 1322 3941 1367 3877 
Q 1413 3813 1466 3716 
L 2447 1941 
Q 2538 1778 2622 1623 
Q 2706 1469 2784 1319 
Q 2863 1169 2939 1023 
Q 3016 878 3091 731 
L 3094 731 
Q 3088 978 3086 1245 
Q 3084 1513 3084 1759 
L 3084 3953 
Q 3084 3975 3096 3994 
Q 3109 4013 3139 4027 
Q 3169 4041 3217 4047 
Q 3266 4053 3344 4053 
Q 3413 4053 3463 4047 
Q 3513 4041 3541 4027 
Q 3569 4013 3581 3994 
Q 3594 3975 3594 3953 
L 3594 222 
z
" id="Calibri-4e" transform="scale(0.015625)"/>
      <path d="M 2634 234 
Q 2634 172 2628 130 
Q 2622 88 2608 58 
Q 2594 28 2573 14 
Q 2553 0 2525 0 
L 738 0 
Q 666 0 602 48 
Q 538 97 538 219 
L 538 3963 
Q 538 3988 550 4006 
Q 563 4025 594 4036 
Q 625 4047 678 4055 
Q 731 4063 806 4063 
Q 884 4063 936 4055 
Q 988 4047 1019 4036 
Q 1050 4025 1062 4006 
Q 1075 3988 1075 3963 
L 1075 466 
L 2525 466 
Q 2553 466 2573 452 
Q 2594 438 2608 411 
Q 2622 384 2628 340 
Q 2634 297 2634 234 
z
" id="Calibri-4c" transform="scale(0.015625)"/>
      <path d="M 3647 2081 
Q 3647 1556 3512 1164 
Q 3378 772 3120 514 
Q 2863 256 2488 128 
Q 2113 0 1594 0 
L 738 0 
Q 666 0 602 48 
Q 538 97 538 219 
L 538 3825 
Q 538 3947 602 3995 
Q 666 4044 738 4044 
L 1653 4044 
Q 2178 4044 2540 3908 
Q 2903 3772 3148 3517 
Q 3394 3263 3520 2900 
Q 3647 2538 3647 2081 
z
M 3081 2059 
Q 3081 2388 3000 2670 
Q 2919 2953 2745 3159 
Q 2572 3366 2306 3481 
Q 2041 3597 1622 3597 
L 1075 3597 
L 1075 450 
L 1628 450 
Q 2016 450 2281 547 
Q 2547 644 2725 844 
Q 2903 1044 2992 1345 
Q 3081 1647 3081 2059 
z
" id="Calibri-44" transform="scale(0.015625)"/>
      <path d="M 3022 2859 
Q 3022 2556 2922 2312 
Q 2822 2069 2636 1897 
Q 2450 1725 2179 1631 
Q 1909 1538 1534 1538 
L 1075 1538 
L 1075 81 
Q 1075 56 1061 37 
Q 1047 19 1017 8 
Q 988 -3 936 -11 
Q 884 -19 806 -19 
Q 728 -19 676 -11 
Q 625 -3 594 8 
Q 563 19 550 37 
Q 538 56 538 81 
L 538 3813 
Q 538 3938 603 3991 
Q 669 4044 750 4044 
L 1616 4044 
Q 1747 4044 1867 4033 
Q 1988 4022 2152 3986 
Q 2316 3950 2486 3851 
Q 2656 3753 2775 3609 
Q 2894 3466 2958 3277 
Q 3022 3088 3022 2859 
z
M 2456 2816 
Q 2456 3063 2364 3228 
Q 2272 3394 2136 3475 
Q 2000 3556 1854 3578 
Q 1709 3600 1572 3600 
L 1075 3600 
L 1075 1978 
L 1559 1978 
Q 1803 1978 1964 2040 
Q 2125 2103 2234 2214 
Q 2344 2325 2400 2479 
Q 2456 2634 2456 2816 
z
" id="Calibri-50" transform="scale(0.015625)"/>
      <path d="M 2500 506 
Q 2500 453 2497 414 
Q 2494 375 2486 348 
Q 2478 322 2467 301 
Q 2456 281 2417 242 
Q 2378 203 2284 145 
Q 2191 88 2073 42 
Q 1956 -3 1818 -31 
Q 1681 -59 1534 -59 
Q 1231 -59 997 41 
Q 763 141 605 333 
Q 447 525 364 804 
Q 281 1084 281 1450 
Q 281 1866 382 2164 
Q 484 2463 661 2653 
Q 838 2844 1077 2936 
Q 1316 3028 1594 3028 
Q 1728 3028 1854 3003 
Q 1981 2978 2087 2937 
Q 2194 2897 2276 2844 
Q 2359 2791 2396 2753 
Q 2434 2716 2448 2694 
Q 2463 2672 2472 2642 
Q 2481 2613 2484 2575 
Q 2488 2538 2488 2481 
Q 2488 2359 2459 2311 
Q 2431 2263 2391 2263 
Q 2344 2263 2283 2314 
Q 2222 2366 2128 2428 
Q 2034 2491 1901 2542 
Q 1769 2594 1588 2594 
Q 1216 2594 1017 2308 
Q 819 2022 819 1478 
Q 819 1206 870 1001 
Q 922 797 1022 659 
Q 1122 522 1267 455 
Q 1413 388 1600 388 
Q 1778 388 1912 444 
Q 2047 500 2145 567 
Q 2244 634 2311 689 
Q 2378 744 2416 744 
Q 2438 744 2453 731 
Q 2469 719 2480 689 
Q 2491 659 2495 614 
Q 2500 569 2500 506 
z
" id="Calibri-63" transform="scale(0.015625)"/>
     </defs>
     <use xlink:href="#Calibri-4e"/>
     <use x="64.550781" xlink:href="#Calibri-4c"/>
     <use x="106.591797" xlink:href="#Calibri-44"/>
     <use x="168.115234" xlink:href="#Calibri-20"/>
     <use x="190.722656" xlink:href="#Calibri-50"/>
     <use x="242.382812" xlink:href="#Calibri-72"/>
     <use x="277.246094" xlink:href="#Calibri-6f"/>
     <use x="329.980469" xlink:href="#Calibri-63"/>
     <use x="372.265625" xlink:href="#Calibri-65"/>
     <use x="422.021484" xlink:href="#Calibri-73"/>
     <use x="461.132812" xlink:href="#Calibri-73"/>
     <use x="500.244141" xlink:href="#Calibri-65"/>
     <use x="550" xlink:href="#Calibri-64"/>
    </g>
   </g>
  </g>
 </g>
 <defs>
  <clipPath id="p8c96604603">
   <rect height="163.8" width="527.31" x="85.05" y="56.16"/>
  </clipPath>
  <clipPath id="pa6a1eadcda">
   <rect height="163.8" width="527.31" x="85.05" y="252.72"/>
  </clipPath>
 </defs>
</svg>
