<?xml version="1.0" encoding="utf-8" standalone="no"?>
<!DOCTYPE svg PUBLIC "-//W3C//DTD SVG 1.1//EN"
  "http://www.w3.org/Graphics/SVG/1.1/DTD/svg11.dtd">
<svg height="324pt" version="1.1" viewBox="0 0 518.4 324" width="518.4pt" xmlns="http://www.w3.org/2000/svg" xmlns:xlink="http://www.w3.org/1999/xlink">
 <metadata>
  <rdf:RDF xmlns:cc="http://creativecommons.org/ns#" xmlns:dc="http://purl.org/dc/elements/1.1/" xmlns:rdf="http://www.w3.org/1999/02/22-rdf-syntax-ns#">
   <cc:Work>
    <dc:type rdf:resource="http://purl.org/dc/dcmitype/StillImage"/>
    <dc:date>2022-07-08T19:12:07.627113</dc:date>
    <dc:format>image/svg+xml</dc:format>
    <dc:creator>
     <cc:Agent>
      <dc:title>Matplotlib v3.4.1, https://matplotlib.org/</dc:title>
     </cc:Agent>
    </dc:creator>
   </cc:Work>
  </rdf:RDF>
 </metadata>
 <defs>
  <style type="text/css">*{stroke-linecap:butt;stroke-linejoin:round;}</style>
 </defs>
 <g id="figure_1">
  <g id="patch_1">
   <path d="M 0 324 
L 518.4 324 
L 518.4 0 
L 0 0 
z
" style="fill:#ffffff;"/>
  </g>
  <g id="axes_1">
   <g id="patch_2">
    <path d="M 35.44 88.76 
L 256.508609 88.76 
L 256.508609 25.08 
L 35.44 25.08 
z
" style="fill:#ffffff;"/>
   </g>
   <g id="matplotlib.axis_1">
    <g id="xtick_1">
     <g id="line2d_1">
      <defs>
       <path d="M 0 0 
L 0 3.5 
" id="mbaa1e27fff" style="stroke:#000000;stroke-width:0.8;"/>
      </defs>
      <g>
       <use style="stroke:#000000;stroke-width:0.8;" x="45.488573" xlink:href="#mbaa1e27fff" y="88.76"/>
      </g>
     </g>
     <g id="text_1">
      <!-- 0 -->
      <g transform="translate(42.954198 102.561562)scale(0.1 -0.1)">
       <defs>
        <path d="M 3022 2031 
Q 3022 1566 2948 1181 
Q 2875 797 2704 520 
Q 2534 244 2259 92 
Q 1984 -59 1581 -59 
Q 1200 -59 939 77 
Q 678 213 518 477 
Q 359 741 292 1127 
Q 225 1513 225 2013 
Q 225 2475 300 2861 
Q 375 3247 544 3523 
Q 713 3800 988 3951 
Q 1263 4103 1663 4103 
Q 2047 4103 2308 3967 
Q 2569 3831 2728 3567 
Q 2888 3303 2955 2917 
Q 3022 2531 3022 2031 
z
M 2472 1994 
Q 2472 2297 2450 2537 
Q 2428 2778 2386 2962 
Q 2344 3147 2276 3280 
Q 2209 3413 2115 3498 
Q 2022 3584 1901 3623 
Q 1781 3663 1631 3663 
Q 1366 3663 1200 3538 
Q 1034 3413 939 3194 
Q 844 2975 809 2681 
Q 775 2388 775 2050 
Q 775 1597 822 1280 
Q 869 963 970 763 
Q 1072 563 1230 472 
Q 1388 381 1613 381 
Q 1788 381 1920 437 
Q 2053 494 2148 598 
Q 2244 703 2306 850 
Q 2369 997 2406 1175 
Q 2444 1353 2458 1561 
Q 2472 1769 2472 1994 
z
" id="Calibri-30" transform="scale(0.015625)"/>
       </defs>
       <use xlink:href="#Calibri-30"/>
      </g>
     </g>
    </g>
    <g id="xtick_2">
     <g id="line2d_2">
      <g>
       <use style="stroke:#000000;stroke-width:0.8;" x="97.019717" xlink:href="#mbaa1e27fff" y="88.76"/>
      </g>
     </g>
     <g id="text_2">
      <!-- 10 -->
      <g transform="translate(91.950967 102.561562)scale(0.1 -0.1)">
       <defs>
        <path d="M 2897 213 
Q 2897 153 2887 112 
Q 2878 72 2862 47 
Q 2847 22 2826 11 
Q 2806 0 2784 0 
L 672 0 
Q 650 0 631 11 
Q 613 22 595 47 
Q 578 72 568 112 
Q 559 153 559 213 
Q 559 269 568 309 
Q 578 350 592 376 
Q 606 403 626 417 
Q 647 431 672 431 
L 1516 431 
L 1516 3506 
L 734 3041 
Q 675 3009 639 3003 
Q 603 2997 581 3017 
Q 559 3038 551 3084 
Q 544 3131 544 3203 
Q 544 3256 548 3293 
Q 553 3331 562 3356 
Q 572 3381 589 3400 
Q 606 3419 634 3438 
L 1566 4034 
Q 1578 4044 1597 4050 
Q 1616 4056 1644 4062 
Q 1672 4069 1709 4070 
Q 1747 4072 1803 4072 
Q 1878 4072 1928 4065 
Q 1978 4059 2006 4048 
Q 2034 4038 2043 4020 
Q 2053 4003 2053 3984 
L 2053 431 
L 2784 431 
Q 2809 431 2831 417 
Q 2853 403 2867 376 
Q 2881 350 2889 309 
Q 2897 269 2897 213 
z
" id="Calibri-31" transform="scale(0.015625)"/>
       </defs>
       <use xlink:href="#Calibri-31"/>
       <use x="50.683594" xlink:href="#Calibri-30"/>
      </g>
     </g>
    </g>
    <g id="xtick_3">
     <g id="line2d_3">
      <g>
       <use style="stroke:#000000;stroke-width:0.8;" x="148.550862" xlink:href="#mbaa1e27fff" y="88.76"/>
      </g>
     </g>
     <g id="text_3">
      <!-- 20 -->
      <g transform="translate(143.482112 102.561562)scale(0.1 -0.1)">
       <defs>
        <path d="M 2888 231 
Q 2888 175 2880 131 
Q 2872 88 2858 58 
Q 2844 28 2820 14 
Q 2797 0 2769 0 
L 534 0 
Q 491 0 458 11 
Q 425 22 401 47 
Q 378 72 367 119 
Q 356 166 356 234 
Q 356 297 361 344 
Q 366 391 381 427 
Q 397 463 420 498 
Q 444 534 481 575 
L 1266 1406 
Q 1538 1694 1702 1922 
Q 1866 2150 1955 2337 
Q 2044 2525 2072 2678 
Q 2100 2831 2100 2966 
Q 2100 3100 2056 3220 
Q 2013 3341 1930 3431 
Q 1847 3522 1722 3575 
Q 1597 3628 1434 3628 
Q 1244 3628 1092 3575 
Q 941 3522 827 3459 
Q 713 3397 636 3344 
Q 559 3291 522 3291 
Q 500 3291 483 3303 
Q 466 3316 455 3344 
Q 444 3372 437 3419 
Q 431 3466 431 3531 
Q 431 3578 434 3612 
Q 438 3647 445 3672 
Q 453 3697 465 3719 
Q 478 3741 515 3773 
Q 553 3806 645 3862 
Q 738 3919 877 3973 
Q 1016 4028 1183 4065 
Q 1350 4103 1534 4103 
Q 1828 4103 2048 4020 
Q 2269 3938 2414 3794 
Q 2559 3650 2631 3459 
Q 2703 3269 2703 3053 
Q 2703 2859 2668 2667 
Q 2634 2475 2523 2251 
Q 2413 2028 2203 1754 
Q 1994 1481 1647 1125 
L 1006 456 
L 2766 456 
Q 2791 456 2814 442 
Q 2838 428 2855 400 
Q 2872 372 2880 330 
Q 2888 288 2888 231 
z
" id="Calibri-32" transform="scale(0.015625)"/>
       </defs>
       <use xlink:href="#Calibri-32"/>
       <use x="50.683594" xlink:href="#Calibri-30"/>
      </g>
     </g>
    </g>
    <g id="xtick_4">
     <g id="line2d_4">
      <g>
       <use style="stroke:#000000;stroke-width:0.8;" x="200.082006" xlink:href="#mbaa1e27fff" y="88.76"/>
      </g>
     </g>
     <g id="text_4">
      <!-- 30 -->
      <g transform="translate(195.013256 102.561562)scale(0.1 -0.1)">
       <defs>
        <path d="M 2856 1156 
Q 2856 878 2759 654 
Q 2663 431 2481 272 
Q 2300 113 2034 27 
Q 1769 -59 1434 -59 
Q 1231 -59 1054 -26 
Q 878 6 740 51 
Q 603 97 512 145 
Q 422 194 398 216 
Q 375 238 362 259 
Q 350 281 340 312 
Q 331 344 326 389 
Q 322 434 322 500 
Q 322 613 344 656 
Q 366 700 406 700 
Q 434 700 517 650 
Q 600 600 729 542 
Q 859 484 1032 434 
Q 1206 384 1419 384 
Q 1625 384 1781 437 
Q 1938 491 2044 587 
Q 2150 684 2203 817 
Q 2256 950 2256 1106 
Q 2256 1278 2189 1415 
Q 2122 1553 1992 1653 
Q 1863 1753 1673 1806 
Q 1484 1859 1244 1859 
L 859 1859 
Q 834 1859 811 1870 
Q 788 1881 770 1906 
Q 753 1931 742 1972 
Q 731 2013 731 2078 
Q 731 2138 740 2177 
Q 750 2216 767 2239 
Q 784 2263 806 2273 
Q 828 2284 856 2284 
L 1209 2284 
Q 1416 2284 1580 2337 
Q 1744 2391 1858 2491 
Q 1972 2591 2033 2730 
Q 2094 2869 2094 3041 
Q 2094 3166 2053 3280 
Q 2013 3394 1931 3478 
Q 1850 3563 1723 3611 
Q 1597 3659 1431 3659 
Q 1250 3659 1098 3604 
Q 947 3550 828 3487 
Q 709 3425 631 3370 
Q 553 3316 522 3316 
Q 500 3316 483 3323 
Q 466 3331 455 3354 
Q 444 3378 439 3420 
Q 434 3463 434 3531 
Q 434 3578 437 3614 
Q 441 3650 450 3676 
Q 459 3703 471 3725 
Q 484 3747 514 3776 
Q 544 3806 634 3862 
Q 725 3919 858 3973 
Q 991 4028 1164 4065 
Q 1338 4103 1538 4103 
Q 1819 4103 2031 4031 
Q 2244 3959 2386 3828 
Q 2528 3697 2598 3514 
Q 2669 3331 2669 3109 
Q 2669 2919 2619 2755 
Q 2569 2591 2472 2464 
Q 2375 2338 2234 2248 
Q 2094 2159 1909 2125 
L 1909 2119 
Q 2119 2097 2292 2014 
Q 2466 1931 2591 1806 
Q 2716 1681 2786 1514 
Q 2856 1347 2856 1156 
z
" id="Calibri-33" transform="scale(0.015625)"/>
       </defs>
       <use xlink:href="#Calibri-33"/>
       <use x="50.683594" xlink:href="#Calibri-30"/>
      </g>
     </g>
    </g>
    <g id="xtick_5">
     <g id="line2d_5">
      <g>
       <use style="stroke:#000000;stroke-width:0.8;" x="251.61315" xlink:href="#mbaa1e27fff" y="88.76"/>
      </g>
     </g>
     <g id="text_5">
      <!-- 40 -->
      <g transform="translate(246.5444 102.561562)scale(0.1 -0.1)">
       <defs>
        <path d="M 3059 1150 
Q 3059 1047 3028 987 
Q 2997 928 2941 928 
L 2484 928 
L 2484 78 
Q 2484 53 2471 36 
Q 2459 19 2428 6 
Q 2397 -6 2347 -12 
Q 2297 -19 2219 -19 
Q 2144 -19 2094 -12 
Q 2044 -6 2014 6 
Q 1984 19 1973 36 
Q 1963 53 1963 78 
L 1963 928 
L 294 928 
Q 256 928 231 937 
Q 206 947 186 972 
Q 166 997 158 1044 
Q 150 1091 150 1166 
Q 150 1225 153 1272 
Q 156 1319 165 1358 
Q 175 1397 190 1433 
Q 206 1469 228 1509 
L 1684 3966 
Q 1700 3991 1729 4009 
Q 1759 4028 1806 4040 
Q 1853 4053 1922 4058 
Q 1991 4063 2084 4063 
Q 2188 4063 2264 4055 
Q 2341 4047 2387 4034 
Q 2434 4022 2459 4001 
Q 2484 3981 2484 3953 
L 2484 1372 
L 2941 1372 
Q 2994 1372 3026 1317 
Q 3059 1263 3059 1150 
z
M 1963 3591 
L 1956 3591 
L 641 1372 
L 1963 1372 
L 1963 3591 
z
" id="Calibri-34" transform="scale(0.015625)"/>
       </defs>
       <use xlink:href="#Calibri-34"/>
       <use x="50.683594" xlink:href="#Calibri-30"/>
      </g>
     </g>
    </g>
   </g>
   <g id="matplotlib.axis_2">
    <g id="ytick_1">
     <g id="line2d_6">
      <defs>
       <path d="M 0 0 
L -3.5 0 
" id="mf21f58c8e2" style="stroke:#000000;stroke-width:0.8;"/>
      </defs>
      <g>
       <use style="stroke:#000000;stroke-width:0.8;" x="35.44" xlink:href="#mf21f58c8e2" y="75.564104"/>
      </g>
     </g>
     <g id="text_6">
      <!-- −0.5 -->
      <g transform="translate(10.79625 78.964885)scale(0.1 -0.1)">
       <defs>
        <path d="M 2934 1797 
Q 2934 1681 2904 1628 
Q 2875 1575 2819 1575 
L 356 1575 
Q 297 1575 267 1628 
Q 238 1681 238 1797 
Q 238 1909 267 1964 
Q 297 2019 356 2019 
L 2819 2019 
Q 2875 2019 2904 1966 
Q 2934 1913 2934 1797 
z
" id="Calibri-2212" transform="scale(0.015625)"/>
        <path d="M 1144 341 
Q 1144 119 1070 45 
Q 997 -28 803 -28 
Q 616 -28 544 44 
Q 472 116 472 331 
Q 472 553 545 626 
Q 619 700 813 700 
Q 1000 700 1072 628 
Q 1144 556 1144 341 
z
" id="Calibri-2e" transform="scale(0.015625)"/>
        <path d="M 2869 1300 
Q 2869 975 2759 722 
Q 2650 469 2450 295 
Q 2250 122 1973 31 
Q 1697 -59 1359 -59 
Q 1172 -59 1003 -32 
Q 834 -6 703 33 
Q 572 72 487 109 
Q 403 147 379 169 
Q 356 191 347 209 
Q 338 228 330 254 
Q 322 281 319 322 
Q 316 363 316 419 
Q 316 472 320 514 
Q 325 556 337 582 
Q 350 609 367 621 
Q 384 634 406 634 
Q 438 634 503 595 
Q 569 556 680 511 
Q 791 466 955 425 
Q 1119 384 1344 384 
Q 1553 384 1728 434 
Q 1903 484 2029 590 
Q 2156 697 2228 858 
Q 2300 1019 2300 1250 
Q 2300 1444 2239 1592 
Q 2178 1741 2051 1839 
Q 1925 1938 1731 1986 
Q 1538 2034 1269 2034 
Q 1078 2034 940 2015 
Q 803 1997 684 1997 
Q 597 1997 559 2037 
Q 522 2078 522 2194 
L 522 3841 
Q 522 3944 570 3994 
Q 619 4044 709 4044 
L 2500 4044 
Q 2525 4044 2548 4030 
Q 2572 4016 2587 3987 
Q 2603 3959 2611 3915 
Q 2619 3872 2619 3813 
Q 2619 3700 2587 3637 
Q 2556 3575 2500 3575 
L 991 3575 
L 991 2441 
Q 1100 2456 1214 2459 
Q 1328 2463 1478 2463 
Q 1825 2463 2084 2380 
Q 2344 2297 2517 2145 
Q 2691 1994 2780 1778 
Q 2869 1563 2869 1300 
z
" id="Calibri-35" transform="scale(0.015625)"/>
       </defs>
       <use xlink:href="#Calibri-2212"/>
       <use x="49.804688" xlink:href="#Calibri-30"/>
       <use x="100.488281" xlink:href="#Calibri-2e"/>
       <use x="125.732422" xlink:href="#Calibri-35"/>
      </g>
     </g>
    </g>
    <g id="ytick_2">
     <g id="line2d_7">
      <g>
       <use style="stroke:#000000;stroke-width:0.8;" x="35.44" xlink:href="#mf21f58c8e2" y="56.692506"/>
      </g>
     </g>
     <g id="text_7">
      <!-- 0.0 -->
      <g transform="translate(15.7775 60.093287)scale(0.1 -0.1)">
       <use xlink:href="#Calibri-30"/>
       <use x="50.683594" xlink:href="#Calibri-2e"/>
       <use x="75.927734" xlink:href="#Calibri-30"/>
      </g>
     </g>
    </g>
    <g id="ytick_3">
     <g id="line2d_8">
      <g>
       <use style="stroke:#000000;stroke-width:0.8;" x="35.44" xlink:href="#mf21f58c8e2" y="37.820908"/>
      </g>
     </g>
     <g id="text_8">
      <!-- 0.5 -->
      <g transform="translate(15.7775 41.22169)scale(0.1 -0.1)">
       <use xlink:href="#Calibri-30"/>
       <use x="50.683594" xlink:href="#Calibri-2e"/>
       <use x="75.927734" xlink:href="#Calibri-35"/>
      </g>
     </g>
    </g>
   </g>
   <g id="line2d_9">
    <path clip-path="url(#p97f63f253e)" d="M 45.488573 56.692506 
L 96.053508 56.802118 
L 98.630066 56.93579 
L 100.079379 56.793703 
L 102.011797 56.341751 
L 103.622145 56.031373 
L 104.588354 56.052395 
L 105.554563 56.304311 
L 106.681807 56.872795 
L 108.936294 58.129684 
L 109.580434 58.245327 
L 110.224573 58.152154 
L 110.868712 57.824904 
L 111.673886 57.100474 
L 112.80113 55.690575 
L 114.089409 54.158143 
L 114.733548 53.725954 
L 115.216653 53.643758 
L 115.699757 53.805752 
L 116.182862 54.226297 
L 116.827001 55.17445 
L 117.632175 56.858542 
L 119.564593 61.146896 
L 120.047697 61.734729 
L 120.530802 61.948863 
L 120.852872 61.8551 
L 121.174941 61.560963 
L 121.658046 60.743117 
L 122.302185 59.00498 
L 123.107359 56.067059 
L 124.556672 50.590277 
L 125.200812 49.049745 
L 125.522881 48.65908 
L 125.844951 48.565766 
L 126.167021 48.790567 
L 126.48909 49.34237 
L 126.972195 50.770382 
L 127.616334 53.665228 
L 128.743578 60.32494 
L 129.709787 65.613687 
L 130.192891 67.376333 
L 130.514961 68.059094 
L 130.837031 68.285659 
L 130.998066 68.216322 
L 131.320135 67.69989 
L 131.642205 66.678658 
L 132.125309 64.247132 
L 132.769449 59.604268 
L 134.862901 42.969432 
L 135.346006 41.321914 
L 135.507041 41.11349 
L 135.668075 41.0894 
L 135.82911 41.255066 
L 136.15118 42.166301 
L 136.47325 43.844775 
L 136.956354 47.697943 
L 137.600493 54.790587 
L 139.210842 73.442187 
L 139.693946 76.328756 
L 140.016016 76.963549 
L 140.177051 76.849738 
L 140.49912 75.722589 
L 140.82119 73.396711 
L 141.304294 67.826398 
L 142.109468 54.583134 
L 143.075677 38.302809 
L 143.558782 33.061581 
L 143.880852 31.459473 
L 144.041886 31.321846 
L 144.202921 31.653268 
L 144.524991 33.753564 
L 144.847061 37.726931 
L 145.330165 46.73145 
L 146.940513 82.16854 
L 147.262583 85.278294 
L 147.423618 85.865455 
L 147.584653 85.759686 
L 147.745687 84.946052 
L 148.067757 81.228165 
L 148.550862 71.055249 
L 150.16121 30.263408 
L 150.483279 27.974545 
L 150.644314 28.089001 
L 150.805349 29.051174 
L 151.127419 33.381341 
L 151.610523 44.702003 
L 152.737767 74.915884 
L 153.059837 79.427649 
L 153.220871 80.502712 
L 153.381906 80.748798 
L 153.542941 80.171346 
L 153.865011 76.7127 
L 154.348115 67.073129 
L 155.314324 44.947222 
L 155.636394 40.632691 
L 155.958463 38.952369 
L 156.119498 39.13798 
L 156.280533 39.975488 
L 156.602603 43.367067 
L 157.246742 54.330343 
L 157.890881 64.685984 
L 158.212951 67.657708 
L 158.535021 68.647804 
L 158.696056 68.400283 
L 159.018125 66.588772 
L 159.50123 61.531102 
L 160.306404 52.322723 
L 160.628473 50.113402 
L 160.950543 49.235377 
L 161.111578 49.29718 
L 161.433648 50.302523 
L 161.916752 53.363753 
L 162.882961 59.865203 
L 163.205031 60.852981 
L 163.366065 61.029431 
L 163.5271 61.001294 
L 163.84917 60.407487 
L 164.332274 58.614544 
L 165.137449 55.409626 
L 165.459518 54.650379 
L 165.781588 54.354165 
L 166.103658 54.509056 
L 166.425727 55.018486 
L 167.714006 57.577334 
L 168.036075 57.813374 
L 168.358145 57.820457 
L 168.84125 57.480704 
L 169.968493 56.341019 
L 170.451598 56.179194 
L 170.934702 56.240343 
L 171.900911 56.688901 
L 172.545051 56.89147 
L 173.350225 56.863238 
L 175.443677 56.612912 
L 178.664374 56.696298 
L 183.495419 56.692725 
L 242.917269 56.692506 
L 246.460035 56.692506 
L 246.460035 56.692506 
" style="fill:none;stroke:#000000;stroke-linecap:square;stroke-width:1.5;"/>
   </g>
   <g id="patch_3">
    <path d="M 35.44 88.76 
L 35.44 25.08 
" style="fill:none;stroke:#000000;stroke-linecap:square;stroke-linejoin:miter;stroke-width:0.8;"/>
   </g>
   <g id="patch_4">
    <path d="M 256.508609 88.76 
L 256.508609 25.08 
" style="fill:none;stroke:#000000;stroke-linecap:square;stroke-linejoin:miter;stroke-width:0.8;"/>
   </g>
   <g id="patch_5">
    <path d="M 35.44 88.76 
L 256.508609 88.76 
" style="fill:none;stroke:#000000;stroke-linecap:square;stroke-linejoin:miter;stroke-width:0.8;"/>
   </g>
   <g id="patch_6">
    <path d="M 35.44 25.08 
L 256.508609 25.08 
" style="fill:none;stroke:#000000;stroke-linecap:square;stroke-linejoin:miter;stroke-width:0.8;"/>
   </g>
   <g id="text_9">
    <!-- db20 -->
    <g transform="translate(133.586179 19.08)scale(0.12 -0.12)">
     <defs>
      <path d="M 2888 78 
Q 2888 53 2877 34 
Q 2866 16 2839 5 
Q 2813 -6 2769 -12 
Q 2725 -19 2663 -19 
Q 2597 -19 2553 -12 
Q 2509 -6 2481 5 
Q 2453 16 2440 34 
Q 2428 53 2428 78 
L 2428 450 
Q 2206 209 1967 75 
Q 1728 -59 1444 -59 
Q 1134 -59 915 61 
Q 697 181 561 386 
Q 425 591 362 867 
Q 300 1144 300 1450 
Q 300 1813 378 2105 
Q 456 2397 609 2603 
Q 763 2809 989 2920 
Q 1216 3031 1513 3031 
Q 1759 3031 1964 2923 
Q 2169 2816 2369 2606 
L 2369 4241 
Q 2369 4263 2380 4283 
Q 2391 4303 2422 4314 
Q 2453 4325 2501 4333 
Q 2550 4341 2625 4341 
Q 2703 4341 2753 4333 
Q 2803 4325 2831 4314 
Q 2859 4303 2873 4283 
Q 2888 4263 2888 4241 
L 2888 78 
z
M 2369 2056 
Q 2159 2316 1964 2452 
Q 1769 2588 1556 2588 
Q 1359 2588 1221 2494 
Q 1084 2400 998 2247 
Q 913 2094 873 1900 
Q 834 1706 834 1506 
Q 834 1294 867 1091 
Q 900 888 981 730 
Q 1063 572 1197 476 
Q 1331 381 1534 381 
Q 1638 381 1733 409 
Q 1828 438 1928 503 
Q 2028 569 2137 673 
Q 2247 778 2369 931 
L 2369 2056 
z
" id="Calibri-64" transform="scale(0.015625)"/>
      <path d="M 3066 1522 
Q 3066 1156 2986 864 
Q 2906 572 2751 365 
Q 2597 159 2372 50 
Q 2147 -59 1856 -59 
Q 1722 -59 1608 -32 
Q 1494 -6 1384 53 
Q 1275 113 1165 203 
Q 1056 294 934 422 
L 934 78 
Q 934 53 921 34 
Q 909 16 881 5 
Q 853 -6 811 -12 
Q 769 -19 703 -19 
Q 641 -19 597 -12 
Q 553 -6 525 5 
Q 497 16 487 34 
Q 478 53 478 78 
L 478 4253 
Q 478 4278 489 4297 
Q 500 4316 529 4328 
Q 559 4341 609 4347 
Q 659 4353 734 4353 
Q 813 4353 863 4347 
Q 913 4341 941 4328 
Q 969 4316 981 4297 
Q 994 4278 994 4253 
L 994 2569 
Q 1119 2697 1236 2784 
Q 1353 2872 1465 2926 
Q 1578 2981 1690 3006 
Q 1803 3031 1928 3031 
Q 2234 3031 2451 2909 
Q 2669 2788 2805 2583 
Q 2941 2378 3003 2103 
Q 3066 1828 3066 1522 
z
M 2522 1463 
Q 2522 1678 2489 1881 
Q 2456 2084 2375 2240 
Q 2294 2397 2159 2492 
Q 2025 2588 1825 2588 
Q 1725 2588 1628 2559 
Q 1531 2531 1431 2465 
Q 1331 2400 1223 2297 
Q 1116 2194 994 2038 
L 994 916 
Q 1206 656 1400 520 
Q 1594 384 1803 384 
Q 1997 384 2134 478 
Q 2272 572 2358 726 
Q 2444 881 2483 1073 
Q 2522 1266 2522 1463 
z
" id="Calibri-62" transform="scale(0.015625)"/>
     </defs>
     <use xlink:href="#Calibri-64"/>
     <use x="52.539062" xlink:href="#Calibri-62"/>
     <use x="105.078125" xlink:href="#Calibri-32"/>
     <use x="155.761719" xlink:href="#Calibri-30"/>
    </g>
   </g>
  </g>
  <g id="axes_2">
   <g id="patch_7">
    <path d="M 284.561309 88.76 
L 505.629918 88.76 
L 505.629918 25.08 
L 284.561309 25.08 
z
" style="fill:#ffffff;"/>
   </g>
   <g id="matplotlib.axis_3">
    <g id="xtick_6">
     <g id="line2d_10">
      <g>
       <use style="stroke:#000000;stroke-width:0.8;" x="294.609882" xlink:href="#mbaa1e27fff" y="88.76"/>
      </g>
     </g>
     <g id="text_10">
      <!-- 0 -->
      <g transform="translate(292.075507 102.561562)scale(0.1 -0.1)">
       <use xlink:href="#Calibri-30"/>
      </g>
     </g>
    </g>
    <g id="xtick_7">
     <g id="line2d_11">
      <g>
       <use style="stroke:#000000;stroke-width:0.8;" x="327.556024" xlink:href="#mbaa1e27fff" y="88.76"/>
      </g>
     </g>
     <g id="text_11">
      <!-- 10 -->
      <g transform="translate(322.487274 102.561562)scale(0.1 -0.1)">
       <use xlink:href="#Calibri-31"/>
       <use x="50.683594" xlink:href="#Calibri-30"/>
      </g>
     </g>
    </g>
    <g id="xtick_8">
     <g id="line2d_12">
      <g>
       <use style="stroke:#000000;stroke-width:0.8;" x="360.502165" xlink:href="#mbaa1e27fff" y="88.76"/>
      </g>
     </g>
     <g id="text_12">
      <!-- 20 -->
      <g transform="translate(355.433415 102.561562)scale(0.1 -0.1)">
       <use xlink:href="#Calibri-32"/>
       <use x="50.683594" xlink:href="#Calibri-30"/>
      </g>
     </g>
    </g>
    <g id="xtick_9">
     <g id="line2d_13">
      <g>
       <use style="stroke:#000000;stroke-width:0.8;" x="393.448306" xlink:href="#mbaa1e27fff" y="88.76"/>
      </g>
     </g>
     <g id="text_13">
      <!-- 30 -->
      <g transform="translate(388.379556 102.561562)scale(0.1 -0.1)">
       <use xlink:href="#Calibri-33"/>
       <use x="50.683594" xlink:href="#Calibri-30"/>
      </g>
     </g>
    </g>
    <g id="xtick_10">
     <g id="line2d_14">
      <g>
       <use style="stroke:#000000;stroke-width:0.8;" x="426.394448" xlink:href="#mbaa1e27fff" y="88.76"/>
      </g>
     </g>
     <g id="text_14">
      <!-- 40 -->
      <g transform="translate(421.325698 102.561562)scale(0.1 -0.1)">
       <use xlink:href="#Calibri-34"/>
       <use x="50.683594" xlink:href="#Calibri-30"/>
      </g>
     </g>
    </g>
    <g id="xtick_11">
     <g id="line2d_15">
      <g>
       <use style="stroke:#000000;stroke-width:0.8;" x="459.340589" xlink:href="#mbaa1e27fff" y="88.76"/>
      </g>
     </g>
     <g id="text_15">
      <!-- 50 -->
      <g transform="translate(454.271839 102.561562)scale(0.1 -0.1)">
       <use xlink:href="#Calibri-35"/>
       <use x="50.683594" xlink:href="#Calibri-30"/>
      </g>
     </g>
    </g>
    <g id="xtick_12">
     <g id="line2d_16">
      <g>
       <use style="stroke:#000000;stroke-width:0.8;" x="492.28673" xlink:href="#mbaa1e27fff" y="88.76"/>
      </g>
     </g>
     <g id="text_16">
      <!-- 60 -->
      <g transform="translate(487.21798 102.561562)scale(0.1 -0.1)">
       <defs>
        <path d="M 2991 1309 
Q 2991 1044 2909 795 
Q 2828 547 2659 358 
Q 2491 169 2231 55 
Q 1972 -59 1619 -59 
Q 1366 -59 1172 3 
Q 978 66 834 181 
Q 691 297 595 465 
Q 500 634 442 850 
Q 384 1066 359 1322 
Q 334 1578 334 1872 
Q 334 2131 362 2397 
Q 391 2663 462 2909 
Q 534 3156 657 3373 
Q 781 3591 967 3752 
Q 1153 3913 1412 4006 
Q 1672 4100 2016 4100 
Q 2131 4100 2250 4086 
Q 2369 4072 2469 4048 
Q 2569 4025 2637 3997 
Q 2706 3969 2728 3951 
Q 2750 3934 2761 3914 
Q 2772 3894 2778 3870 
Q 2784 3847 2787 3817 
Q 2791 3788 2791 3744 
Q 2791 3688 2789 3647 
Q 2788 3606 2777 3581 
Q 2766 3556 2748 3543 
Q 2731 3531 2703 3531 
Q 2669 3531 2609 3553 
Q 2550 3575 2465 3601 
Q 2381 3628 2261 3650 
Q 2141 3672 1981 3672 
Q 1691 3672 1481 3553 
Q 1272 3434 1139 3234 
Q 1006 3034 942 2770 
Q 878 2506 869 2219 
Q 950 2266 1051 2312 
Q 1153 2359 1273 2396 
Q 1394 2434 1528 2457 
Q 1663 2481 1816 2481 
Q 2144 2481 2369 2392 
Q 2594 2303 2733 2145 
Q 2872 1988 2931 1773 
Q 2991 1559 2991 1309 
z
M 2447 1259 
Q 2447 1441 2411 1589 
Q 2375 1738 2290 1841 
Q 2206 1944 2065 2000 
Q 1925 2056 1719 2056 
Q 1603 2056 1487 2036 
Q 1372 2016 1264 1980 
Q 1156 1944 1057 1895 
Q 959 1847 878 1791 
Q 878 1388 929 1116 
Q 981 844 1079 680 
Q 1178 516 1325 445 
Q 1472 375 1669 375 
Q 1869 375 2016 450 
Q 2163 525 2259 651 
Q 2356 778 2401 936 
Q 2447 1094 2447 1259 
z
" id="Calibri-36" transform="scale(0.015625)"/>
       </defs>
       <use xlink:href="#Calibri-36"/>
       <use x="50.683594" xlink:href="#Calibri-30"/>
      </g>
     </g>
    </g>
   </g>
   <g id="matplotlib.axis_4">
    <g id="ytick_4">
     <g id="line2d_17">
      <g>
       <use style="stroke:#000000;stroke-width:0.8;" x="284.561309" xlink:href="#mf21f58c8e2" y="81.256877"/>
      </g>
     </g>
     <g id="text_17">
      <!-- −1 -->
      <g transform="translate(267.511309 84.657658)scale(0.1 -0.1)">
       <use xlink:href="#Calibri-2212"/>
       <use x="49.804688" xlink:href="#Calibri-31"/>
      </g>
     </g>
    </g>
    <g id="ytick_5">
     <g id="line2d_18">
      <g>
       <use style="stroke:#000000;stroke-width:0.8;" x="284.561309" xlink:href="#mf21f58c8e2" y="52.994812"/>
      </g>
     </g>
     <g id="text_18">
      <!-- 0 -->
      <g transform="translate(272.492559 56.395593)scale(0.1 -0.1)">
       <use xlink:href="#Calibri-30"/>
      </g>
     </g>
    </g>
   </g>
   <g id="line2d_19">
    <path clip-path="url(#pe82f987adf)" d="M 294.609882 52.994812 
L 369.04757 52.885391 
L 370.386007 52.876468 
L 371.827401 53.124797 
L 373.268795 53.33759 
L 374.092448 53.218112 
L 375.019058 52.851849 
L 376.357495 52.304016 
L 376.975236 52.306985 
L 377.592976 52.545621 
L 378.210716 53.010655 
L 379.65211 54.231474 
L 380.063936 54.26796 
L 380.57872 54.090418 
L 381.50533 53.528475 
L 381.917157 53.074503 
L 382.328984 52.258027 
L 383.564464 49.334417 
L 383.770377 49.416815 
L 383.976291 49.789734 
L 384.285161 50.839907 
L 385.417684 55.501306 
L 385.623598 55.589699 
L 385.829511 55.417676 
L 386.550208 54.236487 
L 386.756121 54.517853 
L 386.962035 55.214504 
L 387.373861 57.905545 
L 387.888645 61.51441 
L 388.094558 61.977164 
L 388.197515 61.823786 
L 388.403428 60.535003 
L 388.712298 56.130617 
L 389.227082 43.486204 
L 389.844822 29.500885 
L 390.050735 27.974545 
L 390.153692 28.120365 
L 390.359606 30.296013 
L 390.668476 38.146252 
L 391.286216 64.25014 
L 391.800999 82.366694 
L 392.006913 85.440302 
L 392.109869 85.865455 
L 392.212826 85.440302 
L 392.418739 82.366694 
L 392.727609 72.837362 
L 393.860133 30.296013 
L 394.066046 28.120365 
L 394.169003 27.974545 
L 394.374917 29.500885 
L 394.683787 35.342995 
L 395.713354 59.402812 
L 396.022224 61.823786 
L 396.12518 61.977164 
L 396.228137 61.87422 
L 396.43405 60.99665 
L 397.463617 54.517853 
L 397.669531 54.236487 
L 397.875444 54.407872 
L 398.596141 55.589699 
L 398.802054 55.501306 
L 399.007968 55.091749 
L 399.316838 53.929904 
L 400.243448 49.789734 
L 400.552318 49.339294 
L 400.758231 49.398169 
L 401.067101 49.963185 
L 402.405538 53.216897 
L 402.920322 53.677065 
L 403.846932 54.1774 
L 404.361716 54.27291 
L 404.773542 54.138341 
L 405.288326 53.723613 
L 406.626763 52.545621 
L 407.34746 52.288535 
L 407.9652 52.325429 
L 408.685897 52.596097 
L 410.230247 53.245104 
L 411.053901 53.337485 
L 412.083468 53.192697 
L 414.142601 52.855988 
L 415.481038 52.914485 
L 417.643129 53.019741 
L 422.790963 52.993411 
L 460.679026 52.994812 
L 495.581345 52.994812 
L 495.581345 52.994812 
" style="fill:none;stroke:#000000;stroke-linecap:square;stroke-width:1.5;"/>
   </g>
   <g id="patch_8">
    <path d="M 284.561309 88.76 
L 284.561309 25.08 
" style="fill:none;stroke:#000000;stroke-linecap:square;stroke-linejoin:miter;stroke-width:0.8;"/>
   </g>
   <g id="patch_9">
    <path d="M 505.629918 88.76 
L 505.629918 25.08 
" style="fill:none;stroke:#000000;stroke-linecap:square;stroke-linejoin:miter;stroke-width:0.8;"/>
   </g>
   <g id="patch_10">
    <path d="M 284.561309 88.76 
L 505.629918 88.76 
" style="fill:none;stroke:#000000;stroke-linecap:square;stroke-linejoin:miter;stroke-width:0.8;"/>
   </g>
   <g id="patch_11">
    <path d="M 284.561309 25.08 
L 505.629918 25.08 
" style="fill:none;stroke:#000000;stroke-linecap:square;stroke-linejoin:miter;stroke-width:0.8;"/>
   </g>
   <g id="text_19">
    <!-- dmey -->
    <g transform="translate(381.448426 19.08)scale(0.12 -0.12)">
     <defs>
      <path d="M 4650 78 
Q 4650 53 4637 36 
Q 4625 19 4597 6 
Q 4569 -6 4519 -12 
Q 4469 -19 4394 -19 
Q 4316 -19 4266 -12 
Q 4216 -6 4186 6 
Q 4156 19 4143 36 
Q 4131 53 4131 78 
L 4131 1788 
Q 4131 1966 4100 2112 
Q 4069 2259 4000 2365 
Q 3931 2472 3825 2528 
Q 3719 2584 3575 2584 
Q 3397 2584 3217 2446 
Q 3038 2309 2822 2044 
L 2822 78 
Q 2822 53 2809 36 
Q 2797 19 2767 6 
Q 2738 -6 2688 -12 
Q 2638 -19 2563 -19 
Q 2491 -19 2439 -12 
Q 2388 -6 2358 6 
Q 2328 19 2317 36 
Q 2306 53 2306 78 
L 2306 1788 
Q 2306 1966 2272 2112 
Q 2238 2259 2169 2365 
Q 2100 2472 1995 2528 
Q 1891 2584 1747 2584 
Q 1569 2584 1387 2446 
Q 1206 2309 994 2044 
L 994 78 
Q 994 53 981 36 
Q 969 19 941 6 
Q 913 -6 863 -12 
Q 813 -19 734 -19 
Q 659 -19 609 -12 
Q 559 -6 529 6 
Q 500 19 489 36 
Q 478 53 478 78 
L 478 2891 
Q 478 2916 487 2933 
Q 497 2950 525 2964 
Q 553 2978 597 2983 
Q 641 2988 713 2988 
Q 781 2988 826 2983 
Q 872 2978 897 2964 
Q 922 2950 933 2933 
Q 944 2916 944 2891 
L 944 2519 
Q 1181 2784 1404 2907 
Q 1628 3031 1856 3031 
Q 2031 3031 2170 2990 
Q 2309 2950 2415 2876 
Q 2522 2803 2597 2701 
Q 2672 2600 2722 2475 
Q 2863 2628 2989 2734 
Q 3116 2841 3233 2906 
Q 3350 2972 3461 3001 
Q 3572 3031 3684 3031 
Q 3956 3031 4140 2936 
Q 4325 2841 4439 2681 
Q 4553 2522 4601 2308 
Q 4650 2094 4650 1856 
L 4650 78 
z
" id="Calibri-6d" transform="scale(0.015625)"/>
      <path d="M 2878 1606 
Q 2878 1484 2817 1432 
Q 2756 1381 2678 1381 
L 834 1381 
Q 834 1147 881 959 
Q 928 772 1037 637 
Q 1147 503 1322 431 
Q 1497 359 1750 359 
Q 1950 359 2106 392 
Q 2263 425 2377 465 
Q 2491 506 2564 539 
Q 2638 572 2675 572 
Q 2697 572 2714 561 
Q 2731 550 2740 528 
Q 2750 506 2754 467 
Q 2759 428 2759 372 
Q 2759 331 2756 301 
Q 2753 272 2748 248 
Q 2744 225 2733 206 
Q 2722 188 2705 170 
Q 2688 153 2603 114 
Q 2519 75 2384 37 
Q 2250 0 2073 -29 
Q 1897 -59 1697 -59 
Q 1350 -59 1089 37 
Q 828 134 650 325 
Q 472 516 381 803 
Q 291 1091 291 1472 
Q 291 1834 384 2123 
Q 478 2413 654 2614 
Q 831 2816 1081 2923 
Q 1331 3031 1641 3031 
Q 1972 3031 2205 2925 
Q 2438 2819 2588 2639 
Q 2738 2459 2808 2217 
Q 2878 1975 2878 1700 
L 2878 1606 
z
M 2359 1759 
Q 2369 2166 2180 2397 
Q 1991 2628 1619 2628 
Q 1428 2628 1284 2556 
Q 1141 2484 1044 2365 
Q 947 2247 894 2089 
Q 841 1931 834 1759 
L 2359 1759 
z
" id="Calibri-65" transform="scale(0.015625)"/>
      <path d="M 1759 0 
L 1384 -1034 
Q 1366 -1084 1289 -1111 
Q 1213 -1138 1056 -1138 
Q 975 -1138 925 -1130 
Q 875 -1122 848 -1103 
Q 822 -1084 819 -1053 
Q 816 -1022 834 -978 
L 1222 0 
Q 1194 13 1169 41 
Q 1144 69 1134 100 
L 131 2788 
Q 106 2853 106 2890 
Q 106 2928 131 2950 
Q 156 2972 212 2980 
Q 269 2988 363 2988 
Q 456 2988 509 2983 
Q 563 2978 594 2965 
Q 625 2953 639 2929 
Q 653 2906 669 2866 
L 1472 609 
L 1481 609 
L 2256 2878 
Q 2275 2938 2301 2955 
Q 2328 2972 2381 2980 
Q 2434 2988 2534 2988 
Q 2622 2988 2678 2980 
Q 2734 2972 2761 2950 
Q 2788 2928 2788 2890 
Q 2788 2853 2769 2797 
L 1759 0 
z
" id="Calibri-79" transform="scale(0.015625)"/>
     </defs>
     <use xlink:href="#Calibri-64"/>
     <use x="52.539062" xlink:href="#Calibri-6d"/>
     <use x="132.421875" xlink:href="#Calibri-65"/>
     <use x="182.177734" xlink:href="#Calibri-79"/>
    </g>
   </g>
  </g>
  <g id="axes_3">
   <g id="patch_12">
    <path d="M 35.44 193.16 
L 256.508609 193.16 
L 256.508609 129.48 
L 35.44 129.48 
z
" style="fill:#ffffff;"/>
   </g>
   <g id="matplotlib.axis_5">
    <g id="xtick_13">
     <g id="line2d_20">
      <g>
       <use style="stroke:#000000;stroke-width:0.8;" x="45.488573" xlink:href="#mbaa1e27fff" y="193.16"/>
      </g>
     </g>
     <g id="text_20">
      <!-- 0 -->
      <g transform="translate(42.954198 206.961562)scale(0.1 -0.1)">
       <use xlink:href="#Calibri-30"/>
      </g>
     </g>
    </g>
    <g id="xtick_14">
     <g id="line2d_21">
      <g>
       <use style="stroke:#000000;stroke-width:0.8;" x="97.019717" xlink:href="#mbaa1e27fff" y="193.16"/>
      </g>
     </g>
     <g id="text_21">
      <!-- 10 -->
      <g transform="translate(91.950967 206.961562)scale(0.1 -0.1)">
       <use xlink:href="#Calibri-31"/>
       <use x="50.683594" xlink:href="#Calibri-30"/>
      </g>
     </g>
    </g>
    <g id="xtick_15">
     <g id="line2d_22">
      <g>
       <use style="stroke:#000000;stroke-width:0.8;" x="148.550862" xlink:href="#mbaa1e27fff" y="193.16"/>
      </g>
     </g>
     <g id="text_22">
      <!-- 20 -->
      <g transform="translate(143.482112 206.961562)scale(0.1 -0.1)">
       <use xlink:href="#Calibri-32"/>
       <use x="50.683594" xlink:href="#Calibri-30"/>
      </g>
     </g>
    </g>
    <g id="xtick_16">
     <g id="line2d_23">
      <g>
       <use style="stroke:#000000;stroke-width:0.8;" x="200.082006" xlink:href="#mbaa1e27fff" y="193.16"/>
      </g>
     </g>
     <g id="text_23">
      <!-- 30 -->
      <g transform="translate(195.013256 206.961562)scale(0.1 -0.1)">
       <use xlink:href="#Calibri-33"/>
       <use x="50.683594" xlink:href="#Calibri-30"/>
      </g>
     </g>
    </g>
    <g id="xtick_17">
     <g id="line2d_24">
      <g>
       <use style="stroke:#000000;stroke-width:0.8;" x="251.61315" xlink:href="#mbaa1e27fff" y="193.16"/>
      </g>
     </g>
     <g id="text_24">
      <!-- 40 -->
      <g transform="translate(246.5444 206.961562)scale(0.1 -0.1)">
       <use xlink:href="#Calibri-34"/>
       <use x="50.683594" xlink:href="#Calibri-30"/>
      </g>
     </g>
    </g>
   </g>
   <g id="matplotlib.axis_6">
    <g id="ytick_6">
     <g id="line2d_25">
      <g>
       <use style="stroke:#000000;stroke-width:0.8;" x="35.44" xlink:href="#mf21f58c8e2" y="165.617781"/>
      </g>
     </g>
     <g id="text_25">
      <!-- 0 -->
      <g transform="translate(23.37125 169.018562)scale(0.1 -0.1)">
       <use xlink:href="#Calibri-30"/>
      </g>
     </g>
    </g>
    <g id="ytick_7">
     <g id="line2d_26">
      <g>
       <use style="stroke:#000000;stroke-width:0.8;" x="35.44" xlink:href="#mf21f58c8e2" y="137.943618"/>
      </g>
     </g>
     <g id="text_26">
      <!-- 1 -->
      <g transform="translate(23.37125 141.344399)scale(0.1 -0.1)">
       <use xlink:href="#Calibri-31"/>
      </g>
     </g>
    </g>
   </g>
   <g id="line2d_27">
    <path clip-path="url(#pd904e1b7de)" d="M 45.488573 165.617781 
L 116.021827 165.728799 
L 118.437349 165.883283 
L 119.725628 165.716967 
L 121.658046 165.1811 
L 122.946324 164.914173 
L 123.751498 164.940615 
L 124.556672 165.199175 
L 125.522881 165.791453 
L 126.972195 166.68542 
L 127.777369 166.880978 
L 128.582543 166.812637 
L 129.387717 166.497456 
L 130.031857 166.021317 
L 130.998066 164.980047 
L 131.80324 164.235294 
L 132.125309 164.141927 
L 132.447379 164.228659 
L 132.930483 164.699133 
L 134.057727 166.236303 
L 134.379797 166.252859 
L 134.701867 165.839116 
L 135.023936 164.923564 
L 135.507041 162.681151 
L 136.47325 157.594734 
L 136.795319 156.920833 
L 136.956354 156.976455 
L 137.117389 157.343338 
L 137.439459 159.109293 
L 137.761528 162.299477 
L 138.244633 169.395135 
L 139.371876 187.529281 
L 139.693946 189.933988 
L 139.854981 190.265455 
L 140.016016 189.948438 
L 140.338085 187.27852 
L 140.660155 181.963648 
L 141.14326 170.016964 
L 142.270503 139.28943 
L 142.592573 134.301231 
L 142.914643 132.374545 
L 143.075677 132.646533 
L 143.236712 133.736659 
L 143.558782 138.196955 
L 144.041886 149.353887 
L 145.330165 182.706632 
L 145.652235 187.147023 
L 145.974304 189.109594 
L 146.135339 189.179932 
L 146.296374 188.691144 
L 146.618444 186.272026 
L 147.101548 180.172539 
L 148.228792 165.133814 
L 148.711896 161.654893 
L 149.033966 160.54927 
L 149.356036 160.201962 
L 149.678105 160.345742 
L 150.805349 161.383264 
L 151.127419 161.330749 
L 152.254663 160.730097 
L 152.576732 160.920333 
L 152.898802 161.415573 
L 153.381906 162.715144 
L 154.348115 166.420889 
L 154.992255 168.57327 
L 155.475359 169.526832 
L 155.797429 169.790134 
L 156.119498 169.771765 
L 156.441568 169.51151 
L 156.924672 168.786239 
L 159.018125 165.101555 
L 159.662264 164.545357 
L 160.306404 164.277657 
L 160.950543 164.233202 
L 161.755717 164.417817 
L 162.721926 164.891271 
L 164.654344 165.936449 
L 165.620553 166.146344 
L 166.586762 166.106565 
L 168.51918 165.713334 
L 170.129528 165.487887 
L 171.900911 165.487003 
L 177.054026 165.646273 
L 187.843359 165.618172 
L 246.460035 165.617781 
L 246.460035 165.617781 
" style="fill:none;stroke:#000000;stroke-linecap:square;stroke-width:1.5;"/>
   </g>
   <g id="patch_13">
    <path d="M 35.44 193.16 
L 35.44 129.48 
" style="fill:none;stroke:#000000;stroke-linecap:square;stroke-linejoin:miter;stroke-width:0.8;"/>
   </g>
   <g id="patch_14">
    <path d="M 256.508609 193.16 
L 256.508609 129.48 
" style="fill:none;stroke:#000000;stroke-linecap:square;stroke-linejoin:miter;stroke-width:0.8;"/>
   </g>
   <g id="patch_15">
    <path d="M 35.44 193.16 
L 256.508609 193.16 
" style="fill:none;stroke:#000000;stroke-linecap:square;stroke-linejoin:miter;stroke-width:0.8;"/>
   </g>
   <g id="patch_16">
    <path d="M 35.44 129.48 
L 256.508609 129.48 
" style="fill:none;stroke:#000000;stroke-linecap:square;stroke-linejoin:miter;stroke-width:0.8;"/>
   </g>
   <g id="text_27">
    <!-- sym20 -->
    <g transform="translate(130.035867 123.48)scale(0.12 -0.12)">
     <defs>
      <path d="M 2244 844 
Q 2244 628 2164 459 
Q 2084 291 1937 175 
Q 1791 59 1587 0 
Q 1384 -59 1141 -59 
Q 991 -59 855 -36 
Q 719 -13 611 23 
Q 503 59 428 98 
Q 353 138 318 169 
Q 284 200 268 256 
Q 253 313 253 409 
Q 253 469 259 509 
Q 266 550 275 575 
Q 284 600 301 611 
Q 319 622 341 622 
Q 375 622 442 580 
Q 509 538 607 488 
Q 706 438 840 395 
Q 975 353 1150 353 
Q 1281 353 1387 381 
Q 1494 409 1572 464 
Q 1650 519 1692 603 
Q 1734 688 1734 803 
Q 1734 922 1673 1003 
Q 1613 1084 1513 1146 
Q 1413 1209 1288 1257 
Q 1163 1306 1030 1359 
Q 897 1413 770 1480 
Q 644 1547 544 1644 
Q 444 1741 383 1875 
Q 322 2009 322 2197 
Q 322 2363 386 2514 
Q 450 2666 578 2780 
Q 706 2894 898 2962 
Q 1091 3031 1347 3031 
Q 1459 3031 1571 3012 
Q 1684 2994 1775 2966 
Q 1866 2938 1930 2905 
Q 1994 2872 2026 2847 
Q 2059 2822 2070 2803 
Q 2081 2784 2086 2761 
Q 2091 2738 2095 2703 
Q 2100 2669 2100 2619 
Q 2100 2566 2095 2527 
Q 2091 2488 2080 2463 
Q 2069 2438 2053 2427 
Q 2038 2416 2019 2416 
Q 1991 2416 1937 2450 
Q 1884 2484 1800 2523 
Q 1716 2563 1602 2597 
Q 1488 2631 1341 2631 
Q 1209 2631 1109 2601 
Q 1009 2572 945 2517 
Q 881 2463 848 2388 
Q 816 2313 816 2225 
Q 816 2103 878 2020 
Q 941 1938 1041 1875 
Q 1141 1813 1269 1763 
Q 1397 1713 1530 1659 
Q 1663 1606 1792 1540 
Q 1922 1475 2022 1381 
Q 2122 1288 2183 1156 
Q 2244 1025 2244 844 
z
" id="Calibri-73" transform="scale(0.015625)"/>
     </defs>
     <use xlink:href="#Calibri-73"/>
     <use x="39.111328" xlink:href="#Calibri-79"/>
     <use x="84.375" xlink:href="#Calibri-6d"/>
     <use x="164.257812" xlink:href="#Calibri-32"/>
     <use x="214.941406" xlink:href="#Calibri-30"/>
    </g>
   </g>
  </g>
  <g id="axes_4">
   <g id="patch_17">
    <path d="M 284.561309 193.16 
L 505.629918 193.16 
L 505.629918 129.48 
L 284.561309 129.48 
z
" style="fill:#ffffff;"/>
   </g>
   <g id="matplotlib.axis_7">
    <g id="xtick_18">
     <g id="line2d_28">
      <g>
       <use style="stroke:#000000;stroke-width:0.8;" x="294.609882" xlink:href="#mbaa1e27fff" y="193.16"/>
      </g>
     </g>
     <g id="text_28">
      <!-- 0 -->
      <g transform="translate(292.075507 206.961562)scale(0.1 -0.1)">
       <use xlink:href="#Calibri-30"/>
      </g>
     </g>
    </g>
    <g id="xtick_19">
     <g id="line2d_29">
      <g>
       <use style="stroke:#000000;stroke-width:0.8;" x="329.260134" xlink:href="#mbaa1e27fff" y="193.16"/>
      </g>
     </g>
     <g id="text_29">
      <!-- 5 -->
      <g transform="translate(326.725759 206.961562)scale(0.1 -0.1)">
       <use xlink:href="#Calibri-35"/>
      </g>
     </g>
    </g>
    <g id="xtick_20">
     <g id="line2d_30">
      <g>
       <use style="stroke:#000000;stroke-width:0.8;" x="363.910386" xlink:href="#mbaa1e27fff" y="193.16"/>
      </g>
     </g>
     <g id="text_30">
      <!-- 10 -->
      <g transform="translate(358.841636 206.961562)scale(0.1 -0.1)">
       <use xlink:href="#Calibri-31"/>
       <use x="50.683594" xlink:href="#Calibri-30"/>
      </g>
     </g>
    </g>
    <g id="xtick_21">
     <g id="line2d_31">
      <g>
       <use style="stroke:#000000;stroke-width:0.8;" x="398.560639" xlink:href="#mbaa1e27fff" y="193.16"/>
      </g>
     </g>
     <g id="text_31">
      <!-- 15 -->
      <g transform="translate(393.491889 206.961562)scale(0.1 -0.1)">
       <use xlink:href="#Calibri-31"/>
       <use x="50.683594" xlink:href="#Calibri-35"/>
      </g>
     </g>
    </g>
    <g id="xtick_22">
     <g id="line2d_32">
      <g>
       <use style="stroke:#000000;stroke-width:0.8;" x="433.210891" xlink:href="#mbaa1e27fff" y="193.16"/>
      </g>
     </g>
     <g id="text_32">
      <!-- 20 -->
      <g transform="translate(428.142141 206.961562)scale(0.1 -0.1)">
       <use xlink:href="#Calibri-32"/>
       <use x="50.683594" xlink:href="#Calibri-30"/>
      </g>
     </g>
    </g>
    <g id="xtick_23">
     <g id="line2d_33">
      <g>
       <use style="stroke:#000000;stroke-width:0.8;" x="467.861143" xlink:href="#mbaa1e27fff" y="193.16"/>
      </g>
     </g>
     <g id="text_33">
      <!-- 25 -->
      <g transform="translate(462.792393 206.961562)scale(0.1 -0.1)">
       <use xlink:href="#Calibri-32"/>
       <use x="50.683594" xlink:href="#Calibri-35"/>
      </g>
     </g>
    </g>
    <g id="xtick_24">
     <g id="line2d_34">
      <g>
       <use style="stroke:#000000;stroke-width:0.8;" x="502.511395" xlink:href="#mbaa1e27fff" y="193.16"/>
      </g>
     </g>
     <g id="text_34">
      <!-- 30 -->
      <g transform="translate(497.442645 206.961562)scale(0.1 -0.1)">
       <use xlink:href="#Calibri-33"/>
       <use x="50.683594" xlink:href="#Calibri-30"/>
      </g>
     </g>
    </g>
   </g>
   <g id="matplotlib.axis_8">
    <g id="ytick_8">
     <g id="line2d_35">
      <g>
       <use style="stroke:#000000;stroke-width:0.8;" x="284.561309" xlink:href="#mf21f58c8e2" y="182.415531"/>
      </g>
     </g>
     <g id="text_35">
      <!-- −1 -->
      <g transform="translate(267.511309 185.816312)scale(0.1 -0.1)">
       <use xlink:href="#Calibri-2212"/>
       <use x="49.804688" xlink:href="#Calibri-31"/>
      </g>
     </g>
    </g>
    <g id="ytick_9">
     <g id="line2d_36">
      <g>
       <use style="stroke:#000000;stroke-width:0.8;" x="284.561309" xlink:href="#mf21f58c8e2" y="155.736562"/>
      </g>
     </g>
     <g id="text_36">
      <!-- 0 -->
      <g transform="translate(272.492559 159.137343)scale(0.1 -0.1)">
       <use xlink:href="#Calibri-30"/>
      </g>
     </g>
    </g>
   </g>
   <g id="line2d_37">
    <path clip-path="url(#pccec4a142c)" d="M 294.609882 155.736562 
L 360.012233 155.626114 
L 362.611002 155.682757 
L 365.859463 156.039134 
L 367.80854 156.172241 
L 369.107924 156.050899 
L 370.623873 155.650794 
L 374.73859 154.352875 
L 375.604847 154.430892 
L 376.471103 154.746818 
L 377.337359 155.343382 
L 378.42018 156.457424 
L 380.369256 158.489181 
L 381.018948 158.839488 
L 381.668641 158.871824 
L 382.534897 158.899356 
L 383.184589 159.136362 
L 384.26741 159.59618 
L 384.700538 159.655381 
L 384.917102 159.604592 
L 385.133666 159.438882 
L 385.566794 158.605449 
L 385.999922 156.888611 
L 386.43305 154.113428 
L 387.299307 146.137305 
L 388.382127 136.002324 
L 388.815255 133.540649 
L 389.031819 132.995774 
L 389.248383 133.020329 
L 389.464947 133.685592 
L 389.681511 135.05989 
L 390.11464 139.975714 
L 390.764332 151.478526 
L 392.496844 185.54352 
L 392.929973 189.5913 
L 393.146537 190.265455 
L 393.363101 189.938654 
L 393.579665 188.651445 
L 394.012793 183.599945 
L 394.662485 171.623524 
L 396.178434 140.399532 
L 396.611562 134.954012 
L 397.04469 132.51627 
L 397.261254 132.374545 
L 397.477818 132.86122 
L 397.910946 135.379716 
L 398.560639 141.667723 
L 399.860023 155.315139 
L 400.293151 158.334166 
L 400.726279 160.059055 
L 401.159407 160.677336 
L 401.375972 160.663706 
L 401.8091 160.231746 
L 403.758176 157.55567 
L 404.191305 157.43419 
L 404.624433 157.521952 
L 405.490689 157.83768 
L 406.140381 157.755427 
L 406.790073 157.425429 
L 407.65633 156.701829 
L 409.388842 155.145399 
L 410.255099 154.78899 
L 411.121355 154.70659 
L 412.204175 154.885064 
L 415.669201 155.731383 
L 417.618277 155.89172 
L 420.000482 155.862253 
L 424.764892 155.722878 
L 443.605966 155.736562 
L 495.581345 155.736562 
L 495.581345 155.736562 
" style="fill:none;stroke:#000000;stroke-linecap:square;stroke-width:1.5;"/>
   </g>
   <g id="patch_18">
    <path d="M 284.561309 193.16 
L 284.561309 129.48 
" style="fill:none;stroke:#000000;stroke-linecap:square;stroke-linejoin:miter;stroke-width:0.8;"/>
   </g>
   <g id="patch_19">
    <path d="M 505.629918 193.16 
L 505.629918 129.48 
" style="fill:none;stroke:#000000;stroke-linecap:square;stroke-linejoin:miter;stroke-width:0.8;"/>
   </g>
   <g id="patch_20">
    <path d="M 284.561309 193.16 
L 505.629918 193.16 
" style="fill:none;stroke:#000000;stroke-linecap:square;stroke-linejoin:miter;stroke-width:0.8;"/>
   </g>
   <g id="patch_21">
    <path d="M 284.561309 129.48 
L 505.629918 129.48 
" style="fill:none;stroke:#000000;stroke-linecap:square;stroke-linejoin:miter;stroke-width:0.8;"/>
   </g>
   <g id="text_37">
    <!-- coif5 -->
    <g transform="translate(383.145301 123.48)scale(0.12 -0.12)">
     <defs>
      <path d="M 2500 506 
Q 2500 453 2497 414 
Q 2494 375 2486 348 
Q 2478 322 2467 301 
Q 2456 281 2417 242 
Q 2378 203 2284 145 
Q 2191 88 2073 42 
Q 1956 -3 1818 -31 
Q 1681 -59 1534 -59 
Q 1231 -59 997 41 
Q 763 141 605 333 
Q 447 525 364 804 
Q 281 1084 281 1450 
Q 281 1866 382 2164 
Q 484 2463 661 2653 
Q 838 2844 1077 2936 
Q 1316 3028 1594 3028 
Q 1728 3028 1854 3003 
Q 1981 2978 2087 2937 
Q 2194 2897 2276 2844 
Q 2359 2791 2396 2753 
Q 2434 2716 2448 2694 
Q 2463 2672 2472 2642 
Q 2481 2613 2484 2575 
Q 2488 2538 2488 2481 
Q 2488 2359 2459 2311 
Q 2431 2263 2391 2263 
Q 2344 2263 2283 2314 
Q 2222 2366 2128 2428 
Q 2034 2491 1901 2542 
Q 1769 2594 1588 2594 
Q 1216 2594 1017 2308 
Q 819 2022 819 1478 
Q 819 1206 870 1001 
Q 922 797 1022 659 
Q 1122 522 1267 455 
Q 1413 388 1600 388 
Q 1778 388 1912 444 
Q 2047 500 2145 567 
Q 2244 634 2311 689 
Q 2378 744 2416 744 
Q 2438 744 2453 731 
Q 2469 719 2480 689 
Q 2491 659 2495 614 
Q 2500 569 2500 506 
z
" id="Calibri-63" transform="scale(0.015625)"/>
      <path d="M 3094 1516 
Q 3094 1172 3003 883 
Q 2913 594 2733 384 
Q 2553 175 2283 58 
Q 2013 -59 1656 -59 
Q 1309 -59 1051 44 
Q 794 147 622 344 
Q 450 541 365 822 
Q 281 1103 281 1459 
Q 281 1803 370 2092 
Q 459 2381 639 2590 
Q 819 2800 1087 2915 
Q 1356 3031 1716 3031 
Q 2063 3031 2320 2928 
Q 2578 2825 2750 2628 
Q 2922 2431 3008 2150 
Q 3094 1869 3094 1516 
z
M 2550 1481 
Q 2550 1709 2508 1912 
Q 2466 2116 2369 2269 
Q 2272 2422 2106 2511 
Q 1941 2600 1694 2600 
Q 1466 2600 1302 2519 
Q 1138 2438 1031 2289 
Q 925 2141 873 1937 
Q 822 1734 822 1494 
Q 822 1263 864 1059 
Q 906 856 1004 704 
Q 1103 553 1268 464 
Q 1434 375 1681 375 
Q 1906 375 2072 456 
Q 2238 538 2344 684 
Q 2450 831 2500 1034 
Q 2550 1238 2550 1481 
z
" id="Calibri-6f" transform="scale(0.015625)"/>
      <path d="M 994 78 
Q 994 53 981 36 
Q 969 19 941 6 
Q 913 -6 863 -12 
Q 813 -19 734 -19 
Q 659 -19 609 -12 
Q 559 -6 529 6 
Q 500 19 489 36 
Q 478 53 478 78 
L 478 2891 
Q 478 2913 489 2931 
Q 500 2950 529 2962 
Q 559 2975 609 2981 
Q 659 2988 734 2988 
Q 813 2988 863 2981 
Q 913 2975 941 2962 
Q 969 2950 981 2931 
Q 994 2913 994 2891 
L 994 78 
z
M 1053 3841 
Q 1053 3659 984 3593 
Q 916 3528 731 3528 
Q 550 3528 483 3592 
Q 416 3656 416 3834 
Q 416 4016 484 4081 
Q 553 4147 738 4147 
Q 919 4147 986 4083 
Q 1053 4019 1053 3841 
z
" id="Calibri-69" transform="scale(0.015625)"/>
      <path d="M 2019 4047 
Q 2019 3988 2012 3952 
Q 2006 3916 1998 3894 
Q 1991 3872 1978 3864 
Q 1966 3856 1947 3856 
Q 1925 3856 1892 3870 
Q 1859 3884 1812 3901 
Q 1766 3919 1702 3933 
Q 1638 3947 1553 3947 
Q 1438 3947 1356 3909 
Q 1275 3872 1225 3792 
Q 1175 3713 1153 3586 
Q 1131 3459 1131 3278 
L 1131 2972 
L 1759 2972 
Q 1784 2972 1801 2961 
Q 1819 2950 1833 2923 
Q 1847 2897 1855 2856 
Q 1863 2816 1863 2756 
Q 1863 2644 1834 2594 
Q 1806 2544 1759 2544 
L 1131 2544 
L 1131 78 
Q 1131 53 1118 36 
Q 1106 19 1076 6 
Q 1047 -6 997 -12 
Q 947 -19 872 -19 
Q 797 -19 747 -12 
Q 697 -6 667 6 
Q 638 19 625 36 
Q 613 53 613 78 
L 613 2544 
L 216 2544 
Q 166 2544 141 2594 
Q 116 2644 116 2756 
Q 116 2816 122 2856 
Q 128 2897 140 2923 
Q 153 2950 172 2961 
Q 191 2972 216 2972 
L 613 2972 
L 613 3263 
Q 613 3556 667 3767 
Q 722 3978 834 4112 
Q 947 4247 1117 4311 
Q 1288 4375 1519 4375 
Q 1628 4375 1731 4354 
Q 1834 4334 1890 4311 
Q 1947 4288 1965 4269 
Q 1984 4250 1996 4220 
Q 2009 4191 2014 4148 
Q 2019 4106 2019 4047 
z
" id="Calibri-66" transform="scale(0.015625)"/>
     </defs>
     <use xlink:href="#Calibri-63"/>
     <use x="42.285156" xlink:href="#Calibri-6f"/>
     <use x="95.019531" xlink:href="#Calibri-69"/>
     <use x="117.96875" xlink:href="#Calibri-66"/>
     <use x="148.486328" xlink:href="#Calibri-35"/>
    </g>
   </g>
  </g>
  <g id="axes_5">
   <g id="patch_22">
    <path d="M 35.44 297.56 
L 256.508609 297.56 
L 256.508609 233.88 
L 35.44 233.88 
z
" style="fill:#ffffff;"/>
   </g>
   <g id="matplotlib.axis_9">
    <g id="xtick_25">
     <g id="line2d_38">
      <g>
       <use style="stroke:#000000;stroke-width:0.8;" x="45.488573" xlink:href="#mbaa1e27fff" y="297.56"/>
      </g>
     </g>
     <g id="text_38">
      <!-- 0 -->
      <g transform="translate(42.954198 311.361562)scale(0.1 -0.1)">
       <use xlink:href="#Calibri-30"/>
      </g>
     </g>
    </g>
    <g id="xtick_26">
     <g id="line2d_39">
      <g>
       <use style="stroke:#000000;stroke-width:0.8;" x="104.706684" xlink:href="#mbaa1e27fff" y="297.56"/>
      </g>
     </g>
     <g id="text_39">
      <!-- 5 -->
      <g transform="translate(102.172309 311.361562)scale(0.1 -0.1)">
       <use xlink:href="#Calibri-35"/>
      </g>
     </g>
    </g>
    <g id="xtick_27">
     <g id="line2d_40">
      <g>
       <use style="stroke:#000000;stroke-width:0.8;" x="163.924794" xlink:href="#mbaa1e27fff" y="297.56"/>
      </g>
     </g>
     <g id="text_40">
      <!-- 10 -->
      <g transform="translate(158.856044 311.361562)scale(0.1 -0.1)">
       <use xlink:href="#Calibri-31"/>
       <use x="50.683594" xlink:href="#Calibri-30"/>
      </g>
     </g>
    </g>
    <g id="xtick_28">
     <g id="line2d_41">
      <g>
       <use style="stroke:#000000;stroke-width:0.8;" x="223.142904" xlink:href="#mbaa1e27fff" y="297.56"/>
      </g>
     </g>
     <g id="text_41">
      <!-- 15 -->
      <g transform="translate(218.074154 311.361562)scale(0.1 -0.1)">
       <use xlink:href="#Calibri-31"/>
       <use x="50.683594" xlink:href="#Calibri-35"/>
      </g>
     </g>
    </g>
   </g>
   <g id="matplotlib.axis_10">
    <g id="ytick_10">
     <g id="line2d_42">
      <g>
       <use style="stroke:#000000;stroke-width:0.8;" x="35.44" xlink:href="#mf21f58c8e2" y="296.055173"/>
      </g>
     </g>
     <g id="text_42">
      <!-- −1 -->
      <g transform="translate(18.39 299.455954)scale(0.1 -0.1)">
       <use xlink:href="#Calibri-2212"/>
       <use x="49.804688" xlink:href="#Calibri-31"/>
      </g>
     </g>
    </g>
    <g id="ytick_11">
     <g id="line2d_43">
      <g>
       <use style="stroke:#000000;stroke-width:0.8;" x="35.44" xlink:href="#mf21f58c8e2" y="272.018855"/>
      </g>
     </g>
     <g id="text_43">
      <!-- 0 -->
      <g transform="translate(23.37125 275.419637)scale(0.1 -0.1)">
       <use xlink:href="#Calibri-30"/>
      </g>
     </g>
    </g>
    <g id="ytick_12">
     <g id="line2d_44">
      <g>
       <use style="stroke:#000000;stroke-width:0.8;" x="35.44" xlink:href="#mf21f58c8e2" y="247.982538"/>
      </g>
     </g>
     <g id="text_44">
      <!-- 1 -->
      <g transform="translate(23.37125 251.38332)scale(0.1 -0.1)">
       <use xlink:href="#Calibri-31"/>
      </g>
     </g>
    </g>
   </g>
   <g id="line2d_45">
    <path clip-path="url(#p9390e0d7d9)" d="M 45.488573 272.018855 
L 109.148042 272.089319 
L 112.479061 272.435275 
L 115.439966 272.46779 
L 117.290532 272.223664 
L 119.511211 271.649479 
L 120.621551 271.118756 
L 122.472117 270.177921 
L 123.212343 270.106173 
L 125.062909 270.400015 
L 126.173249 270.322505 
L 128.764041 269.620694 
L 130.244494 268.189402 
L 130.614607 268.142779 
L 130.98472 268.332829 
L 131.354833 268.747436 
L 131.724946 269.538615 
L 132.465173 272.444059 
L 134.685852 284.267258 
L 135.796192 290.813905 
L 136.536418 293.797642 
L 136.906531 294.550905 
L 137.276644 294.665455 
L 137.646758 293.832229 
L 138.016871 291.789529 
L 138.757097 285.198574 
L 140.23755 268.23097 
L 142.088116 246.068713 
L 142.828342 239.602648 
L 143.198455 237.569841 
L 143.568569 236.774545 
L 143.938682 237.569841 
L 144.308795 239.602648 
L 145.049021 246.068713 
L 146.159361 258.806738 
L 148.009927 281.163461 
L 148.750153 288.824119 
L 149.120266 291.789529 
L 149.49038 293.832229 
L 149.860493 294.665455 
L 150.230606 294.550905 
L 150.600719 293.797642 
L 151.340946 290.813905 
L 152.081172 286.574764 
L 153.191512 280.125871 
L 155.042077 270.81252 
L 155.412191 269.538615 
L 155.782304 268.747436 
L 156.152417 268.332829 
L 156.52253 268.142779 
L 156.892643 268.189402 
L 157.63287 268.786118 
L 158.373096 269.620694 
L 159.113323 269.899413 
L 160.223662 270.090495 
L 160.963889 270.322505 
L 162.074228 270.400015 
L 163.184568 270.272532 
L 164.294907 270.091216 
L 165.035134 270.3317 
L 168.366152 271.862768 
L 170.956945 272.399853 
L 172.437397 272.481969 
L 176.138529 272.336424 
L 180.209774 271.937 
L 184.651133 272.055294 
L 187.982151 272.023476 
L 196.864868 272.019501 
L 246.460035 272.018855 
L 246.460035 272.018855 
" style="fill:none;stroke:#000000;stroke-linecap:square;stroke-width:1.5;"/>
   </g>
   <g id="patch_23">
    <path d="M 35.44 297.56 
L 35.44 233.88 
" style="fill:none;stroke:#000000;stroke-linecap:square;stroke-linejoin:miter;stroke-width:0.8;"/>
   </g>
   <g id="patch_24">
    <path d="M 256.508609 297.56 
L 256.508609 233.88 
" style="fill:none;stroke:#000000;stroke-linecap:square;stroke-linejoin:miter;stroke-width:0.8;"/>
   </g>
   <g id="patch_25">
    <path d="M 35.44 297.56 
L 256.508609 297.56 
" style="fill:none;stroke:#000000;stroke-linecap:square;stroke-linejoin:miter;stroke-width:0.8;"/>
   </g>
   <g id="patch_26">
    <path d="M 35.44 233.88 
L 256.508609 233.88 
" style="fill:none;stroke:#000000;stroke-linecap:square;stroke-linejoin:miter;stroke-width:0.8;"/>
   </g>
   <g id="text_45">
    <!-- bior6.8 -->
    <g transform="translate(128.591179 227.88)scale(0.12 -0.12)">
     <defs>
      <path d="M 2122 2706 
Q 2122 2638 2119 2591 
Q 2116 2544 2106 2517 
Q 2097 2491 2083 2477 
Q 2069 2463 2044 2463 
Q 2019 2463 1983 2477 
Q 1947 2491 1901 2505 
Q 1856 2519 1800 2531 
Q 1744 2544 1678 2544 
Q 1600 2544 1525 2512 
Q 1450 2481 1367 2409 
Q 1284 2338 1193 2219 
Q 1103 2100 994 1928 
L 994 78 
Q 994 53 981 36 
Q 969 19 941 6 
Q 913 -6 863 -12 
Q 813 -19 734 -19 
Q 659 -19 609 -12 
Q 559 -6 529 6 
Q 500 19 489 36 
Q 478 53 478 78 
L 478 2891 
Q 478 2916 487 2933 
Q 497 2950 525 2964 
Q 553 2978 597 2983 
Q 641 2988 713 2988 
Q 781 2988 826 2983 
Q 872 2978 897 2964 
Q 922 2950 933 2933 
Q 944 2916 944 2891 
L 944 2481 
Q 1059 2650 1161 2756 
Q 1263 2863 1353 2923 
Q 1444 2984 1533 3007 
Q 1622 3031 1713 3031 
Q 1753 3031 1804 3026 
Q 1856 3022 1912 3009 
Q 1969 2997 2014 2981 
Q 2059 2966 2078 2950 
Q 2097 2934 2103 2920 
Q 2109 2906 2114 2884 
Q 2119 2863 2120 2820 
Q 2122 2778 2122 2706 
z
" id="Calibri-72" transform="scale(0.015625)"/>
      <path d="M 2981 1038 
Q 2981 775 2887 570 
Q 2794 366 2617 225 
Q 2441 84 2181 12 
Q 1922 -59 1588 -59 
Q 1275 -59 1028 6 
Q 781 72 609 200 
Q 438 328 347 515 
Q 256 703 256 944 
Q 256 1134 318 1293 
Q 381 1453 498 1587 
Q 616 1722 787 1839 
Q 959 1956 1175 2063 
Q 988 2159 844 2267 
Q 700 2375 600 2501 
Q 500 2628 448 2772 
Q 397 2916 397 3084 
Q 397 3297 473 3483 
Q 550 3669 704 3806 
Q 859 3944 1098 4023 
Q 1338 4103 1656 4103 
Q 1963 4103 2186 4029 
Q 2409 3956 2554 3829 
Q 2700 3703 2769 3531 
Q 2838 3359 2838 3163 
Q 2838 3003 2786 2856 
Q 2734 2709 2634 2578 
Q 2534 2447 2389 2333 
Q 2244 2219 2056 2119 
Q 2278 2009 2451 1893 
Q 2625 1778 2742 1645 
Q 2859 1513 2920 1364 
Q 2981 1216 2981 1038 
z
M 2306 3113 
Q 2306 3244 2261 3350 
Q 2216 3456 2128 3531 
Q 2041 3606 1911 3645 
Q 1781 3684 1616 3684 
Q 1278 3684 1104 3531 
Q 931 3378 931 3113 
Q 931 2991 973 2886 
Q 1016 2781 1105 2687 
Q 1194 2594 1330 2505 
Q 1466 2416 1653 2319 
Q 1969 2481 2137 2678 
Q 2306 2875 2306 3113 
z
M 2438 981 
Q 2438 1125 2384 1242 
Q 2331 1359 2223 1461 
Q 2116 1563 1955 1658 
Q 1794 1753 1581 1856 
Q 1384 1759 1236 1662 
Q 1088 1566 992 1462 
Q 897 1359 848 1245 
Q 800 1131 800 994 
Q 800 691 1008 525 
Q 1216 359 1628 359 
Q 2028 359 2233 526 
Q 2438 694 2438 981 
z
" id="Calibri-38" transform="scale(0.015625)"/>
     </defs>
     <use xlink:href="#Calibri-62"/>
     <use x="52.539062" xlink:href="#Calibri-69"/>
     <use x="75.488281" xlink:href="#Calibri-6f"/>
     <use x="128.222656" xlink:href="#Calibri-72"/>
     <use x="163.085938" xlink:href="#Calibri-36"/>
     <use x="213.769531" xlink:href="#Calibri-2e"/>
     <use x="239.013672" xlink:href="#Calibri-38"/>
    </g>
   </g>
  </g>
  <g id="axes_6">
   <g id="patch_27">
    <path d="M 284.561309 297.56 
L 505.629918 297.56 
L 505.629918 233.88 
L 284.561309 233.88 
z
" style="fill:#ffffff;"/>
   </g>
   <g id="matplotlib.axis_11">
    <g id="xtick_29">
     <g id="line2d_46">
      <g>
       <use style="stroke:#000000;stroke-width:0.8;" x="294.609882" xlink:href="#mbaa1e27fff" y="297.56"/>
      </g>
     </g>
     <g id="text_46">
      <!-- 0 -->
      <g transform="translate(292.075507 311.361562)scale(0.1 -0.1)">
       <use xlink:href="#Calibri-30"/>
      </g>
     </g>
    </g>
    <g id="xtick_30">
     <g id="line2d_47">
      <g>
       <use style="stroke:#000000;stroke-width:0.8;" x="353.827993" xlink:href="#mbaa1e27fff" y="297.56"/>
      </g>
     </g>
     <g id="text_47">
      <!-- 5 -->
      <g transform="translate(351.293618 311.361562)scale(0.1 -0.1)">
       <use xlink:href="#Calibri-35"/>
      </g>
     </g>
    </g>
    <g id="xtick_31">
     <g id="line2d_48">
      <g>
       <use style="stroke:#000000;stroke-width:0.8;" x="413.046103" xlink:href="#mbaa1e27fff" y="297.56"/>
      </g>
     </g>
     <g id="text_48">
      <!-- 10 -->
      <g transform="translate(407.977353 311.361562)scale(0.1 -0.1)">
       <use xlink:href="#Calibri-31"/>
       <use x="50.683594" xlink:href="#Calibri-30"/>
      </g>
     </g>
    </g>
    <g id="xtick_32">
     <g id="line2d_49">
      <g>
       <use style="stroke:#000000;stroke-width:0.8;" x="472.264214" xlink:href="#mbaa1e27fff" y="297.56"/>
      </g>
     </g>
     <g id="text_49">
      <!-- 15 -->
      <g transform="translate(467.195464 311.361562)scale(0.1 -0.1)">
       <use xlink:href="#Calibri-31"/>
       <use x="50.683594" xlink:href="#Calibri-35"/>
      </g>
     </g>
    </g>
   </g>
   <g id="matplotlib.axis_12">
    <g id="ytick_13">
     <g id="line2d_50">
      <g>
       <use style="stroke:#000000;stroke-width:0.8;" x="284.561309" xlink:href="#mf21f58c8e2" y="273.1114"/>
      </g>
     </g>
     <g id="text_50">
      <!-- 0 -->
      <g transform="translate(272.492559 276.512181)scale(0.1 -0.1)">
       <use xlink:href="#Calibri-30"/>
      </g>
     </g>
    </g>
    <g id="ytick_14">
     <g id="line2d_51">
      <g>
       <use style="stroke:#000000;stroke-width:0.8;" x="284.561309" xlink:href="#mf21f58c8e2" y="245.798858"/>
      </g>
     </g>
     <g id="text_51">
      <!-- 1 -->
      <g transform="translate(272.492559 249.19964)scale(0.1 -0.1)">
       <use xlink:href="#Calibri-31"/>
      </g>
     </g>
    </g>
   </g>
   <g id="line2d_52">
    <path clip-path="url(#pb8bd109f94)" d="M 294.609882 273.1114 
L 346.795842 273.005178 
L 350.867087 272.984532 
L 353.087766 273.217625 
L 358.269351 273.848462 
L 360.49003 273.910987 
L 362.340596 273.751371 
L 363.821049 273.405276 
L 365.671615 272.722048 
L 372.333652 270.055148 
L 373.443992 270.044543 
L 374.924444 270.238943 
L 376.404897 270.617417 
L 378.625576 271.818792 
L 379.365803 272.409345 
L 380.106029 273.45573 
L 380.846256 275.275217 
L 381.586482 278.239377 
L 384.547387 291.762842 
L 385.287614 293.965425 
L 385.657727 294.566338 
L 386.02784 294.665455 
L 386.397953 294.155609 
L 386.768067 292.828292 
L 387.13818 290.493239 
L 387.878406 283.689638 
L 389.358859 266.513155 
L 390.839312 248.931133 
L 391.579538 241.93837 
L 391.949651 239.288591 
L 392.319764 237.471016 
L 392.689878 236.774545 
L 393.059991 237.471016 
L 393.430104 239.288591 
L 394.17033 245.234324 
L 395.28067 257.380739 
L 397.501349 283.689638 
L 398.241575 290.493239 
L 398.611689 292.828292 
L 398.981802 294.155609 
L 399.351915 294.665455 
L 399.722028 294.566338 
L 400.092141 293.965425 
L 400.832368 291.762842 
L 402.312821 285.210202 
L 404.5335 275.275217 
L 405.273726 273.45573 
L 406.013952 272.409345 
L 406.754179 271.818792 
L 410.085198 270.309032 
L 411.935764 270.044543 
L 413.046103 270.055148 
L 414.156443 270.322837 
L 416.007009 271.129424 
L 418.967914 272.416459 
L 421.558706 273.405276 
L 423.039159 273.751371 
L 424.889725 273.910987 
L 427.110404 273.848462 
L 430.811536 273.427108 
L 434.882781 272.968929 
L 437.843687 272.98293 
L 445.986177 273.113773 
L 470.043534 273.1114 
L 495.581345 273.1114 
L 495.581345 273.1114 
" style="fill:none;stroke:#000000;stroke-linecap:square;stroke-width:1.5;"/>
   </g>
   <g id="patch_28">
    <path d="M 284.561309 297.56 
L 284.561309 233.88 
" style="fill:none;stroke:#000000;stroke-linecap:square;stroke-linejoin:miter;stroke-width:0.8;"/>
   </g>
   <g id="patch_29">
    <path d="M 505.629918 297.56 
L 505.629918 233.88 
" style="fill:none;stroke:#000000;stroke-linecap:square;stroke-linejoin:miter;stroke-width:0.8;"/>
   </g>
   <g id="patch_30">
    <path d="M 284.561309 297.56 
L 505.629918 297.56 
" style="fill:none;stroke:#000000;stroke-linecap:square;stroke-linejoin:miter;stroke-width:0.8;"/>
   </g>
   <g id="patch_31">
    <path d="M 284.561309 233.88 
L 505.629918 233.88 
" style="fill:none;stroke:#000000;stroke-linecap:square;stroke-linejoin:miter;stroke-width:0.8;"/>
   </g>
   <g id="text_52">
    <!-- rbio6.8 -->
    <g transform="translate(377.712488 227.88)scale(0.12 -0.12)">
     <use xlink:href="#Calibri-72"/>
     <use x="34.863281" xlink:href="#Calibri-62"/>
     <use x="87.402344" xlink:href="#Calibri-69"/>
     <use x="110.351562" xlink:href="#Calibri-6f"/>
     <use x="163.085938" xlink:href="#Calibri-36"/>
     <use x="213.769531" xlink:href="#Calibri-2e"/>
     <use x="239.013672" xlink:href="#Calibri-38"/>
    </g>
   </g>
  </g>
 </g>
 <defs>
  <clipPath id="p97f63f253e">
   <rect height="63.68" width="221.068609" x="35.44" y="25.08"/>
  </clipPath>
  <clipPath id="pe82f987adf">
   <rect height="63.68" width="221.068609" x="284.561309" y="25.08"/>
  </clipPath>
  <clipPath id="pd904e1b7de">
   <rect height="63.68" width="221.068609" x="35.44" y="129.48"/>
  </clipPath>
  <clipPath id="pccec4a142c">
   <rect height="63.68" width="221.068609" x="284.561309" y="129.48"/>
  </clipPath>
  <clipPath id="p9390e0d7d9">
   <rect height="63.68" width="221.068609" x="35.44" y="233.88"/>
  </clipPath>
  <clipPath id="pb8bd109f94">
   <rect height="63.68" width="221.068609" x="284.561309" y="233.88"/>
  </clipPath>
 </defs>
</svg>
